999
"DXF R12 Output" (www.mydxf.blogspot.com)
 0 
SECTION
 2 
HEADER
 9 
$ACADVER
 1 
AC1009
 9 
$EXTMIN
 10 
 0 
 20 
 0 
 9 
$EXTMAX
 10 
 8.5 
 20 
 11 
 0 
ENDSEC
 0 
SECTION
 2 
ENTITIES
0
LINE
8
Layer 1
10
0.793749
20
127.642000
11
-0.793749
21
126.054000
0
LINE
8
Layer 1
10
0.000000
20
128.171000
11
0.000000
21
125.525000
0
LINE
8
Layer 1
10
2.116660
20
125.790000
11
1.058330
21
124.731670
0
LINE
8
Layer 1
10
1.587500
20
126.319000
11
0.529170
21
125.260670
0
LINE
8
Layer 1
10
1.058330
20
126.848000
11
0.000000
21
125.789670
0
LINE
8
Layer 1
10
1.573650
20
126.353000
11
0.087570
21
124.866680
0
LINE
8
Layer 1
10
0.830613
20
126.848000
11
0.830613
21
124.371000
0
LINE
8
Layer 1
10
2.812040
20
124.619000
11
1.821325
21
123.628282
0
LINE
8
Layer 1
10
2.316690
20
125.115000
11
1.325975
21
124.124282
0
LINE
8
Layer 1
10
1.821330
20
125.610000
11
0.830615
21
124.619285
0
LINE
8
Layer 1
10
40.680200
20
19.930800
11
53.846100
21
19.930800
0
LINE
8
Layer 1
10
53.846100
20
19.930800
11
53.846100
21
6.764210
0
LINE
8
Layer 1
10
53.846100
20
6.764210
11
40.680200
21
6.764210
0
LINE
8
Layer 1
10
40.680200
20
6.764210
11
40.680200
21
19.930800
0
LINE
8
Layer 1
10
27.513800
20
19.930800
11
40.680200
21
19.930800
0
LINE
8
Layer 1
10
40.680200
20
19.930800
11
40.680200
21
6.764210
0
LINE
8
Layer 1
10
40.680200
20
6.764210
11
27.513800
21
6.764210
0
LINE
8
Layer 1
10
27.513800
20
6.764210
11
27.513800
21
19.930800
0
LINE
8
Layer 1
10
14.347900
20
19.930800
11
27.513800
21
19.930800
0
LINE
8
Layer 1
10
27.513800
20
19.930800
11
27.513800
21
6.764210
0
LINE
8
Layer 1
10
27.513800
20
6.764210
11
14.347900
21
6.764210
0
LINE
8
Layer 1
10
14.347900
20
6.764210
11
14.347900
21
19.930800
0
LINE
8
Layer 1
10
53.846100
20
33.095000
11
67.012500
21
33.095000
0
LINE
8
Layer 1
10
67.012500
20
33.095000
11
67.012500
21
19.930800
0
LINE
8
Layer 1
10
67.012500
20
19.930800
11
53.846100
21
19.930800
0
LINE
8
Layer 1
10
53.846100
20
19.930800
11
53.846100
21
33.095000
0
LINE
8
Layer 1
10
1.181710
20
33.095000
11
14.347900
21
33.095000
0
LINE
8
Layer 1
10
14.347900
20
33.095000
11
14.347900
21
19.930800
0
LINE
8
Layer 1
10
14.347900
20
19.930800
11
1.181710
21
19.930800
0
LINE
8
Layer 1
10
1.181710
20
19.930800
11
1.181710
21
33.095000
0
LINE
8
Layer 1
10
53.846100
20
46.262100
11
67.012500
21
46.262100
0
LINE
8
Layer 1
10
67.012500
20
46.262100
11
67.012500
21
33.095000
0
LINE
8
Layer 1
10
67.012500
20
33.095000
11
53.846100
21
33.095000
0
LINE
8
Layer 1
10
53.846100
20
33.095000
11
53.846100
21
46.262100
0
LINE
8
Layer 1
10
1.181710
20
46.262100
11
14.347900
21
46.262100
0
LINE
8
Layer 1
10
14.347900
20
46.262100
11
14.347900
21
33.095000
0
LINE
8
Layer 1
10
14.347900
20
33.095000
11
1.181710
21
33.095000
0
LINE
8
Layer 1
10
1.181710
20
33.095000
11
1.181710
21
46.262100
0
LINE
8
Layer 1
10
53.846100
20
59.428200
11
67.012500
21
59.428200
0
LINE
8
Layer 1
10
67.012500
20
59.428200
11
67.012500
21
46.262100
0
LINE
8
Layer 1
10
67.012500
20
46.262100
11
53.846100
21
46.262100
0
LINE
8
Layer 1
10
53.846100
20
46.262100
11
53.846100
21
59.428200
0
LINE
8
Layer 1
10
1.181710
20
59.428200
11
14.347900
21
59.428200
0
LINE
8
Layer 1
10
14.347900
20
59.428200
11
14.347900
21
46.262100
0
LINE
8
Layer 1
10
14.347900
20
46.262100
11
1.181710
21
46.262100
0
LINE
8
Layer 1
10
1.181710
20
46.262100
11
1.181710
21
59.428200
0
LINE
8
Layer 1
10
53.846100
20
85.760500
11
67.012500
21
85.760500
0
LINE
8
Layer 1
10
67.012500
20
85.760500
11
67.012500
21
72.594400
0
LINE
8
Layer 1
10
67.012500
20
72.594400
11
53.846100
21
72.594400
0
LINE
8
Layer 1
10
53.846100
20
72.594400
11
53.846100
21
85.760500
0
LINE
8
Layer 1
10
1.181710
20
85.760500
11
14.347900
21
85.760500
0
LINE
8
Layer 1
10
14.347900
20
85.760500
11
14.347900
21
72.594400
0
LINE
8
Layer 1
10
14.347900
20
72.594400
11
1.181710
21
72.594400
0
LINE
8
Layer 1
10
1.181710
20
72.594400
11
1.181710
21
85.760500
0
LINE
8
Layer 1
10
53.846100
20
98.926600
11
67.012500
21
98.926600
0
LINE
8
Layer 1
10
67.012500
20
98.926600
11
67.012500
21
85.760500
0
LINE
8
Layer 1
10
67.012500
20
85.760500
11
53.846100
21
85.760500
0
LINE
8
Layer 1
10
53.846100
20
85.760500
11
53.846100
21
98.926600
0
LINE
8
Layer 1
10
1.181710
20
98.926600
11
14.347900
21
98.926600
0
LINE
8
Layer 1
10
14.347900
20
98.926600
11
14.347900
21
85.760500
0
LINE
8
Layer 1
10
14.347900
20
85.760500
11
1.181710
21
85.760500
0
LINE
8
Layer 1
10
1.181710
20
85.760500
11
1.181710
21
98.926600
0
LINE
8
Layer 1
10
53.846100
20
112.092000
11
67.012500
21
112.092000
0
LINE
8
Layer 1
10
67.012500
20
112.092000
11
67.012500
21
98.926600
0
LINE
8
Layer 1
10
67.012500
20
98.926600
11
53.846100
21
98.926600
0
LINE
8
Layer 1
10
53.846100
20
98.926600
11
53.846100
21
112.092000
0
LINE
8
Layer 1
10
1.181710
20
112.092000
11
14.347900
21
112.092000
0
LINE
8
Layer 1
10
14.347900
20
112.092000
11
14.347900
21
98.926600
0
LINE
8
Layer 1
10
14.347900
20
98.926600
11
1.181710
21
98.926600
0
LINE
8
Layer 1
10
1.181710
20
98.926600
11
1.181710
21
112.092000
0
LINE
8
Layer 1
10
40.680200
20
125.259000
11
53.846100
21
125.259000
0
LINE
8
Layer 1
10
53.846100
20
125.259000
11
53.846100
21
112.092000
0
LINE
8
Layer 1
10
53.846100
20
112.092000
11
40.680200
21
112.092000
0
LINE
8
Layer 1
10
40.680200
20
112.092000
11
40.680200
21
125.259000
0
LINE
8
Layer 1
10
27.513800
20
125.259000
11
40.680200
21
125.259000
0
LINE
8
Layer 1
10
40.680200
20
125.259000
11
40.680200
21
112.092000
0
LINE
8
Layer 1
10
40.680200
20
112.092000
11
27.513800
21
112.092000
0
LINE
8
Layer 1
10
27.513800
20
112.092000
11
27.513800
21
125.259000
0
LINE
8
Layer 1
10
14.347900
20
125.259000
11
27.513800
21
125.259000
0
LINE
8
Layer 1
10
27.513800
20
125.259000
11
27.513800
21
112.092000
0
LINE
8
Layer 1
10
27.513800
20
112.092000
11
14.347900
21
112.092000
0
LINE
8
Layer 1
10
14.347900
20
112.092000
11
14.347900
21
125.259000
0
LINE
8
Layer 1
10
121.521000
20
19.930800
11
134.686000
21
19.930800
0
LINE
8
Layer 1
10
134.686000
20
19.930800
11
134.686000
21
6.764210
0
LINE
8
Layer 1
10
134.686000
20
6.764210
11
121.521000
21
6.764210
0
LINE
8
Layer 1
10
121.521000
20
6.764210
11
121.521000
21
19.930800
0
LINE
8
Layer 1
10
108.354000
20
19.930800
11
121.521000
21
19.930800
0
LINE
8
Layer 1
10
121.521000
20
19.930800
11
121.521000
21
6.764210
0
LINE
8
Layer 1
10
121.521000
20
6.764210
11
108.354000
21
6.764210
0
LINE
8
Layer 1
10
108.354000
20
6.764210
11
108.354000
21
19.930800
0
LINE
8
Layer 1
10
95.187700
20
19.930800
11
108.354000
21
19.930800
0
LINE
8
Layer 1
10
108.354000
20
19.930800
11
108.354000
21
6.764210
0
LINE
8
Layer 1
10
108.354000
20
6.764210
11
95.187700
21
6.764210
0
LINE
8
Layer 1
10
95.187700
20
6.764210
11
95.187700
21
19.930800
0
LINE
8
Layer 1
10
82.021900
20
33.095000
11
95.187700
21
33.095000
0
LINE
8
Layer 1
10
95.187700
20
33.095000
11
95.187700
21
19.930800
0
LINE
8
Layer 1
10
95.187700
20
19.930800
11
82.021900
21
19.930800
0
LINE
8
Layer 1
10
82.021900
20
19.930800
11
82.021900
21
33.095000
0
LINE
8
Layer 1
10
82.021900
20
46.262100
11
95.187700
21
46.262100
0
LINE
8
Layer 1
10
95.187700
20
46.262100
11
95.187700
21
33.095000
0
LINE
8
Layer 1
10
95.187700
20
33.095000
11
82.021900
21
33.095000
0
LINE
8
Layer 1
10
82.021900
20
33.095000
11
82.021900
21
46.262100
0
LINE
8
Layer 1
10
82.021900
20
59.428200
11
95.187700
21
59.428200
0
LINE
8
Layer 1
10
95.187700
20
59.428200
11
95.187700
21
46.262100
0
LINE
8
Layer 1
10
95.187700
20
46.262100
11
82.021900
21
46.262100
0
LINE
8
Layer 1
10
82.021900
20
46.262100
11
82.021900
21
59.428200
0
LINE
8
Layer 1
10
121.521000
20
72.594400
11
134.686000
21
72.594400
0
LINE
8
Layer 1
10
134.686000
20
72.594400
11
134.686000
21
59.428200
0
LINE
8
Layer 1
10
134.686000
20
59.428200
11
121.521000
21
59.428200
0
LINE
8
Layer 1
10
121.521000
20
59.428200
11
121.521000
21
72.594400
0
LINE
8
Layer 1
10
108.354000
20
72.594400
11
121.521000
21
72.594400
0
LINE
8
Layer 1
10
121.521000
20
72.594400
11
121.521000
21
59.428200
0
LINE
8
Layer 1
10
121.521000
20
59.428200
11
108.354000
21
59.428200
0
LINE
8
Layer 1
10
108.354000
20
59.428200
11
108.354000
21
72.594400
0
LINE
8
Layer 1
10
95.187700
20
72.594400
11
108.354000
21
72.594400
0
LINE
8
Layer 1
10
108.354000
20
72.594400
11
108.354000
21
59.428200
0
LINE
8
Layer 1
10
108.354000
20
59.428200
11
95.187700
21
59.428200
0
LINE
8
Layer 1
10
95.187700
20
59.428200
11
95.187700
21
72.594400
0
LINE
8
Layer 1
10
134.686000
20
85.760500
11
147.852000
21
85.760500
0
LINE
8
Layer 1
10
147.852000
20
85.760500
11
147.852000
21
72.594400
0
LINE
8
Layer 1
10
147.852000
20
72.594400
11
134.686000
21
72.594400
0
LINE
8
Layer 1
10
134.686000
20
72.594400
11
134.686000
21
85.760500
0
LINE
8
Layer 1
10
134.686000
20
98.926600
11
147.852000
21
98.926600
0
LINE
8
Layer 1
10
147.852000
20
98.926600
11
147.852000
21
85.760500
0
LINE
8
Layer 1
10
147.852000
20
85.760500
11
134.686000
21
85.760500
0
LINE
8
Layer 1
10
134.686000
20
85.760500
11
134.686000
21
98.926600
0
LINE
8
Layer 1
10
134.686000
20
112.092000
11
147.852000
21
112.092000
0
LINE
8
Layer 1
10
147.852000
20
112.092000
11
147.852000
21
98.926600
0
LINE
8
Layer 1
10
147.852000
20
98.926600
11
134.686000
21
98.926600
0
LINE
8
Layer 1
10
134.686000
20
98.926600
11
134.686000
21
112.092000
0
LINE
8
Layer 1
10
121.521000
20
125.259000
11
134.686000
21
125.259000
0
LINE
8
Layer 1
10
134.686000
20
125.259000
11
134.686000
21
112.092000
0
LINE
8
Layer 1
10
134.686000
20
112.092000
11
121.521000
21
112.092000
0
LINE
8
Layer 1
10
121.521000
20
112.092000
11
121.521000
21
125.259000
0
LINE
8
Layer 1
10
108.354000
20
125.259000
11
121.521000
21
125.259000
0
LINE
8
Layer 1
10
121.521000
20
125.259000
11
121.521000
21
112.092000
0
LINE
8
Layer 1
10
121.521000
20
112.092000
11
108.354000
21
112.092000
0
LINE
8
Layer 1
10
108.354000
20
112.092000
11
108.354000
21
125.259000
0
LINE
8
Layer 1
10
95.187700
20
125.259000
11
108.354000
21
125.259000
0
LINE
8
Layer 1
10
108.354000
20
125.259000
11
108.354000
21
112.092000
0
LINE
8
Layer 1
10
108.354000
20
112.092000
11
95.187700
21
112.092000
0
LINE
8
Layer 1
10
95.187700
20
112.092000
11
95.187700
21
125.259000
0
LINE
8
Layer 1
10
202.360000
20
19.930800
11
215.527000
21
19.930800
0
LINE
8
Layer 1
10
215.527000
20
19.930800
11
215.527000
21
6.764210
0
LINE
8
Layer 1
10
215.527000
20
6.764210
11
202.360000
21
6.764210
0
LINE
8
Layer 1
10
202.360000
20
6.764210
11
202.360000
21
19.930800
0
LINE
8
Layer 1
10
189.194000
20
19.930800
11
202.360000
21
19.930800
0
LINE
8
Layer 1
10
202.360000
20
19.930800
11
202.360000
21
6.764210
0
LINE
8
Layer 1
10
202.360000
20
6.764210
11
189.194000
21
6.764210
0
LINE
8
Layer 1
10
189.194000
20
6.764210
11
189.194000
21
19.930800
0
LINE
8
Layer 1
10
176.028000
20
19.930800
11
189.194000
21
19.930800
0
LINE
8
Layer 1
10
189.194000
20
19.930800
11
189.194000
21
6.764210
0
LINE
8
Layer 1
10
189.194000
20
6.764210
11
176.028000
21
6.764210
0
LINE
8
Layer 1
10
176.028000
20
6.764210
11
176.028000
21
19.930800
0
LINE
8
Layer 1
10
215.527000
20
33.095000
11
228.692000
21
33.095000
0
LINE
8
Layer 1
10
228.692000
20
33.095000
11
228.692000
21
19.930800
0
LINE
8
Layer 1
10
228.692000
20
19.930800
11
215.527000
21
19.930800
0
LINE
8
Layer 1
10
215.527000
20
19.930800
11
215.527000
21
33.095000
0
LINE
8
Layer 1
10
162.862000
20
33.095000
11
176.028000
21
33.095000
0
LINE
8
Layer 1
10
176.028000
20
33.095000
11
176.028000
21
19.930800
0
LINE
8
Layer 1
10
176.028000
20
19.930800
11
162.862000
21
19.930800
0
LINE
8
Layer 1
10
162.862000
20
19.930800
11
162.862000
21
33.095000
0
LINE
8
Layer 1
10
215.527000
20
46.262100
11
228.692000
21
46.262100
0
LINE
8
Layer 1
10
228.692000
20
46.262100
11
228.692000
21
33.095000
0
LINE
8
Layer 1
10
228.692000
20
33.095000
11
215.527000
21
33.095000
0
LINE
8
Layer 1
10
215.527000
20
33.095000
11
215.527000
21
46.262100
0
LINE
8
Layer 1
10
162.862000
20
46.262100
11
176.028000
21
46.262100
0
LINE
8
Layer 1
10
176.028000
20
46.262100
11
176.028000
21
33.095000
0
LINE
8
Layer 1
10
176.028000
20
33.095000
11
162.862000
21
33.095000
0
LINE
8
Layer 1
10
162.862000
20
33.095000
11
162.862000
21
46.262100
0
LINE
8
Layer 1
10
215.527000
20
59.428200
11
228.692000
21
59.428200
0
LINE
8
Layer 1
10
228.692000
20
59.428200
11
228.692000
21
46.262100
0
LINE
8
Layer 1
10
228.692000
20
46.262100
11
215.527000
21
46.262100
0
LINE
8
Layer 1
10
215.527000
20
46.262100
11
215.527000
21
59.428200
0
LINE
8
Layer 1
10
162.862000
20
59.428200
11
176.028000
21
59.428200
0
LINE
8
Layer 1
10
176.028000
20
59.428200
11
176.028000
21
46.262100
0
LINE
8
Layer 1
10
176.028000
20
46.262100
11
162.862000
21
46.262100
0
LINE
8
Layer 1
10
162.862000
20
46.262100
11
162.862000
21
59.428200
0
LINE
8
Layer 1
10
202.360000
20
72.594400
11
215.527000
21
72.594400
0
LINE
8
Layer 1
10
215.527000
20
72.594400
11
215.527000
21
59.428200
0
LINE
8
Layer 1
10
215.527000
20
59.428200
11
202.360000
21
59.428200
0
LINE
8
Layer 1
10
202.360000
20
59.428200
11
202.360000
21
72.594400
0
LINE
8
Layer 1
10
189.194000
20
72.594400
11
202.360000
21
72.594400
0
LINE
8
Layer 1
10
202.360000
20
72.594400
11
202.360000
21
59.428200
0
LINE
8
Layer 1
10
202.360000
20
59.428200
11
189.194000
21
59.428200
0
LINE
8
Layer 1
10
189.194000
20
59.428200
11
189.194000
21
72.594400
0
LINE
8
Layer 1
10
176.028000
20
72.594400
11
189.194000
21
72.594400
0
LINE
8
Layer 1
10
189.194000
20
72.594400
11
189.194000
21
59.428200
0
LINE
8
Layer 1
10
189.194000
20
59.428200
11
176.028000
21
59.428200
0
LINE
8
Layer 1
10
176.028000
20
59.428200
11
176.028000
21
72.594400
0
LINE
8
Layer 1
10
162.862000
20
85.760500
11
176.028000
21
85.760500
0
LINE
8
Layer 1
10
176.028000
20
85.760500
11
176.028000
21
72.594400
0
LINE
8
Layer 1
10
176.028000
20
72.594400
11
162.862000
21
72.594400
0
LINE
8
Layer 1
10
162.862000
20
72.594400
11
162.862000
21
85.760500
0
LINE
8
Layer 1
10
162.862000
20
98.926600
11
176.028000
21
98.926600
0
LINE
8
Layer 1
10
176.028000
20
98.926600
11
176.028000
21
85.760500
0
LINE
8
Layer 1
10
176.028000
20
85.760500
11
162.862000
21
85.760500
0
LINE
8
Layer 1
10
162.862000
20
85.760500
11
162.862000
21
98.926600
0
LINE
8
Layer 1
10
162.862000
20
112.092000
11
176.028000
21
112.092000
0
LINE
8
Layer 1
10
176.028000
20
112.092000
11
176.028000
21
98.926600
0
LINE
8
Layer 1
10
176.028000
20
98.926600
11
162.862000
21
98.926600
0
LINE
8
Layer 1
10
162.862000
20
98.926600
11
162.862000
21
112.092000
0
LINE
8
Layer 1
10
202.360000
20
125.259000
11
215.527000
21
125.259000
0
LINE
8
Layer 1
10
215.527000
20
125.259000
11
215.527000
21
112.092000
0
LINE
8
Layer 1
10
215.527000
20
112.092000
11
202.360000
21
112.092000
0
LINE
8
Layer 1
10
202.360000
20
112.092000
11
202.360000
21
125.259000
0
LINE
8
Layer 1
10
189.194000
20
125.259000
11
202.360000
21
125.259000
0
LINE
8
Layer 1
10
202.360000
20
125.259000
11
202.360000
21
112.092000
0
LINE
8
Layer 1
10
202.360000
20
112.092000
11
189.194000
21
112.092000
0
LINE
8
Layer 1
10
189.194000
20
112.092000
11
189.194000
21
125.259000
0
LINE
8
Layer 1
10
176.028000
20
125.259000
11
189.194000
21
125.259000
0
LINE
8
Layer 1
10
189.194000
20
125.259000
11
189.194000
21
112.092000
0
LINE
8
Layer 1
10
189.194000
20
112.092000
11
176.028000
21
112.092000
0
LINE
8
Layer 1
10
176.028000
20
112.092000
11
176.028000
21
125.259000
 0 
ENDSEC
 0 
EOF