  0
SECTION
  2
HEADER
  9
$ACADVER
  1
AC1014
  9
$HANDSEED
  5
FFFF
  9
$MEASUREMENT
 70
     1
  0
ENDSEC
  0
SECTION
  2
TABLES
  0
TABLE
  2
VPORT
  5
8
330
0
100
AcDbSymbolTable
 70
     4
  0
VPORT
  5
2E
330
8
100
AcDbSymbolTableRecord
100
AcDbViewportTableRecord
  2
*ACTIVE
 70
     0
 10
0.0
 20
0.0
 11
1.0
 21
1.0
 12
210.0
 22
148.5
 13
0.0
 23
0.0
 14
10.0
 24
10.0
 15
10.0
 25
10.0
 16
0.0
 26
0.0
 36
1.0
 17
0.0
 27
0.0
 37
0.0
 40
341.0
 41
1.24
 42
50.0
 43
0.0
 44
0.0
 50
0.0
 51
0.0
 71
     0
 72
   100
 73
     1
 74
     3
 75
     0
 76
     0
 77
     0
 78
     0
  0
ENDTAB
  0
TABLE
  2
LTYPE
  5
5
330
0
100
AcDbSymbolTable
 70
     1
  0
LTYPE
  5
14
330
5
100
AcDbSymbolTableRecord
100
AcDbLinetypeTableRecord
  2
BYBLOCK
 70
     0
  3

 72
    65
 73
     0
 40
0.0
  0
LTYPE
  5
15
330
5
100
AcDbSymbolTableRecord
100
AcDbLinetypeTableRecord
  2
BYLAYER
 70
     0
  3

 72
    65
 73
     0
 40
0.0
  0
LTYPE
  5
16
330
5
100
AcDbSymbolTableRecord
100
AcDbLinetypeTableRecord
  2
CONTINUOUS
 70
     0
  3
Solid line
 72
    65
 73
     0
 40
0.0
  0
ENDTAB
  0
TABLE
  2
LAYER
  5
2
100
AcDbSymbolTable
 70
2
  0
LAYER
  5
50
100
AcDbSymbolTableRecord
100
AcDbLayerTableRecord
  2
0
 70
0
  6
CONTINUOUS
  0
LAYER
  5
51
100
AcDbSymbolTableRecord
100
AcDbLayerTableRecord
  2
Layer_1
 70
0
  6
CONTINUOUS
  0
ENDTAB
  0
TABLE
  2
STYLE
  5
3
330
0
100
AcDbSymbolTable
 70
     1
  0
STYLE
  5
11
330
3
100
AcDbSymbolTableRecord
100
AcDbTextStyleTableRecord
  2
STANDARD
 70
     0
 40
0.0
 41
1.0
 50
0.0
 71
     0
 42
2.5
  3
txt
  4

  0
ENDTAB
  0
TABLE
  2
VIEW
  5
6
330
0
100
AcDbSymbolTable
 70
     0
  0
ENDTAB
  0
TABLE
  2
UCS
  5
7
330
0
100
AcDbSymbolTable
 70
     0
  0
ENDTAB
  0
TABLE
  2
APPID
  5
9
330
0
100
AcDbSymbolTable
 70
     2
  0
APPID
  5
12
330
9
100
AcDbSymbolTableRecord
100
AcDbRegAppTableRecord
  2
ACAD
 70
     0
  0
ENDTAB
  0
TABLE
  2
DIMSTYLE
  5
A
330
0
100
AcDbSymbolTable
 70
     1
  0
DIMSTYLE
105
27
330
A
100
AcDbSymbolTableRecord
100
AcDbDimStyleTableRecord
  2
ISO-25
 70
     0
  3

  4

  5

  6

  7

 40
1.0
 41
2.5
 42
0.625
 43
3.75
 44
1.25
 45
0.0
 46
0.0
 47
0.0
 48
0.0
140
2.5
141
2.5
142
0.0
143
0.03937007874016
144
1.0
145
0.0
146
1.0
147
0.625
 71
     0
 72
     0
 73
     0
 74
     0
 75
     0
 76
     0
 77
     1
 78
     8
170
     0
171
     3
172
     1
173
     0
174
     0
175
     0
176
     0
177
     0
178
     0
270
     2
271
     2
272
     2
273
     2
274
     3
340
11
275
     0
280
     0
281
     0
282
     0
283
     0
284
     8
285
     0
286
     0
287
     3
288
     0
  0
ENDTAB
  0
TABLE
  2
BLOCK_RECORD
  5
1
330
0
100
AcDbSymbolTable
 70
     1
  0
BLOCK_RECORD
  5
1F
330
1
100
AcDbSymbolTableRecord
100
AcDbBlockTableRecord
  2
*MODEL_SPACE
  0
BLOCK_RECORD
  5
1B
330
1
100
AcDbSymbolTableRecord
100
AcDbBlockTableRecord
  2
*PAPER_SPACE
  0
ENDTAB
  0
ENDSEC
  0
SECTION
  2
BLOCKS
  0
BLOCK
  5
20
330
1F
100
AcDbEntity
  8
0
100
AcDbBlockBegin
  2
*MODEL_SPACE
 70
     0
 10
0.0
 20
0.0
 30
0.0
  3
*MODEL_SPACE
  1

  0
ENDBLK
  5
21
330
1F
100
AcDbEntity
  8
0
100
AcDbBlockEnd
  0
BLOCK
  5
1C
330
1B
100
AcDbEntity
 67
     1
  8
0
100
AcDbBlockBegin
  2
*PAPER_SPACE
  1

  0
ENDBLK
  5
1D
330
1B
100
AcDbEntity
 67
     1
  8
0
100
AcDbBlockEnd
  0
ENDSEC
  0
SECTION
  2
ENTITIES
  0
LWPOLYLINE
  5
100
100
AcDbEntity
  8
Layer_1
 62
7
100
AcDbPolyline
 90
12
 70
1
 10
31.496063
 20
283.464567
 30
0.0
 10
41.994740
 20
283.464567
 30
0.0
 10
52.493369
 20
283.464567
 30
0.0
 10
62.992125
 20
283.464567
 30
0.0
 10
62.992125
 20
272.965890
 30
0.0
 10
62.992125
 20
262.467261
 30
0.0
 10
62.992125
 20
251.968504
 30
0.0
 10
52.493448
 20
251.968504
 30
0.0
 10
41.994819
 20
251.968504
 30
0.0
 10
31.496063
 20
251.968504
 30
0.0
 10
31.496063
 20
262.467181
 30
0.0
 10
31.496063
 20
272.965810
 30
0.0
  0
LWPOLYLINE
  5
101
100
AcDbEntity
  8
Layer_1
 62
7
100
AcDbPolyline
 90
12
 70
1
 10
62.992125
 20
283.464567
 30
0.0
 10
73.490803
 20
283.464567
 30
0.0
 10
83.989431
 20
283.464567
 30
0.0
 10
94.488191
 20
283.464567
 30
0.0
 10
94.488191
 20
272.965890
 30
0.0
 10
94.488191
 20
262.467261
 30
0.0
 10
94.488191
 20
251.968504
 30
0.0
 10
83.989514
 20
251.968504
 30
0.0
 10
73.490885
 20
251.968504
 30
0.0
 10
62.992125
 20
251.968504
 30
0.0
 10
62.992125
 20
262.467181
 30
0.0
 10
62.992125
 20
272.965810
 30
0.0
  0
LWPOLYLINE
  5
102
100
AcDbEntity
  8
Layer_1
 62
7
100
AcDbPolyline
 90
12
 70
1
 10
94.488191
 20
283.464567
 30
0.0
 10
104.986868
 20
283.464567
 30
0.0
 10
115.485497
 20
283.464567
 30
0.0
 10
125.984254
 20
283.464567
 30
0.0
 10
125.984254
 20
272.965890
 30
0.0
 10
125.984254
 20
262.467261
 30
0.0
 10
125.984254
 20
251.968504
 30
0.0
 10
115.485576
 20
251.968504
 30
0.0
 10
104.986947
 20
251.968504
 30
0.0
 10
94.488191
 20
251.968504
 30
0.0
 10
94.488191
 20
262.467181
 30
0.0
 10
94.488191
 20
272.965810
 30
0.0
  0
LWPOLYLINE
  5
103
100
AcDbEntity
  8
Layer_1
 62
7
100
AcDbPolyline
 90
12
 70
1
 10
-1.500001
 20
251.968504
 30
0.0
 10
8.998676
 20
251.968504
 30
0.0
 10
19.497305
 20
251.968504
 30
0.0
 10
29.996062
 20
251.968504
 30
0.0
 10
29.996062
 20
241.469827
 30
0.0
 10
29.996062
 20
230.971198
 30
0.0
 10
29.996062
 20
220.472439
 30
0.0
 10
19.497385
 20
220.472439
 30
0.0
 10
8.998756
 20
220.472439
 30
0.0
 10
-1.500001
 20
220.472439
 30
0.0
 10
-1.500001
 20
230.971116
 30
0.0
 10
-1.500001
 20
241.469745
 30
0.0
  0
LWPOLYLINE
  5
104
100
AcDbEntity
  8
Layer_1
 62
7
100
AcDbPolyline
 90
12
 70
1
 10
127.484254
 20
251.968504
 30
0.0
 10
137.982932
 20
251.968504
 30
0.0
 10
148.481561
 20
251.968504
 30
0.0
 10
158.980317
 20
251.968504
 30
0.0
 10
158.980317
 20
241.469827
 30
0.0
 10
158.980317
 20
230.971198
 30
0.0
 10
158.980317
 20
220.472439
 30
0.0
 10
148.481640
 20
220.472439
 30
0.0
 10
137.983011
 20
220.472439
 30
0.0
 10
127.484254
 20
220.472439
 30
0.0
 10
127.484254
 20
230.971116
 30
0.0
 10
127.484254
 20
241.469745
 30
0.0
  0
LWPOLYLINE
  5
105
100
AcDbEntity
  8
Layer_1
 62
7
100
AcDbPolyline
 90
12
 70
1
 10
-1.500001
 20
220.472439
 30
0.0
 10
8.998676
 20
220.472439
 30
0.0
 10
19.497305
 20
220.472439
 30
0.0
 10
29.996062
 20
220.472439
 30
0.0
 10
29.996062
 20
209.973762
 30
0.0
 10
29.996062
 20
199.475133
 30
0.0
 10
29.996062
 20
188.976376
 30
0.0
 10
19.497385
 20
188.976376
 30
0.0
 10
8.998756
 20
188.976376
 30
0.0
 10
-1.500001
 20
188.976376
 30
0.0
 10
-1.500001
 20
199.475053
 30
0.0
 10
-1.500001
 20
209.973682
 30
0.0
  0
LWPOLYLINE
  5
106
100
AcDbEntity
  8
Layer_1
 62
7
100
AcDbPolyline
 90
12
 70
1
 10
127.484254
 20
220.472439
 30
0.0
 10
137.982932
 20
220.472439
 30
0.0
 10
148.481561
 20
220.472439
 30
0.0
 10
158.980317
 20
220.472439
 30
0.0
 10
158.980317
 20
209.973762
 30
0.0
 10
158.980317
 20
199.475133
 30
0.0
 10
158.980317
 20
188.976376
 30
0.0
 10
148.481640
 20
188.976376
 30
0.0
 10
137.983011
 20
188.976376
 30
0.0
 10
127.484254
 20
188.976376
 30
0.0
 10
127.484254
 20
199.475053
 30
0.0
 10
127.484254
 20
209.973682
 30
0.0
  0
LWPOLYLINE
  5
107
100
AcDbEntity
  8
Layer_1
 62
7
100
AcDbPolyline
 90
12
 70
1
 10
-1.500001
 20
188.976376
 30
0.0
 10
8.998676
 20
188.976376
 30
0.0
 10
19.497305
 20
188.976376
 30
0.0
 10
29.996062
 20
188.976376
 30
0.0
 10
29.996062
 20
178.477699
 30
0.0
 10
29.996062
 20
167.979070
 30
0.0
 10
29.996062
 20
157.480313
 30
0.0
 10
19.497385
 20
157.480313
 30
0.0
 10
8.998756
 20
157.480313
 30
0.0
 10
-1.500001
 20
157.480313
 30
0.0
 10
-1.500001
 20
167.978991
 30
0.0
 10
-1.500001
 20
178.477620
 30
0.0
  0
LWPOLYLINE
  5
108
100
AcDbEntity
  8
Layer_1
 62
7
100
AcDbPolyline
 90
12
 70
1
 10
127.484254
 20
188.976376
 30
0.0
 10
137.982932
 20
188.976376
 30
0.0
 10
148.481561
 20
188.976376
 30
0.0
 10
158.980317
 20
188.976376
 30
0.0
 10
158.980317
 20
178.477699
 30
0.0
 10
158.980317
 20
167.979070
 30
0.0
 10
158.980317
 20
157.480313
 30
0.0
 10
148.481640
 20
157.480313
 30
0.0
 10
137.983011
 20
157.480313
 30
0.0
 10
127.484254
 20
157.480313
 30
0.0
 10
127.484254
 20
167.978991
 30
0.0
 10
127.484254
 20
178.477620
 30
0.0
  0
LWPOLYLINE
  5
109
100
AcDbEntity
  8
Layer_1
 62
7
100
AcDbPolyline
 90
12
 70
1
 10
-1.500001
 20
125.984251
 30
0.0
 10
8.998676
 20
125.984251
 30
0.0
 10
19.497305
 20
125.984251
 30
0.0
 10
29.996062
 20
125.984251
 30
0.0
 10
29.996062
 20
115.485574
 30
0.0
 10
29.996062
 20
104.986945
 30
0.0
 10
29.996062
 20
94.488188
 30
0.0
 10
19.497385
 20
94.488188
 30
0.0
 10
8.998756
 20
94.488188
 30
0.0
 10
-1.500001
 20
94.488188
 30
0.0
 10
-1.500001
 20
104.986865
 30
0.0
 10
-1.500001
 20
115.485494
 30
0.0
  0
LWPOLYLINE
  5
10a
100
AcDbEntity
  8
Layer_1
 62
7
100
AcDbPolyline
 90
12
 70
1
 10
127.484254
 20
125.984251
 30
0.0
 10
137.982932
 20
125.984251
 30
0.0
 10
148.481561
 20
125.984251
 30
0.0
 10
158.980317
 20
125.984251
 30
0.0
 10
158.980317
 20
115.485574
 30
0.0
 10
158.980317
 20
104.986945
 30
0.0
 10
158.980317
 20
94.488188
 30
0.0
 10
148.481640
 20
94.488188
 30
0.0
 10
137.983011
 20
94.488188
 30
0.0
 10
127.484254
 20
94.488188
 30
0.0
 10
127.484254
 20
104.986865
 30
0.0
 10
127.484254
 20
115.485494
 30
0.0
  0
LWPOLYLINE
  5
10b
100
AcDbEntity
  8
Layer_1
 62
7
100
AcDbPolyline
 90
12
 70
1
 10
-1.500001
 20
94.488188
 30
0.0
 10
8.998676
 20
94.488188
 30
0.0
 10
19.497305
 20
94.488188
 30
0.0
 10
29.996062
 20
94.488188
 30
0.0
 10
29.996062
 20
83.989511
 30
0.0
 10
29.996062
 20
73.490882
 30
0.0
 10
29.996062
 20
62.992124
 30
0.0
 10
19.497385
 20
62.992124
 30
0.0
 10
8.998756
 20
62.992124
 30
0.0
 10
-1.500001
 20
62.992124
 30
0.0
 10
-1.500001
 20
73.490801
 30
0.0
 10
-1.500001
 20
83.989430
 30
0.0
  0
LWPOLYLINE
  5
10c
100
AcDbEntity
  8
Layer_1
 62
7
100
AcDbPolyline
 90
12
 70
1
 10
127.484254
 20
94.488188
 30
0.0
 10
137.982932
 20
94.488188
 30
0.0
 10
148.481561
 20
94.488188
 30
0.0
 10
158.980317
 20
94.488188
 30
0.0
 10
158.980317
 20
83.989511
 30
0.0
 10
158.980317
 20
73.490882
 30
0.0
 10
158.980317
 20
62.992124
 30
0.0
 10
148.481640
 20
62.992124
 30
0.0
 10
137.983011
 20
62.992124
 30
0.0
 10
127.484254
 20
62.992124
 30
0.0
 10
127.484254
 20
73.490801
 30
0.0
 10
127.484254
 20
83.989430
 30
0.0
  0
LWPOLYLINE
  5
10d
100
AcDbEntity
  8
Layer_1
 62
7
100
AcDbPolyline
 90
12
 70
1
 10
-1.500001
 20
62.992124
 30
0.0
 10
8.998676
 20
62.992124
 30
0.0
 10
19.497305
 20
62.992124
 30
0.0
 10
29.996062
 20
62.992124
 30
0.0
 10
29.996062
 20
52.493447
 30
0.0
 10
29.996062
 20
41.994818
 30
0.0
 10
29.996062
 20
31.496060
 30
0.0
 10
19.497385
 20
31.496060
 30
0.0
 10
8.998756
 20
31.496060
 30
0.0
 10
-1.500001
 20
31.496060
 30
0.0
 10
-1.500001
 20
41.994736
 30
0.0
 10
-1.500001
 20
52.493366
 30
0.0
  0
LWPOLYLINE
  5
10e
100
AcDbEntity
  8
Layer_1
 62
7
100
AcDbPolyline
 90
12
 70
1
 10
127.484254
 20
62.992124
 30
0.0
 10
137.982932
 20
62.992124
 30
0.0
 10
148.481561
 20
62.992124
 30
0.0
 10
158.980317
 20
62.992124
 30
0.0
 10
158.980317
 20
52.493447
 30
0.0
 10
158.980317
 20
41.994818
 30
0.0
 10
158.980317
 20
31.496060
 30
0.0
 10
148.481640
 20
31.496060
 30
0.0
 10
137.983011
 20
31.496060
 30
0.0
 10
127.484254
 20
31.496060
 30
0.0
 10
127.484254
 20
41.994736
 30
0.0
 10
127.484254
 20
52.493366
 30
0.0
  0
LWPOLYLINE
  5
10f
100
AcDbEntity
  8
Layer_1
 62
7
100
AcDbPolyline
 90
12
 70
1
 10
31.496063
 20
31.496060
 30
0.0
 10
41.994740
 20
31.496060
 30
0.0
 10
52.493369
 20
31.496060
 30
0.0
 10
62.992125
 20
31.496060
 30
0.0
 10
62.992125
 20
20.997383
 30
0.0
 10
62.992125
 20
10.498754
 30
0.0
 10
62.992125
 20
-0.000003
 30
0.0
 10
52.493448
 20
-0.000003
 30
0.0
 10
41.994819
 20
-0.000003
 30
0.0
 10
31.496063
 20
-0.000003
 30
0.0
 10
31.496063
 20
10.498674
 30
0.0
 10
31.496063
 20
20.997303
 30
0.0
  0
LWPOLYLINE
  5
110
100
AcDbEntity
  8
Layer_1
 62
7
100
AcDbPolyline
 90
12
 70
1
 10
62.992125
 20
31.496060
 30
0.0
 10
73.490803
 20
31.496060
 30
0.0
 10
83.989431
 20
31.496060
 30
0.0
 10
94.488191
 20
31.496060
 30
0.0
 10
94.488191
 20
20.997383
 30
0.0
 10
94.488191
 20
10.498754
 30
0.0
 10
94.488191
 20
-0.000003
 30
0.0
 10
83.989514
 20
-0.000003
 30
0.0
 10
73.490885
 20
-0.000003
 30
0.0
 10
62.992125
 20
-0.000003
 30
0.0
 10
62.992125
 20
10.498674
 30
0.0
 10
62.992125
 20
20.997303
 30
0.0
  0
LWPOLYLINE
  5
111
100
AcDbEntity
  8
Layer_1
 62
7
100
AcDbPolyline
 90
12
 70
1
 10
94.488191
 20
31.496060
 30
0.0
 10
104.986868
 20
31.496060
 30
0.0
 10
115.485497
 20
31.496060
 30
0.0
 10
125.984254
 20
31.496060
 30
0.0
 10
125.984254
 20
20.997383
 30
0.0
 10
125.984254
 20
10.498754
 30
0.0
 10
125.984254
 20
-0.000003
 30
0.0
 10
115.485576
 20
-0.000003
 30
0.0
 10
104.986947
 20
-0.000003
 30
0.0
 10
94.488191
 20
-0.000003
 30
0.0
 10
94.488191
 20
10.498674
 30
0.0
 10
94.488191
 20
20.997303
 30
0.0
  0
LWPOLYLINE
  5
112
100
AcDbEntity
  8
Layer_1
 62
7
100
AcDbPolyline
 90
12
 70
1
 10
224.881889
 20
283.464567
 30
0.0
 10
235.380560
 20
283.464567
 30
0.0
 10
245.879178
 20
283.464567
 30
0.0
 10
256.377940
 20
283.464567
 30
0.0
 10
256.377940
 20
272.965890
 30
0.0
 10
256.377940
 20
262.467261
 30
0.0
 10
256.377940
 20
251.968504
 30
0.0
 10
245.879263
 20
251.968504
 30
0.0
 10
235.380643
 20
251.968504
 30
0.0
 10
224.881889
 20
251.968504
 30
0.0
 10
224.881889
 20
262.467181
 30
0.0
 10
224.881889
 20
272.965810
 30
0.0
  0
LWPOLYLINE
  5
113
100
AcDbEntity
  8
Layer_1
 62
7
100
AcDbPolyline
 90
12
 70
1
 10
256.377940
 20
283.464567
 30
0.0
 10
266.876617
 20
283.464567
 30
0.0
 10
277.375238
 20
283.464567
 30
0.0
 10
287.874000
 20
283.464567
 30
0.0
 10
287.874000
 20
272.965890
 30
0.0
 10
287.874000
 20
262.467261
 30
0.0
 10
287.874000
 20
251.968504
 30
0.0
 10
277.375323
 20
251.968504
 30
0.0
 10
266.876702
 20
251.968504
 30
0.0
 10
256.377940
 20
251.968504
 30
0.0
 10
256.377940
 20
262.467181
 30
0.0
 10
256.377940
 20
272.965810
 30
0.0
  0
LWPOLYLINE
  5
114
100
AcDbEntity
  8
Layer_1
 62
7
100
AcDbPolyline
 90
12
 70
1
 10
287.874000
 20
283.464567
 30
0.0
 10
298.372677
 20
283.464567
 30
0.0
 10
308.871326
 20
283.464567
 30
0.0
 10
319.370088
 20
283.464567
 30
0.0
 10
319.370088
 20
272.965890
 30
0.0
 10
319.370088
 20
262.467261
 30
0.0
 10
319.370088
 20
251.968504
 30
0.0
 10
308.871411
 20
251.968504
 30
0.0
 10
298.372762
 20
251.968504
 30
0.0
 10
287.874000
 20
251.968504
 30
0.0
 10
287.874000
 20
262.467181
 30
0.0
 10
287.874000
 20
272.965810
 30
0.0
  0
LWPOLYLINE
  5
115
100
AcDbEntity
  8
Layer_1
 62
7
100
AcDbPolyline
 90
12
 70
1
 10
320.870098
 20
251.968504
 30
0.0
 10
331.368775
 20
251.968504
 30
0.0
 10
341.867395
 20
251.968504
 30
0.0
 10
352.366157
 20
251.968504
 30
0.0
 10
352.366157
 20
241.469827
 30
0.0
 10
352.366157
 20
230.971198
 30
0.0
 10
352.366157
 20
220.472439
 30
0.0
 10
341.867480
 20
220.472439
 30
0.0
 10
331.368860
 20
220.472439
 30
0.0
 10
320.870098
 20
220.472439
 30
0.0
 10
320.870098
 20
230.971116
 30
0.0
 10
320.870098
 20
241.469745
 30
0.0
  0
LWPOLYLINE
  5
116
100
AcDbEntity
  8
Layer_1
 62
7
100
AcDbPolyline
 90
12
 70
1
 10
320.870098
 20
220.472439
 30
0.0
 10
331.368775
 20
220.472439
 30
0.0
 10
341.867395
 20
220.472439
 30
0.0
 10
352.366157
 20
220.472439
 30
0.0
 10
352.366157
 20
209.973762
 30
0.0
 10
352.366157
 20
199.475133
 30
0.0
 10
352.366157
 20
188.976376
 30
0.0
 10
341.867480
 20
188.976376
 30
0.0
 10
331.368860
 20
188.976376
 30
0.0
 10
320.870098
 20
188.976376
 30
0.0
 10
320.870098
 20
199.475053
 30
0.0
 10
320.870098
 20
209.973682
 30
0.0
  0
LWPOLYLINE
  5
117
100
AcDbEntity
  8
Layer_1
 62
7
100
AcDbPolyline
 90
12
 70
1
 10
320.870098
 20
188.976376
 30
0.0
 10
331.368775
 20
188.976376
 30
0.0
 10
341.867395
 20
188.976376
 30
0.0
 10
352.366157
 20
188.976376
 30
0.0
 10
352.366157
 20
178.477699
 30
0.0
 10
352.366157
 20
167.979070
 30
0.0
 10
352.366157
 20
157.480313
 30
0.0
 10
341.867480
 20
157.480313
 30
0.0
 10
331.368860
 20
157.480313
 30
0.0
 10
320.870098
 20
157.480313
 30
0.0
 10
320.870098
 20
167.978991
 30
0.0
 10
320.870098
 20
178.477620
 30
0.0
  0
LWPOLYLINE
  5
118
100
AcDbEntity
  8
Layer_1
 62
7
100
AcDbPolyline
 90
12
 70
1
 10
224.881889
 20
157.480313
 30
0.0
 10
235.380560
 20
157.480313
 30
0.0
 10
245.879178
 20
157.480313
 30
0.0
 10
256.377940
 20
157.480313
 30
0.0
 10
256.377940
 20
146.981636
 30
0.0
 10
256.377940
 20
136.483007
 30
0.0
 10
256.377940
 20
125.984251
 30
0.0
 10
245.879263
 20
125.984251
 30
0.0
 10
235.380643
 20
125.984251
 30
0.0
 10
224.881889
 20
125.984251
 30
0.0
 10
224.881889
 20
136.482928
 30
0.0
 10
224.881889
 20
146.981557
 30
0.0
  0
LWPOLYLINE
  5
119
100
AcDbEntity
  8
Layer_1
 62
7
100
AcDbPolyline
 90
12
 70
1
 10
256.377940
 20
157.480313
 30
0.0
 10
266.876617
 20
157.480313
 30
0.0
 10
277.375238
 20
157.480313
 30
0.0
 10
287.874000
 20
157.480313
 30
0.0
 10
287.874000
 20
146.981636
 30
0.0
 10
287.874000
 20
136.483007
 30
0.0
 10
287.874000
 20
125.984251
 30
0.0
 10
277.375323
 20
125.984251
 30
0.0
 10
266.876702
 20
125.984251
 30
0.0
 10
256.377940
 20
125.984251
 30
0.0
 10
256.377940
 20
136.482928
 30
0.0
 10
256.377940
 20
146.981557
 30
0.0
  0
LWPOLYLINE
  5
11a
100
AcDbEntity
  8
Layer_1
 62
7
100
AcDbPolyline
 90
12
 70
1
 10
287.874000
 20
157.480313
 30
0.0
 10
298.372677
 20
157.480313
 30
0.0
 10
308.871326
 20
157.480313
 30
0.0
 10
319.370088
 20
157.480313
 30
0.0
 10
319.370088
 20
146.981636
 30
0.0
 10
319.370088
 20
136.483007
 30
0.0
 10
319.370088
 20
125.984251
 30
0.0
 10
308.871411
 20
125.984251
 30
0.0
 10
298.372762
 20
125.984251
 30
0.0
 10
287.874000
 20
125.984251
 30
0.0
 10
287.874000
 20
136.482928
 30
0.0
 10
287.874000
 20
146.981557
 30
0.0
  0
LWPOLYLINE
  5
11b
100
AcDbEntity
  8
Layer_1
 62
7
100
AcDbPolyline
 90
12
 70
1
 10
191.885822
 20
125.984251
 30
0.0
 10
202.384500
 20
125.984251
 30
0.0
 10
212.883129
 20
125.984251
 30
0.0
 10
223.381888
 20
125.984251
 30
0.0
 10
223.381888
 20
115.485574
 30
0.0
 10
223.381888
 20
104.986945
 30
0.0
 10
223.381888
 20
94.488188
 30
0.0
 10
212.883211
 20
94.488188
 30
0.0
 10
202.384582
 20
94.488188
 30
0.0
 10
191.885822
 20
94.488188
 30
0.0
 10
191.885822
 20
104.986865
 30
0.0
 10
191.885822
 20
115.485494
 30
0.0
  0
LWPOLYLINE
  5
11c
100
AcDbEntity
  8
Layer_1
 62
7
100
AcDbPolyline
 90
12
 70
1
 10
191.885822
 20
94.488188
 30
0.0
 10
202.384500
 20
94.488188
 30
0.0
 10
212.883129
 20
94.488188
 30
0.0
 10
223.381888
 20
94.488188
 30
0.0
 10
223.381888
 20
83.989511
 30
0.0
 10
223.381888
 20
73.490882
 30
0.0
 10
223.381888
 20
62.992124
 30
0.0
 10
212.883211
 20
62.992124
 30
0.0
 10
202.384582
 20
62.992124
 30
0.0
 10
191.885822
 20
62.992124
 30
0.0
 10
191.885822
 20
73.490801
 30
0.0
 10
191.885822
 20
83.989430
 30
0.0
  0
LWPOLYLINE
  5
11d
100
AcDbEntity
  8
Layer_1
 62
7
100
AcDbPolyline
 90
12
 70
1
 10
191.885822
 20
62.992124
 30
0.0
 10
202.384500
 20
62.992124
 30
0.0
 10
212.883129
 20
62.992124
 30
0.0
 10
223.381888
 20
62.992124
 30
0.0
 10
223.381888
 20
52.493447
 30
0.0
 10
223.381888
 20
41.994818
 30
0.0
 10
223.381888
 20
31.496060
 30
0.0
 10
212.883211
 20
31.496060
 30
0.0
 10
202.384582
 20
31.496060
 30
0.0
 10
191.885822
 20
31.496060
 30
0.0
 10
191.885822
 20
41.994736
 30
0.0
 10
191.885822
 20
52.493366
 30
0.0
  0
LWPOLYLINE
  5
11e
100
AcDbEntity
  8
Layer_1
 62
7
100
AcDbPolyline
 90
12
 70
1
 10
224.881889
 20
31.496060
 30
0.0
 10
235.380560
 20
31.496060
 30
0.0
 10
245.879178
 20
31.496060
 30
0.0
 10
256.377940
 20
31.496060
 30
0.0
 10
256.377940
 20
20.997383
 30
0.0
 10
256.377940
 20
10.498754
 30
0.0
 10
256.377940
 20
-0.000003
 30
0.0
 10
245.879263
 20
-0.000003
 30
0.0
 10
235.380643
 20
-0.000003
 30
0.0
 10
224.881889
 20
-0.000003
 30
0.0
 10
224.881889
 20
10.498674
 30
0.0
 10
224.881889
 20
20.997303
 30
0.0
  0
LWPOLYLINE
  5
11f
100
AcDbEntity
  8
Layer_1
 62
7
100
AcDbPolyline
 90
12
 70
1
 10
256.377940
 20
31.496060
 30
0.0
 10
266.876617
 20
31.496060
 30
0.0
 10
277.375238
 20
31.496060
 30
0.0
 10
287.874000
 20
31.496060
 30
0.0
 10
287.874000
 20
20.997383
 30
0.0
 10
287.874000
 20
10.498754
 30
0.0
 10
287.874000
 20
-0.000003
 30
0.0
 10
277.375323
 20
-0.000003
 30
0.0
 10
266.876702
 20
-0.000003
 30
0.0
 10
256.377940
 20
-0.000003
 30
0.0
 10
256.377940
 20
10.498674
 30
0.0
 10
256.377940
 20
20.997303
 30
0.0
  0
LWPOLYLINE
  5
120
100
AcDbEntity
  8
Layer_1
 62
7
100
AcDbPolyline
 90
12
 70
1
 10
287.874000
 20
31.496060
 30
0.0
 10
298.372677
 20
31.496060
 30
0.0
 10
308.871326
 20
31.496060
 30
0.0
 10
319.370088
 20
31.496060
 30
0.0
 10
319.370088
 20
20.997383
 30
0.0
 10
319.370088
 20
10.498754
 30
0.0
 10
319.370088
 20
-0.000003
 30
0.0
 10
308.871411
 20
-0.000003
 30
0.0
 10
298.372762
 20
-0.000003
 30
0.0
 10
287.874000
 20
-0.000003
 30
0.0
 10
287.874000
 20
10.498674
 30
0.0
 10
287.874000
 20
20.997303
 30
0.0
  0
LWPOLYLINE
  5
121
100
AcDbEntity
  8
Layer_1
 62
7
100
AcDbPolyline
 90
12
 70
1
 10
418.267701
 20
283.464567
 30
0.0
 10
428.766378
 20
283.464567
 30
0.0
 10
439.265027
 20
283.464567
 30
0.0
 10
449.763789
 20
283.464567
 30
0.0
 10
449.763789
 20
272.965890
 30
0.0
 10
449.763789
 20
262.467261
 30
0.0
 10
449.763789
 20
251.968504
 30
0.0
 10
439.265112
 20
251.968504
 30
0.0
 10
428.766463
 20
251.968504
 30
0.0
 10
418.267701
 20
251.968504
 30
0.0
 10
418.267701
 20
262.467181
 30
0.0
 10
418.267701
 20
272.965810
 30
0.0
  0
LWPOLYLINE
  5
122
100
AcDbEntity
  8
Layer_1
 62
7
100
AcDbPolyline
 90
12
 70
1
 10
449.763789
 20
283.464567
 30
0.0
 10
460.262466
 20
283.464567
 30
0.0
 10
470.761087
 20
283.464567
 30
0.0
 10
481.259849
 20
283.464567
 30
0.0
 10
481.259849
 20
272.965890
 30
0.0
 10
481.259849
 20
262.467261
 30
0.0
 10
481.259849
 20
251.968504
 30
0.0
 10
470.761172
 20
251.968504
 30
0.0
 10
460.262551
 20
251.968504
 30
0.0
 10
449.763789
 20
251.968504
 30
0.0
 10
449.763789
 20
262.467181
 30
0.0
 10
449.763789
 20
272.965810
 30
0.0
  0
LWPOLYLINE
  5
123
100
AcDbEntity
  8
Layer_1
 62
7
100
AcDbPolyline
 90
12
 70
1
 10
481.259849
 20
283.464567
 30
0.0
 10
491.758526
 20
283.464567
 30
0.0
 10
502.257146
 20
283.464567
 30
0.0
 10
512.755909
 20
283.464567
 30
0.0
 10
512.755909
 20
272.965890
 30
0.0
 10
512.755909
 20
262.467261
 30
0.0
 10
512.755909
 20
251.968504
 30
0.0
 10
502.257232
 20
251.968504
 30
0.0
 10
491.758611
 20
251.968504
 30
0.0
 10
481.259849
 20
251.968504
 30
0.0
 10
481.259849
 20
262.467181
 30
0.0
 10
481.259849
 20
272.965810
 30
0.0
  0
LWPOLYLINE
  5
124
100
AcDbEntity
  8
Layer_1
 62
7
100
AcDbPolyline
 90
12
 70
1
 10
385.271632
 20
251.968504
 30
0.0
 10
395.770309
 20
251.968504
 30
0.0
 10
406.268929
 20
251.968504
 30
0.0
 10
416.767691
 20
251.968504
 30
0.0
 10
416.767691
 20
241.469827
 30
0.0
 10
416.767691
 20
230.971198
 30
0.0
 10
416.767691
 20
220.472439
 30
0.0
 10
406.269014
 20
220.472439
 30
0.0
 10
395.770394
 20
220.472439
 30
0.0
 10
385.271632
 20
220.472439
 30
0.0
 10
385.271632
 20
230.971116
 30
0.0
 10
385.271632
 20
241.469745
 30
0.0
  0
LWPOLYLINE
  5
125
100
AcDbEntity
  8
Layer_1
 62
7
100
AcDbPolyline
 90
12
 70
1
 10
514.255918
 20
251.968504
 30
0.0
 10
524.754595
 20
251.968504
 30
0.0
 10
535.253216
 20
251.968504
 30
0.0
 10
545.751978
 20
251.968504
 30
0.0
 10
545.751978
 20
241.469827
 30
0.0
 10
545.751978
 20
230.971198
 30
0.0
 10
545.751978
 20
220.472439
 30
0.0
 10
535.253301
 20
220.472439
 30
0.0
 10
524.754680
 20
220.472439
 30
0.0
 10
514.255918
 20
220.472439
 30
0.0
 10
514.255918
 20
230.971116
 30
0.0
 10
514.255918
 20
241.469745
 30
0.0
  0
LWPOLYLINE
  5
126
100
AcDbEntity
  8
Layer_1
 62
7
100
AcDbPolyline
 90
12
 70
1
 10
385.271632
 20
220.472439
 30
0.0
 10
395.770309
 20
220.472439
 30
0.0
 10
406.268929
 20
220.472439
 30
0.0
 10
416.767691
 20
220.472439
 30
0.0
 10
416.767691
 20
209.973762
 30
0.0
 10
416.767691
 20
199.475133
 30
0.0
 10
416.767691
 20
188.976376
 30
0.0
 10
406.269014
 20
188.976376
 30
0.0
 10
395.770394
 20
188.976376
 30
0.0
 10
385.271632
 20
188.976376
 30
0.0
 10
385.271632
 20
199.475053
 30
0.0
 10
385.271632
 20
209.973682
 30
0.0
  0
LWPOLYLINE
  5
127
100
AcDbEntity
  8
Layer_1
 62
7
100
AcDbPolyline
 90
12
 70
1
 10
514.255918
 20
220.472439
 30
0.0
 10
524.754595
 20
220.472439
 30
0.0
 10
535.253216
 20
220.472439
 30
0.0
 10
545.751978
 20
220.472439
 30
0.0
 10
545.751978
 20
209.973762
 30
0.0
 10
545.751978
 20
199.475133
 30
0.0
 10
545.751978
 20
188.976376
 30
0.0
 10
535.253301
 20
188.976376
 30
0.0
 10
524.754680
 20
188.976376
 30
0.0
 10
514.255918
 20
188.976376
 30
0.0
 10
514.255918
 20
199.475053
 30
0.0
 10
514.255918
 20
209.973682
 30
0.0
  0
LWPOLYLINE
  5
128
100
AcDbEntity
  8
Layer_1
 62
7
100
AcDbPolyline
 90
12
 70
1
 10
385.271632
 20
188.976376
 30
0.0
 10
395.770309
 20
188.976376
 30
0.0
 10
406.268929
 20
188.976376
 30
0.0
 10
416.767691
 20
188.976376
 30
0.0
 10
416.767691
 20
178.477699
 30
0.0
 10
416.767691
 20
167.979070
 30
0.0
 10
416.767691
 20
157.480313
 30
0.0
 10
406.269014
 20
157.480313
 30
0.0
 10
395.770394
 20
157.480313
 30
0.0
 10
385.271632
 20
157.480313
 30
0.0
 10
385.271632
 20
167.978991
 30
0.0
 10
385.271632
 20
178.477620
 30
0.0
  0
LWPOLYLINE
  5
129
100
AcDbEntity
  8
Layer_1
 62
7
100
AcDbPolyline
 90
12
 70
1
 10
514.255918
 20
188.976376
 30
0.0
 10
524.754595
 20
188.976376
 30
0.0
 10
535.253216
 20
188.976376
 30
0.0
 10
545.751978
 20
188.976376
 30
0.0
 10
545.751978
 20
178.477699
 30
0.0
 10
545.751978
 20
167.979070
 30
0.0
 10
545.751978
 20
157.480313
 30
0.0
 10
535.253301
 20
157.480313
 30
0.0
 10
524.754680
 20
157.480313
 30
0.0
 10
514.255918
 20
157.480313
 30
0.0
 10
514.255918
 20
167.978991
 30
0.0
 10
514.255918
 20
178.477620
 30
0.0
  0
LWPOLYLINE
  5
12a
100
AcDbEntity
  8
Layer_1
 62
7
100
AcDbPolyline
 90
12
 70
1
 10
418.267701
 20
157.480313
 30
0.0
 10
428.766378
 20
157.480313
 30
0.0
 10
439.265027
 20
157.480313
 30
0.0
 10
449.763789
 20
157.480313
 30
0.0
 10
449.763789
 20
146.981636
 30
0.0
 10
449.763789
 20
136.483007
 30
0.0
 10
449.763789
 20
125.984251
 30
0.0
 10
439.265112
 20
125.984251
 30
0.0
 10
428.766463
 20
125.984251
 30
0.0
 10
418.267701
 20
125.984251
 30
0.0
 10
418.267701
 20
136.482928
 30
0.0
 10
418.267701
 20
146.981557
 30
0.0
  0
LWPOLYLINE
  5
12b
100
AcDbEntity
  8
Layer_1
 62
7
100
AcDbPolyline
 90
12
 70
1
 10
449.763789
 20
157.480313
 30
0.0
 10
460.262466
 20
157.480313
 30
0.0
 10
470.761087
 20
157.480313
 30
0.0
 10
481.259849
 20
157.480313
 30
0.0
 10
481.259849
 20
146.981636
 30
0.0
 10
481.259849
 20
136.483007
 30
0.0
 10
481.259849
 20
125.984251
 30
0.0
 10
470.761172
 20
125.984251
 30
0.0
 10
460.262551
 20
125.984251
 30
0.0
 10
449.763789
 20
125.984251
 30
0.0
 10
449.763789
 20
136.482928
 30
0.0
 10
449.763789
 20
146.981557
 30
0.0
  0
LWPOLYLINE
  5
12c
100
AcDbEntity
  8
Layer_1
 62
7
100
AcDbPolyline
 90
12
 70
1
 10
481.259849
 20
157.480313
 30
0.0
 10
491.758526
 20
157.480313
 30
0.0
 10
502.257146
 20
157.480313
 30
0.0
 10
512.755909
 20
157.480313
 30
0.0
 10
512.755909
 20
146.981636
 30
0.0
 10
512.755909
 20
136.483007
 30
0.0
 10
512.755909
 20
125.984251
 30
0.0
 10
502.257232
 20
125.984251
 30
0.0
 10
491.758611
 20
125.984251
 30
0.0
 10
481.259849
 20
125.984251
 30
0.0
 10
481.259849
 20
136.482928
 30
0.0
 10
481.259849
 20
146.981557
 30
0.0
  0
LWPOLYLINE
  5
12d
100
AcDbEntity
  8
Layer_1
 62
7
100
AcDbPolyline
 90
12
 70
1
 10
385.271632
 20
125.984251
 30
0.0
 10
395.770309
 20
125.984251
 30
0.0
 10
406.268929
 20
125.984251
 30
0.0
 10
416.767691
 20
125.984251
 30
0.0
 10
416.767691
 20
115.485574
 30
0.0
 10
416.767691
 20
104.986945
 30
0.0
 10
416.767691
 20
94.488188
 30
0.0
 10
406.269014
 20
94.488188
 30
0.0
 10
395.770394
 20
94.488188
 30
0.0
 10
385.271632
 20
94.488188
 30
0.0
 10
385.271632
 20
104.986865
 30
0.0
 10
385.271632
 20
115.485494
 30
0.0
  0
LWPOLYLINE
  5
12e
100
AcDbEntity
  8
Layer_1
 62
7
100
AcDbPolyline
 90
12
 70
1
 10
514.255918
 20
125.984251
 30
0.0
 10
524.754595
 20
125.984251
 30
0.0
 10
535.253216
 20
125.984251
 30
0.0
 10
545.751978
 20
125.984251
 30
0.0
 10
545.751978
 20
115.485574
 30
0.0
 10
545.751978
 20
104.986945
 30
0.0
 10
545.751978
 20
94.488188
 30
0.0
 10
535.253301
 20
94.488188
 30
0.0
 10
524.754680
 20
94.488188
 30
0.0
 10
514.255918
 20
94.488188
 30
0.0
 10
514.255918
 20
104.986865
 30
0.0
 10
514.255918
 20
115.485494
 30
0.0
  0
LWPOLYLINE
  5
12f
100
AcDbEntity
  8
Layer_1
 62
7
100
AcDbPolyline
 90
12
 70
1
 10
385.271632
 20
94.488188
 30
0.0
 10
395.770309
 20
94.488188
 30
0.0
 10
406.268929
 20
94.488188
 30
0.0
 10
416.767691
 20
94.488188
 30
0.0
 10
416.767691
 20
83.989511
 30
0.0
 10
416.767691
 20
73.490882
 30
0.0
 10
416.767691
 20
62.992124
 30
0.0
 10
406.269014
 20
62.992124
 30
0.0
 10
395.770394
 20
62.992124
 30
0.0
 10
385.271632
 20
62.992124
 30
0.0
 10
385.271632
 20
73.490801
 30
0.0
 10
385.271632
 20
83.989430
 30
0.0
  0
LWPOLYLINE
  5
130
100
AcDbEntity
  8
Layer_1
 62
7
100
AcDbPolyline
 90
12
 70
1
 10
514.255918
 20
94.488188
 30
0.0
 10
524.754595
 20
94.488188
 30
0.0
 10
535.253216
 20
94.488188
 30
0.0
 10
545.751978
 20
94.488188
 30
0.0
 10
545.751978
 20
83.989511
 30
0.0
 10
545.751978
 20
73.490882
 30
0.0
 10
545.751978
 20
62.992124
 30
0.0
 10
535.253301
 20
62.992124
 30
0.0
 10
524.754680
 20
62.992124
 30
0.0
 10
514.255918
 20
62.992124
 30
0.0
 10
514.255918
 20
73.490801
 30
0.0
 10
514.255918
 20
83.989430
 30
0.0
  0
LWPOLYLINE
  5
131
100
AcDbEntity
  8
Layer_1
 62
7
100
AcDbPolyline
 90
12
 70
1
 10
385.271632
 20
62.992124
 30
0.0
 10
395.770309
 20
62.992124
 30
0.0
 10
406.268929
 20
62.992124
 30
0.0
 10
416.767691
 20
62.992124
 30
0.0
 10
416.767691
 20
52.493447
 30
0.0
 10
416.767691
 20
41.994818
 30
0.0
 10
416.767691
 20
31.496060
 30
0.0
 10
406.269014
 20
31.496060
 30
0.0
 10
395.770394
 20
31.496060
 30
0.0
 10
385.271632
 20
31.496060
 30
0.0
 10
385.271632
 20
41.994736
 30
0.0
 10
385.271632
 20
52.493366
 30
0.0
  0
LWPOLYLINE
  5
132
100
AcDbEntity
  8
Layer_1
 62
7
100
AcDbPolyline
 90
12
 70
1
 10
514.255918
 20
62.992124
 30
0.0
 10
524.754595
 20
62.992124
 30
0.0
 10
535.253216
 20
62.992124
 30
0.0
 10
545.751978
 20
62.992124
 30
0.0
 10
545.751978
 20
52.493447
 30
0.0
 10
545.751978
 20
41.994818
 30
0.0
 10
545.751978
 20
31.496060
 30
0.0
 10
535.253301
 20
31.496060
 30
0.0
 10
524.754680
 20
31.496060
 30
0.0
 10
514.255918
 20
31.496060
 30
0.0
 10
514.255918
 20
41.994736
 30
0.0
 10
514.255918
 20
52.493366
 30
0.0
  0
LWPOLYLINE
  5
133
100
AcDbEntity
  8
Layer_1
 62
7
100
AcDbPolyline
 90
12
 70
1
 10
418.267701
 20
31.496060
 30
0.0
 10
428.766378
 20
31.496060
 30
0.0
 10
439.265027
 20
31.496060
 30
0.0
 10
449.763789
 20
31.496060
 30
0.0
 10
449.763789
 20
20.997383
 30
0.0
 10
449.763789
 20
10.498754
 30
0.0
 10
449.763789
 20
-0.000003
 30
0.0
 10
439.265112
 20
-0.000003
 30
0.0
 10
428.766463
 20
-0.000003
 30
0.0
 10
418.267701
 20
-0.000003
 30
0.0
 10
418.267701
 20
10.498674
 30
0.0
 10
418.267701
 20
20.997303
 30
0.0
  0
LWPOLYLINE
  5
134
100
AcDbEntity
  8
Layer_1
 62
7
100
AcDbPolyline
 90
12
 70
1
 10
449.763789
 20
31.496060
 30
0.0
 10
460.262466
 20
31.496060
 30
0.0
 10
470.761087
 20
31.496060
 30
0.0
 10
481.259849
 20
31.496060
 30
0.0
 10
481.259849
 20
20.997383
 30
0.0
 10
481.259849
 20
10.498754
 30
0.0
 10
481.259849
 20
-0.000003
 30
0.0
 10
470.761172
 20
-0.000003
 30
0.0
 10
460.262551
 20
-0.000003
 30
0.0
 10
449.763789
 20
-0.000003
 30
0.0
 10
449.763789
 20
10.498674
 30
0.0
 10
449.763789
 20
20.997303
 30
0.0
  0
LWPOLYLINE
  5
135
100
AcDbEntity
  8
Layer_1
 62
7
100
AcDbPolyline
 90
12
 70
1
 10
481.259849
 20
31.496060
 30
0.0
 10
491.758526
 20
31.496060
 30
0.0
 10
502.257146
 20
31.496060
 30
0.0
 10
512.755909
 20
31.496060
 30
0.0
 10
512.755909
 20
20.997383
 30
0.0
 10
512.755909
 20
10.498754
 30
0.0
 10
512.755909
 20
-0.000003
 30
0.0
 10
502.257232
 20
-0.000003
 30
0.0
 10
491.758611
 20
-0.000003
 30
0.0
 10
481.259849
 20
-0.000003
 30
0.0
 10
481.259849
 20
10.498674
 30
0.0
 10
481.259849
 20
20.997303
 30
0.0
  0
ENDSEC
  0
SECTION
  2
OBJECTS
  0
DICTIONARY
  5
C
330
0
100
AcDbDictionary
  3
ACAD_GROUP
350
D
  3
ACAD_MLINESTYLE
350
17
  0
DICTIONARY
  5
D
330
C
100
AcDbDictionary
  0
DICTIONARY
  5
1A
330
C
100
AcDbDictionary
  0
DICTIONARY
  5
17
330
C
100
AcDbDictionary
  3
STANDARD
350
18
  0
DICTIONARY
  5
19
330
C
100
AcDbDictionary
  0
ENDSEC
  0
EOF
