999
"DXF R12 Output" (www.mydxf.blogspot.com)
 0 
SECTION
 2 
HEADER
 9 
$ACADVER
 1 
AC1009
 9 
$EXTMIN
 10 
 0 
 20 
 0 
 9 
$EXTMAX
 10 
 8.5 
 20 
 11 
 0 
ENDSEC
 0 
SECTION
 2 
ENTITIES
0
LINE
8
Layer 1
10
0.793749
20
127.642000
11
-0.793749
21
126.054000
0
LINE
8
Layer 1
10
0.000000
20
128.171000
11
0.000000
21
125.525000
0
LINE
8
Layer 1
10
2.116660
20
125.790000
11
1.058330
21
124.731670
0
LINE
8
Layer 1
10
1.587500
20
126.319000
11
0.529170
21
125.260670
0
LINE
8
Layer 1
10
1.058330
20
126.848000
11
0.000000
21
125.789670
0
LINE
8
Layer 1
10
1.575640
20
126.352000
11
0.087690
21
124.863800
0
LINE
8
Layer 1
10
0.831663
20
126.848000
11
0.831663
21
124.368000
0
LINE
8
Layer 1
10
2.815600
20
124.617000
11
1.823630
21
123.625000
0
LINE
8
Layer 1
10
2.319620
20
125.112000
11
1.327653
21
124.120031
0
LINE
8
Layer 1
10
1.823630
20
125.608000
11
0.831663
21
124.616031
0
LINE
8
Layer 1
10
40.731400
20
19.795700
11
53.914200
21
19.795700
0
LINE
8
Layer 1
10
53.914200
20
19.795700
11
53.914200
21
6.612420
0
LINE
8
Layer 1
10
53.914200
20
6.612420
11
40.731400
21
6.612420
0
LINE
8
Layer 1
10
40.731400
20
6.612420
11
40.731400
21
19.795700
0
LINE
8
Layer 1
10
27.548900
20
19.795700
11
40.731400
21
19.795700
0
LINE
8
Layer 1
10
40.731400
20
19.795700
11
40.731400
21
6.612420
0
LINE
8
Layer 1
10
40.731400
20
6.612420
11
27.548900
21
6.612420
0
LINE
8
Layer 1
10
27.548900
20
6.612420
11
27.548900
21
19.795700
0
LINE
8
Layer 1
10
14.366000
20
19.795700
11
27.548900
21
19.795700
0
LINE
8
Layer 1
10
27.548900
20
19.795700
11
27.548900
21
6.612420
0
LINE
8
Layer 1
10
27.548900
20
6.612420
11
14.366000
21
6.612420
0
LINE
8
Layer 1
10
14.366000
20
6.612420
11
14.366000
21
19.795700
0
LINE
8
Layer 1
10
53.914200
20
32.976500
11
67.097200
21
32.976500
0
LINE
8
Layer 1
10
67.097200
20
32.976500
11
67.097200
21
19.795700
0
LINE
8
Layer 1
10
67.097200
20
19.795700
11
53.914200
21
19.795700
0
LINE
8
Layer 1
10
53.914200
20
19.795700
11
53.914200
21
32.976500
0
LINE
8
Layer 1
10
1.183200
20
32.976500
11
14.366000
21
32.976500
0
LINE
8
Layer 1
10
14.366000
20
32.976500
11
14.366000
21
19.795700
0
LINE
8
Layer 1
10
14.366000
20
19.795700
11
1.183200
21
19.795700
0
LINE
8
Layer 1
10
1.183200
20
19.795700
11
1.183200
21
32.976500
0
LINE
8
Layer 1
10
53.914200
20
46.160300
11
67.097200
21
46.160300
0
LINE
8
Layer 1
10
67.097200
20
46.160300
11
67.097200
21
32.976500
0
LINE
8
Layer 1
10
67.097200
20
32.976500
11
53.914200
21
32.976500
0
LINE
8
Layer 1
10
53.914200
20
32.976500
11
53.914200
21
46.160300
0
LINE
8
Layer 1
10
1.183200
20
46.160300
11
14.366000
21
46.160300
0
LINE
8
Layer 1
10
14.366000
20
46.160300
11
14.366000
21
32.976500
0
LINE
8
Layer 1
10
14.366000
20
32.976500
11
1.183200
21
32.976500
0
LINE
8
Layer 1
10
1.183200
20
32.976500
11
1.183200
21
46.160300
0
LINE
8
Layer 1
10
53.914200
20
59.343000
11
67.097200
21
59.343000
0
LINE
8
Layer 1
10
67.097200
20
59.343000
11
67.097200
21
46.160300
0
LINE
8
Layer 1
10
67.097200
20
46.160300
11
53.914200
21
46.160300
0
LINE
8
Layer 1
10
53.914200
20
46.160300
11
53.914200
21
59.343000
0
LINE
8
Layer 1
10
1.183200
20
59.343000
11
14.366000
21
59.343000
0
LINE
8
Layer 1
10
14.366000
20
59.343000
11
14.366000
21
46.160300
0
LINE
8
Layer 1
10
14.366000
20
46.160300
11
1.183200
21
46.160300
0
LINE
8
Layer 1
10
1.183200
20
46.160300
11
1.183200
21
59.343000
0
LINE
8
Layer 1
10
53.914200
20
85.708600
11
67.097200
21
85.708600
0
LINE
8
Layer 1
10
67.097200
20
85.708600
11
67.097200
21
72.525800
0
LINE
8
Layer 1
10
67.097200
20
72.525800
11
53.914200
21
72.525800
0
LINE
8
Layer 1
10
53.914200
20
72.525800
11
53.914200
21
85.708600
0
LINE
8
Layer 1
10
1.183200
20
85.708600
11
14.366000
21
85.708600
0
LINE
8
Layer 1
10
14.366000
20
85.708600
11
14.366000
21
72.525800
0
LINE
8
Layer 1
10
14.366000
20
72.525800
11
1.183200
21
72.525800
0
LINE
8
Layer 1
10
1.183200
20
72.525800
11
1.183200
21
85.708600
0
LINE
8
Layer 1
10
53.914200
20
98.891400
11
67.097200
21
98.891400
0
LINE
8
Layer 1
10
67.097200
20
98.891400
11
67.097200
21
85.708600
0
LINE
8
Layer 1
10
67.097200
20
85.708600
11
53.914200
21
85.708600
0
LINE
8
Layer 1
10
53.914200
20
85.708600
11
53.914200
21
98.891400
0
LINE
8
Layer 1
10
1.183200
20
98.891400
11
14.366000
21
98.891400
0
LINE
8
Layer 1
10
14.366000
20
98.891400
11
14.366000
21
85.708600
0
LINE
8
Layer 1
10
14.366000
20
85.708600
11
1.183200
21
85.708600
0
LINE
8
Layer 1
10
1.183200
20
85.708600
11
1.183200
21
98.891400
0
LINE
8
Layer 1
10
53.914200
20
112.074000
11
67.097200
21
112.074000
0
LINE
8
Layer 1
10
67.097200
20
112.074000
11
67.097200
21
98.891400
0
LINE
8
Layer 1
10
67.097200
20
98.891400
11
53.914200
21
98.891400
0
LINE
8
Layer 1
10
53.914200
20
98.891400
11
53.914200
21
112.074000
0
LINE
8
Layer 1
10
1.183200
20
112.074000
11
14.366000
21
112.074000
0
LINE
8
Layer 1
10
14.366000
20
112.074000
11
14.366000
21
98.891400
0
LINE
8
Layer 1
10
14.366000
20
98.891400
11
1.183200
21
98.891400
0
LINE
8
Layer 1
10
1.183200
20
98.891400
11
1.183200
21
112.074000
0
LINE
8
Layer 1
10
40.731400
20
125.257000
11
53.914200
21
125.257000
0
LINE
8
Layer 1
10
53.914200
20
125.257000
11
53.914200
21
112.074000
0
LINE
8
Layer 1
10
53.914200
20
112.074000
11
40.731400
21
112.074000
0
LINE
8
Layer 1
10
40.731400
20
112.074000
11
40.731400
21
125.257000
0
LINE
8
Layer 1
10
27.548900
20
125.257000
11
40.731400
21
125.257000
0
LINE
8
Layer 1
10
40.731400
20
125.257000
11
40.731400
21
112.074000
0
LINE
8
Layer 1
10
40.731400
20
112.074000
11
27.548900
21
112.074000
0
LINE
8
Layer 1
10
27.548900
20
112.074000
11
27.548900
21
125.257000
0
LINE
8
Layer 1
10
14.366000
20
125.257000
11
27.548900
21
125.257000
0
LINE
8
Layer 1
10
27.548900
20
125.257000
11
27.548900
21
112.074000
0
LINE
8
Layer 1
10
27.548900
20
112.074000
11
14.366000
21
112.074000
0
LINE
8
Layer 1
10
14.366000
20
112.074000
11
14.366000
21
125.257000
0
LINE
8
Layer 1
10
134.856000
20
32.976500
11
148.039000
21
32.976500
0
LINE
8
Layer 1
10
148.039000
20
32.976500
11
148.039000
21
19.795700
0
LINE
8
Layer 1
10
148.039000
20
19.795700
11
134.856000
21
19.795700
0
LINE
8
Layer 1
10
134.856000
20
19.795700
11
134.856000
21
32.976500
0
LINE
8
Layer 1
10
134.856000
20
46.160300
11
148.039000
21
46.160300
0
LINE
8
Layer 1
10
148.039000
20
46.160300
11
148.039000
21
32.976500
0
LINE
8
Layer 1
10
148.039000
20
32.976500
11
134.856000
21
32.976500
0
LINE
8
Layer 1
10
134.856000
20
32.976500
11
134.856000
21
46.160300
0
LINE
8
Layer 1
10
134.856000
20
59.343000
11
148.039000
21
59.343000
0
LINE
8
Layer 1
10
148.039000
20
59.343000
11
148.039000
21
46.160300
0
LINE
8
Layer 1
10
148.039000
20
46.160300
11
134.856000
21
46.160300
0
LINE
8
Layer 1
10
134.856000
20
46.160300
11
134.856000
21
59.343000
0
LINE
8
Layer 1
10
121.674000
20
72.525800
11
134.856000
21
72.525800
0
LINE
8
Layer 1
10
134.856000
20
72.525800
11
134.856000
21
59.343000
0
LINE
8
Layer 1
10
134.856000
20
59.343000
11
121.674000
21
59.343000
0
LINE
8
Layer 1
10
121.674000
20
59.343000
11
121.674000
21
72.525800
0
LINE
8
Layer 1
10
108.491000
20
72.525800
11
121.674000
21
72.525800
0
LINE
8
Layer 1
10
121.674000
20
72.525800
11
121.674000
21
59.343000
0
LINE
8
Layer 1
10
121.674000
20
59.343000
11
108.491000
21
59.343000
0
LINE
8
Layer 1
10
108.491000
20
59.343000
11
108.491000
21
72.525800
0
LINE
8
Layer 1
10
95.308000
20
72.525800
11
108.491000
21
72.525800
0
LINE
8
Layer 1
10
108.491000
20
72.525800
11
108.491000
21
59.343000
0
LINE
8
Layer 1
10
108.491000
20
59.343000
11
95.308000
21
59.343000
0
LINE
8
Layer 1
10
95.308000
20
59.343000
11
95.308000
21
72.525800
0
LINE
8
Layer 1
10
134.856000
20
85.708600
11
148.039000
21
85.708600
0
LINE
8
Layer 1
10
148.039000
20
85.708600
11
148.039000
21
72.525800
0
LINE
8
Layer 1
10
148.039000
20
72.525800
11
134.856000
21
72.525800
0
LINE
8
Layer 1
10
134.856000
20
72.525800
11
134.856000
21
85.708600
0
LINE
8
Layer 1
10
82.125300
20
85.708600
11
95.308000
21
85.708600
0
LINE
8
Layer 1
10
95.308000
20
85.708600
11
95.308000
21
72.525800
0
LINE
8
Layer 1
10
95.308000
20
72.525800
11
82.125300
21
72.525800
0
LINE
8
Layer 1
10
82.125300
20
72.525800
11
82.125300
21
85.708600
0
LINE
8
Layer 1
10
134.856000
20
98.891400
11
148.039000
21
98.891400
0
LINE
8
Layer 1
10
148.039000
20
98.891400
11
148.039000
21
85.708600
0
LINE
8
Layer 1
10
148.039000
20
85.708600
11
134.856000
21
85.708600
0
LINE
8
Layer 1
10
134.856000
20
85.708600
11
134.856000
21
98.891400
0
LINE
8
Layer 1
10
82.125300
20
98.891400
11
95.308000
21
98.891400
0
LINE
8
Layer 1
10
95.308000
20
98.891400
11
95.308000
21
85.708600
0
LINE
8
Layer 1
10
95.308000
20
85.708600
11
82.125300
21
85.708600
0
LINE
8
Layer 1
10
82.125300
20
85.708600
11
82.125300
21
98.891400
0
LINE
8
Layer 1
10
134.856000
20
112.074000
11
148.039000
21
112.074000
0
LINE
8
Layer 1
10
148.039000
20
112.074000
11
148.039000
21
98.891400
0
LINE
8
Layer 1
10
148.039000
20
98.891400
11
134.856000
21
98.891400
0
LINE
8
Layer 1
10
134.856000
20
98.891400
11
134.856000
21
112.074000
0
LINE
8
Layer 1
10
82.125300
20
112.074000
11
95.308000
21
112.074000
0
LINE
8
Layer 1
10
95.308000
20
112.074000
11
95.308000
21
98.891400
0
LINE
8
Layer 1
10
95.308000
20
98.891400
11
82.125300
21
98.891400
0
LINE
8
Layer 1
10
82.125300
20
98.891400
11
82.125300
21
112.074000
0
LINE
8
Layer 1
10
202.616000
20
19.795700
11
215.799000
21
19.795700
0
LINE
8
Layer 1
10
215.799000
20
19.795700
11
215.799000
21
6.612420
0
LINE
8
Layer 1
10
215.799000
20
6.612420
11
202.616000
21
6.612420
0
LINE
8
Layer 1
10
202.616000
20
6.612420
11
202.616000
21
19.795700
0
LINE
8
Layer 1
10
189.433000
20
19.795700
11
202.616000
21
19.795700
0
LINE
8
Layer 1
10
202.616000
20
19.795700
11
202.616000
21
6.612420
0
LINE
8
Layer 1
10
202.616000
20
6.612420
11
189.433000
21
6.612420
0
LINE
8
Layer 1
10
189.433000
20
6.612420
11
189.433000
21
19.795700
0
LINE
8
Layer 1
10
176.250000
20
19.795700
11
189.433000
21
19.795700
0
LINE
8
Layer 1
10
189.433000
20
19.795700
11
189.433000
21
6.612420
0
LINE
8
Layer 1
10
189.433000
20
6.612420
11
176.250000
21
6.612420
0
LINE
8
Layer 1
10
176.250000
20
6.612420
11
176.250000
21
19.795700
0
LINE
8
Layer 1
10
215.799000
20
32.976500
11
228.981000
21
32.976500
0
LINE
8
Layer 1
10
228.981000
20
32.976500
11
228.981000
21
19.795700
0
LINE
8
Layer 1
10
228.981000
20
19.795700
11
215.799000
21
19.795700
0
LINE
8
Layer 1
10
215.799000
20
19.795700
11
215.799000
21
32.976500
0
LINE
8
Layer 1
10
163.068000
20
32.976500
11
176.250000
21
32.976500
0
LINE
8
Layer 1
10
176.250000
20
32.976500
11
176.250000
21
19.795700
0
LINE
8
Layer 1
10
176.250000
20
19.795700
11
163.068000
21
19.795700
0
LINE
8
Layer 1
10
163.068000
20
19.795700
11
163.068000
21
32.976500
0
LINE
8
Layer 1
10
215.799000
20
46.160300
11
228.981000
21
46.160300
0
LINE
8
Layer 1
10
228.981000
20
46.160300
11
228.981000
21
32.976500
0
LINE
8
Layer 1
10
228.981000
20
32.976500
11
215.799000
21
32.976500
0
LINE
8
Layer 1
10
215.799000
20
32.976500
11
215.799000
21
46.160300
0
LINE
8
Layer 1
10
163.068000
20
46.160300
11
176.250000
21
46.160300
0
LINE
8
Layer 1
10
176.250000
20
46.160300
11
176.250000
21
32.976500
0
LINE
8
Layer 1
10
176.250000
20
32.976500
11
163.068000
21
32.976500
0
LINE
8
Layer 1
10
163.068000
20
32.976500
11
163.068000
21
46.160300
0
LINE
8
Layer 1
10
215.799000
20
59.343000
11
228.981000
21
59.343000
0
LINE
8
Layer 1
10
228.981000
20
59.343000
11
228.981000
21
46.160300
0
LINE
8
Layer 1
10
228.981000
20
46.160300
11
215.799000
21
46.160300
0
LINE
8
Layer 1
10
215.799000
20
46.160300
11
215.799000
21
59.343000
0
LINE
8
Layer 1
10
163.068000
20
59.343000
11
176.250000
21
59.343000
0
LINE
8
Layer 1
10
176.250000
20
59.343000
11
176.250000
21
46.160300
0
LINE
8
Layer 1
10
176.250000
20
46.160300
11
163.068000
21
46.160300
0
LINE
8
Layer 1
10
163.068000
20
46.160300
11
163.068000
21
59.343000
0
LINE
8
Layer 1
10
202.616000
20
72.525800
11
215.799000
21
72.525800
0
LINE
8
Layer 1
10
215.799000
20
72.525800
11
215.799000
21
59.343000
0
LINE
8
Layer 1
10
215.799000
20
59.343000
11
202.616000
21
59.343000
0
LINE
8
Layer 1
10
202.616000
20
59.343000
11
202.616000
21
72.525800
0
LINE
8
Layer 1
10
189.433000
20
72.525800
11
202.616000
21
72.525800
0
LINE
8
Layer 1
10
202.616000
20
72.525800
11
202.616000
21
59.343000
0
LINE
8
Layer 1
10
202.616000
20
59.343000
11
189.433000
21
59.343000
0
LINE
8
Layer 1
10
189.433000
20
59.343000
11
189.433000
21
72.525800
0
LINE
8
Layer 1
10
176.250000
20
72.525800
11
189.433000
21
72.525800
0
LINE
8
Layer 1
10
189.433000
20
72.525800
11
189.433000
21
59.343000
0
LINE
8
Layer 1
10
189.433000
20
59.343000
11
176.250000
21
59.343000
0
LINE
8
Layer 1
10
176.250000
20
59.343000
11
176.250000
21
72.525800
0
LINE
8
Layer 1
10
163.068000
20
85.708600
11
176.250000
21
85.708600
0
LINE
8
Layer 1
10
176.250000
20
85.708600
11
176.250000
21
72.525800
0
LINE
8
Layer 1
10
176.250000
20
72.525800
11
163.068000
21
72.525800
0
LINE
8
Layer 1
10
163.068000
20
72.525800
11
163.068000
21
85.708600
0
LINE
8
Layer 1
10
163.068000
20
98.891400
11
176.250000
21
98.891400
0
LINE
8
Layer 1
10
176.250000
20
98.891400
11
176.250000
21
85.708600
0
LINE
8
Layer 1
10
176.250000
20
85.708600
11
163.068000
21
85.708600
0
LINE
8
Layer 1
10
163.068000
20
85.708600
11
163.068000
21
98.891400
0
LINE
8
Layer 1
10
163.068000
20
112.074000
11
176.250000
21
112.074000
0
LINE
8
Layer 1
10
176.250000
20
112.074000
11
176.250000
21
98.891400
0
LINE
8
Layer 1
10
176.250000
20
98.891400
11
163.068000
21
98.891400
0
LINE
8
Layer 1
10
163.068000
20
98.891400
11
163.068000
21
112.074000
0
LINE
8
Layer 1
10
202.616000
20
125.257000
11
215.799000
21
125.257000
0
LINE
8
Layer 1
10
215.799000
20
125.257000
11
215.799000
21
112.074000
0
LINE
8
Layer 1
10
215.799000
20
112.074000
11
202.616000
21
112.074000
0
LINE
8
Layer 1
10
202.616000
20
112.074000
11
202.616000
21
125.257000
0
LINE
8
Layer 1
10
189.433000
20
125.257000
11
202.616000
21
125.257000
0
LINE
8
Layer 1
10
202.616000
20
125.257000
11
202.616000
21
112.074000
0
LINE
8
Layer 1
10
202.616000
20
112.074000
11
189.433000
21
112.074000
0
LINE
8
Layer 1
10
189.433000
20
112.074000
11
189.433000
21
125.257000
0
LINE
8
Layer 1
10
176.250000
20
125.257000
11
189.433000
21
125.257000
0
LINE
8
Layer 1
10
189.433000
20
125.257000
11
189.433000
21
112.074000
0
LINE
8
Layer 1
10
189.433000
20
112.074000
11
176.250000
21
112.074000
0
LINE
8
Layer 1
10
176.250000
20
112.074000
11
176.250000
21
125.257000
 0 
ENDSEC
 0 
EOF