999
"DXF R12 Output" (www.mydxf.blogspot.com)
 0 
SECTION
 2 
HEADER
 9 
$ACADVER
 1 
AC1009
 9 
$EXTMIN
 10 
 0 
 20 
 0 
 9 
$EXTMAX
 10 
 8.5 
 20 
 11 
 0 
ENDSEC
 0 
SECTION
 2 
ENTITIES
0
LINE
8
Layer 1
10
0.793749
20
127.621000
11
-0.793749
21
126.033000
0
LINE
8
Layer 1
10
0.000000
20
128.150000
11
0.000000
21
125.504000
0
LINE
8
Layer 1
10
2.116660
20
125.769000
11
1.058330
21
124.710670
0
LINE
8
Layer 1
10
1.587500
20
126.298000
11
0.529170
21
125.239670
0
LINE
8
Layer 1
10
1.058330
20
126.827000
11
0.000000
21
125.768670
0
LINE
8
Layer 1
10
42.375800
20
14.447300
11
56.376500
21
14.447300
0
LINE
8
Layer 1
10
56.376500
20
14.447300
11
56.376500
21
0.446460
0
LINE
8
Layer 1
10
56.376500
20
0.446460
11
42.375800
21
0.446460
0
LINE
8
Layer 1
10
42.375800
20
0.446460
11
42.375800
21
14.447300
0
LINE
8
Layer 1
10
28.375100
20
14.447300
11
42.375800
21
14.447300
0
LINE
8
Layer 1
10
42.375800
20
14.447300
11
42.375800
21
0.446460
0
LINE
8
Layer 1
10
42.375800
20
0.446460
11
28.375100
21
0.446460
0
LINE
8
Layer 1
10
28.375100
20
0.446460
11
28.375100
21
14.447300
0
LINE
8
Layer 1
10
14.374200
20
14.447300
11
28.375100
21
14.447300
0
LINE
8
Layer 1
10
28.375100
20
14.447300
11
28.375100
21
0.446460
0
LINE
8
Layer 1
10
28.375100
20
0.446460
11
14.374200
21
0.446460
0
LINE
8
Layer 1
10
14.374200
20
0.446460
11
14.374200
21
14.447300
0
LINE
8
Layer 1
10
56.376500
20
28.448100
11
70.377600
21
28.448100
0
LINE
8
Layer 1
10
70.377600
20
28.448100
11
70.377600
21
14.447300
0
LINE
8
Layer 1
10
70.377600
20
14.447300
11
56.376500
21
14.447300
0
LINE
8
Layer 1
10
56.376500
20
14.447300
11
56.376500
21
28.448100
0
LINE
8
Layer 1
10
0.373355
20
28.448100
11
14.374200
21
28.448100
0
LINE
8
Layer 1
10
14.374200
20
28.448100
11
14.374200
21
14.447300
0
LINE
8
Layer 1
10
14.374200
20
14.447300
11
0.373355
21
14.447300
0
LINE
8
Layer 1
10
0.373355
20
14.447300
11
0.373355
21
28.448100
0
LINE
8
Layer 1
10
56.376500
20
42.448900
11
70.377600
21
42.448900
0
LINE
8
Layer 1
10
70.377600
20
42.448900
11
70.377600
21
28.448100
0
LINE
8
Layer 1
10
70.377600
20
28.448100
11
56.376500
21
28.448100
0
LINE
8
Layer 1
10
56.376500
20
28.448100
11
56.376500
21
42.448900
0
LINE
8
Layer 1
10
0.373355
20
42.448900
11
14.374200
21
42.448900
0
LINE
8
Layer 1
10
14.374200
20
42.448900
11
14.374200
21
28.448100
0
LINE
8
Layer 1
10
14.374200
20
28.448100
11
0.373355
21
28.448100
0
LINE
8
Layer 1
10
0.373355
20
28.448100
11
0.373355
21
42.448900
0
LINE
8
Layer 1
10
56.376500
20
56.449800
11
70.377600
21
56.449800
0
LINE
8
Layer 1
10
70.377600
20
56.449800
11
70.377600
21
42.448900
0
LINE
8
Layer 1
10
70.377600
20
42.448900
11
56.376500
21
42.448900
0
LINE
8
Layer 1
10
56.376500
20
42.448900
11
56.376500
21
56.449800
0
LINE
8
Layer 1
10
0.373355
20
56.449800
11
14.374200
21
56.449800
0
LINE
8
Layer 1
10
14.374200
20
56.449800
11
14.374200
21
42.448900
0
LINE
8
Layer 1
10
14.374200
20
42.448900
11
0.373355
21
42.448900
0
LINE
8
Layer 1
10
0.373355
20
42.448900
11
0.373355
21
56.449800
0
LINE
8
Layer 1
10
56.376500
20
84.451400
11
70.377600
21
84.451400
0
LINE
8
Layer 1
10
70.377600
20
84.451400
11
70.377600
21
70.450600
0
LINE
8
Layer 1
10
70.377600
20
70.450600
11
56.376500
21
70.450600
0
LINE
8
Layer 1
10
56.376500
20
70.450600
11
56.376500
21
84.451400
0
LINE
8
Layer 1
10
0.373355
20
84.451400
11
14.374200
21
84.451400
0
LINE
8
Layer 1
10
14.374200
20
84.451400
11
14.374200
21
70.450600
0
LINE
8
Layer 1
10
14.374200
20
70.450600
11
0.373355
21
70.450600
0
LINE
8
Layer 1
10
0.373355
20
70.450600
11
0.373355
21
84.451400
0
LINE
8
Layer 1
10
56.376500
20
98.452200
11
70.377600
21
98.452200
0
LINE
8
Layer 1
10
70.377600
20
98.452200
11
70.377600
21
84.451400
0
LINE
8
Layer 1
10
70.377600
20
84.451400
11
56.376500
21
84.451400
0
LINE
8
Layer 1
10
56.376500
20
84.451400
11
56.376500
21
98.452200
0
LINE
8
Layer 1
10
0.373355
20
98.452200
11
14.374200
21
98.452200
0
LINE
8
Layer 1
10
14.374200
20
98.452200
11
14.374200
21
84.451400
0
LINE
8
Layer 1
10
14.374200
20
84.451400
11
0.373355
21
84.451400
0
LINE
8
Layer 1
10
0.373355
20
84.451400
11
0.373355
21
98.452200
0
LINE
8
Layer 1
10
56.376500
20
112.453000
11
70.377600
21
112.453000
0
LINE
8
Layer 1
10
70.377600
20
112.453000
11
70.377600
21
98.452200
0
LINE
8
Layer 1
10
70.377600
20
98.452200
11
56.376500
21
98.452200
0
LINE
8
Layer 1
10
56.376500
20
98.452200
11
56.376500
21
112.453000
0
LINE
8
Layer 1
10
0.373355
20
112.453000
11
14.374200
21
112.453000
0
LINE
8
Layer 1
10
14.374200
20
112.453000
11
14.374200
21
98.452200
0
LINE
8
Layer 1
10
14.374200
20
98.452200
11
0.373355
21
98.452200
0
LINE
8
Layer 1
10
0.373355
20
98.452200
11
0.373355
21
112.453000
0
LINE
8
Layer 1
10
42.375800
20
126.454000
11
56.376500
21
126.454000
0
LINE
8
Layer 1
10
56.376500
20
126.454000
11
56.376500
21
112.453000
0
LINE
8
Layer 1
10
56.376500
20
112.453000
11
42.375800
21
112.453000
0
LINE
8
Layer 1
10
42.375800
20
112.453000
11
42.375800
21
126.454000
0
LINE
8
Layer 1
10
28.375100
20
126.454000
11
42.375800
21
126.454000
0
LINE
8
Layer 1
10
42.375800
20
126.454000
11
42.375800
21
112.453000
0
LINE
8
Layer 1
10
42.375800
20
112.453000
11
28.375100
21
112.453000
0
LINE
8
Layer 1
10
28.375100
20
112.453000
11
28.375100
21
126.454000
0
LINE
8
Layer 1
10
14.374200
20
126.454000
11
28.375100
21
126.454000
0
LINE
8
Layer 1
10
28.375100
20
126.454000
11
28.375100
21
112.453000
0
LINE
8
Layer 1
10
28.375100
20
112.453000
11
14.374200
21
112.453000
0
LINE
8
Layer 1
10
14.374200
20
112.453000
11
14.374200
21
126.454000
0
LINE
8
Layer 1
10
128.341000
20
14.447300
11
142.342000
21
14.447300
0
LINE
8
Layer 1
10
142.342000
20
14.447300
11
142.342000
21
0.446460
0
LINE
8
Layer 1
10
142.342000
20
0.446460
11
128.341000
21
0.446460
0
LINE
8
Layer 1
10
128.341000
20
0.446460
11
128.341000
21
14.447300
0
LINE
8
Layer 1
10
114.340000
20
14.447300
11
128.341000
21
14.447300
0
LINE
8
Layer 1
10
128.341000
20
14.447300
11
128.341000
21
0.446460
0
LINE
8
Layer 1
10
128.341000
20
0.446460
11
114.340000
21
0.446460
0
LINE
8
Layer 1
10
114.340000
20
0.446460
11
114.340000
21
14.447300
0
LINE
8
Layer 1
10
100.339000
20
14.447300
11
114.340000
21
14.447300
0
LINE
8
Layer 1
10
114.340000
20
14.447300
11
114.340000
21
0.446460
0
LINE
8
Layer 1
10
114.340000
20
0.446460
11
100.339000
21
0.446460
0
LINE
8
Layer 1
10
100.339000
20
0.446460
11
100.339000
21
14.447300
0
LINE
8
Layer 1
10
142.342000
20
28.448100
11
156.343000
21
28.448100
0
LINE
8
Layer 1
10
156.343000
20
28.448100
11
156.343000
21
14.447300
0
LINE
8
Layer 1
10
156.343000
20
14.447300
11
142.342000
21
14.447300
0
LINE
8
Layer 1
10
142.342000
20
14.447300
11
142.342000
21
28.448100
0
LINE
8
Layer 1
10
86.338400
20
28.448100
11
100.339000
21
28.448100
0
LINE
8
Layer 1
10
100.339000
20
28.448100
11
100.339000
21
14.447300
0
LINE
8
Layer 1
10
100.339000
20
14.447300
11
86.338400
21
14.447300
0
LINE
8
Layer 1
10
86.338400
20
14.447300
11
86.338400
21
28.448100
0
LINE
8
Layer 1
10
142.342000
20
42.448900
11
156.343000
21
42.448900
0
LINE
8
Layer 1
10
156.343000
20
42.448900
11
156.343000
21
28.448100
0
LINE
8
Layer 1
10
156.343000
20
28.448100
11
142.342000
21
28.448100
0
LINE
8
Layer 1
10
142.342000
20
28.448100
11
142.342000
21
42.448900
0
LINE
8
Layer 1
10
86.338400
20
42.448900
11
100.339000
21
42.448900
0
LINE
8
Layer 1
10
100.339000
20
42.448900
11
100.339000
21
28.448100
0
LINE
8
Layer 1
10
100.339000
20
28.448100
11
86.338400
21
28.448100
0
LINE
8
Layer 1
10
86.338400
20
28.448100
11
86.338400
21
42.448900
0
LINE
8
Layer 1
10
142.342000
20
56.449800
11
156.343000
21
56.449800
0
LINE
8
Layer 1
10
156.343000
20
56.449800
11
156.343000
21
42.448900
0
LINE
8
Layer 1
10
156.343000
20
42.448900
11
142.342000
21
42.448900
0
LINE
8
Layer 1
10
142.342000
20
42.448900
11
142.342000
21
56.449800
0
LINE
8
Layer 1
10
86.338400
20
56.449800
11
100.339000
21
56.449800
0
LINE
8
Layer 1
10
100.339000
20
56.449800
11
100.339000
21
42.448900
0
LINE
8
Layer 1
10
100.339000
20
42.448900
11
86.338400
21
42.448900
0
LINE
8
Layer 1
10
86.338400
20
42.448900
11
86.338400
21
56.449800
0
LINE
8
Layer 1
10
128.341000
20
70.450600
11
142.342000
21
70.450600
0
LINE
8
Layer 1
10
142.342000
20
70.450600
11
142.342000
21
56.449800
0
LINE
8
Layer 1
10
142.342000
20
56.449800
11
128.341000
21
56.449800
0
LINE
8
Layer 1
10
128.341000
20
56.449800
11
128.341000
21
70.450600
0
LINE
8
Layer 1
10
114.340000
20
70.450600
11
128.341000
21
70.450600
0
LINE
8
Layer 1
10
128.341000
20
70.450600
11
128.341000
21
56.449800
0
LINE
8
Layer 1
10
128.341000
20
56.449800
11
114.340000
21
56.449800
0
LINE
8
Layer 1
10
114.340000
20
56.449800
11
114.340000
21
70.450600
0
LINE
8
Layer 1
10
100.339000
20
70.450600
11
114.340000
21
70.450600
0
LINE
8
Layer 1
10
114.340000
20
70.450600
11
114.340000
21
56.449800
0
LINE
8
Layer 1
10
114.340000
20
56.449800
11
100.339000
21
56.449800
0
LINE
8
Layer 1
10
100.339000
20
56.449800
11
100.339000
21
70.450600
0
LINE
8
Layer 1
10
86.338400
20
84.451400
11
100.339000
21
84.451400
0
LINE
8
Layer 1
10
100.339000
20
84.451400
11
100.339000
21
70.450600
0
LINE
8
Layer 1
10
100.339000
20
70.450600
11
86.338400
21
70.450600
0
LINE
8
Layer 1
10
86.338400
20
70.450600
11
86.338400
21
84.451400
0
LINE
8
Layer 1
10
86.338400
20
98.452200
11
100.339000
21
98.452200
0
LINE
8
Layer 1
10
100.339000
20
98.452200
11
100.339000
21
84.451400
0
LINE
8
Layer 1
10
100.339000
20
84.451400
11
86.338400
21
84.451400
0
LINE
8
Layer 1
10
86.338400
20
84.451400
11
86.338400
21
98.452200
0
LINE
8
Layer 1
10
86.338400
20
112.453000
11
100.339000
21
112.453000
0
LINE
8
Layer 1
10
100.339000
20
112.453000
11
100.339000
21
98.452200
0
LINE
8
Layer 1
10
100.339000
20
98.452200
11
86.338400
21
98.452200
0
LINE
8
Layer 1
10
86.338400
20
98.452200
11
86.338400
21
112.453000
0
LINE
8
Layer 1
10
128.341000
20
126.454000
11
142.342000
21
126.454000
0
LINE
8
Layer 1
10
142.342000
20
126.454000
11
142.342000
21
112.453000
0
LINE
8
Layer 1
10
142.342000
20
112.453000
11
128.341000
21
112.453000
0
LINE
8
Layer 1
10
128.341000
20
112.453000
11
128.341000
21
126.454000
0
LINE
8
Layer 1
10
114.340000
20
126.454000
11
128.341000
21
126.454000
0
LINE
8
Layer 1
10
128.341000
20
126.454000
11
128.341000
21
112.453000
0
LINE
8
Layer 1
10
128.341000
20
112.453000
11
114.340000
21
112.453000
0
LINE
8
Layer 1
10
114.340000
20
112.453000
11
114.340000
21
126.454000
0
LINE
8
Layer 1
10
100.339000
20
126.454000
11
114.340000
21
126.454000
0
LINE
8
Layer 1
10
114.340000
20
126.454000
11
114.340000
21
112.453000
0
LINE
8
Layer 1
10
114.340000
20
112.453000
11
100.339000
21
112.453000
0
LINE
8
Layer 1
10
100.339000
20
112.453000
11
100.339000
21
126.454000
0
LINE
8
Layer 1
10
214.306000
20
28.448100
11
228.307000
21
28.448100
0
LINE
8
Layer 1
10
228.307000
20
28.448100
11
228.307000
21
14.447300
0
LINE
8
Layer 1
10
228.307000
20
14.447300
11
214.306000
21
14.447300
0
LINE
8
Layer 1
10
214.306000
20
14.447300
11
214.306000
21
28.448100
0
LINE
8
Layer 1
10
214.306000
20
42.448900
11
228.307000
21
42.448900
0
LINE
8
Layer 1
10
228.307000
20
42.448900
11
228.307000
21
28.448100
0
LINE
8
Layer 1
10
228.307000
20
28.448100
11
214.306000
21
28.448100
0
LINE
8
Layer 1
10
214.306000
20
28.448100
11
214.306000
21
42.448900
0
LINE
8
Layer 1
10
214.306000
20
56.449800
11
228.307000
21
56.449800
0
LINE
8
Layer 1
10
228.307000
20
56.449800
11
228.307000
21
42.448900
0
LINE
8
Layer 1
10
228.307000
20
42.448900
11
214.306000
21
42.448900
0
LINE
8
Layer 1
10
214.306000
20
42.448900
11
214.306000
21
56.449800
0
LINE
8
Layer 1
10
214.306000
20
84.451400
11
228.307000
21
84.451400
0
LINE
8
Layer 1
10
228.307000
20
84.451400
11
228.307000
21
70.450600
0
LINE
8
Layer 1
10
228.307000
20
70.450600
11
214.306000
21
70.450600
0
LINE
8
Layer 1
10
214.306000
20
70.450600
11
214.306000
21
84.451400
0
LINE
8
Layer 1
10
214.306000
20
98.452200
11
228.307000
21
98.452200
0
LINE
8
Layer 1
10
228.307000
20
98.452200
11
228.307000
21
84.451400
0
LINE
8
Layer 1
10
228.307000
20
84.451400
11
214.306000
21
84.451400
0
LINE
8
Layer 1
10
214.306000
20
84.451400
11
214.306000
21
98.452200
0
LINE
8
Layer 1
10
214.306000
20
112.453000
11
228.307000
21
112.453000
0
LINE
8
Layer 1
10
228.307000
20
112.453000
11
228.307000
21
98.452200
0
LINE
8
Layer 1
10
228.307000
20
98.452200
11
214.306000
21
98.452200
0
LINE
8
Layer 1
10
214.306000
20
98.452200
11
214.306000
21
112.453000
0
LINE
8
Layer 1
10
200.305000
20
126.454000
11
214.306000
21
126.454000
0
LINE
8
Layer 1
10
214.306000
20
126.454000
11
214.306000
21
112.453000
0
LINE
8
Layer 1
10
214.306000
20
112.453000
11
200.305000
21
112.453000
0
LINE
8
Layer 1
10
200.305000
20
112.453000
11
200.305000
21
126.454000
0
LINE
8
Layer 1
10
186.304000
20
126.454000
11
200.305000
21
126.454000
0
LINE
8
Layer 1
10
200.305000
20
126.454000
11
200.305000
21
112.453000
0
LINE
8
Layer 1
10
200.305000
20
112.453000
11
186.304000
21
112.453000
0
LINE
8
Layer 1
10
186.304000
20
112.453000
11
186.304000
21
126.454000
0
LINE
8
Layer 1
10
172.303000
20
126.454000
11
186.304000
21
126.454000
0
LINE
8
Layer 1
10
186.304000
20
126.454000
11
186.304000
21
112.453000
0
LINE
8
Layer 1
10
186.304000
20
112.453000
11
172.303000
21
112.453000
0
LINE
8
Layer 1
10
172.303000
20
112.453000
11
172.303000
21
126.454000
 0 
ENDSEC
 0 
EOF