999
"DXF R12 Output" (www.mydxf.blogspot.com)
 0 
SECTION
 2 
HEADER
 9 
$ACADVER
 1 
AC1009
 9 
$EXTMIN
 10 
 0 
 20 
 0 
 9 
$EXTMAX
 10 
 8.5 
 20 
 11 
 0 
ENDSEC
 0 
SECTION
 2 
ENTITIES
0
LINE
8
Layer 1
10
0.793749
20
127.642000
11
-0.793749
21
126.054000
0
LINE
8
Layer 1
10
0.000000
20
128.171000
11
0.000000
21
125.525000
0
LINE
8
Layer 1
10
2.116660
20
125.790000
11
1.058330
21
124.731670
0
LINE
8
Layer 1
10
1.587500
20
126.319000
11
0.529170
21
125.260670
0
LINE
8
Layer 1
10
1.058330
20
126.848000
11
0.000000
21
125.789670
0
LINE
8
Layer 1
10
1.569920
20
126.354000
11
0.087360
21
124.871200
0
LINE
8
Layer 1
10
0.828646
20
126.848000
11
0.828646
21
124.377000
0
LINE
8
Layer 1
10
2.805380
20
124.625000
11
1.817010
21
123.636000
0
LINE
8
Layer 1
10
2.311200
20
125.119000
11
1.322831
21
124.130629
0
LINE
8
Layer 1
10
1.817010
20
125.613000
11
0.828641
21
124.624629
0
LINE
8
Layer 1
10
40.674100
20
19.944300
11
53.838700
21
19.944300
0
LINE
8
Layer 1
10
53.838700
20
19.944300
11
53.838700
21
6.779240
0
LINE
8
Layer 1
10
53.838700
20
6.779240
11
40.674100
21
6.779240
0
LINE
8
Layer 1
10
40.674100
20
6.779240
11
40.674100
21
19.944300
0
LINE
8
Layer 1
10
27.509200
20
19.944300
11
40.674100
21
19.944300
0
LINE
8
Layer 1
10
40.674100
20
19.944300
11
40.674100
21
6.779240
0
LINE
8
Layer 1
10
40.674100
20
6.779240
11
27.509200
21
6.779240
0
LINE
8
Layer 1
10
27.509200
20
6.779240
11
27.509200
21
19.944300
0
LINE
8
Layer 1
10
14.344500
20
19.944300
11
27.509200
21
19.944300
0
LINE
8
Layer 1
10
27.509200
20
19.944300
11
27.509200
21
6.779240
0
LINE
8
Layer 1
10
27.509200
20
6.779240
11
14.344500
21
6.779240
0
LINE
8
Layer 1
10
14.344500
20
6.779240
11
14.344500
21
19.944300
0
LINE
8
Layer 1
10
53.838700
20
33.109400
11
67.003500
21
33.109400
0
LINE
8
Layer 1
10
67.003500
20
33.109400
11
67.003500
21
19.944300
0
LINE
8
Layer 1
10
67.003500
20
19.944300
11
53.838700
21
19.944300
0
LINE
8
Layer 1
10
53.838700
20
19.944300
11
53.838700
21
33.109400
0
LINE
8
Layer 1
10
1.179710
20
33.109400
11
14.344500
21
33.109400
0
LINE
8
Layer 1
10
14.344500
20
33.109400
11
14.344500
21
19.944300
0
LINE
8
Layer 1
10
14.344500
20
19.944300
11
1.179710
21
19.944300
0
LINE
8
Layer 1
10
1.179710
20
19.944300
11
1.179710
21
33.109400
0
LINE
8
Layer 1
10
53.838700
20
46.273100
11
67.003500
21
46.273100
0
LINE
8
Layer 1
10
67.003500
20
46.273100
11
67.003500
21
33.109400
0
LINE
8
Layer 1
10
67.003500
20
33.109400
11
53.838700
21
33.109400
0
LINE
8
Layer 1
10
53.838700
20
33.109400
11
53.838700
21
46.273100
0
LINE
8
Layer 1
10
1.179710
20
46.273100
11
14.344500
21
46.273100
0
LINE
8
Layer 1
10
14.344500
20
46.273100
11
14.344500
21
33.109400
0
LINE
8
Layer 1
10
14.344500
20
33.109400
11
1.179710
21
33.109400
0
LINE
8
Layer 1
10
1.179710
20
33.109400
11
1.179710
21
46.273100
0
LINE
8
Layer 1
10
53.838700
20
59.437900
11
67.003500
21
59.437900
0
LINE
8
Layer 1
10
67.003500
20
59.437900
11
67.003500
21
46.273100
0
LINE
8
Layer 1
10
67.003500
20
46.273100
11
53.838700
21
46.273100
0
LINE
8
Layer 1
10
53.838700
20
46.273100
11
53.838700
21
59.437900
0
LINE
8
Layer 1
10
1.179710
20
59.437900
11
14.344500
21
59.437900
0
LINE
8
Layer 1
10
14.344500
20
59.437900
11
14.344500
21
46.273100
0
LINE
8
Layer 1
10
14.344500
20
46.273100
11
1.179710
21
46.273100
0
LINE
8
Layer 1
10
1.179710
20
46.273100
11
1.179710
21
59.437900
0
LINE
8
Layer 1
10
53.838700
20
85.767600
11
67.003500
21
85.767600
0
LINE
8
Layer 1
10
67.003500
20
85.767600
11
67.003500
21
72.602800
0
LINE
8
Layer 1
10
67.003500
20
72.602800
11
53.838700
21
72.602800
0
LINE
8
Layer 1
10
53.838700
20
72.602800
11
53.838700
21
85.767600
0
LINE
8
Layer 1
10
1.179710
20
85.767600
11
14.344500
21
85.767600
0
LINE
8
Layer 1
10
14.344500
20
85.767600
11
14.344500
21
72.602800
0
LINE
8
Layer 1
10
14.344500
20
72.602800
11
1.179710
21
72.602800
0
LINE
8
Layer 1
10
1.179710
20
72.602800
11
1.179710
21
85.767600
0
LINE
8
Layer 1
10
53.838700
20
98.932200
11
67.003500
21
98.932200
0
LINE
8
Layer 1
10
67.003500
20
98.932200
11
67.003500
21
85.767600
0
LINE
8
Layer 1
10
67.003500
20
85.767600
11
53.838700
21
85.767600
0
LINE
8
Layer 1
10
53.838700
20
85.767600
11
53.838700
21
98.932200
0
LINE
8
Layer 1
10
1.179710
20
98.932200
11
14.344500
21
98.932200
0
LINE
8
Layer 1
10
14.344500
20
98.932200
11
14.344500
21
85.767600
0
LINE
8
Layer 1
10
14.344500
20
85.767600
11
1.179710
21
85.767600
0
LINE
8
Layer 1
10
1.179710
20
85.767600
11
1.179710
21
98.932200
0
LINE
8
Layer 1
10
53.838700
20
112.097000
11
67.003500
21
112.097000
0
LINE
8
Layer 1
10
67.003500
20
112.097000
11
67.003500
21
98.932200
0
LINE
8
Layer 1
10
67.003500
20
98.932200
11
53.838700
21
98.932200
0
LINE
8
Layer 1
10
53.838700
20
98.932200
11
53.838700
21
112.097000
0
LINE
8
Layer 1
10
1.179710
20
112.097000
11
14.344500
21
112.097000
0
LINE
8
Layer 1
10
14.344500
20
112.097000
11
14.344500
21
98.932200
0
LINE
8
Layer 1
10
14.344500
20
98.932200
11
1.179710
21
98.932200
0
LINE
8
Layer 1
10
1.179710
20
98.932200
11
1.179710
21
112.097000
0
LINE
8
Layer 1
10
40.674100
20
125.261000
11
53.838700
21
125.261000
0
LINE
8
Layer 1
10
53.838700
20
125.261000
11
53.838700
21
112.097000
0
LINE
8
Layer 1
10
53.838700
20
112.097000
11
40.674100
21
112.097000
0
LINE
8
Layer 1
10
40.674100
20
112.097000
11
40.674100
21
125.261000
0
LINE
8
Layer 1
10
27.509200
20
125.261000
11
40.674100
21
125.261000
0
LINE
8
Layer 1
10
40.674100
20
125.261000
11
40.674100
21
112.097000
0
LINE
8
Layer 1
10
40.674100
20
112.097000
11
27.509200
21
112.097000
0
LINE
8
Layer 1
10
27.509200
20
112.097000
11
27.509200
21
125.261000
0
LINE
8
Layer 1
10
14.344500
20
125.261000
11
27.509200
21
125.261000
0
LINE
8
Layer 1
10
27.509200
20
125.261000
11
27.509200
21
112.097000
0
LINE
8
Layer 1
10
27.509200
20
112.097000
11
14.344500
21
112.097000
0
LINE
8
Layer 1
10
14.344500
20
112.097000
11
14.344500
21
125.261000
0
LINE
8
Layer 1
10
121.506000
20
33.109400
11
134.671000
21
33.109400
0
LINE
8
Layer 1
10
134.671000
20
33.109400
11
134.671000
21
19.944300
0
LINE
8
Layer 1
10
134.671000
20
19.944300
11
121.506000
21
19.944300
0
LINE
8
Layer 1
10
121.506000
20
19.944300
11
121.506000
21
33.109400
0
LINE
8
Layer 1
10
121.506000
20
46.273100
11
134.671000
21
46.273100
0
LINE
8
Layer 1
10
134.671000
20
46.273100
11
134.671000
21
33.109400
0
LINE
8
Layer 1
10
134.671000
20
33.109400
11
121.506000
21
33.109400
0
LINE
8
Layer 1
10
121.506000
20
33.109400
11
121.506000
21
46.273100
0
LINE
8
Layer 1
10
121.506000
20
59.437900
11
134.671000
21
59.437900
0
LINE
8
Layer 1
10
134.671000
20
59.437900
11
134.671000
21
46.273100
0
LINE
8
Layer 1
10
134.671000
20
46.273100
11
121.506000
21
46.273100
0
LINE
8
Layer 1
10
121.506000
20
46.273100
11
121.506000
21
59.437900
0
LINE
8
Layer 1
10
121.506000
20
85.767600
11
134.671000
21
85.767600
0
LINE
8
Layer 1
10
134.671000
20
85.767600
11
134.671000
21
72.602800
0
LINE
8
Layer 1
10
134.671000
20
72.602800
11
121.506000
21
72.602800
0
LINE
8
Layer 1
10
121.506000
20
72.602800
11
121.506000
21
85.767600
0
LINE
8
Layer 1
10
121.506000
20
98.932200
11
134.671000
21
98.932200
0
LINE
8
Layer 1
10
134.671000
20
98.932200
11
134.671000
21
85.767600
0
LINE
8
Layer 1
10
134.671000
20
85.767600
11
121.506000
21
85.767600
0
LINE
8
Layer 1
10
121.506000
20
85.767600
11
121.506000
21
98.932200
0
LINE
8
Layer 1
10
121.506000
20
112.097000
11
134.671000
21
112.097000
0
LINE
8
Layer 1
10
134.671000
20
112.097000
11
134.671000
21
98.932200
0
LINE
8
Layer 1
10
134.671000
20
98.932200
11
121.506000
21
98.932200
0
LINE
8
Layer 1
10
121.506000
20
98.932200
11
121.506000
21
112.097000
0
LINE
8
Layer 1
10
108.341000
20
125.261000
11
121.506000
21
125.261000
0
LINE
8
Layer 1
10
121.506000
20
125.261000
11
121.506000
21
112.097000
0
LINE
8
Layer 1
10
121.506000
20
112.097000
11
108.341000
21
112.097000
0
LINE
8
Layer 1
10
108.341000
20
112.097000
11
108.341000
21
125.261000
0
LINE
8
Layer 1
10
95.176300
20
125.261000
11
108.341000
21
125.261000
0
LINE
8
Layer 1
10
108.341000
20
125.261000
11
108.341000
21
112.097000
0
LINE
8
Layer 1
10
108.341000
20
112.097000
11
95.176300
21
112.097000
0
LINE
8
Layer 1
10
95.176300
20
112.097000
11
95.176300
21
125.261000
0
LINE
8
Layer 1
10
82.011500
20
125.261000
11
95.176300
21
125.261000
0
LINE
8
Layer 1
10
95.176300
20
125.261000
11
95.176300
21
112.097000
0
LINE
8
Layer 1
10
95.176300
20
112.097000
11
82.011500
21
112.097000
0
LINE
8
Layer 1
10
82.011500
20
112.097000
11
82.011500
21
125.261000
0
LINE
8
Layer 1
10
202.338000
20
19.944300
11
215.502000
21
19.944300
0
LINE
8
Layer 1
10
215.502000
20
19.944300
11
215.502000
21
6.779240
0
LINE
8
Layer 1
10
215.502000
20
6.779240
11
202.338000
21
6.779240
0
LINE
8
Layer 1
10
202.338000
20
6.779240
11
202.338000
21
19.944300
0
LINE
8
Layer 1
10
189.173000
20
19.944300
11
202.338000
21
19.944300
0
LINE
8
Layer 1
10
202.338000
20
19.944300
11
202.338000
21
6.779240
0
LINE
8
Layer 1
10
202.338000
20
6.779240
11
189.173000
21
6.779240
0
LINE
8
Layer 1
10
189.173000
20
6.779240
11
189.173000
21
19.944300
0
LINE
8
Layer 1
10
176.008000
20
19.944300
11
189.173000
21
19.944300
0
LINE
8
Layer 1
10
189.173000
20
19.944300
11
189.173000
21
6.779240
0
LINE
8
Layer 1
10
189.173000
20
6.779240
11
176.008000
21
6.779240
0
LINE
8
Layer 1
10
176.008000
20
6.779240
11
176.008000
21
19.944300
0
LINE
8
Layer 1
10
215.502000
20
33.109400
11
228.667000
21
33.109400
0
LINE
8
Layer 1
10
228.667000
20
33.109400
11
228.667000
21
19.944300
0
LINE
8
Layer 1
10
228.667000
20
19.944300
11
215.502000
21
19.944300
0
LINE
8
Layer 1
10
215.502000
20
19.944300
11
215.502000
21
33.109400
0
LINE
8
Layer 1
10
162.843000
20
33.109400
11
176.008000
21
33.109400
0
LINE
8
Layer 1
10
176.008000
20
33.109400
11
176.008000
21
19.944300
0
LINE
8
Layer 1
10
176.008000
20
19.944300
11
162.843000
21
19.944300
0
LINE
8
Layer 1
10
162.843000
20
19.944300
11
162.843000
21
33.109400
0
LINE
8
Layer 1
10
215.502000
20
46.273100
11
228.667000
21
46.273100
0
LINE
8
Layer 1
10
228.667000
20
46.273100
11
228.667000
21
33.109400
0
LINE
8
Layer 1
10
228.667000
20
33.109400
11
215.502000
21
33.109400
0
LINE
8
Layer 1
10
215.502000
20
33.109400
11
215.502000
21
46.273100
0
LINE
8
Layer 1
10
162.843000
20
46.273100
11
176.008000
21
46.273100
0
LINE
8
Layer 1
10
176.008000
20
46.273100
11
176.008000
21
33.109400
0
LINE
8
Layer 1
10
176.008000
20
33.109400
11
162.843000
21
33.109400
0
LINE
8
Layer 1
10
162.843000
20
33.109400
11
162.843000
21
46.273100
0
LINE
8
Layer 1
10
215.502000
20
59.437900
11
228.667000
21
59.437900
0
LINE
8
Layer 1
10
228.667000
20
59.437900
11
228.667000
21
46.273100
0
LINE
8
Layer 1
10
228.667000
20
46.273100
11
215.502000
21
46.273100
0
LINE
8
Layer 1
10
215.502000
20
46.273100
11
215.502000
21
59.437900
0
LINE
8
Layer 1
10
162.843000
20
59.437900
11
176.008000
21
59.437900
0
LINE
8
Layer 1
10
176.008000
20
59.437900
11
176.008000
21
46.273100
0
LINE
8
Layer 1
10
176.008000
20
46.273100
11
162.843000
21
46.273100
0
LINE
8
Layer 1
10
162.843000
20
46.273100
11
162.843000
21
59.437900
0
LINE
8
Layer 1
10
202.338000
20
72.602800
11
215.502000
21
72.602800
0
LINE
8
Layer 1
10
215.502000
20
72.602800
11
215.502000
21
59.437900
0
LINE
8
Layer 1
10
215.502000
20
59.437900
11
202.338000
21
59.437900
0
LINE
8
Layer 1
10
202.338000
20
59.437900
11
202.338000
21
72.602800
0
LINE
8
Layer 1
10
189.173000
20
72.602800
11
202.338000
21
72.602800
0
LINE
8
Layer 1
10
202.338000
20
72.602800
11
202.338000
21
59.437900
0
LINE
8
Layer 1
10
202.338000
20
59.437900
11
189.173000
21
59.437900
0
LINE
8
Layer 1
10
189.173000
20
59.437900
11
189.173000
21
72.602800
0
LINE
8
Layer 1
10
176.008000
20
72.602800
11
189.173000
21
72.602800
0
LINE
8
Layer 1
10
189.173000
20
72.602800
11
189.173000
21
59.437900
0
LINE
8
Layer 1
10
189.173000
20
59.437900
11
176.008000
21
59.437900
0
LINE
8
Layer 1
10
176.008000
20
59.437900
11
176.008000
21
72.602800
0
LINE
8
Layer 1
10
162.843000
20
85.767600
11
176.008000
21
85.767600
0
LINE
8
Layer 1
10
176.008000
20
85.767600
11
176.008000
21
72.602800
0
LINE
8
Layer 1
10
176.008000
20
72.602800
11
162.843000
21
72.602800
0
LINE
8
Layer 1
10
162.843000
20
72.602800
11
162.843000
21
85.767600
0
LINE
8
Layer 1
10
162.843000
20
98.932200
11
176.008000
21
98.932200
0
LINE
8
Layer 1
10
176.008000
20
98.932200
11
176.008000
21
85.767600
0
LINE
8
Layer 1
10
176.008000
20
85.767600
11
162.843000
21
85.767600
0
LINE
8
Layer 1
10
162.843000
20
85.767600
11
162.843000
21
98.932200
0
LINE
8
Layer 1
10
162.843000
20
112.097000
11
176.008000
21
112.097000
0
LINE
8
Layer 1
10
176.008000
20
112.097000
11
176.008000
21
98.932200
0
LINE
8
Layer 1
10
176.008000
20
98.932200
11
162.843000
21
98.932200
0
LINE
8
Layer 1
10
162.843000
20
98.932200
11
162.843000
21
112.097000
0
LINE
8
Layer 1
10
202.338000
20
125.261000
11
215.502000
21
125.261000
0
LINE
8
Layer 1
10
215.502000
20
125.261000
11
215.502000
21
112.097000
0
LINE
8
Layer 1
10
215.502000
20
112.097000
11
202.338000
21
112.097000
0
LINE
8
Layer 1
10
202.338000
20
112.097000
11
202.338000
21
125.261000
0
LINE
8
Layer 1
10
189.173000
20
125.261000
11
202.338000
21
125.261000
0
LINE
8
Layer 1
10
202.338000
20
125.261000
11
202.338000
21
112.097000
0
LINE
8
Layer 1
10
202.338000
20
112.097000
11
189.173000
21
112.097000
0
LINE
8
Layer 1
10
189.173000
20
112.097000
11
189.173000
21
125.261000
0
LINE
8
Layer 1
10
176.008000
20
125.261000
11
189.173000
21
125.261000
0
LINE
8
Layer 1
10
189.173000
20
125.261000
11
189.173000
21
112.097000
0
LINE
8
Layer 1
10
189.173000
20
112.097000
11
176.008000
21
112.097000
0
LINE
8
Layer 1
10
176.008000
20
112.097000
11
176.008000
21
125.261000
 0 
ENDSEC
 0 
EOF