999
"DXF R12 Output" (www.mydxf.blogspot.com)
 0 
SECTION
 2 
HEADER
 9 
$ACADVER
 1 
AC1009
 9 
$EXTMIN
 10 
 0 
 20 
 0 
 9 
$EXTMAX
 10 
 8.5 
 20 
 11 
 0 
ENDSEC
 0 
SECTION
 2 
ENTITIES
0
LINE
8
Layer 1
10
0.793749
20
127.642000
11
-0.793749
21
126.054000
0
LINE
8
Layer 1
10
0.000000
20
128.171000
11
0.000000
21
125.525000
0
LINE
8
Layer 1
10
2.116660
20
125.790000
11
1.058330
21
124.731670
0
LINE
8
Layer 1
10
1.587500
20
126.319000
11
0.529170
21
125.260670
0
LINE
8
Layer 1
10
1.058330
20
126.848000
11
0.000000
21
125.789670
0
LINE
8
Layer 1
10
1.634360
20
126.334000
11
0.090950
21
124.790330
0
LINE
8
Layer 1
10
0.862658
20
126.848000
11
0.862658
21
124.276000
0
LINE
8
Layer 1
10
2.920530
20
124.533000
11
1.891590
21
123.504060
0
LINE
8
Layer 1
10
2.406070
20
125.048000
11
1.377130
21
124.019000
0
LINE
8
Layer 1
10
1.891590
20
125.562000
11
0.862650
21
124.533060
0
LINE
8
Layer 1
10
1.225610
20
29.907500
11
14.837600
21
29.907500
0
LINE
8
Layer 1
10
14.837600
20
29.907500
11
14.837600
21
16.297200
0
LINE
8
Layer 1
10
14.837600
20
16.297200
11
1.225610
21
16.297200
0
LINE
8
Layer 1
10
1.225610
20
16.297200
11
1.225610
21
29.907500
0
LINE
8
Layer 1
10
1.225610
20
43.520700
11
14.837600
21
43.520700
0
LINE
8
Layer 1
10
14.837600
20
43.520700
11
14.837600
21
29.907500
0
LINE
8
Layer 1
10
14.837600
20
29.907500
11
1.225610
21
29.907500
0
LINE
8
Layer 1
10
1.225610
20
29.907500
11
1.225610
21
43.520700
0
LINE
8
Layer 1
10
1.225610
20
57.132800
11
14.837600
21
57.132800
0
LINE
8
Layer 1
10
14.837600
20
57.132800
11
14.837600
21
43.520700
0
LINE
8
Layer 1
10
14.837600
20
43.520700
11
1.225610
21
43.520700
0
LINE
8
Layer 1
10
1.225610
20
43.520700
11
1.225610
21
57.132800
0
LINE
8
Layer 1
10
1.225610
20
84.357500
11
14.837600
21
84.357500
0
LINE
8
Layer 1
10
14.837600
20
84.357500
11
14.837600
21
70.744900
0
LINE
8
Layer 1
10
14.837600
20
70.744900
11
1.225610
21
70.744900
0
LINE
8
Layer 1
10
1.225610
20
70.744900
11
1.225610
21
84.357500
0
LINE
8
Layer 1
10
1.225610
20
97.969600
11
14.837600
21
97.969600
0
LINE
8
Layer 1
10
14.837600
20
97.969600
11
14.837600
21
84.357500
0
LINE
8
Layer 1
10
14.837600
20
84.357500
11
1.225610
21
84.357500
0
LINE
8
Layer 1
10
1.225610
20
84.357500
11
1.225610
21
97.969600
0
LINE
8
Layer 1
10
1.225610
20
111.581000
11
14.837600
21
111.581000
0
LINE
8
Layer 1
10
14.837600
20
111.581000
11
14.837600
21
97.969600
0
LINE
8
Layer 1
10
14.837600
20
97.969600
11
1.225610
21
97.969600
0
LINE
8
Layer 1
10
1.225610
20
97.969600
11
1.225610
21
111.581000
0
LINE
8
Layer 1
10
71.293000
20
16.305000
11
84.905100
21
16.305000
0
LINE
8
Layer 1
10
84.905100
20
16.305000
11
84.905100
21
2.692120
0
LINE
8
Layer 1
10
84.905100
20
2.692120
11
71.293000
21
2.692120
0
LINE
8
Layer 1
10
71.293000
20
2.692120
11
71.293000
21
16.305000
0
LINE
8
Layer 1
10
57.680900
20
16.305000
11
71.293000
21
16.305000
0
LINE
8
Layer 1
10
71.293000
20
16.305000
11
71.293000
21
2.692120
0
LINE
8
Layer 1
10
71.293000
20
2.692120
11
57.680900
21
2.692120
0
LINE
8
Layer 1
10
57.680900
20
2.692120
11
57.680900
21
16.305000
0
LINE
8
Layer 1
10
44.068800
20
16.305000
11
57.680900
21
16.305000
0
LINE
8
Layer 1
10
57.680900
20
16.305000
11
57.680900
21
2.692120
0
LINE
8
Layer 1
10
57.680900
20
2.692120
11
44.068800
21
2.692120
0
LINE
8
Layer 1
10
44.068800
20
2.692120
11
44.068800
21
16.305000
0
LINE
8
Layer 1
10
30.457000
20
29.917800
11
44.068800
21
29.917800
0
LINE
8
Layer 1
10
44.068800
20
29.917800
11
44.068800
21
16.305000
0
LINE
8
Layer 1
10
44.068800
20
16.305000
11
30.457000
21
16.305000
0
LINE
8
Layer 1
10
30.457000
20
16.305000
11
30.457000
21
29.917800
0
LINE
8
Layer 1
10
30.457000
20
43.528600
11
44.068800
21
43.528600
0
LINE
8
Layer 1
10
44.068800
20
43.528600
11
44.068800
21
29.917800
0
LINE
8
Layer 1
10
44.068800
20
29.917800
11
30.457000
21
29.917800
0
LINE
8
Layer 1
10
30.457000
20
29.917800
11
30.457000
21
43.528600
0
LINE
8
Layer 1
10
30.457000
20
57.140700
11
44.068800
21
57.140700
0
LINE
8
Layer 1
10
44.068800
20
57.140700
11
44.068800
21
43.528600
0
LINE
8
Layer 1
10
44.068800
20
43.528600
11
30.457000
21
43.528600
0
LINE
8
Layer 1
10
30.457000
20
43.528600
11
30.457000
21
57.140700
0
LINE
8
Layer 1
10
71.293000
20
70.753600
11
84.905100
21
70.753600
0
LINE
8
Layer 1
10
84.905100
20
70.753600
11
84.905100
21
57.140700
0
LINE
8
Layer 1
10
84.905100
20
57.140700
11
71.293000
21
57.140700
0
LINE
8
Layer 1
10
71.293000
20
57.140700
11
71.293000
21
70.753600
0
LINE
8
Layer 1
10
57.680900
20
70.753600
11
71.293000
21
70.753600
0
LINE
8
Layer 1
10
71.293000
20
70.753600
11
71.293000
21
57.140700
0
LINE
8
Layer 1
10
71.293000
20
57.140700
11
57.680900
21
57.140700
0
LINE
8
Layer 1
10
57.680900
20
57.140700
11
57.680900
21
70.753600
0
LINE
8
Layer 1
10
44.068800
20
70.753600
11
57.680900
21
70.753600
0
LINE
8
Layer 1
10
57.680900
20
70.753600
11
57.680900
21
57.140700
0
LINE
8
Layer 1
10
57.680900
20
57.140700
11
44.068800
21
57.140700
0
LINE
8
Layer 1
10
44.068800
20
57.140700
11
44.068800
21
70.753600
0
LINE
8
Layer 1
10
84.905100
20
84.365400
11
98.517000
21
84.365400
0
LINE
8
Layer 1
10
98.517000
20
84.365400
11
98.517000
21
70.753600
0
LINE
8
Layer 1
10
98.517000
20
70.753600
11
84.905100
21
70.753600
0
LINE
8
Layer 1
10
84.905100
20
70.753600
11
84.905100
21
84.365400
0
LINE
8
Layer 1
10
84.905100
20
97.974700
11
98.517000
21
97.974700
0
LINE
8
Layer 1
10
98.517000
20
97.974700
11
98.517000
21
84.365400
0
LINE
8
Layer 1
10
98.517000
20
84.365400
11
84.905100
21
84.365400
0
LINE
8
Layer 1
10
84.905100
20
84.365400
11
84.905100
21
97.974700
0
LINE
8
Layer 1
10
84.905100
20
111.587000
11
98.517000
21
111.587000
0
LINE
8
Layer 1
10
98.517000
20
111.587000
11
98.517000
21
97.974700
0
LINE
8
Layer 1
10
98.517000
20
97.974700
11
84.905100
21
97.974700
0
LINE
8
Layer 1
10
84.905100
20
97.974700
11
84.905100
21
111.587000
0
LINE
8
Layer 1
10
71.293000
20
125.199000
11
84.905100
21
125.199000
0
LINE
8
Layer 1
10
84.905100
20
125.199000
11
84.905100
21
111.587000
0
LINE
8
Layer 1
10
84.905100
20
111.587000
11
71.293000
21
111.587000
0
LINE
8
Layer 1
10
71.293000
20
111.587000
11
71.293000
21
125.199000
0
LINE
8
Layer 1
10
57.680900
20
125.199000
11
71.293000
21
125.199000
0
LINE
8
Layer 1
10
71.293000
20
125.199000
11
71.293000
21
111.587000
0
LINE
8
Layer 1
10
71.293000
20
111.587000
11
57.680900
21
111.587000
0
LINE
8
Layer 1
10
57.680900
20
111.587000
11
57.680900
21
125.199000
0
LINE
8
Layer 1
10
44.068800
20
125.199000
11
57.680900
21
125.199000
0
LINE
8
Layer 1
10
57.680900
20
125.199000
11
57.680900
21
111.587000
0
LINE
8
Layer 1
10
57.680900
20
111.587000
11
44.068800
21
111.587000
0
LINE
8
Layer 1
10
44.068800
20
111.587000
11
44.068800
21
125.199000
0
LINE
8
Layer 1
10
154.871000
20
16.305000
11
168.483000
21
16.305000
0
LINE
8
Layer 1
10
168.483000
20
16.305000
11
168.483000
21
2.692120
0
LINE
8
Layer 1
10
168.483000
20
2.692120
11
154.871000
21
2.692120
0
LINE
8
Layer 1
10
154.871000
20
2.692120
11
154.871000
21
16.305000
0
LINE
8
Layer 1
10
141.259000
20
16.305000
11
154.871000
21
16.305000
0
LINE
8
Layer 1
10
154.871000
20
16.305000
11
154.871000
21
2.692120
0
LINE
8
Layer 1
10
154.871000
20
2.692120
11
141.259000
21
2.692120
0
LINE
8
Layer 1
10
141.259000
20
2.692120
11
141.259000
21
16.305000
0
LINE
8
Layer 1
10
127.647000
20
16.305000
11
141.259000
21
16.305000
0
LINE
8
Layer 1
10
141.259000
20
16.305000
11
141.259000
21
2.692120
0
LINE
8
Layer 1
10
141.259000
20
2.692120
11
127.647000
21
2.692120
0
LINE
8
Layer 1
10
127.647000
20
2.692120
11
127.647000
21
16.305000
0
LINE
8
Layer 1
10
168.483000
20
29.917800
11
182.095000
21
29.917800
0
LINE
8
Layer 1
10
182.095000
20
29.917800
11
182.095000
21
16.305000
0
LINE
8
Layer 1
10
182.095000
20
16.305000
11
168.483000
21
16.305000
0
LINE
8
Layer 1
10
168.483000
20
16.305000
11
168.483000
21
29.917800
0
LINE
8
Layer 1
10
114.035000
20
29.917800
11
127.647000
21
29.917800
0
LINE
8
Layer 1
10
127.647000
20
29.917800
11
127.647000
21
16.305000
0
LINE
8
Layer 1
10
127.647000
20
16.305000
11
114.035000
21
16.305000
0
LINE
8
Layer 1
10
114.035000
20
16.305000
11
114.035000
21
29.917800
0
LINE
8
Layer 1
10
168.483000
20
43.528600
11
182.095000
21
43.528600
0
LINE
8
Layer 1
10
182.095000
20
43.528600
11
182.095000
21
29.917800
0
LINE
8
Layer 1
10
182.095000
20
29.917800
11
168.483000
21
29.917800
0
LINE
8
Layer 1
10
168.483000
20
29.917800
11
168.483000
21
43.528600
0
LINE
8
Layer 1
10
114.035000
20
43.528600
11
127.647000
21
43.528600
0
LINE
8
Layer 1
10
127.647000
20
43.528600
11
127.647000
21
29.917800
0
LINE
8
Layer 1
10
127.647000
20
29.917800
11
114.035000
21
29.917800
0
LINE
8
Layer 1
10
114.035000
20
29.917800
11
114.035000
21
43.528600
0
LINE
8
Layer 1
10
168.483000
20
57.140700
11
182.095000
21
57.140700
0
LINE
8
Layer 1
10
182.095000
20
57.140700
11
182.095000
21
43.528600
0
LINE
8
Layer 1
10
182.095000
20
43.528600
11
168.483000
21
43.528600
0
LINE
8
Layer 1
10
168.483000
20
43.528600
11
168.483000
21
57.140700
0
LINE
8
Layer 1
10
114.035000
20
57.140700
11
127.647000
21
57.140700
0
LINE
8
Layer 1
10
127.647000
20
57.140700
11
127.647000
21
43.528600
0
LINE
8
Layer 1
10
127.647000
20
43.528600
11
114.035000
21
43.528600
0
LINE
8
Layer 1
10
114.035000
20
43.528600
11
114.035000
21
57.140700
0
LINE
8
Layer 1
10
154.871000
20
70.753600
11
168.483000
21
70.753600
0
LINE
8
Layer 1
10
168.483000
20
70.753600
11
168.483000
21
57.140700
0
LINE
8
Layer 1
10
168.483000
20
57.140700
11
154.871000
21
57.140700
0
LINE
8
Layer 1
10
154.871000
20
57.140700
11
154.871000
21
70.753600
0
LINE
8
Layer 1
10
141.259000
20
70.753600
11
154.871000
21
70.753600
0
LINE
8
Layer 1
10
154.871000
20
70.753600
11
154.871000
21
57.140700
0
LINE
8
Layer 1
10
154.871000
20
57.140700
11
141.259000
21
57.140700
0
LINE
8
Layer 1
10
141.259000
20
57.140700
11
141.259000
21
70.753600
0
LINE
8
Layer 1
10
127.647000
20
70.753600
11
141.259000
21
70.753600
0
LINE
8
Layer 1
10
141.259000
20
70.753600
11
141.259000
21
57.140700
0
LINE
8
Layer 1
10
141.259000
20
57.140700
11
127.647000
21
57.140700
0
LINE
8
Layer 1
10
127.647000
20
57.140700
11
127.647000
21
70.753600
0
LINE
8
Layer 1
10
168.483000
20
84.365400
11
182.095000
21
84.365400
0
LINE
8
Layer 1
10
182.095000
20
84.365400
11
182.095000
21
70.753600
0
LINE
8
Layer 1
10
182.095000
20
70.753600
11
168.483000
21
70.753600
0
LINE
8
Layer 1
10
168.483000
20
70.753600
11
168.483000
21
84.365400
0
LINE
8
Layer 1
10
114.035000
20
84.365400
11
127.647000
21
84.365400
0
LINE
8
Layer 1
10
127.647000
20
84.365400
11
127.647000
21
70.753600
0
LINE
8
Layer 1
10
127.647000
20
70.753600
11
114.035000
21
70.753600
0
LINE
8
Layer 1
10
114.035000
20
70.753600
11
114.035000
21
84.365400
0
LINE
8
Layer 1
10
168.483000
20
97.974700
11
182.095000
21
97.974700
0
LINE
8
Layer 1
10
182.095000
20
97.974700
11
182.095000
21
84.365400
0
LINE
8
Layer 1
10
182.095000
20
84.365400
11
168.483000
21
84.365400
0
LINE
8
Layer 1
10
168.483000
20
84.365400
11
168.483000
21
97.974700
0
LINE
8
Layer 1
10
114.035000
20
97.974700
11
127.647000
21
97.974700
0
LINE
8
Layer 1
10
127.647000
20
97.974700
11
127.647000
21
84.365400
0
LINE
8
Layer 1
10
127.647000
20
84.365400
11
114.035000
21
84.365400
0
LINE
8
Layer 1
10
114.035000
20
84.365400
11
114.035000
21
97.974700
0
LINE
8
Layer 1
10
168.483000
20
111.587000
11
182.095000
21
111.587000
0
LINE
8
Layer 1
10
182.095000
20
111.587000
11
182.095000
21
97.974700
0
LINE
8
Layer 1
10
182.095000
20
97.974700
11
168.483000
21
97.974700
0
LINE
8
Layer 1
10
168.483000
20
97.974700
11
168.483000
21
111.587000
0
LINE
8
Layer 1
10
114.035000
20
111.587000
11
127.647000
21
111.587000
0
LINE
8
Layer 1
10
127.647000
20
111.587000
11
127.647000
21
97.974700
0
LINE
8
Layer 1
10
127.647000
20
97.974700
11
114.035000
21
97.974700
0
LINE
8
Layer 1
10
114.035000
20
97.974700
11
114.035000
21
111.587000
0
LINE
8
Layer 1
10
154.871000
20
125.199000
11
168.483000
21
125.199000
0
LINE
8
Layer 1
10
168.483000
20
125.199000
11
168.483000
21
111.587000
0
LINE
8
Layer 1
10
168.483000
20
111.587000
11
154.871000
21
111.587000
0
LINE
8
Layer 1
10
154.871000
20
111.587000
11
154.871000
21
125.199000
0
LINE
8
Layer 1
10
141.259000
20
125.199000
11
154.871000
21
125.199000
0
LINE
8
Layer 1
10
154.871000
20
125.199000
11
154.871000
21
111.587000
0
LINE
8
Layer 1
10
154.871000
20
111.587000
11
141.259000
21
111.587000
0
LINE
8
Layer 1
10
141.259000
20
111.587000
11
141.259000
21
125.199000
0
LINE
8
Layer 1
10
127.647000
20
125.199000
11
141.259000
21
125.199000
0
LINE
8
Layer 1
10
141.259000
20
125.199000
11
141.259000
21
111.587000
0
LINE
8
Layer 1
10
141.259000
20
111.587000
11
127.647000
21
111.587000
0
LINE
8
Layer 1
10
127.647000
20
111.587000
11
127.647000
21
125.199000
 0 
ENDSEC
 0 
EOF