999
"DXF R12 Output" (www.mydxf.blogspot.com)
 0 
SECTION
 2 
HEADER
 9 
$ACADVER
 1 
AC1009
 9 
$EXTMIN
 10 
 0 
 20 
 0 
 9 
$EXTMAX
 10 
 8.5 
 20 
 11 
 0 
ENDSEC
 0 
SECTION
 2 
ENTITIES
0
LINE
8
Layer 1
10
0.793749
20
127.642000
11
-0.793749
21
126.054000
0
LINE
8
Layer 1
10
0.000000
20
128.171000
11
0.000000
21
125.525000
0
LINE
8
Layer 1
10
2.116660
20
125.790000
11
1.058330
21
124.731670
0
LINE
8
Layer 1
10
1.587500
20
126.319000
11
0.529170
21
125.260670
0
LINE
8
Layer 1
10
1.058330
20
126.848000
11
0.000000
21
125.789670
0
LINE
8
Layer 1
10
1.568920
20
126.354000
11
0.087320
21
124.872150
0
LINE
8
Layer 1
10
0.828114
20
126.848000
11
0.828114
21
124.379000
0
LINE
8
Layer 1
10
2.803580
20
124.626000
11
1.815846
21
123.638264
0
LINE
8
Layer 1
10
2.309720
20
125.120000
11
1.321986
21
124.132264
0
LINE
8
Layer 1
10
1.815850
20
125.613000
11
0.828116
21
124.625264
0
LINE
8
Layer 1
10
1.220590
20
22.195900
11
15.938300
21
22.195900
0
LINE
8
Layer 1
10
15.938300
20
22.195900
11
15.938300
21
7.478640
0
LINE
8
Layer 1
10
15.938300
20
7.478640
11
1.220590
21
7.478640
0
LINE
8
Layer 1
10
1.220590
20
7.478640
11
1.220590
21
22.195900
0
LINE
8
Layer 1
10
1.220590
20
36.915600
11
15.938300
21
36.915600
0
LINE
8
Layer 1
10
15.938300
20
36.915600
11
15.938300
21
22.195900
0
LINE
8
Layer 1
10
15.938300
20
22.195900
11
1.220590
21
22.195900
0
LINE
8
Layer 1
10
1.220590
20
22.195900
11
1.220590
21
36.915600
0
LINE
8
Layer 1
10
1.220590
20
51.632400
11
15.938300
21
51.632400
0
LINE
8
Layer 1
10
15.938300
20
51.632400
11
15.938300
21
36.915600
0
LINE
8
Layer 1
10
15.938300
20
36.915600
11
1.220590
21
36.915600
0
LINE
8
Layer 1
10
1.220590
20
36.915600
11
1.220590
21
51.632400
0
LINE
8
Layer 1
10
1.220590
20
81.067900
11
15.938300
21
81.067900
0
LINE
8
Layer 1
10
15.938300
20
81.067900
11
15.938300
21
66.350200
0
LINE
8
Layer 1
10
15.938300
20
66.350200
11
1.220590
21
66.350200
0
LINE
8
Layer 1
10
1.220590
20
66.350200
11
1.220590
21
81.067900
0
LINE
8
Layer 1
10
1.220590
20
95.785700
11
15.938300
21
95.785700
0
LINE
8
Layer 1
10
15.938300
20
95.785700
11
15.938300
21
81.067900
0
LINE
8
Layer 1
10
15.938300
20
81.067900
11
1.220590
21
81.067900
0
LINE
8
Layer 1
10
1.220590
20
81.067900
11
1.220590
21
95.785700
0
LINE
8
Layer 1
10
1.220590
20
110.503000
11
15.938300
21
110.503000
0
LINE
8
Layer 1
10
15.938300
20
110.503000
11
15.938300
21
95.785700
0
LINE
8
Layer 1
10
15.938300
20
95.785700
11
1.220590
21
95.785700
0
LINE
8
Layer 1
10
1.220590
20
95.785700
11
1.220590
21
110.503000
0
LINE
8
Layer 1
10
91.587700
20
22.195900
11
106.305000
21
22.195900
0
LINE
8
Layer 1
10
106.305000
20
22.195900
11
106.305000
21
7.478640
0
LINE
8
Layer 1
10
106.305000
20
7.478640
11
91.587700
21
7.478640
0
LINE
8
Layer 1
10
91.587700
20
7.478640
11
91.587700
21
22.195900
0
LINE
8
Layer 1
10
91.587700
20
36.915600
11
106.305000
21
36.915600
0
LINE
8
Layer 1
10
106.305000
20
36.915600
11
106.305000
21
22.195900
0
LINE
8
Layer 1
10
106.305000
20
22.195900
11
91.587700
21
22.195900
0
LINE
8
Layer 1
10
91.587700
20
22.195900
11
91.587700
21
36.915600
0
LINE
8
Layer 1
10
91.587700
20
51.632400
11
106.305000
21
51.632400
0
LINE
8
Layer 1
10
106.305000
20
51.632400
11
106.305000
21
36.915600
0
LINE
8
Layer 1
10
106.305000
20
36.915600
11
91.587700
21
36.915600
0
LINE
8
Layer 1
10
91.587700
20
36.915600
11
91.587700
21
51.632400
0
LINE
8
Layer 1
10
76.870000
20
66.350200
11
91.587700
21
66.350200
0
LINE
8
Layer 1
10
91.587700
20
66.350200
11
91.587700
21
51.632400
0
LINE
8
Layer 1
10
91.587700
20
51.632400
11
76.870000
21
51.632400
0
LINE
8
Layer 1
10
76.870000
20
51.632400
11
76.870000
21
66.350200
0
LINE
8
Layer 1
10
62.152000
20
66.350200
11
76.870000
21
66.350200
0
LINE
8
Layer 1
10
76.870000
20
66.350200
11
76.870000
21
51.632400
0
LINE
8
Layer 1
10
76.870000
20
51.632400
11
62.152000
21
51.632400
0
LINE
8
Layer 1
10
62.152000
20
51.632400
11
62.152000
21
66.350200
0
LINE
8
Layer 1
10
47.434400
20
66.350200
11
62.152000
21
66.350200
0
LINE
8
Layer 1
10
62.152000
20
66.350200
11
62.152000
21
51.632400
0
LINE
8
Layer 1
10
62.152000
20
51.632400
11
47.434400
21
51.632400
0
LINE
8
Layer 1
10
47.434400
20
51.632400
11
47.434400
21
66.350200
0
LINE
8
Layer 1
10
91.587700
20
81.067900
11
106.305000
21
81.067900
0
LINE
8
Layer 1
10
106.305000
20
81.067900
11
106.305000
21
66.350200
0
LINE
8
Layer 1
10
106.305000
20
66.350200
11
91.587700
21
66.350200
0
LINE
8
Layer 1
10
91.587700
20
66.350200
11
91.587700
21
81.067900
0
LINE
8
Layer 1
10
32.716700
20
81.067900
11
47.434400
21
81.067900
0
LINE
8
Layer 1
10
47.434400
20
81.067900
11
47.434400
21
66.350200
0
LINE
8
Layer 1
10
47.434400
20
66.350200
11
32.716700
21
66.350200
0
LINE
8
Layer 1
10
32.716700
20
66.350200
11
32.716700
21
81.067900
0
LINE
8
Layer 1
10
91.587700
20
95.785700
11
106.305000
21
95.785700
0
LINE
8
Layer 1
10
106.305000
20
95.785700
11
106.305000
21
81.067900
0
LINE
8
Layer 1
10
106.305000
20
81.067900
11
91.587700
21
81.067900
0
LINE
8
Layer 1
10
91.587700
20
81.067900
11
91.587700
21
95.785700
0
LINE
8
Layer 1
10
32.716700
20
95.785700
11
47.434400
21
95.785700
0
LINE
8
Layer 1
10
47.434400
20
95.785700
11
47.434400
21
81.067900
0
LINE
8
Layer 1
10
47.434400
20
81.067900
11
32.716700
21
81.067900
0
LINE
8
Layer 1
10
32.716700
20
81.067900
11
32.716700
21
95.785700
0
LINE
8
Layer 1
10
91.587700
20
110.503000
11
106.305000
21
110.503000
0
LINE
8
Layer 1
10
106.305000
20
110.503000
11
106.305000
21
95.785700
0
LINE
8
Layer 1
10
106.305000
20
95.785700
11
91.587700
21
95.785700
0
LINE
8
Layer 1
10
91.587700
20
95.785700
11
91.587700
21
110.503000
0
LINE
8
Layer 1
10
32.716700
20
110.503000
11
47.434400
21
110.503000
0
LINE
8
Layer 1
10
47.434400
20
110.503000
11
47.434400
21
95.785700
0
LINE
8
Layer 1
10
47.434400
20
95.785700
11
32.716700
21
95.785700
0
LINE
8
Layer 1
10
32.716700
20
95.785700
11
32.716700
21
110.503000
0
LINE
8
Layer 1
10
167.237000
20
22.195900
11
181.955000
21
22.195900
0
LINE
8
Layer 1
10
181.955000
20
22.195900
11
181.955000
21
7.478640
0
LINE
8
Layer 1
10
181.955000
20
7.478640
11
167.237000
21
7.478640
0
LINE
8
Layer 1
10
167.237000
20
7.478640
11
167.237000
21
22.195900
0
LINE
8
Layer 1
10
167.237000
20
36.915600
11
181.955000
21
36.915600
0
LINE
8
Layer 1
10
181.955000
20
36.915600
11
181.955000
21
22.195900
0
LINE
8
Layer 1
10
181.955000
20
22.195900
11
167.237000
21
22.195900
0
LINE
8
Layer 1
10
167.237000
20
22.195900
11
167.237000
21
36.915600
0
LINE
8
Layer 1
10
167.237000
20
51.632400
11
181.955000
21
51.632400
0
LINE
8
Layer 1
10
181.955000
20
51.632400
11
181.955000
21
36.915600
0
LINE
8
Layer 1
10
181.955000
20
36.915600
11
167.237000
21
36.915600
0
LINE
8
Layer 1
10
167.237000
20
36.915600
11
167.237000
21
51.632400
0
LINE
8
Layer 1
10
167.237000
20
81.067900
11
181.955000
21
81.067900
0
LINE
8
Layer 1
10
181.955000
20
81.067900
11
181.955000
21
66.350200
0
LINE
8
Layer 1
10
181.955000
20
66.350200
11
167.237000
21
66.350200
0
LINE
8
Layer 1
10
167.237000
20
66.350200
11
167.237000
21
81.067900
0
LINE
8
Layer 1
10
167.237000
20
95.785700
11
181.955000
21
95.785700
0
LINE
8
Layer 1
10
181.955000
20
95.785700
11
181.955000
21
81.067900
0
LINE
8
Layer 1
10
181.955000
20
81.067900
11
167.237000
21
81.067900
0
LINE
8
Layer 1
10
167.237000
20
81.067900
11
167.237000
21
95.785700
0
LINE
8
Layer 1
10
167.237000
20
110.503000
11
181.955000
21
110.503000
0
LINE
8
Layer 1
10
181.955000
20
110.503000
11
181.955000
21
95.785700
0
LINE
8
Layer 1
10
181.955000
20
95.785700
11
167.237000
21
95.785700
0
LINE
8
Layer 1
10
167.237000
20
95.785700
11
167.237000
21
110.503000
0
LINE
8
Layer 1
10
152.519000
20
125.221000
11
167.237000
21
125.221000
0
LINE
8
Layer 1
10
167.237000
20
125.221000
11
167.237000
21
110.503000
0
LINE
8
Layer 1
10
167.237000
20
110.503000
11
152.519000
21
110.503000
0
LINE
8
Layer 1
10
152.519000
20
110.503000
11
152.519000
21
125.221000
0
LINE
8
Layer 1
10
137.801000
20
125.221000
11
152.519000
21
125.221000
0
LINE
8
Layer 1
10
152.519000
20
125.221000
11
152.519000
21
110.503000
0
LINE
8
Layer 1
10
152.519000
20
110.503000
11
137.801000
21
110.503000
0
LINE
8
Layer 1
10
137.801000
20
110.503000
11
137.801000
21
125.221000
0
LINE
8
Layer 1
10
123.084000
20
125.221000
11
137.801000
21
125.221000
0
LINE
8
Layer 1
10
137.801000
20
125.221000
11
137.801000
21
110.503000
0
LINE
8
Layer 1
10
137.801000
20
110.503000
11
123.084000
21
110.503000
0
LINE
8
Layer 1
10
123.084000
20
110.503000
11
123.084000
21
125.221000
 0 
ENDSEC
 0 
EOF