999
"DXF R12 Output" (www.mydxf.blogspot.com)
 0 
SECTION
 2 
HEADER
 9 
$ACADVER
 1 
AC1009
 9 
$EXTMIN
 10 
 0 
 20 
 0 
 9 
$EXTMAX
 10 
 8.5 
 20 
 11 
 0 
ENDSEC
 0 
SECTION
 2 
ENTITIES
0
LINE
8
Layer 1
10
0.793749
20
127.642000
11
-0.793749
21
126.054000
0
LINE
8
Layer 1
10
0.000000
20
128.171000
11
0.000000
21
125.525000
0
LINE
8
Layer 1
10
2.116660
20
125.790000
11
1.058330
21
124.731670
0
LINE
8
Layer 1
10
1.587500
20
126.319000
11
0.529170
21
125.260670
0
LINE
8
Layer 1
10
1.058330
20
126.848000
11
0.000000
21
125.789670
0
LINE
8
Layer 1
10
1.629260
20
126.335000
11
0.090670
21
124.796150
0
LINE
8
Layer 1
10
0.859967
20
126.848000
11
0.859967
21
124.284000
0
LINE
8
Layer 1
10
2.911420
20
124.541000
11
1.885690
21
123.515270
0
LINE
8
Layer 1
10
2.398560
20
125.053000
11
1.372830
21
124.027270
0
LINE
8
Layer 1
10
1.885690
20
125.566000
11
0.859960
21
124.540270
0
LINE
8
Layer 1
10
1.222650
20
29.999700
11
14.823100
21
29.999700
0
LINE
8
Layer 1
10
14.823100
20
29.999700
11
14.823100
21
16.401100
0
LINE
8
Layer 1
10
14.823100
20
16.401100
11
1.222650
21
16.401100
0
LINE
8
Layer 1
10
1.222650
20
16.401100
11
1.222650
21
29.999700
0
LINE
8
Layer 1
10
1.222650
20
43.600900
11
14.823100
21
43.600900
0
LINE
8
Layer 1
10
14.823100
20
43.600900
11
14.823100
21
29.999700
0
LINE
8
Layer 1
10
14.823100
20
29.999700
11
1.222650
21
29.999700
0
LINE
8
Layer 1
10
1.222650
20
29.999700
11
1.222650
21
43.600900
0
LINE
8
Layer 1
10
1.222650
20
57.201300
11
14.823100
21
57.201300
0
LINE
8
Layer 1
10
14.823100
20
57.201300
11
14.823100
21
43.600900
0
LINE
8
Layer 1
10
14.823100
20
43.600900
11
1.222650
21
43.600900
0
LINE
8
Layer 1
10
1.222650
20
43.600900
11
1.222650
21
57.201300
0
LINE
8
Layer 1
10
1.222650
20
84.402300
11
14.823100
21
84.402300
0
LINE
8
Layer 1
10
14.823100
20
84.402300
11
14.823100
21
70.801700
0
LINE
8
Layer 1
10
14.823100
20
70.801700
11
1.222650
21
70.801700
0
LINE
8
Layer 1
10
1.222650
20
70.801700
11
1.222650
21
84.402300
0
LINE
8
Layer 1
10
1.222650
20
98.002700
11
14.823100
21
98.002700
0
LINE
8
Layer 1
10
14.823100
20
98.002700
11
14.823100
21
84.402300
0
LINE
8
Layer 1
10
14.823100
20
84.402300
11
1.222650
21
84.402300
0
LINE
8
Layer 1
10
1.222650
20
84.402300
11
1.222650
21
98.002700
0
LINE
8
Layer 1
10
1.222650
20
111.603000
11
14.823100
21
111.603000
0
LINE
8
Layer 1
10
14.823100
20
111.603000
11
14.823100
21
98.002700
0
LINE
8
Layer 1
10
14.823100
20
98.002700
11
1.222650
21
98.002700
0
LINE
8
Layer 1
10
1.222650
20
98.002700
11
1.222650
21
111.603000
0
LINE
8
Layer 1
10
71.129000
20
16.401100
11
84.729400
21
16.401100
0
LINE
8
Layer 1
10
84.729400
20
16.401100
11
84.729400
21
2.799990
0
LINE
8
Layer 1
10
84.729400
20
2.799990
11
71.129000
21
2.799990
0
LINE
8
Layer 1
10
71.129000
20
2.799990
11
71.129000
21
16.401100
0
LINE
8
Layer 1
10
57.528400
20
16.401100
11
71.129000
21
16.401100
0
LINE
8
Layer 1
10
71.129000
20
16.401100
11
71.129000
21
2.799990
0
LINE
8
Layer 1
10
71.129000
20
2.799990
11
57.528400
21
2.799990
0
LINE
8
Layer 1
10
57.528400
20
2.799990
11
57.528400
21
16.401100
0
LINE
8
Layer 1
10
43.928000
20
16.401100
11
57.528400
21
16.401100
0
LINE
8
Layer 1
10
57.528400
20
16.401100
11
57.528400
21
2.799990
0
LINE
8
Layer 1
10
57.528400
20
2.799990
11
43.928000
21
2.799990
0
LINE
8
Layer 1
10
43.928000
20
2.799990
11
43.928000
21
16.401100
0
LINE
8
Layer 1
10
84.729400
20
29.999700
11
98.329800
21
29.999700
0
LINE
8
Layer 1
10
98.329800
20
29.999700
11
98.329800
21
16.401100
0
LINE
8
Layer 1
10
98.329800
20
16.401100
11
84.729400
21
16.401100
0
LINE
8
Layer 1
10
84.729400
20
16.401100
11
84.729400
21
29.999700
0
LINE
8
Layer 1
10
30.327600
20
29.999700
11
43.928000
21
29.999700
0
LINE
8
Layer 1
10
43.928000
20
29.999700
11
43.928000
21
16.401100
0
LINE
8
Layer 1
10
43.928000
20
16.401100
11
30.327600
21
16.401100
0
LINE
8
Layer 1
10
30.327600
20
16.401100
11
30.327600
21
29.999700
0
LINE
8
Layer 1
10
84.729400
20
43.600900
11
98.329800
21
43.600900
0
LINE
8
Layer 1
10
98.329800
20
43.600900
11
98.329800
21
29.999700
0
LINE
8
Layer 1
10
98.329800
20
29.999700
11
84.729400
21
29.999700
0
LINE
8
Layer 1
10
84.729400
20
29.999700
11
84.729400
21
43.600900
0
LINE
8
Layer 1
10
30.327600
20
43.600900
11
43.928000
21
43.600900
0
LINE
8
Layer 1
10
43.928000
20
43.600900
11
43.928000
21
29.999700
0
LINE
8
Layer 1
10
43.928000
20
29.999700
11
30.327600
21
29.999700
0
LINE
8
Layer 1
10
30.327600
20
29.999700
11
30.327600
21
43.600900
0
LINE
8
Layer 1
10
84.729400
20
57.201300
11
98.329800
21
57.201300
0
LINE
8
Layer 1
10
98.329800
20
57.201300
11
98.329800
21
43.600900
0
LINE
8
Layer 1
10
98.329800
20
43.600900
11
84.729400
21
43.600900
0
LINE
8
Layer 1
10
84.729400
20
43.600900
11
84.729400
21
57.201300
0
LINE
8
Layer 1
10
30.327600
20
57.201300
11
43.928000
21
57.201300
0
LINE
8
Layer 1
10
43.928000
20
57.201300
11
43.928000
21
43.600900
0
LINE
8
Layer 1
10
43.928000
20
43.600900
11
30.327600
21
43.600900
0
LINE
8
Layer 1
10
30.327600
20
43.600900
11
30.327600
21
57.201300
0
LINE
8
Layer 1
10
71.129000
20
70.801700
11
84.729400
21
70.801700
0
LINE
8
Layer 1
10
84.729400
20
70.801700
11
84.729400
21
57.201300
0
LINE
8
Layer 1
10
84.729400
20
57.201300
11
71.129000
21
57.201300
0
LINE
8
Layer 1
10
71.129000
20
57.201300
11
71.129000
21
70.801700
0
LINE
8
Layer 1
10
57.528400
20
70.801700
11
71.129000
21
70.801700
0
LINE
8
Layer 1
10
71.129000
20
70.801700
11
71.129000
21
57.201300
0
LINE
8
Layer 1
10
71.129000
20
57.201300
11
57.528400
21
57.201300
0
LINE
8
Layer 1
10
57.528400
20
57.201300
11
57.528400
21
70.801700
0
LINE
8
Layer 1
10
43.928000
20
70.801700
11
57.528400
21
70.801700
0
LINE
8
Layer 1
10
57.528400
20
70.801700
11
57.528400
21
57.201300
0
LINE
8
Layer 1
10
57.528400
20
57.201300
11
43.928000
21
57.201300
0
LINE
8
Layer 1
10
43.928000
20
57.201300
11
43.928000
21
70.801700
0
LINE
8
Layer 1
10
30.327600
20
84.402300
11
43.928000
21
84.402300
0
LINE
8
Layer 1
10
43.928000
20
84.402300
11
43.928000
21
70.801700
0
LINE
8
Layer 1
10
43.928000
20
70.801700
11
30.327600
21
70.801700
0
LINE
8
Layer 1
10
30.327600
20
70.801700
11
30.327600
21
84.402300
0
LINE
8
Layer 1
10
30.327600
20
98.002700
11
43.928000
21
98.002700
0
LINE
8
Layer 1
10
43.928000
20
98.002700
11
43.928000
21
84.402300
0
LINE
8
Layer 1
10
43.928000
20
84.402300
11
30.327600
21
84.402300
0
LINE
8
Layer 1
10
30.327600
20
84.402300
11
30.327600
21
98.002700
0
LINE
8
Layer 1
10
30.327600
20
111.603000
11
43.928000
21
111.603000
0
LINE
8
Layer 1
10
43.928000
20
111.603000
11
43.928000
21
98.002700
0
LINE
8
Layer 1
10
43.928000
20
98.002700
11
30.327600
21
98.002700
0
LINE
8
Layer 1
10
30.327600
20
98.002700
11
30.327600
21
111.603000
0
LINE
8
Layer 1
10
71.129000
20
125.204000
11
84.729400
21
125.204000
0
LINE
8
Layer 1
10
84.729400
20
125.204000
11
84.729400
21
111.603000
0
LINE
8
Layer 1
10
84.729400
20
111.603000
11
71.129000
21
111.603000
0
LINE
8
Layer 1
10
71.129000
20
111.603000
11
71.129000
21
125.204000
0
LINE
8
Layer 1
10
57.528400
20
125.204000
11
71.129000
21
125.204000
0
LINE
8
Layer 1
10
71.129000
20
125.204000
11
71.129000
21
111.603000
0
LINE
8
Layer 1
10
71.129000
20
111.603000
11
57.528400
21
111.603000
0
LINE
8
Layer 1
10
57.528400
20
111.603000
11
57.528400
21
125.204000
0
LINE
8
Layer 1
10
43.928000
20
125.204000
11
57.528400
21
125.204000
0
LINE
8
Layer 1
10
57.528400
20
125.204000
11
57.528400
21
111.603000
0
LINE
8
Layer 1
10
57.528400
20
111.603000
11
43.928000
21
111.603000
0
LINE
8
Layer 1
10
43.928000
20
111.603000
11
43.928000
21
125.204000
0
LINE
8
Layer 1
10
154.636000
20
16.401100
11
168.236000
21
16.401100
0
LINE
8
Layer 1
10
168.236000
20
16.401100
11
168.236000
21
2.799990
0
LINE
8
Layer 1
10
168.236000
20
2.799990
11
154.636000
21
2.799990
0
LINE
8
Layer 1
10
154.636000
20
2.799990
11
154.636000
21
16.401100
0
LINE
8
Layer 1
10
141.035000
20
16.401100
11
154.636000
21
16.401100
0
LINE
8
Layer 1
10
154.636000
20
16.401100
11
154.636000
21
2.799990
0
LINE
8
Layer 1
10
154.636000
20
2.799990
11
141.035000
21
2.799990
0
LINE
8
Layer 1
10
141.035000
20
2.799990
11
141.035000
21
16.401100
0
LINE
8
Layer 1
10
127.435000
20
16.401100
11
141.035000
21
16.401100
0
LINE
8
Layer 1
10
141.035000
20
16.401100
11
141.035000
21
2.799990
0
LINE
8
Layer 1
10
141.035000
20
2.799990
11
127.435000
21
2.799990
0
LINE
8
Layer 1
10
127.435000
20
2.799990
11
127.435000
21
16.401100
0
LINE
8
Layer 1
10
113.834000
20
29.999700
11
127.435000
21
29.999700
0
LINE
8
Layer 1
10
127.435000
20
29.999700
11
127.435000
21
16.401100
0
LINE
8
Layer 1
10
127.435000
20
16.401100
11
113.834000
21
16.401100
0
LINE
8
Layer 1
10
113.834000
20
16.401100
11
113.834000
21
29.999700
0
LINE
8
Layer 1
10
113.834000
20
43.600900
11
127.435000
21
43.600900
0
LINE
8
Layer 1
10
127.435000
20
43.600900
11
127.435000
21
29.999700
0
LINE
8
Layer 1
10
127.435000
20
29.999700
11
113.834000
21
29.999700
0
LINE
8
Layer 1
10
113.834000
20
29.999700
11
113.834000
21
43.600900
0
LINE
8
Layer 1
10
113.834000
20
57.201300
11
127.435000
21
57.201300
0
LINE
8
Layer 1
10
127.435000
20
57.201300
11
127.435000
21
43.600900
0
LINE
8
Layer 1
10
127.435000
20
43.600900
11
113.834000
21
43.600900
0
LINE
8
Layer 1
10
113.834000
20
43.600900
11
113.834000
21
57.201300
0
LINE
8
Layer 1
10
154.636000
20
70.801700
11
168.236000
21
70.801700
0
LINE
8
Layer 1
10
168.236000
20
70.801700
11
168.236000
21
57.201300
0
LINE
8
Layer 1
10
168.236000
20
57.201300
11
154.636000
21
57.201300
0
LINE
8
Layer 1
10
154.636000
20
57.201300
11
154.636000
21
70.801700
0
LINE
8
Layer 1
10
141.035000
20
70.801700
11
154.636000
21
70.801700
0
LINE
8
Layer 1
10
154.636000
20
70.801700
11
154.636000
21
57.201300
0
LINE
8
Layer 1
10
154.636000
20
57.201300
11
141.035000
21
57.201300
0
LINE
8
Layer 1
10
141.035000
20
57.201300
11
141.035000
21
70.801700
0
LINE
8
Layer 1
10
127.435000
20
70.801700
11
141.035000
21
70.801700
0
LINE
8
Layer 1
10
141.035000
20
70.801700
11
141.035000
21
57.201300
0
LINE
8
Layer 1
10
141.035000
20
57.201300
11
127.435000
21
57.201300
0
LINE
8
Layer 1
10
127.435000
20
57.201300
11
127.435000
21
70.801700
0
LINE
8
Layer 1
10
168.236000
20
84.402300
11
181.836000
21
84.402300
0
LINE
8
Layer 1
10
181.836000
20
84.402300
11
181.836000
21
70.801700
0
LINE
8
Layer 1
10
181.836000
20
70.801700
11
168.236000
21
70.801700
0
LINE
8
Layer 1
10
168.236000
20
70.801700
11
168.236000
21
84.402300
0
LINE
8
Layer 1
10
168.236000
20
98.002700
11
181.836000
21
98.002700
0
LINE
8
Layer 1
10
181.836000
20
98.002700
11
181.836000
21
84.402300
0
LINE
8
Layer 1
10
181.836000
20
84.402300
11
168.236000
21
84.402300
0
LINE
8
Layer 1
10
168.236000
20
84.402300
11
168.236000
21
98.002700
0
LINE
8
Layer 1
10
168.236000
20
111.603000
11
181.836000
21
111.603000
0
LINE
8
Layer 1
10
181.836000
20
111.603000
11
181.836000
21
98.002700
0
LINE
8
Layer 1
10
181.836000
20
98.002700
11
168.236000
21
98.002700
0
LINE
8
Layer 1
10
168.236000
20
98.002700
11
168.236000
21
111.603000
0
LINE
8
Layer 1
10
154.636000
20
125.204000
11
168.236000
21
125.204000
0
LINE
8
Layer 1
10
168.236000
20
125.204000
11
168.236000
21
111.603000
0
LINE
8
Layer 1
10
168.236000
20
111.603000
11
154.636000
21
111.603000
0
LINE
8
Layer 1
10
154.636000
20
111.603000
11
154.636000
21
125.204000
0
LINE
8
Layer 1
10
141.035000
20
125.204000
11
154.636000
21
125.204000
0
LINE
8
Layer 1
10
154.636000
20
125.204000
11
154.636000
21
111.603000
0
LINE
8
Layer 1
10
154.636000
20
111.603000
11
141.035000
21
111.603000
0
LINE
8
Layer 1
10
141.035000
20
111.603000
11
141.035000
21
125.204000
0
LINE
8
Layer 1
10
127.435000
20
125.204000
11
141.035000
21
125.204000
0
LINE
8
Layer 1
10
141.035000
20
125.204000
11
141.035000
21
111.603000
0
LINE
8
Layer 1
10
141.035000
20
111.603000
11
127.435000
21
111.603000
0
LINE
8
Layer 1
10
127.435000
20
111.603000
11
127.435000
21
125.204000
 0 
ENDSEC
 0 
EOF