999
"DXF R12 Output" (www.mydxf.blogspot.com)
 0 
SECTION
 2 
HEADER
 9 
$ACADVER
 1 
AC1009
 9 
$EXTMIN
 10 
 0 
 20 
 0 
 9 
$EXTMAX
 10 
 8.5 
 20 
 11 
 0 
ENDSEC
 0 
SECTION
 2 
ENTITIES
0
LINE
8
Layer 1
10
0.793749
20
127.621000
11
-0.793749
21
126.033000
0
LINE
8
Layer 1
10
0.000000
20
128.150000
11
0.000000
21
125.504000
0
LINE
8
Layer 1
10
2.116660
20
125.769000
11
1.058330
21
124.710670
0
LINE
8
Layer 1
10
1.587500
20
126.298000
11
0.529170
21
125.239670
0
LINE
8
Layer 1
10
1.058330
20
126.827000
11
0.000000
21
125.768670
0
LINE
8
Layer_1
10
14.767900
20
126.768000
11
21.788000
21
126.768000
0
LINE
8
Layer_1
10
21.788000
20
126.768000
11
28.808200
21
126.768000
0
LINE
8
Layer_1
10
28.808200
20
126.768000
11
28.808200
21
119.748000
0
LINE
8
Layer_1
10
28.808200
20
119.748000
11
28.808200
21
112.728000
0
LINE
8
Layer_1
10
28.808200
20
112.728000
11
21.788000
21
112.728000
0
LINE
8
Layer_1
10
21.788000
20
112.728000
11
14.767900
21
112.728000
0
LINE
8
Layer_1
10
14.767900
20
112.728000
11
14.767900
21
119.748000
0
LINE
8
Layer_1
10
14.767900
20
119.748000
11
14.767900
21
126.768000
0
LINE
8
Layer_1
10
28.808200
20
126.768000
11
35.828300
21
126.768000
0
LINE
8
Layer_1
10
35.828300
20
126.768000
11
42.848400
21
126.768000
0
LINE
8
Layer_1
10
42.848400
20
126.768000
11
42.848400
21
119.748000
0
LINE
8
Layer_1
10
42.848400
20
119.748000
11
42.848400
21
112.728000
0
LINE
8
Layer_1
10
42.848400
20
112.728000
11
35.828300
21
112.728000
0
LINE
8
Layer_1
10
35.828300
20
112.728000
11
28.808200
21
112.728000
0
LINE
8
Layer_1
10
28.808200
20
112.728000
11
28.808200
21
119.748000
0
LINE
8
Layer_1
10
28.808200
20
119.748000
11
28.808200
21
126.768000
0
LINE
8
Layer_1
10
42.848400
20
126.768000
11
49.868500
21
126.768000
0
LINE
8
Layer_1
10
49.868500
20
126.768000
11
56.888700
21
126.768000
0
LINE
8
Layer_1
10
56.888700
20
126.768000
11
56.888700
21
119.748000
0
LINE
8
Layer_1
10
56.888700
20
119.748000
11
56.888700
21
112.728000
0
LINE
8
Layer_1
10
56.888700
20
112.728000
11
49.868500
21
112.728000
0
LINE
8
Layer_1
10
49.868500
20
112.728000
11
42.848400
21
112.728000
0
LINE
8
Layer_1
10
42.848400
20
112.728000
11
42.848400
21
119.748000
0
LINE
8
Layer_1
10
42.848400
20
119.748000
11
42.848400
21
126.768000
0
LINE
8
Layer_1
10
57.557300
20
112.728000
11
64.577500
21
112.728000
0
LINE
8
Layer_1
10
64.577500
20
112.728000
11
71.597600
21
112.728000
0
LINE
8
Layer_1
10
71.597600
20
112.728000
11
71.597600
21
105.708000
0
LINE
8
Layer_1
10
71.597600
20
105.708000
11
71.597600
21
98.687500
0
LINE
8
Layer_1
10
71.597600
20
98.687500
11
64.577500
21
98.687500
0
LINE
8
Layer_1
10
64.577500
20
98.687500
11
57.557300
21
98.687500
0
LINE
8
Layer_1
10
57.557300
20
98.687500
11
57.557300
21
105.708000
0
LINE
8
Layer_1
10
57.557300
20
105.708000
11
57.557300
21
112.728000
0
LINE
8
Layer_1
10
57.557300
20
98.687500
11
64.577500
21
98.687500
0
LINE
8
Layer_1
10
64.577500
20
98.687500
11
71.597600
21
98.687500
0
LINE
8
Layer_1
10
71.597600
20
98.687500
11
71.597600
21
91.667300
0
LINE
8
Layer_1
10
71.597600
20
91.667300
11
71.597600
21
84.647200
0
LINE
8
Layer_1
10
71.597600
20
84.647200
11
64.577500
21
84.647200
0
LINE
8
Layer_1
10
64.577500
20
84.647200
11
57.557300
21
84.647200
0
LINE
8
Layer_1
10
57.557300
20
84.647200
11
57.557300
21
91.667300
0
LINE
8
Layer_1
10
57.557300
20
91.667300
11
57.557300
21
98.687500
0
LINE
8
Layer_1
10
57.557300
20
84.647200
11
64.577500
21
84.647200
0
LINE
8
Layer_1
10
64.577500
20
84.647200
11
71.597600
21
84.647200
0
LINE
8
Layer_1
10
71.597600
20
84.647200
11
71.597600
21
77.627100
0
LINE
8
Layer_1
10
71.597600
20
77.627100
11
71.597600
21
70.607000
0
LINE
8
Layer_1
10
71.597600
20
70.607000
11
64.577500
21
70.607000
0
LINE
8
Layer_1
10
64.577500
20
70.607000
11
57.557300
21
70.607000
0
LINE
8
Layer_1
10
57.557300
20
70.607000
11
57.557300
21
77.627100
0
LINE
8
Layer_1
10
57.557300
20
77.627100
11
57.557300
21
84.647200
0
LINE
8
Layer_1
10
14.767900
20
70.607000
11
21.788000
21
70.607000
0
LINE
8
Layer_1
10
21.788000
20
70.607000
11
28.808200
21
70.607000
0
LINE
8
Layer_1
10
28.808200
20
70.607000
11
28.808200
21
63.586800
0
LINE
8
Layer_1
10
28.808200
20
63.586800
11
28.808200
21
56.566700
0
LINE
8
Layer_1
10
28.808200
20
56.566700
11
21.788000
21
56.566700
0
LINE
8
Layer_1
10
21.788000
20
56.566700
11
14.767900
21
56.566700
0
LINE
8
Layer_1
10
14.767900
20
56.566700
11
14.767900
21
63.586800
0
LINE
8
Layer_1
10
14.767900
20
63.586800
11
14.767900
21
70.607000
0
LINE
8
Layer_1
10
28.808200
20
70.607000
11
35.828300
21
70.607000
0
LINE
8
Layer_1
10
35.828300
20
70.607000
11
42.848400
21
70.607000
0
LINE
8
Layer_1
10
42.848400
20
70.607000
11
42.848400
21
63.586800
0
LINE
8
Layer_1
10
42.848400
20
63.586800
11
42.848400
21
56.566700
0
LINE
8
Layer_1
10
42.848400
20
56.566700
11
35.828300
21
56.566700
0
LINE
8
Layer_1
10
35.828300
20
56.566700
11
28.808200
21
56.566700
0
LINE
8
Layer_1
10
28.808200
20
56.566700
11
28.808200
21
63.586800
0
LINE
8
Layer_1
10
28.808200
20
63.586800
11
28.808200
21
70.607000
0
LINE
8
Layer_1
10
42.848400
20
70.607000
11
49.868500
21
70.607000
0
LINE
8
Layer_1
10
49.868500
20
70.607000
11
56.888700
21
70.607000
0
LINE
8
Layer_1
10
56.888700
20
70.607000
11
56.888700
21
63.586800
0
LINE
8
Layer_1
10
56.888700
20
63.586800
11
56.888700
21
56.566700
0
LINE
8
Layer_1
10
56.888700
20
56.566700
11
49.868500
21
56.566700
0
LINE
8
Layer_1
10
49.868500
20
56.566700
11
42.848400
21
56.566700
0
LINE
8
Layer_1
10
42.848400
20
56.566700
11
42.848400
21
63.586800
0
LINE
8
Layer_1
10
42.848400
20
63.586800
11
42.848400
21
70.607000
0
LINE
8
Layer_1
10
0.058975
20
56.566700
11
7.079100
21
56.566700
0
LINE
8
Layer_1
10
7.079100
20
56.566700
11
14.099200
21
56.566700
0
LINE
8
Layer_1
10
14.099200
20
56.566700
11
14.099200
21
49.546600
0
LINE
8
Layer_1
10
14.099200
20
49.546600
11
14.099200
21
42.526400
0
LINE
8
Layer_1
10
14.099200
20
42.526400
11
7.079100
21
42.526400
0
LINE
8
Layer_1
10
7.079100
20
42.526400
11
0.058975
21
42.526400
0
LINE
8
Layer_1
10
0.058975
20
42.526400
11
0.058975
21
49.546600
0
LINE
8
Layer_1
10
0.058975
20
49.546600
11
0.058975
21
56.566700
0
LINE
8
Layer_1
10
0.058975
20
42.526400
11
7.079100
21
42.526400
0
LINE
8
Layer_1
10
7.079100
20
42.526400
11
14.099200
21
42.526400
0
LINE
8
Layer_1
10
14.099200
20
42.526400
11
14.099200
21
35.506300
0
LINE
8
Layer_1
10
14.099200
20
35.506300
11
14.099200
21
28.486200
0
LINE
8
Layer_1
10
14.099200
20
28.486200
11
7.079100
21
28.486200
0
LINE
8
Layer_1
10
7.079100
20
28.486200
11
0.058975
21
28.486200
0
LINE
8
Layer_1
10
0.058975
20
28.486200
11
0.058975
21
35.506300
0
LINE
8
Layer_1
10
0.058975
20
35.506300
11
0.058975
21
42.526400
0
LINE
8
Layer_1
10
0.058975
20
28.486200
11
7.079100
21
28.486200
0
LINE
8
Layer_1
10
7.079100
20
28.486200
11
14.099200
21
28.486200
0
LINE
8
Layer_1
10
14.099200
20
28.486200
11
14.099200
21
21.466100
0
LINE
8
Layer_1
10
14.099200
20
21.466100
11
14.099200
21
14.445900
0
LINE
8
Layer_1
10
14.099200
20
14.445900
11
7.079100
21
14.445900
0
LINE
8
Layer_1
10
7.079100
20
14.445900
11
0.058975
21
14.445900
0
LINE
8
Layer_1
10
0.058975
20
14.445900
11
0.058975
21
21.466100
0
LINE
8
Layer_1
10
0.058975
20
21.466100
11
0.058975
21
28.486200
0
LINE
8
Layer_1
10
14.767900
20
14.445900
11
21.788000
21
14.445900
0
LINE
8
Layer_1
10
21.788000
20
14.445900
11
28.808200
21
14.445900
0
LINE
8
Layer_1
10
28.808200
20
14.445900
11
28.808200
21
7.425800
0
LINE
8
Layer_1
10
28.808200
20
7.425800
11
28.808200
21
0.405671
0
LINE
8
Layer_1
10
28.808200
20
0.405671
11
21.788000
21
0.405671
0
LINE
8
Layer_1
10
21.788000
20
0.405671
11
14.767900
21
0.405671
0
LINE
8
Layer_1
10
14.767900
20
0.405671
11
14.767900
21
7.425800
0
LINE
8
Layer_1
10
14.767900
20
7.425800
11
14.767900
21
14.445900
0
LINE
8
Layer_1
10
28.808200
20
14.445900
11
35.828300
21
14.445900
0
LINE
8
Layer_1
10
35.828300
20
14.445900
11
42.848400
21
14.445900
0
LINE
8
Layer_1
10
42.848400
20
14.445900
11
42.848400
21
7.425800
0
LINE
8
Layer_1
10
42.848400
20
7.425800
11
42.848400
21
0.405671
0
LINE
8
Layer_1
10
42.848400
20
0.405671
11
35.828300
21
0.405671
0
LINE
8
Layer_1
10
35.828300
20
0.405671
11
28.808200
21
0.405671
0
LINE
8
Layer_1
10
28.808200
20
0.405671
11
28.808200
21
7.425800
0
LINE
8
Layer_1
10
28.808200
20
7.425800
11
28.808200
21
14.445900
0
LINE
8
Layer_1
10
42.848400
20
14.445900
11
49.868500
21
14.445900
0
LINE
8
Layer_1
10
49.868500
20
14.445900
11
56.888700
21
14.445900
0
LINE
8
Layer_1
10
56.888700
20
14.445900
11
56.888700
21
7.425800
0
LINE
8
Layer_1
10
56.888700
20
7.425800
11
56.888700
21
0.405671
0
LINE
8
Layer_1
10
56.888700
20
0.405671
11
49.868500
21
0.405671
0
LINE
8
Layer_1
10
49.868500
20
0.405671
11
42.848400
21
0.405671
0
LINE
8
Layer_1
10
42.848400
20
0.405671
11
42.848400
21
7.425800
0
LINE
8
Layer_1
10
42.848400
20
7.425800
11
42.848400
21
14.445900
0
LINE
8
Layer_1
10
100.975000
20
126.768000
11
107.995000
21
126.768000
0
LINE
8
Layer_1
10
107.995000
20
126.768000
11
115.015000
21
126.768000
0
LINE
8
Layer_1
10
115.015000
20
126.768000
11
115.015000
21
119.748000
0
LINE
8
Layer_1
10
115.015000
20
119.748000
11
115.015000
21
112.728000
0
LINE
8
Layer_1
10
115.015000
20
112.728000
11
107.995000
21
112.728000
0
LINE
8
Layer_1
10
107.995000
20
112.728000
11
100.975000
21
112.728000
0
LINE
8
Layer_1
10
100.975000
20
112.728000
11
100.975000
21
119.748000
0
LINE
8
Layer_1
10
100.975000
20
119.748000
11
100.975000
21
126.768000
0
LINE
8
Layer_1
10
115.015000
20
126.768000
11
122.035000
21
126.768000
0
LINE
8
Layer_1
10
122.035000
20
126.768000
11
129.056000
21
126.768000
0
LINE
8
Layer_1
10
129.056000
20
126.768000
11
129.056000
21
119.748000
0
LINE
8
Layer_1
10
129.056000
20
119.748000
11
129.056000
21
112.728000
0
LINE
8
Layer_1
10
129.056000
20
112.728000
11
122.035000
21
112.728000
0
LINE
8
Layer_1
10
122.035000
20
112.728000
11
115.015000
21
112.728000
0
LINE
8
Layer_1
10
115.015000
20
112.728000
11
115.015000
21
119.748000
0
LINE
8
Layer_1
10
115.015000
20
119.748000
11
115.015000
21
126.768000
0
LINE
8
Layer_1
10
129.056000
20
126.768000
11
136.076000
21
126.768000
0
LINE
8
Layer_1
10
136.076000
20
126.768000
11
143.096000
21
126.768000
0
LINE
8
Layer_1
10
143.096000
20
126.768000
11
143.096000
21
119.748000
0
LINE
8
Layer_1
10
143.096000
20
119.748000
11
143.096000
21
112.728000
0
LINE
8
Layer_1
10
143.096000
20
112.728000
11
136.076000
21
112.728000
0
LINE
8
Layer_1
10
136.076000
20
112.728000
11
129.056000
21
112.728000
0
LINE
8
Layer_1
10
129.056000
20
112.728000
11
129.056000
21
119.748000
0
LINE
8
Layer_1
10
129.056000
20
119.748000
11
129.056000
21
126.768000
0
LINE
8
Layer_1
10
86.266200
20
112.728000
11
93.286300
21
112.728000
0
LINE
8
Layer_1
10
93.286300
20
112.728000
11
100.306000
21
112.728000
0
LINE
8
Layer_1
10
100.306000
20
112.728000
11
100.306000
21
105.708000
0
LINE
8
Layer_1
10
100.306000
20
105.708000
11
100.306000
21
98.687500
0
LINE
8
Layer_1
10
100.306000
20
98.687500
11
93.286300
21
98.687500
0
LINE
8
Layer_1
10
93.286300
20
98.687500
11
86.266200
21
98.687500
0
LINE
8
Layer_1
10
86.266200
20
98.687500
11
86.266200
21
105.708000
0
LINE
8
Layer_1
10
86.266200
20
105.708000
11
86.266200
21
112.728000
0
LINE
8
Layer_1
10
86.266200
20
98.687500
11
93.286300
21
98.687500
0
LINE
8
Layer_1
10
93.286300
20
98.687500
11
100.306000
21
98.687500
0
LINE
8
Layer_1
10
100.306000
20
98.687500
11
100.306000
21
91.667300
0
LINE
8
Layer_1
10
100.306000
20
91.667300
11
100.306000
21
84.647200
0
LINE
8
Layer_1
10
100.306000
20
84.647200
11
93.286300
21
84.647200
0
LINE
8
Layer_1
10
93.286300
20
84.647200
11
86.266200
21
84.647200
0
LINE
8
Layer_1
10
86.266200
20
84.647200
11
86.266200
21
91.667300
0
LINE
8
Layer_1
10
86.266200
20
91.667300
11
86.266200
21
98.687500
0
LINE
8
Layer_1
10
86.266200
20
84.647200
11
93.286300
21
84.647200
0
LINE
8
Layer_1
10
93.286300
20
84.647200
11
100.306000
21
84.647200
0
LINE
8
Layer_1
10
100.306000
20
84.647200
11
100.306000
21
77.627100
0
LINE
8
Layer_1
10
100.306000
20
77.627100
11
100.306000
21
70.607000
0
LINE
8
Layer_1
10
100.306000
20
70.607000
11
93.286300
21
70.607000
0
LINE
8
Layer_1
10
93.286300
20
70.607000
11
86.266200
21
70.607000
0
LINE
8
Layer_1
10
86.266200
20
70.607000
11
86.266200
21
77.627100
0
LINE
8
Layer_1
10
86.266200
20
77.627100
11
86.266200
21
84.647200
0
LINE
8
Layer_1
10
100.975000
20
70.607000
11
107.995000
21
70.607000
0
LINE
8
Layer_1
10
107.995000
20
70.607000
11
115.015000
21
70.607000
0
LINE
8
Layer_1
10
115.015000
20
70.607000
11
115.015000
21
63.586800
0
LINE
8
Layer_1
10
115.015000
20
63.586800
11
115.015000
21
56.566700
0
LINE
8
Layer_1
10
115.015000
20
56.566700
11
107.995000
21
56.566700
0
LINE
8
Layer_1
10
107.995000
20
56.566700
11
100.975000
21
56.566700
0
LINE
8
Layer_1
10
100.975000
20
56.566700
11
100.975000
21
63.586800
0
LINE
8
Layer_1
10
100.975000
20
63.586800
11
100.975000
21
70.607000
0
LINE
8
Layer_1
10
115.015000
20
70.607000
11
122.035000
21
70.607000
0
LINE
8
Layer_1
10
122.035000
20
70.607000
11
129.056000
21
70.607000
0
LINE
8
Layer_1
10
129.056000
20
70.607000
11
129.056000
21
63.586800
0
LINE
8
Layer_1
10
129.056000
20
63.586800
11
129.056000
21
56.566700
0
LINE
8
Layer_1
10
129.056000
20
56.566700
11
122.035000
21
56.566700
0
LINE
8
Layer_1
10
122.035000
20
56.566700
11
115.015000
21
56.566700
0
LINE
8
Layer_1
10
115.015000
20
56.566700
11
115.015000
21
63.586800
0
LINE
8
Layer_1
10
115.015000
20
63.586800
11
115.015000
21
70.607000
0
LINE
8
Layer_1
10
129.056000
20
70.607000
11
136.076000
21
70.607000
0
LINE
8
Layer_1
10
136.076000
20
70.607000
11
143.096000
21
70.607000
0
LINE
8
Layer_1
10
143.096000
20
70.607000
11
143.096000
21
63.586800
0
LINE
8
Layer_1
10
143.096000
20
63.586800
11
143.096000
21
56.566700
0
LINE
8
Layer_1
10
143.096000
20
56.566700
11
136.076000
21
56.566700
0
LINE
8
Layer_1
10
136.076000
20
56.566700
11
129.056000
21
56.566700
0
LINE
8
Layer_1
10
129.056000
20
56.566700
11
129.056000
21
63.586800
0
LINE
8
Layer_1
10
129.056000
20
63.586800
11
129.056000
21
70.607000
0
LINE
8
Layer_1
10
86.266200
20
56.566700
11
93.286300
21
56.566700
0
LINE
8
Layer_1
10
93.286300
20
56.566700
11
100.306000
21
56.566700
0
LINE
8
Layer_1
10
100.306000
20
56.566700
11
100.306000
21
49.546600
0
LINE
8
Layer_1
10
100.306000
20
49.546600
11
100.306000
21
42.526400
0
LINE
8
Layer_1
10
100.306000
20
42.526400
11
93.286300
21
42.526400
0
LINE
8
Layer_1
10
93.286300
20
42.526400
11
86.266200
21
42.526400
0
LINE
8
Layer_1
10
86.266200
20
42.526400
11
86.266200
21
49.546600
0
LINE
8
Layer_1
10
86.266200
20
49.546600
11
86.266200
21
56.566700
0
LINE
8
Layer_1
10
143.765000
20
56.566700
11
150.785000
21
56.566700
0
LINE
8
Layer_1
10
150.785000
20
56.566700
11
157.805000
21
56.566700
0
LINE
8
Layer_1
10
157.805000
20
56.566700
11
157.805000
21
49.546600
0
LINE
8
Layer_1
10
157.805000
20
49.546600
11
157.805000
21
42.526400
0
LINE
8
Layer_1
10
157.805000
20
42.526400
11
150.785000
21
42.526400
0
LINE
8
Layer_1
10
150.785000
20
42.526400
11
143.765000
21
42.526400
0
LINE
8
Layer_1
10
143.765000
20
42.526400
11
143.765000
21
49.546600
0
LINE
8
Layer_1
10
143.765000
20
49.546600
11
143.765000
21
56.566700
0
LINE
8
Layer_1
10
86.266200
20
42.526400
11
93.286300
21
42.526400
0
LINE
8
Layer_1
10
93.286300
20
42.526400
11
100.306000
21
42.526400
0
LINE
8
Layer_1
10
100.306000
20
42.526400
11
100.306000
21
35.506300
0
LINE
8
Layer_1
10
100.306000
20
35.506300
11
100.306000
21
28.486200
0
LINE
8
Layer_1
10
100.306000
20
28.486200
11
93.286300
21
28.486200
0
LINE
8
Layer_1
10
93.286300
20
28.486200
11
86.266200
21
28.486200
0
LINE
8
Layer_1
10
86.266200
20
28.486200
11
86.266200
21
35.506300
0
LINE
8
Layer_1
10
86.266200
20
35.506300
11
86.266200
21
42.526400
0
LINE
8
Layer_1
10
143.765000
20
42.526400
11
150.785000
21
42.526400
0
LINE
8
Layer_1
10
150.785000
20
42.526400
11
157.805000
21
42.526400
0
LINE
8
Layer_1
10
157.805000
20
42.526400
11
157.805000
21
35.506300
0
LINE
8
Layer_1
10
157.805000
20
35.506300
11
157.805000
21
28.486200
0
LINE
8
Layer_1
10
157.805000
20
28.486200
11
150.785000
21
28.486200
0
LINE
8
Layer_1
10
150.785000
20
28.486200
11
143.765000
21
28.486200
0
LINE
8
Layer_1
10
143.765000
20
28.486200
11
143.765000
21
35.506300
0
LINE
8
Layer_1
10
143.765000
20
35.506300
11
143.765000
21
42.526400
0
LINE
8
Layer_1
10
86.266200
20
28.486200
11
93.286300
21
28.486200
0
LINE
8
Layer_1
10
93.286300
20
28.486200
11
100.306000
21
28.486200
0
LINE
8
Layer_1
10
100.306000
20
28.486200
11
100.306000
21
21.466100
0
LINE
8
Layer_1
10
100.306000
20
21.466100
11
100.306000
21
14.445900
0
LINE
8
Layer_1
10
100.306000
20
14.445900
11
93.286300
21
14.445900
0
LINE
8
Layer_1
10
93.286300
20
14.445900
11
86.266200
21
14.445900
0
LINE
8
Layer_1
10
86.266200
20
14.445900
11
86.266200
21
21.466100
0
LINE
8
Layer_1
10
86.266200
20
21.466100
11
86.266200
21
28.486200
0
LINE
8
Layer_1
10
143.765000
20
28.486200
11
150.785000
21
28.486200
0
LINE
8
Layer_1
10
150.785000
20
28.486200
11
157.805000
21
28.486200
0
LINE
8
Layer_1
10
157.805000
20
28.486200
11
157.805000
21
21.466100
0
LINE
8
Layer_1
10
157.805000
20
21.466100
11
157.805000
21
14.445900
0
LINE
8
Layer_1
10
157.805000
20
14.445900
11
150.785000
21
14.445900
0
LINE
8
Layer_1
10
150.785000
20
14.445900
11
143.765000
21
14.445900
0
LINE
8
Layer_1
10
143.765000
20
14.445900
11
143.765000
21
21.466100
0
LINE
8
Layer_1
10
143.765000
20
21.466100
11
143.765000
21
28.486200
0
LINE
8
Layer_1
10
100.975000
20
14.445900
11
107.995000
21
14.445900
0
LINE
8
Layer_1
10
107.995000
20
14.445900
11
115.015000
21
14.445900
0
LINE
8
Layer_1
10
115.015000
20
14.445900
11
115.015000
21
7.425800
0
LINE
8
Layer_1
10
115.015000
20
7.425800
11
115.015000
21
0.405671
0
LINE
8
Layer_1
10
115.015000
20
0.405671
11
107.995000
21
0.405671
0
LINE
8
Layer_1
10
107.995000
20
0.405671
11
100.975000
21
0.405671
0
LINE
8
Layer_1
10
100.975000
20
0.405671
11
100.975000
21
7.425800
0
LINE
8
Layer_1
10
100.975000
20
7.425800
11
100.975000
21
14.445900
0
LINE
8
Layer_1
10
115.015000
20
14.445900
11
122.035000
21
14.445900
0
LINE
8
Layer_1
10
122.035000
20
14.445900
11
129.056000
21
14.445900
0
LINE
8
Layer_1
10
129.056000
20
14.445900
11
129.056000
21
7.425800
0
LINE
8
Layer_1
10
129.056000
20
7.425800
11
129.056000
21
0.405671
0
LINE
8
Layer_1
10
129.056000
20
0.405671
11
122.035000
21
0.405671
0
LINE
8
Layer_1
10
122.035000
20
0.405671
11
115.015000
21
0.405671
0
LINE
8
Layer_1
10
115.015000
20
0.405671
11
115.015000
21
7.425800
0
LINE
8
Layer_1
10
115.015000
20
7.425800
11
115.015000
21
14.445900
0
LINE
8
Layer_1
10
129.056000
20
14.445900
11
136.076000
21
14.445900
0
LINE
8
Layer_1
10
136.076000
20
14.445900
11
143.096000
21
14.445900
0
LINE
8
Layer_1
10
143.096000
20
14.445900
11
143.096000
21
7.425800
0
LINE
8
Layer_1
10
143.096000
20
7.425800
11
143.096000
21
0.405671
0
LINE
8
Layer_1
10
143.096000
20
0.405671
11
136.076000
21
0.405671
0
LINE
8
Layer_1
10
136.076000
20
0.405671
11
129.056000
21
0.405671
0
LINE
8
Layer_1
10
129.056000
20
0.405671
11
129.056000
21
7.425800
0
LINE
8
Layer_1
10
129.056000
20
7.425800
11
129.056000
21
14.445900
0
LINE
8
Layer_1
10
173.142000
20
126.768000
11
180.162000
21
126.768000
0
LINE
8
Layer_1
10
180.162000
20
126.768000
11
187.182000
21
126.768000
0
LINE
8
Layer_1
10
187.182000
20
126.768000
11
187.182000
21
119.748000
0
LINE
8
Layer_1
10
187.182000
20
119.748000
11
187.182000
21
112.728000
0
LINE
8
Layer_1
10
187.182000
20
112.728000
11
180.162000
21
112.728000
0
LINE
8
Layer_1
10
180.162000
20
112.728000
11
173.142000
21
112.728000
0
LINE
8
Layer_1
10
173.142000
20
112.728000
11
173.142000
21
119.748000
0
LINE
8
Layer_1
10
173.142000
20
119.748000
11
173.142000
21
126.768000
0
LINE
8
Layer_1
10
187.182000
20
126.768000
11
194.202000
21
126.768000
0
LINE
8
Layer_1
10
194.202000
20
126.768000
11
201.223000
21
126.768000
0
LINE
8
Layer_1
10
201.223000
20
126.768000
11
201.223000
21
119.748000
0
LINE
8
Layer_1
10
201.223000
20
119.748000
11
201.223000
21
112.728000
0
LINE
8
Layer_1
10
201.223000
20
112.728000
11
194.202000
21
112.728000
0
LINE
8
Layer_1
10
194.202000
20
112.728000
11
187.182000
21
112.728000
0
LINE
8
Layer_1
10
187.182000
20
112.728000
11
187.182000
21
119.748000
0
LINE
8
Layer_1
10
187.182000
20
119.748000
11
187.182000
21
126.768000
0
LINE
8
Layer_1
10
201.223000
20
126.768000
11
208.243000
21
126.768000
0
LINE
8
Layer_1
10
208.243000
20
126.768000
11
215.263000
21
126.768000
0
LINE
8
Layer_1
10
215.263000
20
126.768000
11
215.263000
21
119.748000
0
LINE
8
Layer_1
10
215.263000
20
119.748000
11
215.263000
21
112.728000
0
LINE
8
Layer_1
10
215.263000
20
112.728000
11
208.243000
21
112.728000
0
LINE
8
Layer_1
10
208.243000
20
112.728000
11
201.223000
21
112.728000
0
LINE
8
Layer_1
10
201.223000
20
112.728000
11
201.223000
21
119.748000
0
LINE
8
Layer_1
10
201.223000
20
119.748000
11
201.223000
21
126.768000
0
LINE
8
Layer_1
10
215.931000
20
112.728000
11
222.952000
21
112.728000
0
LINE
8
Layer_1
10
222.952000
20
112.728000
11
229.972000
21
112.728000
0
LINE
8
Layer_1
10
229.972000
20
112.728000
11
229.972000
21
105.708000
0
LINE
8
Layer_1
10
229.972000
20
105.708000
11
229.972000
21
98.687500
0
LINE
8
Layer_1
10
229.972000
20
98.687500
11
222.952000
21
98.687500
0
LINE
8
Layer_1
10
222.952000
20
98.687500
11
215.931000
21
98.687500
0
LINE
8
Layer_1
10
215.931000
20
98.687500
11
215.931000
21
105.708000
0
LINE
8
Layer_1
10
215.931000
20
105.708000
11
215.931000
21
112.728000
0
LINE
8
Layer_1
10
215.931000
20
98.687500
11
222.952000
21
98.687500
0
LINE
8
Layer_1
10
222.952000
20
98.687500
11
229.972000
21
98.687500
0
LINE
8
Layer_1
10
229.972000
20
98.687500
11
229.972000
21
91.667300
0
LINE
8
Layer_1
10
229.972000
20
91.667300
11
229.972000
21
84.647200
0
LINE
8
Layer_1
10
229.972000
20
84.647200
11
222.952000
21
84.647200
0
LINE
8
Layer_1
10
222.952000
20
84.647200
11
215.931000
21
84.647200
0
LINE
8
Layer_1
10
215.931000
20
84.647200
11
215.931000
21
91.667300
0
LINE
8
Layer_1
10
215.931000
20
91.667300
11
215.931000
21
98.687500
0
LINE
8
Layer_1
10
215.931000
20
84.647200
11
222.952000
21
84.647200
0
LINE
8
Layer_1
10
222.952000
20
84.647200
11
229.972000
21
84.647200
0
LINE
8
Layer_1
10
229.972000
20
84.647200
11
229.972000
21
77.627100
0
LINE
8
Layer_1
10
229.972000
20
77.627100
11
229.972000
21
70.607000
0
LINE
8
Layer_1
10
229.972000
20
70.607000
11
222.952000
21
70.607000
0
LINE
8
Layer_1
10
222.952000
20
70.607000
11
215.931000
21
70.607000
0
LINE
8
Layer_1
10
215.931000
20
70.607000
11
215.931000
21
77.627100
0
LINE
8
Layer_1
10
215.931000
20
77.627100
11
215.931000
21
84.647200
0
LINE
8
Layer_1
10
173.142000
20
70.607000
11
180.162000
21
70.607000
0
LINE
8
Layer_1
10
180.162000
20
70.607000
11
187.182000
21
70.607000
0
LINE
8
Layer_1
10
187.182000
20
70.607000
11
187.182000
21
63.586800
0
LINE
8
Layer_1
10
187.182000
20
63.586800
11
187.182000
21
56.566700
0
LINE
8
Layer_1
10
187.182000
20
56.566700
11
180.162000
21
56.566700
0
LINE
8
Layer_1
10
180.162000
20
56.566700
11
173.142000
21
56.566700
0
LINE
8
Layer_1
10
173.142000
20
56.566700
11
173.142000
21
63.586800
0
LINE
8
Layer_1
10
173.142000
20
63.586800
11
173.142000
21
70.607000
0
LINE
8
Layer_1
10
187.182000
20
70.607000
11
194.202000
21
70.607000
0
LINE
8
Layer_1
10
194.202000
20
70.607000
11
201.223000
21
70.607000
0
LINE
8
Layer_1
10
201.223000
20
70.607000
11
201.223000
21
63.586800
0
LINE
8
Layer_1
10
201.223000
20
63.586800
11
201.223000
21
56.566700
0
LINE
8
Layer_1
10
201.223000
20
56.566700
11
194.202000
21
56.566700
0
LINE
8
Layer_1
10
194.202000
20
56.566700
11
187.182000
21
56.566700
0
LINE
8
Layer_1
10
187.182000
20
56.566700
11
187.182000
21
63.586800
0
LINE
8
Layer_1
10
187.182000
20
63.586800
11
187.182000
21
70.607000
0
LINE
8
Layer_1
10
201.223000
20
70.607000
11
208.243000
21
70.607000
0
LINE
8
Layer_1
10
208.243000
20
70.607000
11
215.263000
21
70.607000
0
LINE
8
Layer_1
10
215.263000
20
70.607000
11
215.263000
21
63.586800
0
LINE
8
Layer_1
10
215.263000
20
63.586800
11
215.263000
21
56.566700
0
LINE
8
Layer_1
10
215.263000
20
56.566700
11
208.243000
21
56.566700
0
LINE
8
Layer_1
10
208.243000
20
56.566700
11
201.223000
21
56.566700
0
LINE
8
Layer_1
10
201.223000
20
56.566700
11
201.223000
21
63.586800
0
LINE
8
Layer_1
10
201.223000
20
63.586800
11
201.223000
21
70.607000
0
LINE
8
Layer_1
10
215.931000
20
56.566700
11
222.952000
21
56.566700
0
LINE
8
Layer_1
10
222.952000
20
56.566700
11
229.972000
21
56.566700
0
LINE
8
Layer_1
10
229.972000
20
56.566700
11
229.972000
21
49.546600
0
LINE
8
Layer_1
10
229.972000
20
49.546600
11
229.972000
21
42.526400
0
LINE
8
Layer_1
10
229.972000
20
42.526400
11
222.952000
21
42.526400
0
LINE
8
Layer_1
10
222.952000
20
42.526400
11
215.931000
21
42.526400
0
LINE
8
Layer_1
10
215.931000
20
42.526400
11
215.931000
21
49.546600
0
LINE
8
Layer_1
10
215.931000
20
49.546600
11
215.931000
21
56.566700
0
LINE
8
Layer_1
10
215.931000
20
42.526400
11
222.952000
21
42.526400
0
LINE
8
Layer_1
10
222.952000
20
42.526400
11
229.972000
21
42.526400
0
LINE
8
Layer_1
10
229.972000
20
42.526400
11
229.972000
21
35.506300
0
LINE
8
Layer_1
10
229.972000
20
35.506300
11
229.972000
21
28.486200
0
LINE
8
Layer_1
10
229.972000
20
28.486200
11
222.952000
21
28.486200
0
LINE
8
Layer_1
10
222.952000
20
28.486200
11
215.931000
21
28.486200
0
LINE
8
Layer_1
10
215.931000
20
28.486200
11
215.931000
21
35.506300
0
LINE
8
Layer_1
10
215.931000
20
35.506300
11
215.931000
21
42.526400
0
LINE
8
Layer_1
10
215.931000
20
28.486200
11
222.952000
21
28.486200
0
LINE
8
Layer_1
10
222.952000
20
28.486200
11
229.972000
21
28.486200
0
LINE
8
Layer_1
10
229.972000
20
28.486200
11
229.972000
21
21.466100
0
LINE
8
Layer_1
10
229.972000
20
21.466100
11
229.972000
21
14.445900
0
LINE
8
Layer_1
10
229.972000
20
14.445900
11
222.952000
21
14.445900
0
LINE
8
Layer_1
10
222.952000
20
14.445900
11
215.931000
21
14.445900
0
LINE
8
Layer_1
10
215.931000
20
14.445900
11
215.931000
21
21.466100
0
LINE
8
Layer_1
10
215.931000
20
21.466100
11
215.931000
21
28.486200
0
LINE
8
Layer_1
10
173.142000
20
14.445900
11
180.162000
21
14.445900
0
LINE
8
Layer_1
10
180.162000
20
14.445900
11
187.182000
21
14.445900
0
LINE
8
Layer_1
10
187.182000
20
14.445900
11
187.182000
21
7.425800
0
LINE
8
Layer_1
10
187.182000
20
7.425800
11
187.182000
21
0.405671
0
LINE
8
Layer_1
10
187.182000
20
0.405671
11
180.162000
21
0.405671
0
LINE
8
Layer_1
10
180.162000
20
0.405671
11
173.142000
21
0.405671
0
LINE
8
Layer_1
10
173.142000
20
0.405671
11
173.142000
21
7.425800
0
LINE
8
Layer_1
10
173.142000
20
7.425800
11
173.142000
21
14.445900
0
LINE
8
Layer_1
10
187.182000
20
14.445900
11
194.202000
21
14.445900
0
LINE
8
Layer_1
10
194.202000
20
14.445900
11
201.223000
21
14.445900
0
LINE
8
Layer_1
10
201.223000
20
14.445900
11
201.223000
21
7.425800
0
LINE
8
Layer_1
10
201.223000
20
7.425800
11
201.223000
21
0.405671
0
LINE
8
Layer_1
10
201.223000
20
0.405671
11
194.202000
21
0.405671
0
LINE
8
Layer_1
10
194.202000
20
0.405671
11
187.182000
21
0.405671
0
LINE
8
Layer_1
10
187.182000
20
0.405671
11
187.182000
21
7.425800
0
LINE
8
Layer_1
10
187.182000
20
7.425800
11
187.182000
21
14.445900
0
LINE
8
Layer_1
10
201.223000
20
14.445900
11
208.243000
21
14.445900
0
LINE
8
Layer_1
10
208.243000
20
14.445900
11
215.263000
21
14.445900
0
LINE
8
Layer_1
10
215.263000
20
14.445900
11
215.263000
21
7.425800
0
LINE
8
Layer_1
10
215.263000
20
7.425800
11
215.263000
21
0.405671
0
LINE
8
Layer_1
10
215.263000
20
0.405671
11
208.243000
21
0.405671
0
LINE
8
Layer_1
10
208.243000
20
0.405671
11
201.223000
21
0.405671
0
LINE
8
Layer_1
10
201.223000
20
0.405671
11
201.223000
21
7.425800
0
LINE
8
Layer_1
10
201.223000
20
7.425800
11
201.223000
21
14.445900
 0 
ENDSEC
 0 
EOF