999
"DXF R12 Output" (www.mydxf.blogspot.com)
 0 
SECTION
 2 
HEADER
 9 
$ACADVER
 1 
AC1009
 9 
$EXTMIN
 10 
 0 
 20 
 0 
 9 
$EXTMAX
 10 
 8.5 
 20 
 11 
 0 
ENDSEC
 0 
SECTION
 2 
ENTITIES
0
LINE
8
Layer 1
10
0.793749
20
127.642000
11
-0.793749
21
126.054000
0
LINE
8
Layer 1
10
0.000000
20
128.171000
11
0.000000
21
125.525000
0
LINE
8
Layer 1
10
2.116660
20
125.790000
11
1.058330
21
124.731670
0
LINE
8
Layer 1
10
1.587500
20
126.319000
11
0.529170
21
125.260670
0
LINE
8
Layer 1
10
1.058330
20
126.848000
11
0.000000
21
125.789670
0
LINE
8
Layer 1
10
1.577530
20
126.352000
11
0.087790
21
124.862020
0
LINE
8
Layer 1
10
0.832659
20
126.848000
11
0.832659
21
124.365000
0
LINE
8
Layer 1
10
2.818970
20
124.614000
11
1.825810
21
123.621000
0
LINE
8
Layer 1
10
2.322400
20
125.110000
11
1.329245
21
124.116843
0
LINE
8
Layer 1
10
1.825810
20
125.607000
11
0.832655
21
124.613843
0
LINE
8
Layer 1
10
41.413100
20
20.231000
11
54.551600
21
20.231000
0
LINE
8
Layer 1
10
54.551600
20
20.231000
11
54.551600
21
7.091550
0
LINE
8
Layer 1
10
54.551600
20
7.091550
11
41.413100
21
7.091550
0
LINE
8
Layer 1
10
41.413100
20
7.091550
11
41.413100
21
20.231000
0
LINE
8
Layer 1
10
28.274600
20
20.231000
11
41.413100
21
20.231000
0
LINE
8
Layer 1
10
41.413100
20
20.231000
11
41.413100
21
7.091550
0
LINE
8
Layer 1
10
41.413100
20
7.091550
11
28.274600
21
7.091550
0
LINE
8
Layer 1
10
28.274600
20
7.091550
11
28.274600
21
20.231000
0
LINE
8
Layer 1
10
15.135800
20
20.231000
11
28.274600
21
20.231000
0
LINE
8
Layer 1
10
28.274600
20
20.231000
11
28.274600
21
7.091550
0
LINE
8
Layer 1
10
28.274600
20
7.091550
11
15.135800
21
7.091550
0
LINE
8
Layer 1
10
15.135800
20
7.091550
11
15.135800
21
20.231000
0
LINE
8
Layer 1
10
1.997160
20
33.368000
11
15.135800
21
33.368000
0
LINE
8
Layer 1
10
15.135800
20
33.368000
11
15.135800
21
20.231000
0
LINE
8
Layer 1
10
15.135800
20
20.231000
11
1.997160
21
20.231000
0
LINE
8
Layer 1
10
1.997160
20
20.231000
11
1.997160
21
33.368000
0
LINE
8
Layer 1
10
1.997160
20
46.507500
11
15.135800
21
46.507500
0
LINE
8
Layer 1
10
15.135800
20
46.507500
11
15.135800
21
33.368000
0
LINE
8
Layer 1
10
15.135800
20
33.368000
11
1.997160
21
33.368000
0
LINE
8
Layer 1
10
1.997160
20
33.368000
11
1.997160
21
46.507500
0
LINE
8
Layer 1
10
1.997160
20
59.646000
11
15.135800
21
59.646000
0
LINE
8
Layer 1
10
15.135800
20
59.646000
11
15.135800
21
46.507500
0
LINE
8
Layer 1
10
15.135800
20
46.507500
11
1.997160
21
46.507500
0
LINE
8
Layer 1
10
1.997160
20
46.507500
11
1.997160
21
59.646000
0
LINE
8
Layer 1
10
41.413100
20
72.784700
11
54.551600
21
72.784700
0
LINE
8
Layer 1
10
54.551600
20
72.784700
11
54.551600
21
59.646000
0
LINE
8
Layer 1
10
54.551600
20
59.646000
11
41.413100
21
59.646000
0
LINE
8
Layer 1
10
41.413100
20
59.646000
11
41.413100
21
72.784700
0
LINE
8
Layer 1
10
28.274600
20
72.784700
11
41.413100
21
72.784700
0
LINE
8
Layer 1
10
41.413100
20
72.784700
11
41.413100
21
59.646000
0
LINE
8
Layer 1
10
41.413100
20
59.646000
11
28.274600
21
59.646000
0
LINE
8
Layer 1
10
28.274600
20
59.646000
11
28.274600
21
72.784700
0
LINE
8
Layer 1
10
15.135800
20
72.784700
11
28.274600
21
72.784700
0
LINE
8
Layer 1
10
28.274600
20
72.784700
11
28.274600
21
59.646000
0
LINE
8
Layer 1
10
28.274600
20
59.646000
11
15.135800
21
59.646000
0
LINE
8
Layer 1
10
15.135800
20
59.646000
11
15.135800
21
72.784700
0
LINE
8
Layer 1
10
54.551600
20
85.923200
11
67.690300
21
85.923200
0
LINE
8
Layer 1
10
67.690300
20
85.923200
11
67.690300
21
72.784700
0
LINE
8
Layer 1
10
67.690300
20
72.784700
11
54.551600
21
72.784700
0
LINE
8
Layer 1
10
54.551600
20
72.784700
11
54.551600
21
85.923200
0
LINE
8
Layer 1
10
54.551600
20
99.061900
11
67.690300
21
99.061900
0
LINE
8
Layer 1
10
67.690300
20
99.061900
11
67.690300
21
85.923200
0
LINE
8
Layer 1
10
67.690300
20
85.923200
11
54.551600
21
85.923200
0
LINE
8
Layer 1
10
54.551600
20
85.923200
11
54.551600
21
99.061900
0
LINE
8
Layer 1
10
54.551600
20
112.200000
11
67.690300
21
112.200000
0
LINE
8
Layer 1
10
67.690300
20
112.200000
11
67.690300
21
99.061900
0
LINE
8
Layer 1
10
67.690300
20
99.061900
11
54.551600
21
99.061900
0
LINE
8
Layer 1
10
54.551600
20
99.061900
11
54.551600
21
112.200000
0
LINE
8
Layer 1
10
41.413100
20
125.339000
11
54.551600
21
125.339000
0
LINE
8
Layer 1
10
54.551600
20
125.339000
11
54.551600
21
112.200000
0
LINE
8
Layer 1
10
54.551600
20
112.200000
11
41.413100
21
112.200000
0
LINE
8
Layer 1
10
41.413100
20
112.200000
11
41.413100
21
125.339000
0
LINE
8
Layer 1
10
28.274600
20
125.339000
11
41.413100
21
125.339000
0
LINE
8
Layer 1
10
41.413100
20
125.339000
11
41.413100
21
112.200000
0
LINE
8
Layer 1
10
41.413100
20
112.200000
11
28.274600
21
112.200000
0
LINE
8
Layer 1
10
28.274600
20
112.200000
11
28.274600
21
125.339000
0
LINE
8
Layer 1
10
15.135800
20
125.339000
11
28.274600
21
125.339000
0
LINE
8
Layer 1
10
28.274600
20
125.339000
11
28.274600
21
112.200000
0
LINE
8
Layer 1
10
28.274600
20
112.200000
11
15.135800
21
112.200000
0
LINE
8
Layer 1
10
15.135800
20
112.200000
11
15.135800
21
125.339000
0
LINE
8
Layer 1
10
122.084000
20
33.368000
11
135.222000
21
33.368000
0
LINE
8
Layer 1
10
135.222000
20
33.368000
11
135.222000
21
20.231000
0
LINE
8
Layer 1
10
135.222000
20
20.231000
11
122.084000
21
20.231000
0
LINE
8
Layer 1
10
122.084000
20
20.231000
11
122.084000
21
33.368000
0
LINE
8
Layer 1
10
122.084000
20
46.507500
11
135.222000
21
46.507500
0
LINE
8
Layer 1
10
135.222000
20
46.507500
11
135.222000
21
33.368000
0
LINE
8
Layer 1
10
135.222000
20
33.368000
11
122.084000
21
33.368000
0
LINE
8
Layer 1
10
122.084000
20
33.368000
11
122.084000
21
46.507500
0
LINE
8
Layer 1
10
122.084000
20
59.646000
11
135.222000
21
59.646000
0
LINE
8
Layer 1
10
135.222000
20
59.646000
11
135.222000
21
46.507500
0
LINE
8
Layer 1
10
135.222000
20
46.507500
11
122.084000
21
46.507500
0
LINE
8
Layer 1
10
122.084000
20
46.507500
11
122.084000
21
59.646000
0
LINE
8
Layer 1
10
122.084000
20
85.923200
11
135.222000
21
85.923200
0
LINE
8
Layer 1
10
135.222000
20
85.923200
11
135.222000
21
72.784700
0
LINE
8
Layer 1
10
135.222000
20
72.784700
11
122.084000
21
72.784700
0
LINE
8
Layer 1
10
122.084000
20
72.784700
11
122.084000
21
85.923200
0
LINE
8
Layer 1
10
122.084000
20
99.061900
11
135.222000
21
99.061900
0
LINE
8
Layer 1
10
135.222000
20
99.061900
11
135.222000
21
85.923200
0
LINE
8
Layer 1
10
135.222000
20
85.923200
11
122.084000
21
85.923200
0
LINE
8
Layer 1
10
122.084000
20
85.923200
11
122.084000
21
99.061900
0
LINE
8
Layer 1
10
122.084000
20
112.200000
11
135.222000
21
112.200000
0
LINE
8
Layer 1
10
135.222000
20
112.200000
11
135.222000
21
99.061900
0
LINE
8
Layer 1
10
135.222000
20
99.061900
11
122.084000
21
99.061900
0
LINE
8
Layer 1
10
122.084000
20
99.061900
11
122.084000
21
112.200000
0
LINE
8
Layer 1
10
108.946000
20
125.339000
11
122.084000
21
125.339000
0
LINE
8
Layer 1
10
122.084000
20
125.339000
11
122.084000
21
112.200000
0
LINE
8
Layer 1
10
122.084000
20
112.200000
11
108.946000
21
112.200000
0
LINE
8
Layer 1
10
108.946000
20
112.200000
11
108.946000
21
125.339000
0
LINE
8
Layer 1
10
95.807100
20
125.339000
11
108.946000
21
125.339000
0
LINE
8
Layer 1
10
108.946000
20
125.339000
11
108.946000
21
112.200000
0
LINE
8
Layer 1
10
108.946000
20
112.200000
11
95.807100
21
112.200000
0
LINE
8
Layer 1
10
95.807100
20
112.200000
11
95.807100
21
125.339000
0
LINE
8
Layer 1
10
82.668100
20
125.339000
11
95.807100
21
125.339000
0
LINE
8
Layer 1
10
95.807100
20
125.339000
11
95.807100
21
112.200000
0
LINE
8
Layer 1
10
95.807100
20
112.200000
11
82.668100
21
112.200000
0
LINE
8
Layer 1
10
82.668100
20
112.200000
11
82.668100
21
125.339000
0
LINE
8
Layer 1
10
202.756000
20
20.231000
11
215.893000
21
20.231000
0
LINE
8
Layer 1
10
215.893000
20
20.231000
11
215.893000
21
7.091550
0
LINE
8
Layer 1
10
215.893000
20
7.091550
11
202.756000
21
7.091550
0
LINE
8
Layer 1
10
202.756000
20
7.091550
11
202.756000
21
20.231000
0
LINE
8
Layer 1
10
189.617000
20
20.231000
11
202.756000
21
20.231000
0
LINE
8
Layer 1
10
202.756000
20
20.231000
11
202.756000
21
7.091550
0
LINE
8
Layer 1
10
202.756000
20
7.091550
11
189.617000
21
7.091550
0
LINE
8
Layer 1
10
189.617000
20
7.091550
11
189.617000
21
20.231000
0
LINE
8
Layer 1
10
176.478000
20
20.231000
11
189.617000
21
20.231000
0
LINE
8
Layer 1
10
189.617000
20
20.231000
11
189.617000
21
7.091550
0
LINE
8
Layer 1
10
189.617000
20
7.091550
11
176.478000
21
7.091550
0
LINE
8
Layer 1
10
176.478000
20
7.091550
11
176.478000
21
20.231000
0
LINE
8
Layer 1
10
215.893000
20
33.368000
11
229.032000
21
33.368000
0
LINE
8
Layer 1
10
229.032000
20
33.368000
11
229.032000
21
20.231000
0
LINE
8
Layer 1
10
229.032000
20
20.231000
11
215.893000
21
20.231000
0
LINE
8
Layer 1
10
215.893000
20
20.231000
11
215.893000
21
33.368000
0
LINE
8
Layer 1
10
163.339000
20
33.368000
11
176.478000
21
33.368000
0
LINE
8
Layer 1
10
176.478000
20
33.368000
11
176.478000
21
20.231000
0
LINE
8
Layer 1
10
176.478000
20
20.231000
11
163.339000
21
20.231000
0
LINE
8
Layer 1
10
163.339000
20
20.231000
11
163.339000
21
33.368000
0
LINE
8
Layer 1
10
215.893000
20
46.507500
11
229.032000
21
46.507500
0
LINE
8
Layer 1
10
229.032000
20
46.507500
11
229.032000
21
33.368000
0
LINE
8
Layer 1
10
229.032000
20
33.368000
11
215.893000
21
33.368000
0
LINE
8
Layer 1
10
215.893000
20
33.368000
11
215.893000
21
46.507500
0
LINE
8
Layer 1
10
163.339000
20
46.507500
11
176.478000
21
46.507500
0
LINE
8
Layer 1
10
176.478000
20
46.507500
11
176.478000
21
33.368000
0
LINE
8
Layer 1
10
176.478000
20
33.368000
11
163.339000
21
33.368000
0
LINE
8
Layer 1
10
163.339000
20
33.368000
11
163.339000
21
46.507500
0
LINE
8
Layer 1
10
215.893000
20
59.646000
11
229.032000
21
59.646000
0
LINE
8
Layer 1
10
229.032000
20
59.646000
11
229.032000
21
46.507500
0
LINE
8
Layer 1
10
229.032000
20
46.507500
11
215.893000
21
46.507500
0
LINE
8
Layer 1
10
215.893000
20
46.507500
11
215.893000
21
59.646000
0
LINE
8
Layer 1
10
163.339000
20
59.646000
11
176.478000
21
59.646000
0
LINE
8
Layer 1
10
176.478000
20
59.646000
11
176.478000
21
46.507500
0
LINE
8
Layer 1
10
176.478000
20
46.507500
11
163.339000
21
46.507500
0
LINE
8
Layer 1
10
163.339000
20
46.507500
11
163.339000
21
59.646000
0
LINE
8
Layer 1
10
202.756000
20
72.784700
11
215.893000
21
72.784700
0
LINE
8
Layer 1
10
215.893000
20
72.784700
11
215.893000
21
59.646000
0
LINE
8
Layer 1
10
215.893000
20
59.646000
11
202.756000
21
59.646000
0
LINE
8
Layer 1
10
202.756000
20
59.646000
11
202.756000
21
72.784700
0
LINE
8
Layer 1
10
189.617000
20
72.784700
11
202.756000
21
72.784700
0
LINE
8
Layer 1
10
202.756000
20
72.784700
11
202.756000
21
59.646000
0
LINE
8
Layer 1
10
202.756000
20
59.646000
11
189.617000
21
59.646000
0
LINE
8
Layer 1
10
189.617000
20
59.646000
11
189.617000
21
72.784700
0
LINE
8
Layer 1
10
176.478000
20
72.784700
11
189.617000
21
72.784700
0
LINE
8
Layer 1
10
189.617000
20
72.784700
11
189.617000
21
59.646000
0
LINE
8
Layer 1
10
189.617000
20
59.646000
11
176.478000
21
59.646000
0
LINE
8
Layer 1
10
176.478000
20
59.646000
11
176.478000
21
72.784700
0
LINE
8
Layer 1
10
163.339000
20
85.923200
11
176.478000
21
85.923200
0
LINE
8
Layer 1
10
176.478000
20
85.923200
11
176.478000
21
72.784700
0
LINE
8
Layer 1
10
176.478000
20
72.784700
11
163.339000
21
72.784700
0
LINE
8
Layer 1
10
163.339000
20
72.784700
11
163.339000
21
85.923200
0
LINE
8
Layer 1
10
163.339000
20
99.061900
11
176.478000
21
99.061900
0
LINE
8
Layer 1
10
176.478000
20
99.061900
11
176.478000
21
85.923200
0
LINE
8
Layer 1
10
176.478000
20
85.923200
11
163.339000
21
85.923200
0
LINE
8
Layer 1
10
163.339000
20
85.923200
11
163.339000
21
99.061900
0
LINE
8
Layer 1
10
163.339000
20
112.200000
11
176.478000
21
112.200000
0
LINE
8
Layer 1
10
176.478000
20
112.200000
11
176.478000
21
99.061900
0
LINE
8
Layer 1
10
176.478000
20
99.061900
11
163.339000
21
99.061900
0
LINE
8
Layer 1
10
163.339000
20
99.061900
11
163.339000
21
112.200000
0
LINE
8
Layer 1
10
202.756000
20
125.339000
11
215.893000
21
125.339000
0
LINE
8
Layer 1
10
215.893000
20
125.339000
11
215.893000
21
112.200000
0
LINE
8
Layer 1
10
215.893000
20
112.200000
11
202.756000
21
112.200000
0
LINE
8
Layer 1
10
202.756000
20
112.200000
11
202.756000
21
125.339000
0
LINE
8
Layer 1
10
189.617000
20
125.339000
11
202.756000
21
125.339000
0
LINE
8
Layer 1
10
202.756000
20
125.339000
11
202.756000
21
112.200000
0
LINE
8
Layer 1
10
202.756000
20
112.200000
11
189.617000
21
112.200000
0
LINE
8
Layer 1
10
189.617000
20
112.200000
11
189.617000
21
125.339000
0
LINE
8
Layer 1
10
176.478000
20
125.339000
11
189.617000
21
125.339000
0
LINE
8
Layer 1
10
189.617000
20
125.339000
11
189.617000
21
112.200000
0
LINE
8
Layer 1
10
189.617000
20
112.200000
11
176.478000
21
112.200000
0
LINE
8
Layer 1
10
176.478000
20
112.200000
11
176.478000
21
125.339000
 0 
ENDSEC
 0 
EOF