999
"DXF R12 Output" (www.mydxf.blogspot.com)
 0 
SECTION
 2 
HEADER
 9 
$ACADVER
 1 
AC1009
 9 
$EXTMIN
 10 
 0 
 20 
 0 
 9 
$EXTMAX
 10 
 8.5 
 20 
 11 
 0 
ENDSEC
 0 
SECTION
 2 
ENTITIES
0
LINE
8
Layer 1
10
0.793749
20
127.621000
11
-0.793749
21
126.033000
0
LINE
8
Layer 1
10
0.000000
20
128.150000
11
0.000000
21
125.504000
0
LINE
8
Layer 1
10
2.116660
20
125.769000
11
1.058330
21
124.710670
0
LINE
8
Layer 1
10
1.587500
20
126.298000
11
0.529170
21
125.239670
0
LINE
8
Layer 1
10
1.058330
20
126.827000
11
0.000000
21
125.768670
0
LINE
8
Layer 1
10
42.279000
20
14.703700
11
56.248100
21
14.703700
0
LINE
8
Layer 1
10
56.248100
20
14.703700
11
56.248100
21
0.734802
0
LINE
8
Layer 1
10
56.248100
20
0.734802
11
42.279000
21
0.734802
0
LINE
8
Layer 1
10
42.279000
20
0.734802
11
42.279000
21
14.703700
0
LINE
8
Layer 1
10
28.310200
20
14.703700
11
42.279000
21
14.703700
0
LINE
8
Layer 1
10
42.279000
20
14.703700
11
42.279000
21
0.734802
0
LINE
8
Layer 1
10
42.279000
20
0.734802
11
28.310200
21
0.734802
0
LINE
8
Layer 1
10
28.310200
20
0.734802
11
28.310200
21
14.703700
0
LINE
8
Layer 1
10
14.341400
20
14.703700
11
28.310200
21
14.703700
0
LINE
8
Layer 1
10
28.310200
20
14.703700
11
28.310200
21
0.734802
0
LINE
8
Layer 1
10
28.310200
20
0.734802
11
14.341400
21
0.734802
0
LINE
8
Layer 1
10
14.341400
20
0.734802
11
14.341400
21
14.703700
0
LINE
8
Layer 1
10
0.372504
20
28.672600
11
14.341400
21
28.672600
0
LINE
8
Layer 1
10
14.341400
20
28.672600
11
14.341400
21
14.703700
0
LINE
8
Layer 1
10
14.341400
20
14.703700
11
0.372504
21
14.703700
0
LINE
8
Layer 1
10
0.372504
20
14.703700
11
0.372504
21
28.672600
0
LINE
8
Layer 1
10
0.372504
20
42.641400
11
14.341400
21
42.641400
0
LINE
8
Layer 1
10
14.341400
20
42.641400
11
14.341400
21
28.672600
0
LINE
8
Layer 1
10
14.341400
20
28.672600
11
0.372504
21
28.672600
0
LINE
8
Layer 1
10
0.372504
20
28.672600
11
0.372504
21
42.641400
0
LINE
8
Layer 1
10
0.372504
20
56.610300
11
14.341400
21
56.610300
0
LINE
8
Layer 1
10
14.341400
20
56.610300
11
14.341400
21
42.641400
0
LINE
8
Layer 1
10
14.341400
20
42.641400
11
0.372504
21
42.641400
0
LINE
8
Layer 1
10
0.372504
20
42.641400
11
0.372504
21
56.610300
0
LINE
8
Layer 1
10
42.279000
20
70.579200
11
56.248100
21
70.579200
0
LINE
8
Layer 1
10
56.248100
20
70.579200
11
56.248100
21
56.610300
0
LINE
8
Layer 1
10
56.248100
20
56.610300
11
42.279000
21
56.610300
0
LINE
8
Layer 1
10
42.279000
20
56.610300
11
42.279000
21
70.579200
0
LINE
8
Layer 1
10
28.310200
20
70.579200
11
42.279000
21
70.579200
0
LINE
8
Layer 1
10
42.279000
20
70.579200
11
42.279000
21
56.610300
0
LINE
8
Layer 1
10
42.279000
20
56.610300
11
28.310200
21
56.610300
0
LINE
8
Layer 1
10
28.310200
20
56.610300
11
28.310200
21
70.579200
0
LINE
8
Layer 1
10
14.341400
20
70.579200
11
28.310200
21
70.579200
0
LINE
8
Layer 1
10
28.310200
20
70.579200
11
28.310200
21
56.610300
0
LINE
8
Layer 1
10
28.310200
20
56.610300
11
14.341400
21
56.610300
0
LINE
8
Layer 1
10
14.341400
20
56.610300
11
14.341400
21
70.579200
0
LINE
8
Layer 1
10
56.248100
20
84.548100
11
70.216900
21
84.548100
0
LINE
8
Layer 1
10
70.216900
20
84.548100
11
70.216900
21
70.579200
0
LINE
8
Layer 1
10
70.216900
20
70.579200
11
56.248100
21
70.579200
0
LINE
8
Layer 1
10
56.248100
20
70.579200
11
56.248100
21
84.548100
0
LINE
8
Layer 1
10
56.248100
20
98.517000
11
70.216900
21
98.517000
0
LINE
8
Layer 1
10
70.216900
20
98.517000
11
70.216900
21
84.548100
0
LINE
8
Layer 1
10
70.216900
20
84.548100
11
56.248100
21
84.548100
0
LINE
8
Layer 1
10
56.248100
20
84.548100
11
56.248100
21
98.517000
0
LINE
8
Layer 1
10
56.248100
20
112.486000
11
70.216900
21
112.486000
0
LINE
8
Layer 1
10
70.216900
20
112.486000
11
70.216900
21
98.517000
0
LINE
8
Layer 1
10
70.216900
20
98.517000
11
56.248100
21
98.517000
0
LINE
8
Layer 1
10
56.248100
20
98.517000
11
56.248100
21
112.486000
0
LINE
8
Layer 1
10
42.279000
20
126.455000
11
56.248100
21
126.455000
0
LINE
8
Layer 1
10
56.248100
20
126.455000
11
56.248100
21
112.486000
0
LINE
8
Layer 1
10
56.248100
20
112.486000
11
42.279000
21
112.486000
0
LINE
8
Layer 1
10
42.279000
20
112.486000
11
42.279000
21
126.455000
0
LINE
8
Layer 1
10
28.310200
20
126.455000
11
42.279000
21
126.455000
0
LINE
8
Layer 1
10
42.279000
20
126.455000
11
42.279000
21
112.486000
0
LINE
8
Layer 1
10
42.279000
20
112.486000
11
28.310200
21
112.486000
0
LINE
8
Layer 1
10
28.310200
20
112.486000
11
28.310200
21
126.455000
0
LINE
8
Layer 1
10
14.341400
20
126.455000
11
28.310200
21
126.455000
0
LINE
8
Layer 1
10
28.310200
20
126.455000
11
28.310200
21
112.486000
0
LINE
8
Layer 1
10
28.310200
20
112.486000
11
14.341400
21
112.486000
0
LINE
8
Layer 1
10
14.341400
20
112.486000
11
14.341400
21
126.455000
0
LINE
8
Layer 1
10
128.048000
20
28.672600
11
142.017000
21
28.672600
0
LINE
8
Layer 1
10
142.017000
20
28.672600
11
142.017000
21
14.703700
0
LINE
8
Layer 1
10
142.017000
20
14.703700
11
128.048000
21
14.703700
0
LINE
8
Layer 1
10
128.048000
20
14.703700
11
128.048000
21
28.672600
0
LINE
8
Layer 1
10
128.048000
20
42.641400
11
142.017000
21
42.641400
0
LINE
8
Layer 1
10
142.017000
20
42.641400
11
142.017000
21
28.672600
0
LINE
8
Layer 1
10
142.017000
20
28.672600
11
128.048000
21
28.672600
0
LINE
8
Layer 1
10
128.048000
20
28.672600
11
128.048000
21
42.641400
0
LINE
8
Layer 1
10
128.048000
20
56.610300
11
142.017000
21
56.610300
0
LINE
8
Layer 1
10
142.017000
20
56.610300
11
142.017000
21
42.641400
0
LINE
8
Layer 1
10
142.017000
20
42.641400
11
128.048000
21
42.641400
0
LINE
8
Layer 1
10
128.048000
20
42.641400
11
128.048000
21
56.610300
0
LINE
8
Layer 1
10
128.048000
20
84.548100
11
142.017000
21
84.548100
0
LINE
8
Layer 1
10
142.017000
20
84.548100
11
142.017000
21
70.579200
0
LINE
8
Layer 1
10
142.017000
20
70.579200
11
128.048000
21
70.579200
0
LINE
8
Layer 1
10
128.048000
20
70.579200
11
128.048000
21
84.548100
0
LINE
8
Layer 1
10
128.048000
20
98.517000
11
142.017000
21
98.517000
0
LINE
8
Layer 1
10
142.017000
20
98.517000
11
142.017000
21
84.548100
0
LINE
8
Layer 1
10
142.017000
20
84.548100
11
128.048000
21
84.548100
0
LINE
8
Layer 1
10
128.048000
20
84.548100
11
128.048000
21
98.517000
0
LINE
8
Layer 1
10
128.048000
20
112.486000
11
142.017000
21
112.486000
0
LINE
8
Layer 1
10
142.017000
20
112.486000
11
142.017000
21
98.517000
0
LINE
8
Layer 1
10
142.017000
20
98.517000
11
128.048000
21
98.517000
0
LINE
8
Layer 1
10
128.048000
20
98.517000
11
128.048000
21
112.486000
0
LINE
8
Layer 1
10
114.079000
20
126.455000
11
128.048000
21
126.455000
0
LINE
8
Layer 1
10
128.048000
20
126.455000
11
128.048000
21
112.486000
0
LINE
8
Layer 1
10
128.048000
20
112.486000
11
114.079000
21
112.486000
0
LINE
8
Layer 1
10
114.079000
20
112.486000
11
114.079000
21
126.455000
0
LINE
8
Layer 1
10
100.110000
20
126.455000
11
114.079000
21
126.455000
0
LINE
8
Layer 1
10
114.079000
20
126.455000
11
114.079000
21
112.486000
0
LINE
8
Layer 1
10
114.079000
20
112.486000
11
100.110000
21
112.486000
0
LINE
8
Layer 1
10
100.110000
20
112.486000
11
100.110000
21
126.455000
0
LINE
8
Layer 1
10
86.141300
20
126.455000
11
100.110000
21
126.455000
0
LINE
8
Layer 1
10
100.110000
20
126.455000
11
100.110000
21
112.486000
0
LINE
8
Layer 1
10
100.110000
20
112.486000
11
86.141300
21
112.486000
0
LINE
8
Layer 1
10
86.141300
20
112.486000
11
86.141300
21
126.455000
0
LINE
8
Layer 1
10
213.817000
20
28.672600
11
227.786000
21
28.672600
0
LINE
8
Layer 1
10
227.786000
20
28.672600
11
227.786000
21
14.703700
0
LINE
8
Layer 1
10
227.786000
20
14.703700
11
213.817000
21
14.703700
0
LINE
8
Layer 1
10
213.817000
20
14.703700
11
213.817000
21
28.672600
0
LINE
8
Layer 1
10
213.817000
20
42.641400
11
227.786000
21
42.641400
0
LINE
8
Layer 1
10
227.786000
20
42.641400
11
227.786000
21
28.672600
0
LINE
8
Layer 1
10
227.786000
20
28.672600
11
213.817000
21
28.672600
0
LINE
8
Layer 1
10
213.817000
20
28.672600
11
213.817000
21
42.641400
0
LINE
8
Layer 1
10
213.817000
20
56.610300
11
227.786000
21
56.610300
0
LINE
8
Layer 1
10
227.786000
20
56.610300
11
227.786000
21
42.641400
0
LINE
8
Layer 1
10
227.786000
20
42.641400
11
213.817000
21
42.641400
0
LINE
8
Layer 1
10
213.817000
20
42.641400
11
213.817000
21
56.610300
0
LINE
8
Layer 1
10
213.817000
20
84.548100
11
227.786000
21
84.548100
0
LINE
8
Layer 1
10
227.786000
20
84.548100
11
227.786000
21
70.579200
0
LINE
8
Layer 1
10
227.786000
20
70.579200
11
213.817000
21
70.579200
0
LINE
8
Layer 1
10
213.817000
20
70.579200
11
213.817000
21
84.548100
0
LINE
8
Layer 1
10
213.817000
20
98.517000
11
227.786000
21
98.517000
0
LINE
8
Layer 1
10
227.786000
20
98.517000
11
227.786000
21
84.548100
0
LINE
8
Layer 1
10
227.786000
20
84.548100
11
213.817000
21
84.548100
0
LINE
8
Layer 1
10
213.817000
20
84.548100
11
213.817000
21
98.517000
0
LINE
8
Layer 1
10
213.817000
20
112.486000
11
227.786000
21
112.486000
0
LINE
8
Layer 1
10
227.786000
20
112.486000
11
227.786000
21
98.517000
0
LINE
8
Layer 1
10
227.786000
20
98.517000
11
213.817000
21
98.517000
0
LINE
8
Layer 1
10
213.817000
20
98.517000
11
213.817000
21
112.486000
0
LINE
8
Layer 1
10
199.848000
20
126.455000
11
213.817000
21
126.455000
0
LINE
8
Layer 1
10
213.817000
20
126.455000
11
213.817000
21
112.486000
0
LINE
8
Layer 1
10
213.817000
20
112.486000
11
199.848000
21
112.486000
0
LINE
8
Layer 1
10
199.848000
20
112.486000
11
199.848000
21
126.455000
0
LINE
8
Layer 1
10
185.879000
20
126.455000
11
199.848000
21
126.455000
0
LINE
8
Layer 1
10
199.848000
20
126.455000
11
199.848000
21
112.486000
0
LINE
8
Layer 1
10
199.848000
20
112.486000
11
185.879000
21
112.486000
0
LINE
8
Layer 1
10
185.879000
20
112.486000
11
185.879000
21
126.455000
0
LINE
8
Layer 1
10
171.910000
20
126.455000
11
185.879000
21
126.455000
0
LINE
8
Layer 1
10
185.879000
20
126.455000
11
185.879000
21
112.486000
0
LINE
8
Layer 1
10
185.879000
20
112.486000
11
171.910000
21
112.486000
0
LINE
8
Layer 1
10
171.910000
20
112.486000
11
171.910000
21
126.455000
 0 
ENDSEC
 0 
EOF