999
"DXF R12 Output" (www.mydxf.blogspot.com)
 0 
SECTION
 2 
HEADER
 9 
$ACADVER
 1 
AC1009
 9 
$EXTMIN
 10 
 0 
 20 
 0 
 9 
$EXTMAX
 10 
 8.5 
 20 
 11 
 0 
ENDSEC
 0 
SECTION
 2 
ENTITIES
0
LINE
8
Layer 1
10
0.793749
20
128.918000
11
-0.793749
21
127.330000
0
LINE
8
Layer 1
10
0.000000
20
129.447000
11
0.000000
21
126.801000
0
LINE
8
Layer 1
10
2.116660
20
127.066000
11
1.058330
21
126.007670
0
LINE
8
Layer 1
10
1.587500
20
127.595000
11
0.529170
21
126.536670
0
LINE
8
Layer 1
10
1.058330
20
128.124000
11
0.000000
21
127.065670
0
LINE
8
Layer 1
10
1.577390
20
127.628000
11
0.087780
21
126.138140
0
LINE
8
Layer 1
10
0.832589
20
128.124000
11
0.832589
21
125.641000
0
LINE
8
Layer 1
10
2.818730
20
125.890000
11
1.825659
21
124.896927
0
LINE
8
Layer 1
10
2.322200
20
126.386000
11
1.329129
21
125.392927
0
LINE
8
Layer 1
10
1.825660
20
126.883000
11
0.832589
21
125.889925
0
LINE
8
Layer 1
10
40.686100
20
21.193300
11
53.853500
21
21.193300
0
LINE
8
Layer 1
10
53.853500
20
21.193300
11
53.853500
21
8.025180
0
LINE
8
Layer 1
10
53.853500
20
8.025180
11
40.686100
21
8.025180
0
LINE
8
Layer 1
10
40.686100
20
8.025180
11
40.686100
21
21.193300
0
LINE
8
Layer 1
10
27.518700
20
21.193300
11
40.686100
21
21.193300
0
LINE
8
Layer 1
10
40.686100
20
21.193300
11
40.686100
21
8.025180
0
LINE
8
Layer 1
10
40.686100
20
8.025180
11
27.518700
21
8.025180
0
LINE
8
Layer 1
10
27.518700
20
8.025180
11
27.518700
21
21.193300
0
LINE
8
Layer 1
10
14.351200
20
21.193300
11
27.518700
21
21.193300
0
LINE
8
Layer 1
10
27.518700
20
21.193300
11
27.518700
21
8.025180
0
LINE
8
Layer 1
10
27.518700
20
8.025180
11
14.351200
21
8.025180
0
LINE
8
Layer 1
10
14.351200
20
8.025180
11
14.351200
21
21.193300
0
LINE
8
Layer 1
10
1.183720
20
34.359000
11
14.351200
21
34.359000
0
LINE
8
Layer 1
10
14.351200
20
34.359000
11
14.351200
21
21.193300
0
LINE
8
Layer 1
10
14.351200
20
21.193300
11
1.183720
21
21.193300
0
LINE
8
Layer 1
10
1.183720
20
21.193300
11
1.183720
21
34.359000
0
LINE
8
Layer 1
10
1.183720
20
47.527200
11
14.351200
21
47.527200
0
LINE
8
Layer 1
10
14.351200
20
47.527200
11
14.351200
21
34.359000
0
LINE
8
Layer 1
10
14.351200
20
34.359000
11
1.183720
21
34.359000
0
LINE
8
Layer 1
10
1.183720
20
34.359000
11
1.183720
21
47.527200
0
LINE
8
Layer 1
10
1.183720
20
60.694600
11
14.351200
21
60.694600
0
LINE
8
Layer 1
10
14.351200
20
60.694600
11
14.351200
21
47.527200
0
LINE
8
Layer 1
10
14.351200
20
47.527200
11
1.183720
21
47.527200
0
LINE
8
Layer 1
10
1.183720
20
47.527200
11
1.183720
21
60.694600
0
LINE
8
Layer 1
10
40.686100
20
73.862000
11
53.853500
21
73.862000
0
LINE
8
Layer 1
10
53.853500
20
73.862000
11
53.853500
21
60.694600
0
LINE
8
Layer 1
10
53.853500
20
60.694600
11
40.686100
21
60.694600
0
LINE
8
Layer 1
10
40.686100
20
60.694600
11
40.686100
21
73.862000
0
LINE
8
Layer 1
10
27.518700
20
73.862000
11
40.686100
21
73.862000
0
LINE
8
Layer 1
10
40.686100
20
73.862000
11
40.686100
21
60.694600
0
LINE
8
Layer 1
10
40.686100
20
60.694600
11
27.518700
21
60.694600
0
LINE
8
Layer 1
10
27.518700
20
60.694600
11
27.518700
21
73.862000
0
LINE
8
Layer 1
10
14.351200
20
73.862000
11
27.518700
21
73.862000
0
LINE
8
Layer 1
10
27.518700
20
73.862000
11
27.518700
21
60.694600
0
LINE
8
Layer 1
10
27.518700
20
60.694600
11
14.351200
21
60.694600
0
LINE
8
Layer 1
10
14.351200
20
60.694600
11
14.351200
21
73.862000
0
LINE
8
Layer 1
10
53.853500
20
87.029600
11
67.021200
21
87.029600
0
LINE
8
Layer 1
10
67.021200
20
87.029600
11
67.021200
21
73.862000
0
LINE
8
Layer 1
10
67.021200
20
73.862000
11
53.853500
21
73.862000
0
LINE
8
Layer 1
10
53.853500
20
73.862000
11
53.853500
21
87.029600
0
LINE
8
Layer 1
10
53.853500
20
100.197000
11
67.021200
21
100.197000
0
LINE
8
Layer 1
10
67.021200
20
100.197000
11
67.021200
21
87.029600
0
LINE
8
Layer 1
10
67.021200
20
87.029600
11
53.853500
21
87.029600
0
LINE
8
Layer 1
10
53.853500
20
87.029600
11
53.853500
21
100.197000
0
LINE
8
Layer 1
10
53.853500
20
113.364000
11
67.021200
21
113.364000
0
LINE
8
Layer 1
10
67.021200
20
113.364000
11
67.021200
21
100.197000
0
LINE
8
Layer 1
10
67.021200
20
100.197000
11
53.853500
21
100.197000
0
LINE
8
Layer 1
10
53.853500
20
100.197000
11
53.853500
21
113.364000
0
LINE
8
Layer 1
10
40.686100
20
126.532000
11
53.853500
21
126.532000
0
LINE
8
Layer 1
10
53.853500
20
126.532000
11
53.853500
21
113.364000
0
LINE
8
Layer 1
10
53.853500
20
113.364000
11
40.686100
21
113.364000
0
LINE
8
Layer 1
10
40.686100
20
113.364000
11
40.686100
21
126.532000
0
LINE
8
Layer 1
10
27.518700
20
126.532000
11
40.686100
21
126.532000
0
LINE
8
Layer 1
10
40.686100
20
126.532000
11
40.686100
21
113.364000
0
LINE
8
Layer 1
10
40.686100
20
113.364000
11
27.518700
21
113.364000
0
LINE
8
Layer 1
10
27.518700
20
113.364000
11
27.518700
21
126.532000
0
LINE
8
Layer 1
10
14.351200
20
126.532000
11
27.518700
21
126.532000
0
LINE
8
Layer 1
10
27.518700
20
126.532000
11
27.518700
21
113.364000
0
LINE
8
Layer 1
10
27.518700
20
113.364000
11
14.351200
21
113.364000
0
LINE
8
Layer 1
10
14.351200
20
113.364000
11
14.351200
21
126.532000
0
LINE
8
Layer 1
10
121.535000
20
34.359000
11
134.701000
21
34.359000
0
LINE
8
Layer 1
10
134.701000
20
34.359000
11
134.701000
21
21.193300
0
LINE
8
Layer 1
10
134.701000
20
21.193300
11
121.535000
21
21.193300
0
LINE
8
Layer 1
10
121.535000
20
21.193300
11
121.535000
21
34.359000
0
LINE
8
Layer 1
10
121.535000
20
47.527200
11
134.701000
21
47.527200
0
LINE
8
Layer 1
10
134.701000
20
47.527200
11
134.701000
21
34.359000
0
LINE
8
Layer 1
10
134.701000
20
34.359000
11
121.535000
21
34.359000
0
LINE
8
Layer 1
10
121.535000
20
34.359000
11
121.535000
21
47.527200
0
LINE
8
Layer 1
10
121.535000
20
60.694600
11
134.701000
21
60.694600
0
LINE
8
Layer 1
10
134.701000
20
60.694600
11
134.701000
21
47.527200
0
LINE
8
Layer 1
10
134.701000
20
47.527200
11
121.535000
21
47.527200
0
LINE
8
Layer 1
10
121.535000
20
47.527200
11
121.535000
21
60.694600
0
LINE
8
Layer 1
10
121.535000
20
87.029600
11
134.701000
21
87.029600
0
LINE
8
Layer 1
10
134.701000
20
87.029600
11
134.701000
21
73.862000
0
LINE
8
Layer 1
10
134.701000
20
73.862000
11
121.535000
21
73.862000
0
LINE
8
Layer 1
10
121.535000
20
73.862000
11
121.535000
21
87.029600
0
LINE
8
Layer 1
10
121.535000
20
100.197000
11
134.701000
21
100.197000
0
LINE
8
Layer 1
10
134.701000
20
100.197000
11
134.701000
21
87.029600
0
LINE
8
Layer 1
10
134.701000
20
87.029600
11
121.535000
21
87.029600
0
LINE
8
Layer 1
10
121.535000
20
87.029600
11
121.535000
21
100.197000
0
LINE
8
Layer 1
10
121.535000
20
113.364000
11
134.701000
21
113.364000
0
LINE
8
Layer 1
10
134.701000
20
113.364000
11
134.701000
21
100.197000
0
LINE
8
Layer 1
10
134.701000
20
100.197000
11
121.535000
21
100.197000
0
LINE
8
Layer 1
10
121.535000
20
100.197000
11
121.535000
21
113.364000
0
LINE
8
Layer 1
10
108.367000
20
126.532000
11
121.535000
21
126.532000
0
LINE
8
Layer 1
10
121.535000
20
126.532000
11
121.535000
21
113.364000
0
LINE
8
Layer 1
10
121.535000
20
113.364000
11
108.367000
21
113.364000
0
LINE
8
Layer 1
10
108.367000
20
113.364000
11
108.367000
21
126.532000
0
LINE
8
Layer 1
10
95.199400
20
126.532000
11
108.367000
21
126.532000
0
LINE
8
Layer 1
10
108.367000
20
126.532000
11
108.367000
21
113.364000
0
LINE
8
Layer 1
10
108.367000
20
113.364000
11
95.199400
21
113.364000
0
LINE
8
Layer 1
10
95.199400
20
113.364000
11
95.199400
21
126.532000
0
LINE
8
Layer 1
10
82.032000
20
126.532000
11
95.199400
21
126.532000
0
LINE
8
Layer 1
10
95.199400
20
126.532000
11
95.199400
21
113.364000
0
LINE
8
Layer 1
10
95.199400
20
113.364000
11
82.032000
21
113.364000
0
LINE
8
Layer 1
10
82.032000
20
113.364000
11
82.032000
21
126.532000
0
LINE
8
Layer 1
10
202.383000
20
21.193300
11
215.551000
21
21.193300
0
LINE
8
Layer 1
10
215.551000
20
21.193300
11
215.551000
21
8.025180
0
LINE
8
Layer 1
10
215.551000
20
8.025180
11
202.383000
21
8.025180
0
LINE
8
Layer 1
10
202.383000
20
8.025180
11
202.383000
21
21.193300
0
LINE
8
Layer 1
10
189.215000
20
21.193300
11
202.383000
21
21.193300
0
LINE
8
Layer 1
10
202.383000
20
21.193300
11
202.383000
21
8.025180
0
LINE
8
Layer 1
10
202.383000
20
8.025180
11
189.215000
21
8.025180
0
LINE
8
Layer 1
10
189.215000
20
8.025180
11
189.215000
21
21.193300
0
LINE
8
Layer 1
10
176.047000
20
21.193300
11
189.215000
21
21.193300
0
LINE
8
Layer 1
10
189.215000
20
21.193300
11
189.215000
21
8.025180
0
LINE
8
Layer 1
10
189.215000
20
8.025180
11
176.047000
21
8.025180
0
LINE
8
Layer 1
10
176.047000
20
8.025180
11
176.047000
21
21.193300
0
LINE
8
Layer 1
10
215.551000
20
34.359000
11
228.717000
21
34.359000
0
LINE
8
Layer 1
10
228.717000
20
34.359000
11
228.717000
21
21.193300
0
LINE
8
Layer 1
10
228.717000
20
21.193300
11
215.551000
21
21.193300
0
LINE
8
Layer 1
10
215.551000
20
21.193300
11
215.551000
21
34.359000
0
LINE
8
Layer 1
10
162.881000
20
34.359000
11
176.047000
21
34.359000
0
LINE
8
Layer 1
10
176.047000
20
34.359000
11
176.047000
21
21.193300
0
LINE
8
Layer 1
10
176.047000
20
21.193300
11
162.881000
21
21.193300
0
LINE
8
Layer 1
10
162.881000
20
21.193300
11
162.881000
21
34.359000
0
LINE
8
Layer 1
10
215.551000
20
47.527200
11
228.717000
21
47.527200
0
LINE
8
Layer 1
10
228.717000
20
47.527200
11
228.717000
21
34.359000
0
LINE
8
Layer 1
10
228.717000
20
34.359000
11
215.551000
21
34.359000
0
LINE
8
Layer 1
10
215.551000
20
34.359000
11
215.551000
21
47.527200
0
LINE
8
Layer 1
10
162.881000
20
47.527200
11
176.047000
21
47.527200
0
LINE
8
Layer 1
10
176.047000
20
47.527200
11
176.047000
21
34.359000
0
LINE
8
Layer 1
10
176.047000
20
34.359000
11
162.881000
21
34.359000
0
LINE
8
Layer 1
10
162.881000
20
34.359000
11
162.881000
21
47.527200
0
LINE
8
Layer 1
10
215.551000
20
60.694600
11
228.717000
21
60.694600
0
LINE
8
Layer 1
10
228.717000
20
60.694600
11
228.717000
21
47.527200
0
LINE
8
Layer 1
10
228.717000
20
47.527200
11
215.551000
21
47.527200
0
LINE
8
Layer 1
10
215.551000
20
47.527200
11
215.551000
21
60.694600
0
LINE
8
Layer 1
10
162.881000
20
60.694600
11
176.047000
21
60.694600
0
LINE
8
Layer 1
10
176.047000
20
60.694600
11
176.047000
21
47.527200
0
LINE
8
Layer 1
10
176.047000
20
47.527200
11
162.881000
21
47.527200
0
LINE
8
Layer 1
10
162.881000
20
47.527200
11
162.881000
21
60.694600
0
LINE
8
Layer 1
10
202.383000
20
73.862000
11
215.551000
21
73.862000
0
LINE
8
Layer 1
10
215.551000
20
73.862000
11
215.551000
21
60.694600
0
LINE
8
Layer 1
10
215.551000
20
60.694600
11
202.383000
21
60.694600
0
LINE
8
Layer 1
10
202.383000
20
60.694600
11
202.383000
21
73.862000
0
LINE
8
Layer 1
10
189.215000
20
73.862000
11
202.383000
21
73.862000
0
LINE
8
Layer 1
10
202.383000
20
73.862000
11
202.383000
21
60.694600
0
LINE
8
Layer 1
10
202.383000
20
60.694600
11
189.215000
21
60.694600
0
LINE
8
Layer 1
10
189.215000
20
60.694600
11
189.215000
21
73.862000
0
LINE
8
Layer 1
10
176.047000
20
73.862000
11
189.215000
21
73.862000
0
LINE
8
Layer 1
10
189.215000
20
73.862000
11
189.215000
21
60.694600
0
LINE
8
Layer 1
10
189.215000
20
60.694600
11
176.047000
21
60.694600
0
LINE
8
Layer 1
10
176.047000
20
60.694600
11
176.047000
21
73.862000
0
LINE
8
Layer 1
10
215.551000
20
87.029600
11
228.717000
21
87.029600
0
LINE
8
Layer 1
10
228.717000
20
87.029600
11
228.717000
21
73.862000
0
LINE
8
Layer 1
10
228.717000
20
73.862000
11
215.551000
21
73.862000
0
LINE
8
Layer 1
10
215.551000
20
73.862000
11
215.551000
21
87.029600
0
LINE
8
Layer 1
10
162.881000
20
87.029600
11
176.047000
21
87.029600
0
LINE
8
Layer 1
10
176.047000
20
87.029600
11
176.047000
21
73.862000
0
LINE
8
Layer 1
10
176.047000
20
73.862000
11
162.881000
21
73.862000
0
LINE
8
Layer 1
10
162.881000
20
73.862000
11
162.881000
21
87.029600
0
LINE
8
Layer 1
10
215.551000
20
100.197000
11
228.717000
21
100.197000
0
LINE
8
Layer 1
10
228.717000
20
100.197000
11
228.717000
21
87.029600
0
LINE
8
Layer 1
10
228.717000
20
87.029600
11
215.551000
21
87.029600
0
LINE
8
Layer 1
10
215.551000
20
87.029600
11
215.551000
21
100.197000
0
LINE
8
Layer 1
10
162.881000
20
100.197000
11
176.047000
21
100.197000
0
LINE
8
Layer 1
10
176.047000
20
100.197000
11
176.047000
21
87.029600
0
LINE
8
Layer 1
10
176.047000
20
87.029600
11
162.881000
21
87.029600
0
LINE
8
Layer 1
10
162.881000
20
87.029600
11
162.881000
21
100.197000
0
LINE
8
Layer 1
10
215.551000
20
113.364000
11
228.717000
21
113.364000
0
LINE
8
Layer 1
10
228.717000
20
113.364000
11
228.717000
21
100.197000
0
LINE
8
Layer 1
10
228.717000
20
100.197000
11
215.551000
21
100.197000
0
LINE
8
Layer 1
10
215.551000
20
100.197000
11
215.551000
21
113.364000
0
LINE
8
Layer 1
10
162.881000
20
113.364000
11
176.047000
21
113.364000
0
LINE
8
Layer 1
10
176.047000
20
113.364000
11
176.047000
21
100.197000
0
LINE
8
Layer 1
10
176.047000
20
100.197000
11
162.881000
21
100.197000
0
LINE
8
Layer 1
10
162.881000
20
100.197000
11
162.881000
21
113.364000
0
LINE
8
Layer 1
10
202.383000
20
126.532000
11
215.551000
21
126.532000
0
LINE
8
Layer 1
10
215.551000
20
126.532000
11
215.551000
21
113.364000
0
LINE
8
Layer 1
10
215.551000
20
113.364000
11
202.383000
21
113.364000
0
LINE
8
Layer 1
10
202.383000
20
113.364000
11
202.383000
21
126.532000
0
LINE
8
Layer 1
10
189.215000
20
126.532000
11
202.383000
21
126.532000
0
LINE
8
Layer 1
10
202.383000
20
126.532000
11
202.383000
21
113.364000
0
LINE
8
Layer 1
10
202.383000
20
113.364000
11
189.215000
21
113.364000
0
LINE
8
Layer 1
10
189.215000
20
113.364000
11
189.215000
21
126.532000
0
LINE
8
Layer 1
10
176.047000
20
126.532000
11
189.215000
21
126.532000
0
LINE
8
Layer 1
10
189.215000
20
126.532000
11
189.215000
21
113.364000
0
LINE
8
Layer 1
10
189.215000
20
113.364000
11
176.047000
21
113.364000
0
LINE
8
Layer 1
10
176.047000
20
113.364000
11
176.047000
21
126.532000
 0 
ENDSEC
 0 
EOF