999
"DXF R12 Output" (www.mydxf.blogspot.com)
 0 
SECTION
 2 
HEADER
 9 
$ACADVER
 1 
AC1009
 9 
$EXTMIN
 10 
 0 
 20 
 0 
 9 
$EXTMAX
 10 
 8.5 
 20 
 11 
 0 
ENDSEC
 0 
SECTION
 2 
ENTITIES
0
LINE
8
Layer 1
10
0.793749
20
129.206000
11
-0.793749
21
127.618000
0
LINE
8
Layer 1
10
0.000000
20
129.735000
11
0.000000
21
127.089000
0
LINE
8
Layer 1
10
2.116660
20
127.354000
11
1.058330
21
126.295670
0
LINE
8
Layer 1
10
1.587500
20
127.883000
11
0.529170
21
126.824670
0
LINE
8
Layer 1
10
1.058330
20
128.412000
11
0.000000
21
127.353670
0
LINE
8
Layer 1
10
1.575050
20
127.916000
11
0.087660
21
126.428360
0
LINE
8
Layer 1
10
0.831350
20
128.412000
11
0.831350
21
125.933000
0
LINE
8
Layer 1
10
2.814540
20
126.181000
11
1.822946
21
125.189404
0
LINE
8
Layer 1
10
2.318740
20
126.677000
11
1.327146
21
125.685404
0
LINE
8
Layer 1
10
1.822940
20
127.173000
11
0.831346
21
126.181404
0
LINE
8
Layer 1
10
40.716100
20
21.400000
11
53.893600
21
21.400000
0
LINE
8
Layer 1
10
53.893600
20
21.400000
11
53.893600
21
8.221660
0
LINE
8
Layer 1
10
53.893600
20
8.221660
11
40.716100
21
8.221660
0
LINE
8
Layer 1
10
40.716100
20
8.221660
11
40.716100
21
21.400000
0
LINE
8
Layer 1
10
27.538300
20
21.400000
11
40.716100
21
21.400000
0
LINE
8
Layer 1
10
40.716100
20
21.400000
11
40.716100
21
8.221660
0
LINE
8
Layer 1
10
40.716100
20
8.221660
11
27.538300
21
8.221660
0
LINE
8
Layer 1
10
27.538300
20
8.221660
11
27.538300
21
21.400000
0
LINE
8
Layer 1
10
14.360500
20
21.400000
11
27.538300
21
21.400000
0
LINE
8
Layer 1
10
27.538300
20
21.400000
11
27.538300
21
8.221660
0
LINE
8
Layer 1
10
27.538300
20
8.221660
11
14.360500
21
8.221660
0
LINE
8
Layer 1
10
14.360500
20
8.221660
11
14.360500
21
21.400000
0
LINE
8
Layer 1
10
1.182760
20
34.575800
11
14.360500
21
34.575800
0
LINE
8
Layer 1
10
14.360500
20
34.575800
11
14.360500
21
21.400000
0
LINE
8
Layer 1
10
14.360500
20
21.400000
11
1.182760
21
21.400000
0
LINE
8
Layer 1
10
1.182760
20
21.400000
11
1.182760
21
34.575800
0
LINE
8
Layer 1
10
1.182760
20
47.754600
11
14.360500
21
47.754600
0
LINE
8
Layer 1
10
14.360500
20
47.754600
11
14.360500
21
34.575800
0
LINE
8
Layer 1
10
14.360500
20
34.575800
11
1.182760
21
34.575800
0
LINE
8
Layer 1
10
1.182760
20
34.575800
11
1.182760
21
47.754600
0
LINE
8
Layer 1
10
1.182760
20
60.932200
11
14.360500
21
60.932200
0
LINE
8
Layer 1
10
14.360500
20
60.932200
11
14.360500
21
47.754600
0
LINE
8
Layer 1
10
14.360500
20
47.754600
11
1.182760
21
47.754600
0
LINE
8
Layer 1
10
1.182760
20
47.754600
11
1.182760
21
60.932200
0
LINE
8
Layer 1
10
40.716100
20
74.110000
11
53.893600
21
74.110000
0
LINE
8
Layer 1
10
53.893600
20
74.110000
11
53.893600
21
60.932200
0
LINE
8
Layer 1
10
53.893600
20
60.932200
11
40.716100
21
60.932200
0
LINE
8
Layer 1
10
40.716100
20
60.932200
11
40.716100
21
74.110000
0
LINE
8
Layer 1
10
27.538300
20
74.110000
11
40.716100
21
74.110000
0
LINE
8
Layer 1
10
40.716100
20
74.110000
11
40.716100
21
60.932200
0
LINE
8
Layer 1
10
40.716100
20
60.932200
11
27.538300
21
60.932200
0
LINE
8
Layer 1
10
27.538300
20
60.932200
11
27.538300
21
74.110000
0
LINE
8
Layer 1
10
14.360500
20
74.110000
11
27.538300
21
74.110000
0
LINE
8
Layer 1
10
27.538300
20
74.110000
11
27.538300
21
60.932200
0
LINE
8
Layer 1
10
27.538300
20
60.932200
11
14.360500
21
60.932200
0
LINE
8
Layer 1
10
14.360500
20
60.932200
11
14.360500
21
74.110000
0
LINE
8
Layer 1
10
53.893600
20
87.287800
11
67.071700
21
87.287800
0
LINE
8
Layer 1
10
67.071700
20
87.287800
11
67.071700
21
74.110000
0
LINE
8
Layer 1
10
67.071700
20
74.110000
11
53.893600
21
74.110000
0
LINE
8
Layer 1
10
53.893600
20
74.110000
11
53.893600
21
87.287800
0
LINE
8
Layer 1
10
53.893600
20
100.466000
11
67.071700
21
100.466000
0
LINE
8
Layer 1
10
67.071700
20
100.466000
11
67.071700
21
87.287800
0
LINE
8
Layer 1
10
67.071700
20
87.287800
11
53.893600
21
87.287800
0
LINE
8
Layer 1
10
53.893600
20
87.287800
11
53.893600
21
100.466000
0
LINE
8
Layer 1
10
53.893600
20
113.643000
11
67.071700
21
113.643000
0
LINE
8
Layer 1
10
67.071700
20
113.643000
11
67.071700
21
100.466000
0
LINE
8
Layer 1
10
67.071700
20
100.466000
11
53.893600
21
100.466000
0
LINE
8
Layer 1
10
53.893600
20
100.466000
11
53.893600
21
113.643000
0
LINE
8
Layer 1
10
40.716100
20
126.821000
11
53.893600
21
126.821000
0
LINE
8
Layer 1
10
53.893600
20
126.821000
11
53.893600
21
113.643000
0
LINE
8
Layer 1
10
53.893600
20
113.643000
11
40.716100
21
113.643000
0
LINE
8
Layer 1
10
40.716100
20
113.643000
11
40.716100
21
126.821000
0
LINE
8
Layer 1
10
27.538300
20
126.821000
11
40.716100
21
126.821000
0
LINE
8
Layer 1
10
40.716100
20
126.821000
11
40.716100
21
113.643000
0
LINE
8
Layer 1
10
40.716100
20
113.643000
11
27.538300
21
113.643000
0
LINE
8
Layer 1
10
27.538300
20
113.643000
11
27.538300
21
126.821000
0
LINE
8
Layer 1
10
14.360500
20
126.821000
11
27.538300
21
126.821000
0
LINE
8
Layer 1
10
27.538300
20
126.821000
11
27.538300
21
113.643000
0
LINE
8
Layer 1
10
27.538300
20
113.643000
11
14.360500
21
113.643000
0
LINE
8
Layer 1
10
14.360500
20
113.643000
11
14.360500
21
126.821000
0
LINE
8
Layer 1
10
121.627000
20
34.575800
11
134.805000
21
34.575800
0
LINE
8
Layer 1
10
134.805000
20
34.575800
11
134.805000
21
21.400000
0
LINE
8
Layer 1
10
134.805000
20
21.400000
11
121.627000
21
21.400000
0
LINE
8
Layer 1
10
121.627000
20
21.400000
11
121.627000
21
34.575800
0
LINE
8
Layer 1
10
121.627000
20
47.754600
11
134.805000
21
47.754600
0
LINE
8
Layer 1
10
134.805000
20
47.754600
11
134.805000
21
34.575800
0
LINE
8
Layer 1
10
134.805000
20
34.575800
11
121.627000
21
34.575800
0
LINE
8
Layer 1
10
121.627000
20
34.575800
11
121.627000
21
47.754600
0
LINE
8
Layer 1
10
121.627000
20
60.932200
11
134.805000
21
60.932200
0
LINE
8
Layer 1
10
134.805000
20
60.932200
11
134.805000
21
47.754600
0
LINE
8
Layer 1
10
134.805000
20
47.754600
11
121.627000
21
47.754600
0
LINE
8
Layer 1
10
121.627000
20
47.754600
11
121.627000
21
60.932200
0
LINE
8
Layer 1
10
121.627000
20
87.287800
11
134.805000
21
87.287800
0
LINE
8
Layer 1
10
134.805000
20
87.287800
11
134.805000
21
74.110000
0
LINE
8
Layer 1
10
134.805000
20
74.110000
11
121.627000
21
74.110000
0
LINE
8
Layer 1
10
121.627000
20
74.110000
11
121.627000
21
87.287800
0
LINE
8
Layer 1
10
121.627000
20
100.466000
11
134.805000
21
100.466000
0
LINE
8
Layer 1
10
134.805000
20
100.466000
11
134.805000
21
87.287800
0
LINE
8
Layer 1
10
134.805000
20
87.287800
11
121.627000
21
87.287800
0
LINE
8
Layer 1
10
121.627000
20
87.287800
11
121.627000
21
100.466000
0
LINE
8
Layer 1
10
121.627000
20
113.643000
11
134.805000
21
113.643000
0
LINE
8
Layer 1
10
134.805000
20
113.643000
11
134.805000
21
100.466000
0
LINE
8
Layer 1
10
134.805000
20
100.466000
11
121.627000
21
100.466000
0
LINE
8
Layer 1
10
121.627000
20
100.466000
11
121.627000
21
113.643000
0
LINE
8
Layer 1
10
108.449000
20
126.821000
11
121.627000
21
126.821000
0
LINE
8
Layer 1
10
121.627000
20
126.821000
11
121.627000
21
113.643000
0
LINE
8
Layer 1
10
121.627000
20
113.643000
11
108.449000
21
113.643000
0
LINE
8
Layer 1
10
108.449000
20
113.643000
11
108.449000
21
126.821000
0
LINE
8
Layer 1
10
95.272200
20
126.821000
11
108.449000
21
126.821000
0
LINE
8
Layer 1
10
108.449000
20
126.821000
11
108.449000
21
113.643000
0
LINE
8
Layer 1
10
108.449000
20
113.643000
11
95.272200
21
113.643000
0
LINE
8
Layer 1
10
95.272200
20
113.643000
11
95.272200
21
126.821000
0
LINE
8
Layer 1
10
82.094100
20
126.821000
11
95.272200
21
126.821000
0
LINE
8
Layer 1
10
95.272200
20
126.821000
11
95.272200
21
113.643000
0
LINE
8
Layer 1
10
95.272200
20
113.643000
11
82.094100
21
113.643000
0
LINE
8
Layer 1
10
82.094100
20
113.643000
11
82.094100
21
126.821000
0
LINE
8
Layer 1
10
202.539000
20
21.400000
11
215.717000
21
21.400000
0
LINE
8
Layer 1
10
215.717000
20
21.400000
11
215.717000
21
8.221660
0
LINE
8
Layer 1
10
215.717000
20
8.221660
11
202.539000
21
8.221660
0
LINE
8
Layer 1
10
202.539000
20
8.221660
11
202.539000
21
21.400000
0
LINE
8
Layer 1
10
189.361000
20
21.400000
11
202.539000
21
21.400000
0
LINE
8
Layer 1
10
202.539000
20
21.400000
11
202.539000
21
8.221660
0
LINE
8
Layer 1
10
202.539000
20
8.221660
11
189.361000
21
8.221660
0
LINE
8
Layer 1
10
189.361000
20
8.221660
11
189.361000
21
21.400000
0
LINE
8
Layer 1
10
176.184000
20
21.400000
11
189.361000
21
21.400000
0
LINE
8
Layer 1
10
189.361000
20
21.400000
11
189.361000
21
8.221660
0
LINE
8
Layer 1
10
189.361000
20
8.221660
11
176.184000
21
8.221660
0
LINE
8
Layer 1
10
176.184000
20
8.221660
11
176.184000
21
21.400000
0
LINE
8
Layer 1
10
215.717000
20
34.575800
11
228.894000
21
34.575800
0
LINE
8
Layer 1
10
228.894000
20
34.575800
11
228.894000
21
21.400000
0
LINE
8
Layer 1
10
228.894000
20
21.400000
11
215.717000
21
21.400000
0
LINE
8
Layer 1
10
215.717000
20
21.400000
11
215.717000
21
34.575800
0
LINE
8
Layer 1
10
215.717000
20
47.754600
11
228.894000
21
47.754600
0
LINE
8
Layer 1
10
228.894000
20
47.754600
11
228.894000
21
34.575800
0
LINE
8
Layer 1
10
228.894000
20
34.575800
11
215.717000
21
34.575800
0
LINE
8
Layer 1
10
215.717000
20
34.575800
11
215.717000
21
47.754600
0
LINE
8
Layer 1
10
215.717000
20
60.932200
11
228.894000
21
60.932200
0
LINE
8
Layer 1
10
228.894000
20
60.932200
11
228.894000
21
47.754600
0
LINE
8
Layer 1
10
228.894000
20
47.754600
11
215.717000
21
47.754600
0
LINE
8
Layer 1
10
215.717000
20
47.754600
11
215.717000
21
60.932200
0
LINE
8
Layer 1
10
202.539000
20
74.110000
11
215.717000
21
74.110000
0
LINE
8
Layer 1
10
215.717000
20
74.110000
11
215.717000
21
60.932200
0
LINE
8
Layer 1
10
215.717000
20
60.932200
11
202.539000
21
60.932200
0
LINE
8
Layer 1
10
202.539000
20
60.932200
11
202.539000
21
74.110000
0
LINE
8
Layer 1
10
189.361000
20
74.110000
11
202.539000
21
74.110000
0
LINE
8
Layer 1
10
202.539000
20
74.110000
11
202.539000
21
60.932200
0
LINE
8
Layer 1
10
202.539000
20
60.932200
11
189.361000
21
60.932200
0
LINE
8
Layer 1
10
189.361000
20
60.932200
11
189.361000
21
74.110000
0
LINE
8
Layer 1
10
176.184000
20
74.110000
11
189.361000
21
74.110000
0
LINE
8
Layer 1
10
189.361000
20
74.110000
11
189.361000
21
60.932200
0
LINE
8
Layer 1
10
189.361000
20
60.932200
11
176.184000
21
60.932200
0
LINE
8
Layer 1
10
176.184000
20
60.932200
11
176.184000
21
74.110000
0
LINE
8
Layer 1
10
215.717000
20
87.287800
11
228.894000
21
87.287800
0
LINE
8
Layer 1
10
228.894000
20
87.287800
11
228.894000
21
74.110000
0
LINE
8
Layer 1
10
228.894000
20
74.110000
11
215.717000
21
74.110000
0
LINE
8
Layer 1
10
215.717000
20
74.110000
11
215.717000
21
87.287800
0
LINE
8
Layer 1
10
163.006000
20
87.287800
11
176.184000
21
87.287800
0
LINE
8
Layer 1
10
176.184000
20
87.287800
11
176.184000
21
74.110000
0
LINE
8
Layer 1
10
176.184000
20
74.110000
11
163.006000
21
74.110000
0
LINE
8
Layer 1
10
163.006000
20
74.110000
11
163.006000
21
87.287800
0
LINE
8
Layer 1
10
215.717000
20
100.466000
11
228.894000
21
100.466000
0
LINE
8
Layer 1
10
228.894000
20
100.466000
11
228.894000
21
87.287800
0
LINE
8
Layer 1
10
228.894000
20
87.287800
11
215.717000
21
87.287800
0
LINE
8
Layer 1
10
215.717000
20
87.287800
11
215.717000
21
100.466000
0
LINE
8
Layer 1
10
163.006000
20
100.466000
11
176.184000
21
100.466000
0
LINE
8
Layer 1
10
176.184000
20
100.466000
11
176.184000
21
87.287800
0
LINE
8
Layer 1
10
176.184000
20
87.287800
11
163.006000
21
87.287800
0
LINE
8
Layer 1
10
163.006000
20
87.287800
11
163.006000
21
100.466000
0
LINE
8
Layer 1
10
215.717000
20
113.643000
11
228.894000
21
113.643000
0
LINE
8
Layer 1
10
228.894000
20
113.643000
11
228.894000
21
100.466000
0
LINE
8
Layer 1
10
228.894000
20
100.466000
11
215.717000
21
100.466000
0
LINE
8
Layer 1
10
215.717000
20
100.466000
11
215.717000
21
113.643000
0
LINE
8
Layer 1
10
163.006000
20
113.643000
11
176.184000
21
113.643000
0
LINE
8
Layer 1
10
176.184000
20
113.643000
11
176.184000
21
100.466000
0
LINE
8
Layer 1
10
176.184000
20
100.466000
11
163.006000
21
100.466000
0
LINE
8
Layer 1
10
163.006000
20
100.466000
11
163.006000
21
113.643000
0
LINE
8
Layer 1
10
202.539000
20
126.821000
11
215.717000
21
126.821000
0
LINE
8
Layer 1
10
215.717000
20
126.821000
11
215.717000
21
113.643000
0
LINE
8
Layer 1
10
215.717000
20
113.643000
11
202.539000
21
113.643000
0
LINE
8
Layer 1
10
202.539000
20
113.643000
11
202.539000
21
126.821000
0
LINE
8
Layer 1
10
189.361000
20
126.821000
11
202.539000
21
126.821000
0
LINE
8
Layer 1
10
202.539000
20
126.821000
11
202.539000
21
113.643000
0
LINE
8
Layer 1
10
202.539000
20
113.643000
11
189.361000
21
113.643000
0
LINE
8
Layer 1
10
189.361000
20
113.643000
11
189.361000
21
126.821000
0
LINE
8
Layer 1
10
176.184000
20
126.821000
11
189.361000
21
126.821000
0
LINE
8
Layer 1
10
189.361000
20
126.821000
11
189.361000
21
113.643000
0
LINE
8
Layer 1
10
189.361000
20
113.643000
11
176.184000
21
113.643000
0
LINE
8
Layer 1
10
176.184000
20
113.643000
11
176.184000
21
126.821000
 0 
ENDSEC
 0 
EOF