999
"DXF R12 Output" (www.mydxf.blogspot.com)
 0 
SECTION
 2 
HEADER
 9 
$ACADVER
 1 
AC1009
 9 
$EXTMIN
 10 
 0 
 20 
 0 
 9 
$EXTMAX
 10 
 8.5 
 20 
 11 
 0 
ENDSEC
 0 
SECTION
 2 
ENTITIES
0
LINE
8
Layer 1
10
0.793749
20
129.206000
11
-0.793749
21
127.618000
0
LINE
8
Layer 1
10
0.000000
20
129.735000
11
0.000000
21
127.089000
0
LINE
8
Layer 1
10
2.116660
20
127.354000
11
1.058330
21
126.295670
0
LINE
8
Layer 1
10
1.587500
20
127.883000
11
0.529170
21
126.824670
0
LINE
8
Layer 1
10
1.058330
20
128.412000
11
0.000000
21
127.353670
0
LINE
8
Layer 1
10
1.575640
20
127.916000
11
0.087690
21
126.427800
0
LINE
8
Layer 1
10
0.831663
20
128.412000
11
0.831663
21
125.932000
0
LINE
8
Layer 1
10
2.815600
20
126.181000
11
1.823630
21
125.189000
0
LINE
8
Layer 1
10
2.319620
20
126.676000
11
1.327653
21
125.684031
0
LINE
8
Layer 1
10
1.823630
20
127.172000
11
0.831663
21
126.180031
0
LINE
8
Layer 1
10
40.731400
20
21.359700
11
53.914200
21
21.359700
0
LINE
8
Layer 1
10
53.914200
20
21.359700
11
53.914200
21
8.176420
0
LINE
8
Layer 1
10
53.914200
20
8.176420
11
40.731400
21
8.176420
0
LINE
8
Layer 1
10
40.731400
20
8.176420
11
40.731400
21
21.359700
0
LINE
8
Layer 1
10
27.548900
20
21.359700
11
40.731400
21
21.359700
0
LINE
8
Layer 1
10
40.731400
20
21.359700
11
40.731400
21
8.176420
0
LINE
8
Layer 1
10
40.731400
20
8.176420
11
27.548900
21
8.176420
0
LINE
8
Layer 1
10
27.548900
20
8.176420
11
27.548900
21
21.359700
0
LINE
8
Layer 1
10
14.366000
20
21.359700
11
27.548900
21
21.359700
0
LINE
8
Layer 1
10
27.548900
20
21.359700
11
27.548900
21
8.176420
0
LINE
8
Layer 1
10
27.548900
20
8.176420
11
14.366000
21
8.176420
0
LINE
8
Layer 1
10
14.366000
20
8.176420
11
14.366000
21
21.359700
0
LINE
8
Layer 1
10
1.183200
20
34.540500
11
14.366000
21
34.540500
0
LINE
8
Layer 1
10
14.366000
20
34.540500
11
14.366000
21
21.359700
0
LINE
8
Layer 1
10
14.366000
20
21.359700
11
1.183200
21
21.359700
0
LINE
8
Layer 1
10
1.183200
20
21.359700
11
1.183200
21
34.540500
0
LINE
8
Layer 1
10
1.183200
20
47.724300
11
14.366000
21
47.724300
0
LINE
8
Layer 1
10
14.366000
20
47.724300
11
14.366000
21
34.540500
0
LINE
8
Layer 1
10
14.366000
20
34.540500
11
1.183200
21
34.540500
0
LINE
8
Layer 1
10
1.183200
20
34.540500
11
1.183200
21
47.724300
0
LINE
8
Layer 1
10
1.183200
20
60.907000
11
14.366000
21
60.907000
0
LINE
8
Layer 1
10
14.366000
20
60.907000
11
14.366000
21
47.724300
0
LINE
8
Layer 1
10
14.366000
20
47.724300
11
1.183200
21
47.724300
0
LINE
8
Layer 1
10
1.183200
20
47.724300
11
1.183200
21
60.907000
0
LINE
8
Layer 1
10
40.731400
20
74.089800
11
53.914200
21
74.089800
0
LINE
8
Layer 1
10
53.914200
20
74.089800
11
53.914200
21
60.907000
0
LINE
8
Layer 1
10
53.914200
20
60.907000
11
40.731400
21
60.907000
0
LINE
8
Layer 1
10
40.731400
20
60.907000
11
40.731400
21
74.089800
0
LINE
8
Layer 1
10
27.548900
20
74.089800
11
40.731400
21
74.089800
0
LINE
8
Layer 1
10
40.731400
20
74.089800
11
40.731400
21
60.907000
0
LINE
8
Layer 1
10
40.731400
20
60.907000
11
27.548900
21
60.907000
0
LINE
8
Layer 1
10
27.548900
20
60.907000
11
27.548900
21
74.089800
0
LINE
8
Layer 1
10
14.366000
20
74.089800
11
27.548900
21
74.089800
0
LINE
8
Layer 1
10
27.548900
20
74.089800
11
27.548900
21
60.907000
0
LINE
8
Layer 1
10
27.548900
20
60.907000
11
14.366000
21
60.907000
0
LINE
8
Layer 1
10
14.366000
20
60.907000
11
14.366000
21
74.089800
0
LINE
8
Layer 1
10
53.914200
20
87.272600
11
67.097200
21
87.272600
0
LINE
8
Layer 1
10
67.097200
20
87.272600
11
67.097200
21
74.089800
0
LINE
8
Layer 1
10
67.097200
20
74.089800
11
53.914200
21
74.089800
0
LINE
8
Layer 1
10
53.914200
20
74.089800
11
53.914200
21
87.272600
0
LINE
8
Layer 1
10
53.914200
20
100.455000
11
67.097200
21
100.455000
0
LINE
8
Layer 1
10
67.097200
20
100.455000
11
67.097200
21
87.272600
0
LINE
8
Layer 1
10
67.097200
20
87.272600
11
53.914200
21
87.272600
0
LINE
8
Layer 1
10
53.914200
20
87.272600
11
53.914200
21
100.455000
0
LINE
8
Layer 1
10
53.914200
20
113.638000
11
67.097200
21
113.638000
0
LINE
8
Layer 1
10
67.097200
20
113.638000
11
67.097200
21
100.455000
0
LINE
8
Layer 1
10
67.097200
20
100.455000
11
53.914200
21
100.455000
0
LINE
8
Layer 1
10
53.914200
20
100.455000
11
53.914200
21
113.638000
0
LINE
8
Layer 1
10
40.731400
20
126.821000
11
53.914200
21
126.821000
0
LINE
8
Layer 1
10
53.914200
20
126.821000
11
53.914200
21
113.638000
0
LINE
8
Layer 1
10
53.914200
20
113.638000
11
40.731400
21
113.638000
0
LINE
8
Layer 1
10
40.731400
20
113.638000
11
40.731400
21
126.821000
0
LINE
8
Layer 1
10
27.548900
20
126.821000
11
40.731400
21
126.821000
0
LINE
8
Layer 1
10
40.731400
20
126.821000
11
40.731400
21
113.638000
0
LINE
8
Layer 1
10
40.731400
20
113.638000
11
27.548900
21
113.638000
0
LINE
8
Layer 1
10
27.548900
20
113.638000
11
27.548900
21
126.821000
0
LINE
8
Layer 1
10
14.366000
20
126.821000
11
27.548900
21
126.821000
0
LINE
8
Layer 1
10
27.548900
20
126.821000
11
27.548900
21
113.638000
0
LINE
8
Layer 1
10
27.548900
20
113.638000
11
14.366000
21
113.638000
0
LINE
8
Layer 1
10
14.366000
20
113.638000
11
14.366000
21
126.821000
0
LINE
8
Layer 1
10
121.674000
20
21.359700
11
134.856000
21
21.359700
0
LINE
8
Layer 1
10
134.856000
20
21.359700
11
134.856000
21
8.176420
0
LINE
8
Layer 1
10
134.856000
20
8.176420
11
121.674000
21
8.176420
0
LINE
8
Layer 1
10
121.674000
20
8.176420
11
121.674000
21
21.359700
0
LINE
8
Layer 1
10
108.491000
20
21.359700
11
121.674000
21
21.359700
0
LINE
8
Layer 1
10
121.674000
20
21.359700
11
121.674000
21
8.176420
0
LINE
8
Layer 1
10
121.674000
20
8.176420
11
108.491000
21
8.176420
0
LINE
8
Layer 1
10
108.491000
20
8.176420
11
108.491000
21
21.359700
0
LINE
8
Layer 1
10
95.308000
20
21.359700
11
108.491000
21
21.359700
0
LINE
8
Layer 1
10
108.491000
20
21.359700
11
108.491000
21
8.176420
0
LINE
8
Layer 1
10
108.491000
20
8.176420
11
95.308000
21
8.176420
0
LINE
8
Layer 1
10
95.308000
20
8.176420
11
95.308000
21
21.359700
0
LINE
8
Layer 1
10
134.856000
20
34.540500
11
148.039000
21
34.540500
0
LINE
8
Layer 1
10
148.039000
20
34.540500
11
148.039000
21
21.359700
0
LINE
8
Layer 1
10
148.039000
20
21.359700
11
134.856000
21
21.359700
0
LINE
8
Layer 1
10
134.856000
20
21.359700
11
134.856000
21
34.540500
0
LINE
8
Layer 1
10
82.125300
20
34.540500
11
95.308000
21
34.540500
0
LINE
8
Layer 1
10
95.308000
20
34.540500
11
95.308000
21
21.359700
0
LINE
8
Layer 1
10
95.308000
20
21.359700
11
82.125300
21
21.359700
0
LINE
8
Layer 1
10
82.125300
20
21.359700
11
82.125300
21
34.540500
0
LINE
8
Layer 1
10
134.856000
20
47.724300
11
148.039000
21
47.724300
0
LINE
8
Layer 1
10
148.039000
20
47.724300
11
148.039000
21
34.540500
0
LINE
8
Layer 1
10
148.039000
20
34.540500
11
134.856000
21
34.540500
0
LINE
8
Layer 1
10
134.856000
20
34.540500
11
134.856000
21
47.724300
0
LINE
8
Layer 1
10
82.125300
20
47.724300
11
95.308000
21
47.724300
0
LINE
8
Layer 1
10
95.308000
20
47.724300
11
95.308000
21
34.540500
0
LINE
8
Layer 1
10
95.308000
20
34.540500
11
82.125300
21
34.540500
0
LINE
8
Layer 1
10
82.125300
20
34.540500
11
82.125300
21
47.724300
0
LINE
8
Layer 1
10
134.856000
20
60.907000
11
148.039000
21
60.907000
0
LINE
8
Layer 1
10
148.039000
20
60.907000
11
148.039000
21
47.724300
0
LINE
8
Layer 1
10
148.039000
20
47.724300
11
134.856000
21
47.724300
0
LINE
8
Layer 1
10
134.856000
20
47.724300
11
134.856000
21
60.907000
0
LINE
8
Layer 1
10
82.125300
20
60.907000
11
95.308000
21
60.907000
0
LINE
8
Layer 1
10
95.308000
20
60.907000
11
95.308000
21
47.724300
0
LINE
8
Layer 1
10
95.308000
20
47.724300
11
82.125300
21
47.724300
0
LINE
8
Layer 1
10
82.125300
20
47.724300
11
82.125300
21
60.907000
0
LINE
8
Layer 1
10
121.674000
20
74.089800
11
134.856000
21
74.089800
0
LINE
8
Layer 1
10
134.856000
20
74.089800
11
134.856000
21
60.907000
0
LINE
8
Layer 1
10
134.856000
20
60.907000
11
121.674000
21
60.907000
0
LINE
8
Layer 1
10
121.674000
20
60.907000
11
121.674000
21
74.089800
0
LINE
8
Layer 1
10
108.491000
20
74.089800
11
121.674000
21
74.089800
0
LINE
8
Layer 1
10
121.674000
20
74.089800
11
121.674000
21
60.907000
0
LINE
8
Layer 1
10
121.674000
20
60.907000
11
108.491000
21
60.907000
0
LINE
8
Layer 1
10
108.491000
20
60.907000
11
108.491000
21
74.089800
0
LINE
8
Layer 1
10
95.308000
20
74.089800
11
108.491000
21
74.089800
0
LINE
8
Layer 1
10
108.491000
20
74.089800
11
108.491000
21
60.907000
0
LINE
8
Layer 1
10
108.491000
20
60.907000
11
95.308000
21
60.907000
0
LINE
8
Layer 1
10
95.308000
20
60.907000
11
95.308000
21
74.089800
0
LINE
8
Layer 1
10
134.856000
20
87.272600
11
148.039000
21
87.272600
0
LINE
8
Layer 1
10
148.039000
20
87.272600
11
148.039000
21
74.089800
0
LINE
8
Layer 1
10
148.039000
20
74.089800
11
134.856000
21
74.089800
0
LINE
8
Layer 1
10
134.856000
20
74.089800
11
134.856000
21
87.272600
0
LINE
8
Layer 1
10
82.125300
20
87.272600
11
95.308000
21
87.272600
0
LINE
8
Layer 1
10
95.308000
20
87.272600
11
95.308000
21
74.089800
0
LINE
8
Layer 1
10
95.308000
20
74.089800
11
82.125300
21
74.089800
0
LINE
8
Layer 1
10
82.125300
20
74.089800
11
82.125300
21
87.272600
0
LINE
8
Layer 1
10
134.856000
20
100.455000
11
148.039000
21
100.455000
0
LINE
8
Layer 1
10
148.039000
20
100.455000
11
148.039000
21
87.272600
0
LINE
8
Layer 1
10
148.039000
20
87.272600
11
134.856000
21
87.272600
0
LINE
8
Layer 1
10
134.856000
20
87.272600
11
134.856000
21
100.455000
0
LINE
8
Layer 1
10
82.125300
20
100.455000
11
95.308000
21
100.455000
0
LINE
8
Layer 1
10
95.308000
20
100.455000
11
95.308000
21
87.272600
0
LINE
8
Layer 1
10
95.308000
20
87.272600
11
82.125300
21
87.272600
0
LINE
8
Layer 1
10
82.125300
20
87.272600
11
82.125300
21
100.455000
0
LINE
8
Layer 1
10
134.856000
20
113.638000
11
148.039000
21
113.638000
0
LINE
8
Layer 1
10
148.039000
20
113.638000
11
148.039000
21
100.455000
0
LINE
8
Layer 1
10
148.039000
20
100.455000
11
134.856000
21
100.455000
0
LINE
8
Layer 1
10
134.856000
20
100.455000
11
134.856000
21
113.638000
0
LINE
8
Layer 1
10
82.125300
20
113.638000
11
95.308000
21
113.638000
0
LINE
8
Layer 1
10
95.308000
20
113.638000
11
95.308000
21
100.455000
0
LINE
8
Layer 1
10
95.308000
20
100.455000
11
82.125300
21
100.455000
0
LINE
8
Layer 1
10
82.125300
20
100.455000
11
82.125300
21
113.638000
0
LINE
8
Layer 1
10
121.674000
20
126.821000
11
134.856000
21
126.821000
0
LINE
8
Layer 1
10
134.856000
20
126.821000
11
134.856000
21
113.638000
0
LINE
8
Layer 1
10
134.856000
20
113.638000
11
121.674000
21
113.638000
0
LINE
8
Layer 1
10
121.674000
20
113.638000
11
121.674000
21
126.821000
0
LINE
8
Layer 1
10
108.491000
20
126.821000
11
121.674000
21
126.821000
0
LINE
8
Layer 1
10
121.674000
20
126.821000
11
121.674000
21
113.638000
0
LINE
8
Layer 1
10
121.674000
20
113.638000
11
108.491000
21
113.638000
0
LINE
8
Layer 1
10
108.491000
20
113.638000
11
108.491000
21
126.821000
0
LINE
8
Layer 1
10
95.308000
20
126.821000
11
108.491000
21
126.821000
0
LINE
8
Layer 1
10
108.491000
20
126.821000
11
108.491000
21
113.638000
0
LINE
8
Layer 1
10
108.491000
20
113.638000
11
95.308000
21
113.638000
0
LINE
8
Layer 1
10
95.308000
20
113.638000
11
95.308000
21
126.821000
0
LINE
8
Layer 1
10
202.616000
20
21.359700
11
215.799000
21
21.359700
0
LINE
8
Layer 1
10
215.799000
20
21.359700
11
215.799000
21
8.176420
0
LINE
8
Layer 1
10
215.799000
20
8.176420
11
202.616000
21
8.176420
0
LINE
8
Layer 1
10
202.616000
20
8.176420
11
202.616000
21
21.359700
0
LINE
8
Layer 1
10
189.433000
20
21.359700
11
202.616000
21
21.359700
0
LINE
8
Layer 1
10
202.616000
20
21.359700
11
202.616000
21
8.176420
0
LINE
8
Layer 1
10
202.616000
20
8.176420
11
189.433000
21
8.176420
0
LINE
8
Layer 1
10
189.433000
20
8.176420
11
189.433000
21
21.359700
0
LINE
8
Layer 1
10
176.250000
20
21.359700
11
189.433000
21
21.359700
0
LINE
8
Layer 1
10
189.433000
20
21.359700
11
189.433000
21
8.176420
0
LINE
8
Layer 1
10
189.433000
20
8.176420
11
176.250000
21
8.176420
0
LINE
8
Layer 1
10
176.250000
20
8.176420
11
176.250000
21
21.359700
0
LINE
8
Layer 1
10
215.799000
20
34.540500
11
228.981000
21
34.540500
0
LINE
8
Layer 1
10
228.981000
20
34.540500
11
228.981000
21
21.359700
0
LINE
8
Layer 1
10
228.981000
20
21.359700
11
215.799000
21
21.359700
0
LINE
8
Layer 1
10
215.799000
20
21.359700
11
215.799000
21
34.540500
0
LINE
8
Layer 1
10
163.068000
20
34.540500
11
176.250000
21
34.540500
0
LINE
8
Layer 1
10
176.250000
20
34.540500
11
176.250000
21
21.359700
0
LINE
8
Layer 1
10
176.250000
20
21.359700
11
163.068000
21
21.359700
0
LINE
8
Layer 1
10
163.068000
20
21.359700
11
163.068000
21
34.540500
0
LINE
8
Layer 1
10
215.799000
20
47.724300
11
228.981000
21
47.724300
0
LINE
8
Layer 1
10
228.981000
20
47.724300
11
228.981000
21
34.540500
0
LINE
8
Layer 1
10
228.981000
20
34.540500
11
215.799000
21
34.540500
0
LINE
8
Layer 1
10
215.799000
20
34.540500
11
215.799000
21
47.724300
0
LINE
8
Layer 1
10
163.068000
20
47.724300
11
176.250000
21
47.724300
0
LINE
8
Layer 1
10
176.250000
20
47.724300
11
176.250000
21
34.540500
0
LINE
8
Layer 1
10
176.250000
20
34.540500
11
163.068000
21
34.540500
0
LINE
8
Layer 1
10
163.068000
20
34.540500
11
163.068000
21
47.724300
0
LINE
8
Layer 1
10
215.799000
20
60.907000
11
228.981000
21
60.907000
0
LINE
8
Layer 1
10
228.981000
20
60.907000
11
228.981000
21
47.724300
0
LINE
8
Layer 1
10
228.981000
20
47.724300
11
215.799000
21
47.724300
0
LINE
8
Layer 1
10
215.799000
20
47.724300
11
215.799000
21
60.907000
0
LINE
8
Layer 1
10
163.068000
20
60.907000
11
176.250000
21
60.907000
0
LINE
8
Layer 1
10
176.250000
20
60.907000
11
176.250000
21
47.724300
0
LINE
8
Layer 1
10
176.250000
20
47.724300
11
163.068000
21
47.724300
0
LINE
8
Layer 1
10
163.068000
20
47.724300
11
163.068000
21
60.907000
0
LINE
8
Layer 1
10
215.799000
20
87.272600
11
228.981000
21
87.272600
0
LINE
8
Layer 1
10
228.981000
20
87.272600
11
228.981000
21
74.089800
0
LINE
8
Layer 1
10
228.981000
20
74.089800
11
215.799000
21
74.089800
0
LINE
8
Layer 1
10
215.799000
20
74.089800
11
215.799000
21
87.272600
0
LINE
8
Layer 1
10
163.068000
20
87.272600
11
176.250000
21
87.272600
0
LINE
8
Layer 1
10
176.250000
20
87.272600
11
176.250000
21
74.089800
0
LINE
8
Layer 1
10
176.250000
20
74.089800
11
163.068000
21
74.089800
0
LINE
8
Layer 1
10
163.068000
20
74.089800
11
163.068000
21
87.272600
0
LINE
8
Layer 1
10
215.799000
20
100.455000
11
228.981000
21
100.455000
0
LINE
8
Layer 1
10
228.981000
20
100.455000
11
228.981000
21
87.272600
0
LINE
8
Layer 1
10
228.981000
20
87.272600
11
215.799000
21
87.272600
0
LINE
8
Layer 1
10
215.799000
20
87.272600
11
215.799000
21
100.455000
0
LINE
8
Layer 1
10
163.068000
20
100.455000
11
176.250000
21
100.455000
0
LINE
8
Layer 1
10
176.250000
20
100.455000
11
176.250000
21
87.272600
0
LINE
8
Layer 1
10
176.250000
20
87.272600
11
163.068000
21
87.272600
0
LINE
8
Layer 1
10
163.068000
20
87.272600
11
163.068000
21
100.455000
0
LINE
8
Layer 1
10
215.799000
20
113.638000
11
228.981000
21
113.638000
0
LINE
8
Layer 1
10
228.981000
20
113.638000
11
228.981000
21
100.455000
0
LINE
8
Layer 1
10
228.981000
20
100.455000
11
215.799000
21
100.455000
0
LINE
8
Layer 1
10
215.799000
20
100.455000
11
215.799000
21
113.638000
0
LINE
8
Layer 1
10
163.068000
20
113.638000
11
176.250000
21
113.638000
0
LINE
8
Layer 1
10
176.250000
20
113.638000
11
176.250000
21
100.455000
0
LINE
8
Layer 1
10
176.250000
20
100.455000
11
163.068000
21
100.455000
0
LINE
8
Layer 1
10
163.068000
20
100.455000
11
163.068000
21
113.638000
0
LINE
8
Layer 1
10
202.616000
20
126.821000
11
215.799000
21
126.821000
0
LINE
8
Layer 1
10
215.799000
20
126.821000
11
215.799000
21
113.638000
0
LINE
8
Layer 1
10
215.799000
20
113.638000
11
202.616000
21
113.638000
0
LINE
8
Layer 1
10
202.616000
20
113.638000
11
202.616000
21
126.821000
0
LINE
8
Layer 1
10
189.433000
20
126.821000
11
202.616000
21
126.821000
0
LINE
8
Layer 1
10
202.616000
20
126.821000
11
202.616000
21
113.638000
0
LINE
8
Layer 1
10
202.616000
20
113.638000
11
189.433000
21
113.638000
0
LINE
8
Layer 1
10
189.433000
20
113.638000
11
189.433000
21
126.821000
0
LINE
8
Layer 1
10
176.250000
20
126.821000
11
189.433000
21
126.821000
0
LINE
8
Layer 1
10
189.433000
20
126.821000
11
189.433000
21
113.638000
0
LINE
8
Layer 1
10
189.433000
20
113.638000
11
176.250000
21
113.638000
0
LINE
8
Layer 1
10
176.250000
20
113.638000
11
176.250000
21
126.821000
 0 
ENDSEC
 0 
EOF