999
"DXF R12 Output" (www.mydxf.blogspot.com)
 0 
SECTION
 2 
HEADER
 9 
$ACADVER
 1 
AC1009
 9 
$EXTMIN
 10 
 0 
 20 
 0 
 9 
$EXTMAX
 10 
 8.5 
 20 
 11 
 0 
ENDSEC
 0 
SECTION
 2 
ENTITIES
0
LINE
8
Layer 1
10
0.793749
20
127.642000
11
-0.793749
21
126.054000
0
LINE
8
Layer 1
10
0.000000
20
128.171000
11
0.000000
21
125.525000
0
LINE
8
Layer 1
10
2.116660
20
125.790000
11
1.058330
21
124.731670
0
LINE
8
Layer 1
10
1.587500
20
126.319000
11
0.529170
21
125.260670
0
LINE
8
Layer 1
10
1.058330
20
126.848000
11
0.000000
21
125.789670
0
LINE
8
Layer 1
10
41.149600
20
17.173800
11
54.854700
21
17.173800
0
LINE
8
Layer 1
10
54.854700
20
17.173800
11
54.854700
21
3.469080
0
LINE
8
Layer 1
10
54.854700
20
3.469080
11
41.149600
21
3.469080
0
LINE
8
Layer 1
10
41.149600
20
3.469080
11
41.149600
21
17.173800
0
LINE
8
Layer 1
10
27.444900
20
17.173800
11
41.149600
21
17.173800
0
LINE
8
Layer 1
10
41.149600
20
17.173800
11
41.149600
21
3.469080
0
LINE
8
Layer 1
10
41.149600
20
3.469080
11
27.444900
21
3.469080
0
LINE
8
Layer 1
10
27.444900
20
3.469080
11
27.444900
21
17.173800
0
LINE
8
Layer 1
10
13.740000
20
17.173800
11
27.444900
21
17.173800
0
LINE
8
Layer 1
10
27.444900
20
17.173800
11
27.444900
21
3.469080
0
LINE
8
Layer 1
10
27.444900
20
3.469080
11
13.740000
21
3.469080
0
LINE
8
Layer 1
10
13.740000
20
3.469080
11
13.740000
21
17.173800
0
LINE
8
Layer 1
10
0.035108
20
30.878700
11
13.740000
21
30.878700
0
LINE
8
Layer 1
10
13.740000
20
30.878700
11
13.740000
21
17.173800
0
LINE
8
Layer 1
10
13.740000
20
17.173800
11
0.035108
21
17.173800
0
LINE
8
Layer 1
10
0.035108
20
17.173800
11
0.035108
21
30.878700
0
LINE
8
Layer 1
10
0.035108
20
44.583700
11
13.740000
21
44.583700
0
LINE
8
Layer 1
10
13.740000
20
44.583700
11
13.740000
21
30.878700
0
LINE
8
Layer 1
10
13.740000
20
30.878700
11
0.035108
21
30.878700
0
LINE
8
Layer 1
10
0.035108
20
30.878700
11
0.035108
21
44.583700
0
LINE
8
Layer 1
10
0.035108
20
58.288500
11
13.740000
21
58.288500
0
LINE
8
Layer 1
10
13.740000
20
58.288500
11
13.740000
21
44.583700
0
LINE
8
Layer 1
10
13.740000
20
44.583700
11
0.035108
21
44.583700
0
LINE
8
Layer 1
10
0.035108
20
44.583700
11
0.035108
21
58.288500
0
LINE
8
Layer 1
10
41.149600
20
71.993500
11
54.854700
21
71.993500
0
LINE
8
Layer 1
10
54.854700
20
71.993500
11
54.854700
21
58.288500
0
LINE
8
Layer 1
10
54.854700
20
58.288500
11
41.149600
21
58.288500
0
LINE
8
Layer 1
10
41.149600
20
58.288500
11
41.149600
21
71.993500
0
LINE
8
Layer 1
10
27.444900
20
71.993500
11
41.149600
21
71.993500
0
LINE
8
Layer 1
10
41.149600
20
71.993500
11
41.149600
21
58.288500
0
LINE
8
Layer 1
10
41.149600
20
58.288500
11
27.444900
21
58.288500
0
LINE
8
Layer 1
10
27.444900
20
58.288500
11
27.444900
21
71.993500
0
LINE
8
Layer 1
10
13.740000
20
71.993500
11
27.444900
21
71.993500
0
LINE
8
Layer 1
10
27.444900
20
71.993500
11
27.444900
21
58.288500
0
LINE
8
Layer 1
10
27.444900
20
58.288500
11
13.740000
21
58.288500
0
LINE
8
Layer 1
10
13.740000
20
58.288500
11
13.740000
21
71.993500
0
LINE
8
Layer 1
10
54.854700
20
85.698300
11
68.559400
21
85.698300
0
LINE
8
Layer 1
10
68.559400
20
85.698300
11
68.559400
21
71.993500
0
LINE
8
Layer 1
10
68.559400
20
71.993500
11
54.854700
21
71.993500
0
LINE
8
Layer 1
10
54.854700
20
71.993500
11
54.854700
21
85.698300
0
LINE
8
Layer 1
10
54.854700
20
99.403300
11
68.559400
21
99.403300
0
LINE
8
Layer 1
10
68.559400
20
99.403300
11
68.559400
21
85.698300
0
LINE
8
Layer 1
10
68.559400
20
85.698300
11
54.854700
21
85.698300
0
LINE
8
Layer 1
10
54.854700
20
85.698300
11
54.854700
21
99.403300
0
LINE
8
Layer 1
10
54.854700
20
113.108000
11
68.559400
21
113.108000
0
LINE
8
Layer 1
10
68.559400
20
113.108000
11
68.559400
21
99.403300
0
LINE
8
Layer 1
10
68.559400
20
99.403300
11
54.854700
21
99.403300
0
LINE
8
Layer 1
10
54.854700
20
99.403300
11
54.854700
21
113.108000
0
LINE
8
Layer 1
10
41.149600
20
126.813000
11
54.854700
21
126.813000
0
LINE
8
Layer 1
10
54.854700
20
126.813000
11
54.854700
21
113.108000
0
LINE
8
Layer 1
10
54.854700
20
113.108000
11
41.149600
21
113.108000
0
LINE
8
Layer 1
10
41.149600
20
113.108000
11
41.149600
21
126.813000
0
LINE
8
Layer 1
10
27.444900
20
126.813000
11
41.149600
21
126.813000
0
LINE
8
Layer 1
10
41.149600
20
126.813000
11
41.149600
21
113.108000
0
LINE
8
Layer 1
10
41.149600
20
113.108000
11
27.444900
21
113.108000
0
LINE
8
Layer 1
10
27.444900
20
113.108000
11
27.444900
21
126.813000
0
LINE
8
Layer 1
10
13.740000
20
126.813000
11
27.444900
21
126.813000
0
LINE
8
Layer 1
10
27.444900
20
126.813000
11
27.444900
21
113.108000
0
LINE
8
Layer 1
10
27.444900
20
113.108000
11
13.740000
21
113.108000
0
LINE
8
Layer 1
10
13.740000
20
113.108000
11
13.740000
21
126.813000
0
LINE
8
Layer 1
10
125.298000
20
17.173800
11
139.003000
21
17.173800
0
LINE
8
Layer 1
10
139.003000
20
17.173800
11
139.003000
21
3.469080
0
LINE
8
Layer 1
10
139.003000
20
3.469080
11
125.298000
21
3.469080
0
LINE
8
Layer 1
10
125.298000
20
3.469080
11
125.298000
21
17.173800
0
LINE
8
Layer 1
10
111.593000
20
17.173800
11
125.298000
21
17.173800
0
LINE
8
Layer 1
10
125.298000
20
17.173800
11
125.298000
21
3.469080
0
LINE
8
Layer 1
10
125.298000
20
3.469080
11
111.593000
21
3.469080
0
LINE
8
Layer 1
10
111.593000
20
3.469080
11
111.593000
21
17.173800
0
LINE
8
Layer 1
10
97.888200
20
17.173800
11
111.593000
21
17.173800
0
LINE
8
Layer 1
10
111.593000
20
17.173800
11
111.593000
21
3.469080
0
LINE
8
Layer 1
10
111.593000
20
3.469080
11
97.888200
21
3.469080
0
LINE
8
Layer 1
10
97.888200
20
3.469080
11
97.888200
21
17.173800
0
LINE
8
Layer 1
10
139.003000
20
30.878700
11
152.708000
21
30.878700
0
LINE
8
Layer 1
10
152.708000
20
30.878700
11
152.708000
21
17.173800
0
LINE
8
Layer 1
10
152.708000
20
17.173800
11
139.003000
21
17.173800
0
LINE
8
Layer 1
10
139.003000
20
17.173800
11
139.003000
21
30.878700
0
LINE
8
Layer 1
10
139.003000
20
44.583700
11
152.708000
21
44.583700
0
LINE
8
Layer 1
10
152.708000
20
44.583700
11
152.708000
21
30.878700
0
LINE
8
Layer 1
10
152.708000
20
30.878700
11
139.003000
21
30.878700
0
LINE
8
Layer 1
10
139.003000
20
30.878700
11
139.003000
21
44.583700
0
LINE
8
Layer 1
10
139.003000
20
58.288500
11
152.708000
21
58.288500
0
LINE
8
Layer 1
10
152.708000
20
58.288500
11
152.708000
21
44.583700
0
LINE
8
Layer 1
10
152.708000
20
44.583700
11
139.003000
21
44.583700
0
LINE
8
Layer 1
10
139.003000
20
44.583700
11
139.003000
21
58.288500
0
LINE
8
Layer 1
10
125.298000
20
71.993500
11
139.003000
21
71.993500
0
LINE
8
Layer 1
10
139.003000
20
71.993500
11
139.003000
21
58.288500
0
LINE
8
Layer 1
10
139.003000
20
58.288500
11
125.298000
21
58.288500
0
LINE
8
Layer 1
10
125.298000
20
58.288500
11
125.298000
21
71.993500
0
LINE
8
Layer 1
10
111.593000
20
71.993500
11
125.298000
21
71.993500
0
LINE
8
Layer 1
10
125.298000
20
71.993500
11
125.298000
21
58.288500
0
LINE
8
Layer 1
10
125.298000
20
58.288500
11
111.593000
21
58.288500
0
LINE
8
Layer 1
10
111.593000
20
58.288500
11
111.593000
21
71.993500
0
LINE
8
Layer 1
10
97.888200
20
71.993500
11
111.593000
21
71.993500
0
LINE
8
Layer 1
10
111.593000
20
71.993500
11
111.593000
21
58.288500
0
LINE
8
Layer 1
10
111.593000
20
58.288500
11
97.888200
21
58.288500
0
LINE
8
Layer 1
10
97.888200
20
58.288500
11
97.888200
21
71.993500
0
LINE
8
Layer 1
10
139.003000
20
85.698300
11
152.708000
21
85.698300
0
LINE
8
Layer 1
10
152.708000
20
85.698300
11
152.708000
21
71.993500
0
LINE
8
Layer 1
10
152.708000
20
71.993500
11
139.003000
21
71.993500
0
LINE
8
Layer 1
10
139.003000
20
71.993500
11
139.003000
21
85.698300
0
LINE
8
Layer 1
10
84.183400
20
85.698300
11
97.888200
21
85.698300
0
LINE
8
Layer 1
10
97.888200
20
85.698300
11
97.888200
21
71.993500
0
LINE
8
Layer 1
10
97.888200
20
71.993500
11
84.183400
21
71.993500
0
LINE
8
Layer 1
10
84.183400
20
71.993500
11
84.183400
21
85.698300
0
LINE
8
Layer 1
10
139.003000
20
99.403300
11
152.708000
21
99.403300
0
LINE
8
Layer 1
10
152.708000
20
99.403300
11
152.708000
21
85.698300
0
LINE
8
Layer 1
10
152.708000
20
85.698300
11
139.003000
21
85.698300
0
LINE
8
Layer 1
10
139.003000
20
85.698300
11
139.003000
21
99.403300
0
LINE
8
Layer 1
10
84.183400
20
99.403300
11
97.888200
21
99.403300
0
LINE
8
Layer 1
10
97.888200
20
99.403300
11
97.888200
21
85.698300
0
LINE
8
Layer 1
10
97.888200
20
85.698300
11
84.183400
21
85.698300
0
LINE
8
Layer 1
10
84.183400
20
85.698300
11
84.183400
21
99.403300
0
LINE
8
Layer 1
10
139.003000
20
113.108000
11
152.708000
21
113.108000
0
LINE
8
Layer 1
10
152.708000
20
113.108000
11
152.708000
21
99.403300
0
LINE
8
Layer 1
10
152.708000
20
99.403300
11
139.003000
21
99.403300
0
LINE
8
Layer 1
10
139.003000
20
99.403300
11
139.003000
21
113.108000
0
LINE
8
Layer 1
10
84.183400
20
113.108000
11
97.888200
21
113.108000
0
LINE
8
Layer 1
10
97.888200
20
113.108000
11
97.888200
21
99.403300
0
LINE
8
Layer 1
10
97.888200
20
99.403300
11
84.183400
21
99.403300
0
LINE
8
Layer 1
10
84.183400
20
99.403300
11
84.183400
21
113.108000
0
LINE
8
Layer 1
10
125.298000
20
126.813000
11
139.003000
21
126.813000
0
LINE
8
Layer 1
10
139.003000
20
126.813000
11
139.003000
21
113.108000
0
LINE
8
Layer 1
10
139.003000
20
113.108000
11
125.298000
21
113.108000
0
LINE
8
Layer 1
10
125.298000
20
113.108000
11
125.298000
21
126.813000
0
LINE
8
Layer 1
10
111.593000
20
126.813000
11
125.298000
21
126.813000
0
LINE
8
Layer 1
10
125.298000
20
126.813000
11
125.298000
21
113.108000
0
LINE
8
Layer 1
10
125.298000
20
113.108000
11
111.593000
21
113.108000
0
LINE
8
Layer 1
10
111.593000
20
113.108000
11
111.593000
21
126.813000
0
LINE
8
Layer 1
10
97.888200
20
126.813000
11
111.593000
21
126.813000
0
LINE
8
Layer 1
10
111.593000
20
126.813000
11
111.593000
21
113.108000
0
LINE
8
Layer 1
10
111.593000
20
113.108000
11
97.888200
21
113.108000
0
LINE
8
Layer 1
10
97.888200
20
113.108000
11
97.888200
21
126.813000
0
LINE
8
Layer 1
10
168.331000
20
30.878700
11
182.036000
21
30.878700
0
LINE
8
Layer 1
10
182.036000
20
30.878700
11
182.036000
21
17.173800
0
LINE
8
Layer 1
10
182.036000
20
17.173800
11
168.331000
21
17.173800
0
LINE
8
Layer 1
10
168.331000
20
17.173800
11
168.331000
21
30.878700
0
LINE
8
Layer 1
10
168.331000
20
44.583700
11
182.036000
21
44.583700
0
LINE
8
Layer 1
10
182.036000
20
44.583700
11
182.036000
21
30.878700
0
LINE
8
Layer 1
10
182.036000
20
30.878700
11
168.331000
21
30.878700
0
LINE
8
Layer 1
10
168.331000
20
30.878700
11
168.331000
21
44.583700
0
LINE
8
Layer 1
10
168.331000
20
58.288500
11
182.036000
21
58.288500
0
LINE
8
Layer 1
10
182.036000
20
58.288500
11
182.036000
21
44.583700
0
LINE
8
Layer 1
10
182.036000
20
44.583700
11
168.331000
21
44.583700
0
LINE
8
Layer 1
10
168.331000
20
44.583700
11
168.331000
21
58.288500
0
LINE
8
Layer 1
10
168.331000
20
85.698300
11
182.036000
21
85.698300
0
LINE
8
Layer 1
10
182.036000
20
85.698300
11
182.036000
21
71.993500
0
LINE
8
Layer 1
10
182.036000
20
71.993500
11
168.331000
21
71.993500
0
LINE
8
Layer 1
10
168.331000
20
71.993500
11
168.331000
21
85.698300
0
LINE
8
Layer 1
10
168.331000
20
99.403300
11
182.036000
21
99.403300
0
LINE
8
Layer 1
10
182.036000
20
99.403300
11
182.036000
21
85.698300
0
LINE
8
Layer 1
10
182.036000
20
85.698300
11
168.331000
21
85.698300
0
LINE
8
Layer 1
10
168.331000
20
85.698300
11
168.331000
21
99.403300
0
LINE
8
Layer 1
10
168.331000
20
113.108000
11
182.036000
21
113.108000
0
LINE
8
Layer 1
10
182.036000
20
113.108000
11
182.036000
21
99.403300
0
LINE
8
Layer 1
10
182.036000
20
99.403300
11
168.331000
21
99.403300
0
LINE
8
Layer 1
10
168.331000
20
99.403300
11
168.331000
21
113.108000
 0 
ENDSEC
 0 
EOF