999
"DXF R12 Output" (www.mydxf.blogspot.com)
 0 
SECTION
 2 
HEADER
 9 
$ACADVER
 1 
AC1009
 9 
$EXTMIN
 10 
 0 
 20 
 0 
 9 
$EXTMAX
 10 
 8.5 
 20 
 11 
 0 
ENDSEC
 0 
SECTION
 2 
ENTITIES
0
LINE
8
Layer 1
10
0.793749
20
128.341000
11
-0.793749
21
126.753000
0
LINE
8
Layer 1
10
0.000000
20
128.870000
11
0.000000
21
126.224000
0
LINE
8
Layer 1
10
2.116660
20
126.489000
11
1.058330
21
125.430670
0
LINE
8
Layer 1
10
1.587500
20
127.018000
11
0.529170
21
125.959670
0
LINE
8
Layer 1
10
1.058330
20
127.547000
11
0.000000
21
126.488670
0
LINE
8
Layer 1
10
39.664500
20
21.833000
11
52.874300
21
21.833000
0
LINE
8
Layer 1
10
52.874300
20
21.833000
11
52.874300
21
8.623320
0
LINE
8
Layer 1
10
52.874300
20
8.623320
11
39.664500
21
8.623320
0
LINE
8
Layer 1
10
39.664500
20
8.623320
11
39.664500
21
21.833000
0
LINE
8
Layer 1
10
26.454600
20
21.833000
11
39.664500
21
21.833000
0
LINE
8
Layer 1
10
39.664500
20
21.833000
11
39.664500
21
8.623320
0
LINE
8
Layer 1
10
39.664500
20
8.623320
11
26.454600
21
8.623320
0
LINE
8
Layer 1
10
26.454600
20
8.623320
11
26.454600
21
21.833000
0
LINE
8
Layer 1
10
13.244800
20
21.833000
11
26.454600
21
21.833000
0
LINE
8
Layer 1
10
26.454600
20
21.833000
11
26.454600
21
8.623320
0
LINE
8
Layer 1
10
26.454600
20
8.623320
11
13.244800
21
8.623320
0
LINE
8
Layer 1
10
13.244800
20
8.623320
11
13.244800
21
21.833000
0
LINE
8
Layer 1
10
0.034994
20
35.042800
11
13.244800
21
35.042800
0
LINE
8
Layer 1
10
13.244800
20
35.042800
11
13.244800
21
21.833000
0
LINE
8
Layer 1
10
13.244800
20
21.833000
11
0.034994
21
21.833000
0
LINE
8
Layer 1
10
0.034994
20
21.833000
11
0.034994
21
35.042800
0
LINE
8
Layer 1
10
0.034994
20
48.252700
11
13.244800
21
48.252700
0
LINE
8
Layer 1
10
13.244800
20
48.252700
11
13.244800
21
35.042800
0
LINE
8
Layer 1
10
13.244800
20
35.042800
11
0.034994
21
35.042800
0
LINE
8
Layer 1
10
0.034994
20
35.042800
11
0.034994
21
48.252700
0
LINE
8
Layer 1
10
0.034994
20
61.462600
11
13.244800
21
61.462600
0
LINE
8
Layer 1
10
13.244800
20
61.462600
11
13.244800
21
48.252700
0
LINE
8
Layer 1
10
13.244800
20
48.252700
11
0.034994
21
48.252700
0
LINE
8
Layer 1
10
0.034994
20
48.252700
11
0.034994
21
61.462600
0
LINE
8
Layer 1
10
39.664500
20
74.672500
11
52.874300
21
74.672500
0
LINE
8
Layer 1
10
52.874300
20
74.672500
11
52.874300
21
61.462600
0
LINE
8
Layer 1
10
52.874300
20
61.462600
11
39.664500
21
61.462600
0
LINE
8
Layer 1
10
39.664500
20
61.462600
11
39.664500
21
74.672500
0
LINE
8
Layer 1
10
26.454600
20
74.672500
11
39.664500
21
74.672500
0
LINE
8
Layer 1
10
39.664500
20
74.672500
11
39.664500
21
61.462600
0
LINE
8
Layer 1
10
39.664500
20
61.462600
11
26.454600
21
61.462600
0
LINE
8
Layer 1
10
26.454600
20
61.462600
11
26.454600
21
74.672500
0
LINE
8
Layer 1
10
13.244800
20
74.672500
11
26.454600
21
74.672500
0
LINE
8
Layer 1
10
26.454600
20
74.672500
11
26.454600
21
61.462600
0
LINE
8
Layer 1
10
26.454600
20
61.462600
11
13.244800
21
61.462600
0
LINE
8
Layer 1
10
13.244800
20
61.462600
11
13.244800
21
74.672500
0
LINE
8
Layer 1
10
52.874300
20
87.882100
11
66.084200
21
87.882100
0
LINE
8
Layer 1
10
66.084200
20
87.882100
11
66.084200
21
74.672500
0
LINE
8
Layer 1
10
66.084200
20
74.672500
11
52.874300
21
74.672500
0
LINE
8
Layer 1
10
52.874300
20
74.672500
11
52.874300
21
87.882100
0
LINE
8
Layer 1
10
52.874300
20
101.092000
11
66.084200
21
101.092000
0
LINE
8
Layer 1
10
66.084200
20
101.092000
11
66.084200
21
87.882100
0
LINE
8
Layer 1
10
66.084200
20
87.882100
11
52.874300
21
87.882100
0
LINE
8
Layer 1
10
52.874300
20
87.882100
11
52.874300
21
101.092000
0
LINE
8
Layer 1
10
52.874300
20
114.302000
11
66.084200
21
114.302000
0
LINE
8
Layer 1
10
66.084200
20
114.302000
11
66.084200
21
101.092000
0
LINE
8
Layer 1
10
66.084200
20
101.092000
11
52.874300
21
101.092000
0
LINE
8
Layer 1
10
52.874300
20
101.092000
11
52.874300
21
114.302000
0
LINE
8
Layer 1
10
39.664500
20
127.512000
11
52.874300
21
127.512000
0
LINE
8
Layer 1
10
52.874300
20
127.512000
11
52.874300
21
114.302000
0
LINE
8
Layer 1
10
52.874300
20
114.302000
11
39.664500
21
114.302000
0
LINE
8
Layer 1
10
39.664500
20
114.302000
11
39.664500
21
127.512000
0
LINE
8
Layer 1
10
26.454600
20
127.512000
11
39.664500
21
127.512000
0
LINE
8
Layer 1
10
39.664500
20
127.512000
11
39.664500
21
114.302000
0
LINE
8
Layer 1
10
39.664500
20
114.302000
11
26.454600
21
114.302000
0
LINE
8
Layer 1
10
26.454600
20
114.302000
11
26.454600
21
127.512000
0
LINE
8
Layer 1
10
13.244800
20
127.512000
11
26.454600
21
127.512000
0
LINE
8
Layer 1
10
26.454600
20
127.512000
11
26.454600
21
114.302000
0
LINE
8
Layer 1
10
26.454600
20
114.302000
11
13.244800
21
114.302000
0
LINE
8
Layer 1
10
13.244800
20
114.302000
11
13.244800
21
127.512000
0
LINE
8
Layer 1
10
120.773000
20
21.833000
11
133.983000
21
21.833000
0
LINE
8
Layer 1
10
133.983000
20
21.833000
11
133.983000
21
8.623320
0
LINE
8
Layer 1
10
133.983000
20
8.623320
11
120.773000
21
8.623320
0
LINE
8
Layer 1
10
120.773000
20
8.623320
11
120.773000
21
21.833000
0
LINE
8
Layer 1
10
107.563000
20
21.833000
11
120.773000
21
21.833000
0
LINE
8
Layer 1
10
120.773000
20
21.833000
11
120.773000
21
8.623320
0
LINE
8
Layer 1
10
120.773000
20
8.623320
11
107.563000
21
8.623320
0
LINE
8
Layer 1
10
107.563000
20
8.623320
11
107.563000
21
21.833000
0
LINE
8
Layer 1
10
94.353100
20
21.833000
11
107.563000
21
21.833000
0
LINE
8
Layer 1
10
107.563000
20
21.833000
11
107.563000
21
8.623320
0
LINE
8
Layer 1
10
107.563000
20
8.623320
11
94.353100
21
8.623320
0
LINE
8
Layer 1
10
94.353100
20
8.623320
11
94.353100
21
21.833000
0
LINE
8
Layer 1
10
133.983000
20
35.042800
11
147.192000
21
35.042800
0
LINE
8
Layer 1
10
147.192000
20
35.042800
11
147.192000
21
21.833000
0
LINE
8
Layer 1
10
147.192000
20
21.833000
11
133.983000
21
21.833000
0
LINE
8
Layer 1
10
133.983000
20
21.833000
11
133.983000
21
35.042800
0
LINE
8
Layer 1
10
133.983000
20
48.252700
11
147.192000
21
48.252700
0
LINE
8
Layer 1
10
147.192000
20
48.252700
11
147.192000
21
35.042800
0
LINE
8
Layer 1
10
147.192000
20
35.042800
11
133.983000
21
35.042800
0
LINE
8
Layer 1
10
133.983000
20
35.042800
11
133.983000
21
48.252700
0
LINE
8
Layer 1
10
133.983000
20
61.462600
11
147.192000
21
61.462600
0
LINE
8
Layer 1
10
147.192000
20
61.462600
11
147.192000
21
48.252700
0
LINE
8
Layer 1
10
147.192000
20
48.252700
11
133.983000
21
48.252700
0
LINE
8
Layer 1
10
133.983000
20
48.252700
11
133.983000
21
61.462600
0
LINE
8
Layer 1
10
120.773000
20
74.672500
11
133.983000
21
74.672500
0
LINE
8
Layer 1
10
133.983000
20
74.672500
11
133.983000
21
61.462600
0
LINE
8
Layer 1
10
133.983000
20
61.462600
11
120.773000
21
61.462600
0
LINE
8
Layer 1
10
120.773000
20
61.462600
11
120.773000
21
74.672500
0
LINE
8
Layer 1
10
107.563000
20
74.672500
11
120.773000
21
74.672500
0
LINE
8
Layer 1
10
120.773000
20
74.672500
11
120.773000
21
61.462600
0
LINE
8
Layer 1
10
120.773000
20
61.462600
11
107.563000
21
61.462600
0
LINE
8
Layer 1
10
107.563000
20
61.462600
11
107.563000
21
74.672500
0
LINE
8
Layer 1
10
94.353100
20
74.672500
11
107.563000
21
74.672500
0
LINE
8
Layer 1
10
107.563000
20
74.672500
11
107.563000
21
61.462600
0
LINE
8
Layer 1
10
107.563000
20
61.462600
11
94.353100
21
61.462600
0
LINE
8
Layer 1
10
94.353100
20
61.462600
11
94.353100
21
74.672500
0
LINE
8
Layer 1
10
133.983000
20
87.882100
11
147.192000
21
87.882100
0
LINE
8
Layer 1
10
147.192000
20
87.882100
11
147.192000
21
74.672500
0
LINE
8
Layer 1
10
147.192000
20
74.672500
11
133.983000
21
74.672500
0
LINE
8
Layer 1
10
133.983000
20
74.672500
11
133.983000
21
87.882100
0
LINE
8
Layer 1
10
81.143400
20
87.882100
11
94.353100
21
87.882100
0
LINE
8
Layer 1
10
94.353100
20
87.882100
11
94.353100
21
74.672500
0
LINE
8
Layer 1
10
94.353100
20
74.672500
11
81.143400
21
74.672500
0
LINE
8
Layer 1
10
81.143400
20
74.672500
11
81.143400
21
87.882100
0
LINE
8
Layer 1
10
133.983000
20
101.092000
11
147.192000
21
101.092000
0
LINE
8
Layer 1
10
147.192000
20
101.092000
11
147.192000
21
87.882100
0
LINE
8
Layer 1
10
147.192000
20
87.882100
11
133.983000
21
87.882100
0
LINE
8
Layer 1
10
133.983000
20
87.882100
11
133.983000
21
101.092000
0
LINE
8
Layer 1
10
81.143400
20
101.092000
11
94.353100
21
101.092000
0
LINE
8
Layer 1
10
94.353100
20
101.092000
11
94.353100
21
87.882100
0
LINE
8
Layer 1
10
94.353100
20
87.882100
11
81.143400
21
87.882100
0
LINE
8
Layer 1
10
81.143400
20
87.882100
11
81.143400
21
101.092000
0
LINE
8
Layer 1
10
133.983000
20
114.302000
11
147.192000
21
114.302000
0
LINE
8
Layer 1
10
147.192000
20
114.302000
11
147.192000
21
101.092000
0
LINE
8
Layer 1
10
147.192000
20
101.092000
11
133.983000
21
101.092000
0
LINE
8
Layer 1
10
133.983000
20
101.092000
11
133.983000
21
114.302000
0
LINE
8
Layer 1
10
81.143400
20
114.302000
11
94.353100
21
114.302000
0
LINE
8
Layer 1
10
94.353100
20
114.302000
11
94.353100
21
101.092000
0
LINE
8
Layer 1
10
94.353100
20
101.092000
11
81.143400
21
101.092000
0
LINE
8
Layer 1
10
81.143400
20
101.092000
11
81.143400
21
114.302000
0
LINE
8
Layer 1
10
120.773000
20
127.512000
11
133.983000
21
127.512000
0
LINE
8
Layer 1
10
133.983000
20
127.512000
11
133.983000
21
114.302000
0
LINE
8
Layer 1
10
133.983000
20
114.302000
11
120.773000
21
114.302000
0
LINE
8
Layer 1
10
120.773000
20
114.302000
11
120.773000
21
127.512000
0
LINE
8
Layer 1
10
107.563000
20
127.512000
11
120.773000
21
127.512000
0
LINE
8
Layer 1
10
120.773000
20
127.512000
11
120.773000
21
114.302000
0
LINE
8
Layer 1
10
120.773000
20
114.302000
11
107.563000
21
114.302000
0
LINE
8
Layer 1
10
107.563000
20
114.302000
11
107.563000
21
127.512000
0
LINE
8
Layer 1
10
94.353100
20
127.512000
11
107.563000
21
127.512000
0
LINE
8
Layer 1
10
107.563000
20
127.512000
11
107.563000
21
114.302000
0
LINE
8
Layer 1
10
107.563000
20
114.302000
11
94.353100
21
114.302000
0
LINE
8
Layer 1
10
94.353100
20
114.302000
11
94.353100
21
127.512000
0
LINE
8
Layer 1
10
201.882000
20
21.833000
11
215.091000
21
21.833000
0
LINE
8
Layer 1
10
215.091000
20
21.833000
11
215.091000
21
8.623320
0
LINE
8
Layer 1
10
215.091000
20
8.623320
11
201.882000
21
8.623320
0
LINE
8
Layer 1
10
201.882000
20
8.623320
11
201.882000
21
21.833000
0
LINE
8
Layer 1
10
188.671000
20
21.833000
11
201.882000
21
21.833000
0
LINE
8
Layer 1
10
201.882000
20
21.833000
11
201.882000
21
8.623320
0
LINE
8
Layer 1
10
201.882000
20
8.623320
11
188.671000
21
8.623320
0
LINE
8
Layer 1
10
188.671000
20
8.623320
11
188.671000
21
21.833000
0
LINE
8
Layer 1
10
175.462000
20
21.833000
11
188.671000
21
21.833000
0
LINE
8
Layer 1
10
188.671000
20
21.833000
11
188.671000
21
8.623320
0
LINE
8
Layer 1
10
188.671000
20
8.623320
11
175.462000
21
8.623320
0
LINE
8
Layer 1
10
175.462000
20
8.623320
11
175.462000
21
21.833000
0
LINE
8
Layer 1
10
162.252000
20
35.042800
11
175.462000
21
35.042800
0
LINE
8
Layer 1
10
175.462000
20
35.042800
11
175.462000
21
21.833000
0
LINE
8
Layer 1
10
175.462000
20
21.833000
11
162.252000
21
21.833000
0
LINE
8
Layer 1
10
162.252000
20
21.833000
11
162.252000
21
35.042800
0
LINE
8
Layer 1
10
162.252000
20
48.252700
11
175.462000
21
48.252700
0
LINE
8
Layer 1
10
175.462000
20
48.252700
11
175.462000
21
35.042800
0
LINE
8
Layer 1
10
175.462000
20
35.042800
11
162.252000
21
35.042800
0
LINE
8
Layer 1
10
162.252000
20
35.042800
11
162.252000
21
48.252700
0
LINE
8
Layer 1
10
162.252000
20
61.462600
11
175.462000
21
61.462600
0
LINE
8
Layer 1
10
175.462000
20
61.462600
11
175.462000
21
48.252700
0
LINE
8
Layer 1
10
175.462000
20
48.252700
11
162.252000
21
48.252700
0
LINE
8
Layer 1
10
162.252000
20
48.252700
11
162.252000
21
61.462600
0
LINE
8
Layer 1
10
201.882000
20
74.672500
11
215.091000
21
74.672500
0
LINE
8
Layer 1
10
215.091000
20
74.672500
11
215.091000
21
61.462600
0
LINE
8
Layer 1
10
215.091000
20
61.462600
11
201.882000
21
61.462600
0
LINE
8
Layer 1
10
201.882000
20
61.462600
11
201.882000
21
74.672500
0
LINE
8
Layer 1
10
188.671000
20
74.672500
11
201.882000
21
74.672500
0
LINE
8
Layer 1
10
201.882000
20
74.672500
11
201.882000
21
61.462600
0
LINE
8
Layer 1
10
201.882000
20
61.462600
11
188.671000
21
61.462600
0
LINE
8
Layer 1
10
188.671000
20
61.462600
11
188.671000
21
74.672500
0
LINE
8
Layer 1
10
175.462000
20
74.672500
11
188.671000
21
74.672500
0
LINE
8
Layer 1
10
188.671000
20
74.672500
11
188.671000
21
61.462600
0
LINE
8
Layer 1
10
188.671000
20
61.462600
11
175.462000
21
61.462600
0
LINE
8
Layer 1
10
175.462000
20
61.462600
11
175.462000
21
74.672500
0
LINE
8
Layer 1
10
215.091000
20
87.882100
11
228.301000
21
87.882100
0
LINE
8
Layer 1
10
228.301000
20
87.882100
11
228.301000
21
74.672500
0
LINE
8
Layer 1
10
228.301000
20
74.672500
11
215.091000
21
74.672500
0
LINE
8
Layer 1
10
215.091000
20
74.672500
11
215.091000
21
87.882100
0
LINE
8
Layer 1
10
215.091000
20
101.092000
11
228.301000
21
101.092000
0
LINE
8
Layer 1
10
228.301000
20
101.092000
11
228.301000
21
87.882100
0
LINE
8
Layer 1
10
228.301000
20
87.882100
11
215.091000
21
87.882100
0
LINE
8
Layer 1
10
215.091000
20
87.882100
11
215.091000
21
101.092000
0
LINE
8
Layer 1
10
215.091000
20
114.302000
11
228.301000
21
114.302000
0
LINE
8
Layer 1
10
228.301000
20
114.302000
11
228.301000
21
101.092000
0
LINE
8
Layer 1
10
228.301000
20
101.092000
11
215.091000
21
101.092000
0
LINE
8
Layer 1
10
215.091000
20
101.092000
11
215.091000
21
114.302000
0
LINE
8
Layer 1
10
201.882000
20
127.512000
11
215.091000
21
127.512000
0
LINE
8
Layer 1
10
215.091000
20
127.512000
11
215.091000
21
114.302000
0
LINE
8
Layer 1
10
215.091000
20
114.302000
11
201.882000
21
114.302000
0
LINE
8
Layer 1
10
201.882000
20
114.302000
11
201.882000
21
127.512000
0
LINE
8
Layer 1
10
188.671000
20
127.512000
11
201.882000
21
127.512000
0
LINE
8
Layer 1
10
201.882000
20
127.512000
11
201.882000
21
114.302000
0
LINE
8
Layer 1
10
201.882000
20
114.302000
11
188.671000
21
114.302000
0
LINE
8
Layer 1
10
188.671000
20
114.302000
11
188.671000
21
127.512000
0
LINE
8
Layer 1
10
175.462000
20
127.512000
11
188.671000
21
127.512000
0
LINE
8
Layer 1
10
188.671000
20
127.512000
11
188.671000
21
114.302000
0
LINE
8
Layer 1
10
188.671000
20
114.302000
11
175.462000
21
114.302000
0
LINE
8
Layer 1
10
175.462000
20
114.302000
11
175.462000
21
127.512000
 0 
ENDSEC
 0 
EOF