999
"DXF R12 Output" (www.mydxf.blogspot.com)
 0 
SECTION
 2 
HEADER
 9 
$ACADVER
 1 
AC1009
 9 
$EXTMIN
 10 
 0 
 20 
 0 
 9 
$EXTMAX
 10 
 8.5 
 20 
 11 
 0 
ENDSEC
 0 
SECTION
 2 
ENTITIES
0
LINE
8
Layer 1
10
0.793749
20
128.341000
11
-0.793749
21
126.753000
0
LINE
8
Layer 1
10
0.000000
20
128.870000
11
0.000000
21
126.224000
0
LINE
8
Layer 1
10
2.116660
20
126.489000
11
1.058330
21
125.430670
0
LINE
8
Layer 1
10
1.587500
20
127.018000
11
0.529170
21
125.959670
0
LINE
8
Layer 1
10
1.058330
20
127.547000
11
0.000000
21
126.488670
0
LINE
8
Layer 1
10
42.142200
20
15.225800
11
56.178000
21
15.225800
0
LINE
8
Layer 1
10
56.178000
20
15.225800
11
56.178000
21
1.189930
0
LINE
8
Layer 1
10
56.178000
20
1.189930
11
42.142200
21
1.189930
0
LINE
8
Layer 1
10
42.142200
20
1.189930
11
42.142200
21
15.225800
0
LINE
8
Layer 1
10
28.106600
20
15.225800
11
42.142200
21
15.225800
0
LINE
8
Layer 1
10
42.142200
20
15.225800
11
42.142200
21
1.189930
0
LINE
8
Layer 1
10
42.142200
20
1.189930
11
28.106600
21
1.189930
0
LINE
8
Layer 1
10
28.106600
20
1.189930
11
28.106600
21
15.225800
0
LINE
8
Layer 1
10
14.070800
20
15.225800
11
28.106600
21
15.225800
0
LINE
8
Layer 1
10
28.106600
20
15.225800
11
28.106600
21
1.189930
0
LINE
8
Layer 1
10
28.106600
20
1.189930
11
14.070800
21
1.189930
0
LINE
8
Layer 1
10
14.070800
20
1.189930
11
14.070800
21
15.225800
0
LINE
8
Layer 1
10
0.035070
20
29.261400
11
14.070800
21
29.261400
0
LINE
8
Layer 1
10
14.070800
20
29.261400
11
14.070800
21
15.225800
0
LINE
8
Layer 1
10
14.070800
20
15.225800
11
0.035070
21
15.225800
0
LINE
8
Layer 1
10
0.035070
20
15.225800
11
0.035070
21
29.261400
0
LINE
8
Layer 1
10
0.035070
20
43.297200
11
14.070800
21
43.297200
0
LINE
8
Layer 1
10
14.070800
20
43.297200
11
14.070800
21
29.261400
0
LINE
8
Layer 1
10
14.070800
20
29.261400
11
0.035070
21
29.261400
0
LINE
8
Layer 1
10
0.035070
20
29.261400
11
0.035070
21
43.297200
0
LINE
8
Layer 1
10
0.035070
20
57.332900
11
14.070800
21
57.332900
0
LINE
8
Layer 1
10
14.070800
20
57.332900
11
14.070800
21
43.297200
0
LINE
8
Layer 1
10
14.070800
20
43.297200
11
0.035070
21
43.297200
0
LINE
8
Layer 1
10
0.035070
20
43.297200
11
0.035070
21
57.332900
0
LINE
8
Layer 1
10
42.142200
20
71.368700
11
56.178000
21
71.368700
0
LINE
8
Layer 1
10
56.178000
20
71.368700
11
56.178000
21
57.332900
0
LINE
8
Layer 1
10
56.178000
20
57.332900
11
42.142200
21
57.332900
0
LINE
8
Layer 1
10
42.142200
20
57.332900
11
42.142200
21
71.368700
0
LINE
8
Layer 1
10
28.106600
20
71.368700
11
42.142200
21
71.368700
0
LINE
8
Layer 1
10
42.142200
20
71.368700
11
42.142200
21
57.332900
0
LINE
8
Layer 1
10
42.142200
20
57.332900
11
28.106600
21
57.332900
0
LINE
8
Layer 1
10
28.106600
20
57.332900
11
28.106600
21
71.368700
0
LINE
8
Layer 1
10
14.070800
20
71.368700
11
28.106600
21
71.368700
0
LINE
8
Layer 1
10
28.106600
20
71.368700
11
28.106600
21
57.332900
0
LINE
8
Layer 1
10
28.106600
20
57.332900
11
14.070800
21
57.332900
0
LINE
8
Layer 1
10
14.070800
20
57.332900
11
14.070800
21
71.368700
0
LINE
8
Layer 1
10
56.178000
20
85.404300
11
70.213900
21
85.404300
0
LINE
8
Layer 1
10
70.213900
20
85.404300
11
70.213900
21
71.368700
0
LINE
8
Layer 1
10
70.213900
20
71.368700
11
56.178000
21
71.368700
0
LINE
8
Layer 1
10
56.178000
20
71.368700
11
56.178000
21
85.404300
0
LINE
8
Layer 1
10
56.178000
20
99.440200
11
70.213900
21
99.440200
0
LINE
8
Layer 1
10
70.213900
20
99.440200
11
70.213900
21
85.404300
0
LINE
8
Layer 1
10
70.213900
20
85.404300
11
56.178000
21
85.404300
0
LINE
8
Layer 1
10
56.178000
20
85.404300
11
56.178000
21
99.440200
0
LINE
8
Layer 1
10
56.178000
20
113.476000
11
70.213900
21
113.476000
0
LINE
8
Layer 1
10
70.213900
20
113.476000
11
70.213900
21
99.440200
0
LINE
8
Layer 1
10
70.213900
20
99.440200
11
56.178000
21
99.440200
0
LINE
8
Layer 1
10
56.178000
20
99.440200
11
56.178000
21
113.476000
0
LINE
8
Layer 1
10
42.142200
20
127.512000
11
56.178000
21
127.512000
0
LINE
8
Layer 1
10
56.178000
20
127.512000
11
56.178000
21
113.476000
0
LINE
8
Layer 1
10
56.178000
20
113.476000
11
42.142200
21
113.476000
0
LINE
8
Layer 1
10
42.142200
20
113.476000
11
42.142200
21
127.512000
0
LINE
8
Layer 1
10
28.106600
20
127.512000
11
42.142200
21
127.512000
0
LINE
8
Layer 1
10
42.142200
20
127.512000
11
42.142200
21
113.476000
0
LINE
8
Layer 1
10
42.142200
20
113.476000
11
28.106600
21
113.476000
0
LINE
8
Layer 1
10
28.106600
20
113.476000
11
28.106600
21
127.512000
0
LINE
8
Layer 1
10
14.070800
20
127.512000
11
28.106600
21
127.512000
0
LINE
8
Layer 1
10
28.106600
20
127.512000
11
28.106600
21
113.476000
0
LINE
8
Layer 1
10
28.106600
20
113.476000
11
14.070800
21
113.476000
0
LINE
8
Layer 1
10
14.070800
20
113.476000
11
14.070800
21
127.512000
0
LINE
8
Layer 1
10
128.322000
20
15.225800
11
142.357000
21
15.225800
0
LINE
8
Layer 1
10
142.357000
20
15.225800
11
142.357000
21
1.189930
0
LINE
8
Layer 1
10
142.357000
20
1.189930
11
128.322000
21
1.189930
0
LINE
8
Layer 1
10
128.322000
20
1.189930
11
128.322000
21
15.225800
0
LINE
8
Layer 1
10
114.286000
20
15.225800
11
128.322000
21
15.225800
0
LINE
8
Layer 1
10
128.322000
20
15.225800
11
128.322000
21
1.189930
0
LINE
8
Layer 1
10
128.322000
20
1.189930
11
114.286000
21
1.189930
0
LINE
8
Layer 1
10
114.286000
20
1.189930
11
114.286000
21
15.225800
0
LINE
8
Layer 1
10
100.250000
20
15.225800
11
114.286000
21
15.225800
0
LINE
8
Layer 1
10
114.286000
20
15.225800
11
114.286000
21
1.189930
0
LINE
8
Layer 1
10
114.286000
20
1.189930
11
100.250000
21
1.189930
0
LINE
8
Layer 1
10
100.250000
20
1.189930
11
100.250000
21
15.225800
0
LINE
8
Layer 1
10
142.357000
20
29.261400
11
156.393000
21
29.261400
0
LINE
8
Layer 1
10
156.393000
20
29.261400
11
156.393000
21
15.225800
0
LINE
8
Layer 1
10
156.393000
20
15.225800
11
142.357000
21
15.225800
0
LINE
8
Layer 1
10
142.357000
20
15.225800
11
142.357000
21
29.261400
0
LINE
8
Layer 1
10
142.357000
20
43.297200
11
156.393000
21
43.297200
0
LINE
8
Layer 1
10
156.393000
20
43.297200
11
156.393000
21
29.261400
0
LINE
8
Layer 1
10
156.393000
20
29.261400
11
142.357000
21
29.261400
0
LINE
8
Layer 1
10
142.357000
20
29.261400
11
142.357000
21
43.297200
0
LINE
8
Layer 1
10
142.357000
20
57.332900
11
156.393000
21
57.332900
0
LINE
8
Layer 1
10
156.393000
20
57.332900
11
156.393000
21
43.297200
0
LINE
8
Layer 1
10
156.393000
20
43.297200
11
142.357000
21
43.297200
0
LINE
8
Layer 1
10
142.357000
20
43.297200
11
142.357000
21
57.332900
0
LINE
8
Layer 1
10
128.322000
20
71.368700
11
142.357000
21
71.368700
0
LINE
8
Layer 1
10
142.357000
20
71.368700
11
142.357000
21
57.332900
0
LINE
8
Layer 1
10
142.357000
20
57.332900
11
128.322000
21
57.332900
0
LINE
8
Layer 1
10
128.322000
20
57.332900
11
128.322000
21
71.368700
0
LINE
8
Layer 1
10
114.286000
20
71.368700
11
128.322000
21
71.368700
0
LINE
8
Layer 1
10
128.322000
20
71.368700
11
128.322000
21
57.332900
0
LINE
8
Layer 1
10
128.322000
20
57.332900
11
114.286000
21
57.332900
0
LINE
8
Layer 1
10
114.286000
20
57.332900
11
114.286000
21
71.368700
0
LINE
8
Layer 1
10
100.250000
20
71.368700
11
114.286000
21
71.368700
0
LINE
8
Layer 1
10
114.286000
20
71.368700
11
114.286000
21
57.332900
0
LINE
8
Layer 1
10
114.286000
20
57.332900
11
100.250000
21
57.332900
0
LINE
8
Layer 1
10
100.250000
20
57.332900
11
100.250000
21
71.368700
0
LINE
8
Layer 1
10
142.357000
20
85.404300
11
156.393000
21
85.404300
0
LINE
8
Layer 1
10
156.393000
20
85.404300
11
156.393000
21
71.368700
0
LINE
8
Layer 1
10
156.393000
20
71.368700
11
142.357000
21
71.368700
0
LINE
8
Layer 1
10
142.357000
20
71.368700
11
142.357000
21
85.404300
0
LINE
8
Layer 1
10
86.214000
20
85.404300
11
100.250000
21
85.404300
0
LINE
8
Layer 1
10
100.250000
20
85.404300
11
100.250000
21
71.368700
0
LINE
8
Layer 1
10
100.250000
20
71.368700
11
86.214000
21
71.368700
0
LINE
8
Layer 1
10
86.214000
20
71.368700
11
86.214000
21
85.404300
0
LINE
8
Layer 1
10
142.357000
20
99.440200
11
156.393000
21
99.440200
0
LINE
8
Layer 1
10
156.393000
20
99.440200
11
156.393000
21
85.404300
0
LINE
8
Layer 1
10
156.393000
20
85.404300
11
142.357000
21
85.404300
0
LINE
8
Layer 1
10
142.357000
20
85.404300
11
142.357000
21
99.440200
0
LINE
8
Layer 1
10
86.214000
20
99.440200
11
100.250000
21
99.440200
0
LINE
8
Layer 1
10
100.250000
20
99.440200
11
100.250000
21
85.404300
0
LINE
8
Layer 1
10
100.250000
20
85.404300
11
86.214000
21
85.404300
0
LINE
8
Layer 1
10
86.214000
20
85.404300
11
86.214000
21
99.440200
0
LINE
8
Layer 1
10
142.357000
20
113.476000
11
156.393000
21
113.476000
0
LINE
8
Layer 1
10
156.393000
20
113.476000
11
156.393000
21
99.440200
0
LINE
8
Layer 1
10
156.393000
20
99.440200
11
142.357000
21
99.440200
0
LINE
8
Layer 1
10
142.357000
20
99.440200
11
142.357000
21
113.476000
0
LINE
8
Layer 1
10
86.214000
20
113.476000
11
100.250000
21
113.476000
0
LINE
8
Layer 1
10
100.250000
20
113.476000
11
100.250000
21
99.440200
0
LINE
8
Layer 1
10
100.250000
20
99.440200
11
86.214000
21
99.440200
0
LINE
8
Layer 1
10
86.214000
20
99.440200
11
86.214000
21
113.476000
0
LINE
8
Layer 1
10
128.322000
20
127.512000
11
142.357000
21
127.512000
0
LINE
8
Layer 1
10
142.357000
20
127.512000
11
142.357000
21
113.476000
0
LINE
8
Layer 1
10
142.357000
20
113.476000
11
128.322000
21
113.476000
0
LINE
8
Layer 1
10
128.322000
20
113.476000
11
128.322000
21
127.512000
0
LINE
8
Layer 1
10
114.286000
20
127.512000
11
128.322000
21
127.512000
0
LINE
8
Layer 1
10
128.322000
20
127.512000
11
128.322000
21
113.476000
0
LINE
8
Layer 1
10
128.322000
20
113.476000
11
114.286000
21
113.476000
0
LINE
8
Layer 1
10
114.286000
20
113.476000
11
114.286000
21
127.512000
0
LINE
8
Layer 1
10
100.250000
20
127.512000
11
114.286000
21
127.512000
0
LINE
8
Layer 1
10
114.286000
20
127.512000
11
114.286000
21
113.476000
0
LINE
8
Layer 1
10
114.286000
20
113.476000
11
100.250000
21
113.476000
0
LINE
8
Layer 1
10
100.250000
20
113.476000
11
100.250000
21
127.512000
0
LINE
8
Layer 1
10
200.465000
20
15.225800
11
214.501000
21
15.225800
0
LINE
8
Layer 1
10
214.501000
20
15.225800
11
214.501000
21
1.189930
0
LINE
8
Layer 1
10
214.501000
20
1.189930
11
200.465000
21
1.189930
0
LINE
8
Layer 1
10
200.465000
20
1.189930
11
200.465000
21
15.225800
0
LINE
8
Layer 1
10
186.429000
20
15.225800
11
200.465000
21
15.225800
0
LINE
8
Layer 1
10
200.465000
20
15.225800
11
200.465000
21
1.189930
0
LINE
8
Layer 1
10
200.465000
20
1.189930
11
186.429000
21
1.189930
0
LINE
8
Layer 1
10
186.429000
20
1.189930
11
186.429000
21
15.225800
0
LINE
8
Layer 1
10
172.394000
20
15.225800
11
186.429000
21
15.225800
0
LINE
8
Layer 1
10
186.429000
20
15.225800
11
186.429000
21
1.189930
0
LINE
8
Layer 1
10
186.429000
20
1.189930
11
172.394000
21
1.189930
0
LINE
8
Layer 1
10
172.394000
20
1.189930
11
172.394000
21
15.225800
0
LINE
8
Layer 1
10
214.501000
20
29.261400
11
228.537000
21
29.261400
0
LINE
8
Layer 1
10
228.537000
20
29.261400
11
228.537000
21
15.225800
0
LINE
8
Layer 1
10
228.537000
20
15.225800
11
214.501000
21
15.225800
0
LINE
8
Layer 1
10
214.501000
20
15.225800
11
214.501000
21
29.261400
0
LINE
8
Layer 1
10
214.501000
20
43.297200
11
228.537000
21
43.297200
0
LINE
8
Layer 1
10
228.537000
20
43.297200
11
228.537000
21
29.261400
0
LINE
8
Layer 1
10
228.537000
20
29.261400
11
214.501000
21
29.261400
0
LINE
8
Layer 1
10
214.501000
20
29.261400
11
214.501000
21
43.297200
0
LINE
8
Layer 1
10
214.501000
20
57.332900
11
228.537000
21
57.332900
0
LINE
8
Layer 1
10
228.537000
20
57.332900
11
228.537000
21
43.297200
0
LINE
8
Layer 1
10
228.537000
20
43.297200
11
214.501000
21
43.297200
0
LINE
8
Layer 1
10
214.501000
20
43.297200
11
214.501000
21
57.332900
0
LINE
8
Layer 1
10
200.465000
20
71.368700
11
214.501000
21
71.368700
0
LINE
8
Layer 1
10
214.501000
20
71.368700
11
214.501000
21
57.332900
0
LINE
8
Layer 1
10
214.501000
20
57.332900
11
200.465000
21
57.332900
0
LINE
8
Layer 1
10
200.465000
20
57.332900
11
200.465000
21
71.368700
0
LINE
8
Layer 1
10
186.429000
20
71.368700
11
200.465000
21
71.368700
0
LINE
8
Layer 1
10
200.465000
20
71.368700
11
200.465000
21
57.332900
0
LINE
8
Layer 1
10
200.465000
20
57.332900
11
186.429000
21
57.332900
0
LINE
8
Layer 1
10
186.429000
20
57.332900
11
186.429000
21
71.368700
0
LINE
8
Layer 1
10
172.394000
20
71.368700
11
186.429000
21
71.368700
0
LINE
8
Layer 1
10
186.429000
20
71.368700
11
186.429000
21
57.332900
0
LINE
8
Layer 1
10
186.429000
20
57.332900
11
172.394000
21
57.332900
0
LINE
8
Layer 1
10
172.394000
20
57.332900
11
172.394000
21
71.368700
0
LINE
8
Layer 1
10
214.501000
20
85.404300
11
228.537000
21
85.404300
0
LINE
8
Layer 1
10
228.537000
20
85.404300
11
228.537000
21
71.368700
0
LINE
8
Layer 1
10
228.537000
20
71.368700
11
214.501000
21
71.368700
0
LINE
8
Layer 1
10
214.501000
20
71.368700
11
214.501000
21
85.404300
0
LINE
8
Layer 1
10
214.501000
20
99.440200
11
228.537000
21
99.440200
0
LINE
8
Layer 1
10
228.537000
20
99.440200
11
228.537000
21
85.404300
0
LINE
8
Layer 1
10
228.537000
20
85.404300
11
214.501000
21
85.404300
0
LINE
8
Layer 1
10
214.501000
20
85.404300
11
214.501000
21
99.440200
0
LINE
8
Layer 1
10
214.501000
20
113.476000
11
228.537000
21
113.476000
0
LINE
8
Layer 1
10
228.537000
20
113.476000
11
228.537000
21
99.440200
0
LINE
8
Layer 1
10
228.537000
20
99.440200
11
214.501000
21
99.440200
0
LINE
8
Layer 1
10
214.501000
20
99.440200
11
214.501000
21
113.476000
0
LINE
8
Layer 1
10
200.465000
20
127.512000
11
214.501000
21
127.512000
0
LINE
8
Layer 1
10
214.501000
20
127.512000
11
214.501000
21
113.476000
0
LINE
8
Layer 1
10
214.501000
20
113.476000
11
200.465000
21
113.476000
0
LINE
8
Layer 1
10
200.465000
20
113.476000
11
200.465000
21
127.512000
0
LINE
8
Layer 1
10
186.429000
20
127.512000
11
200.465000
21
127.512000
0
LINE
8
Layer 1
10
200.465000
20
127.512000
11
200.465000
21
113.476000
0
LINE
8
Layer 1
10
200.465000
20
113.476000
11
186.429000
21
113.476000
0
LINE
8
Layer 1
10
186.429000
20
113.476000
11
186.429000
21
127.512000
0
LINE
8
Layer 1
10
172.394000
20
127.512000
11
186.429000
21
127.512000
0
LINE
8
Layer 1
10
186.429000
20
127.512000
11
186.429000
21
113.476000
0
LINE
8
Layer 1
10
186.429000
20
113.476000
11
172.394000
21
113.476000
0
LINE
8
Layer 1
10
172.394000
20
113.476000
11
172.394000
21
127.512000
 0 
ENDSEC
 0 
EOF