999
"DXF R12 Output" (www.mydxf.blogspot.com)
 0 
SECTION
 2 
HEADER
 9 
$ACADVER
 1 
AC1009
 9 
$EXTMIN
 10 
 0 
 20 
 0 
 9 
$EXTMAX
 10 
 8.5 
 20 
 11 
 0 
ENDSEC
 0 
SECTION
 2 
ENTITIES
0
LINE
8
Layer 1
10
0.793749
20
128.341000
11
-0.793749
21
126.753000
0
LINE
8
Layer 1
10
0.000000
20
128.870000
11
0.000000
21
126.224000
0
LINE
8
Layer 1
10
2.116660
20
126.489000
11
1.058330
21
125.430670
0
LINE
8
Layer 1
10
1.587500
20
127.018000
11
0.529170
21
125.959670
0
LINE
8
Layer 1
10
1.058330
20
127.547000
11
0.000000
21
126.488670
0
LINE
8
Layer 1
10
39.723900
20
21.674800
11
52.953400
21
21.674800
0
LINE
8
Layer 1
10
52.953400
20
21.674800
11
52.953400
21
8.445390
0
LINE
8
Layer 1
10
52.953400
20
8.445390
11
39.723900
21
8.445390
0
LINE
8
Layer 1
10
39.723900
20
8.445390
11
39.723900
21
21.674800
0
LINE
8
Layer 1
10
26.494400
20
21.674800
11
39.723900
21
21.674800
0
LINE
8
Layer 1
10
39.723900
20
21.674800
11
39.723900
21
8.445390
0
LINE
8
Layer 1
10
39.723900
20
8.445390
11
26.494400
21
8.445390
0
LINE
8
Layer 1
10
26.494400
20
8.445390
11
26.494400
21
21.674800
0
LINE
8
Layer 1
10
13.264600
20
21.674800
11
26.494400
21
21.674800
0
LINE
8
Layer 1
10
26.494400
20
21.674800
11
26.494400
21
8.445390
0
LINE
8
Layer 1
10
26.494400
20
8.445390
11
13.264600
21
8.445390
0
LINE
8
Layer 1
10
13.264600
20
8.445390
11
13.264600
21
21.674800
0
LINE
8
Layer 1
10
0.034994
20
34.904400
11
13.264600
21
34.904400
0
LINE
8
Layer 1
10
13.264600
20
34.904400
11
13.264600
21
21.674800
0
LINE
8
Layer 1
10
13.264600
20
21.674800
11
0.034994
21
21.674800
0
LINE
8
Layer 1
10
0.034994
20
21.674800
11
0.034994
21
34.904400
0
LINE
8
Layer 1
10
0.034994
20
48.133900
11
13.264600
21
48.133900
0
LINE
8
Layer 1
10
13.264600
20
48.133900
11
13.264600
21
34.904400
0
LINE
8
Layer 1
10
13.264600
20
34.904400
11
0.034994
21
34.904400
0
LINE
8
Layer 1
10
0.034994
20
34.904400
11
0.034994
21
48.133900
0
LINE
8
Layer 1
10
0.034994
20
61.363700
11
13.264600
21
61.363700
0
LINE
8
Layer 1
10
13.264600
20
61.363700
11
13.264600
21
48.133900
0
LINE
8
Layer 1
10
13.264600
20
48.133900
11
0.034994
21
48.133900
0
LINE
8
Layer 1
10
0.034994
20
48.133900
11
0.034994
21
61.363700
0
LINE
8
Layer 1
10
39.723900
20
74.593300
11
52.953400
21
74.593300
0
LINE
8
Layer 1
10
52.953400
20
74.593300
11
52.953400
21
61.363700
0
LINE
8
Layer 1
10
52.953400
20
61.363700
11
39.723900
21
61.363700
0
LINE
8
Layer 1
10
39.723900
20
61.363700
11
39.723900
21
74.593300
0
LINE
8
Layer 1
10
26.494400
20
74.593300
11
39.723900
21
74.593300
0
LINE
8
Layer 1
10
39.723900
20
74.593300
11
39.723900
21
61.363700
0
LINE
8
Layer 1
10
39.723900
20
61.363700
11
26.494400
21
61.363700
0
LINE
8
Layer 1
10
26.494400
20
61.363700
11
26.494400
21
74.593300
0
LINE
8
Layer 1
10
13.264600
20
74.593300
11
26.494400
21
74.593300
0
LINE
8
Layer 1
10
26.494400
20
74.593300
11
26.494400
21
61.363700
0
LINE
8
Layer 1
10
26.494400
20
61.363700
11
13.264600
21
61.363700
0
LINE
8
Layer 1
10
13.264600
20
61.363700
11
13.264600
21
74.593300
0
LINE
8
Layer 1
10
52.953400
20
87.822800
11
66.182900
21
87.822800
0
LINE
8
Layer 1
10
66.182900
20
87.822800
11
66.182900
21
74.593300
0
LINE
8
Layer 1
10
66.182900
20
74.593300
11
52.953400
21
74.593300
0
LINE
8
Layer 1
10
52.953400
20
74.593300
11
52.953400
21
87.822800
0
LINE
8
Layer 1
10
52.953400
20
101.052000
11
66.182900
21
101.052000
0
LINE
8
Layer 1
10
66.182900
20
101.052000
11
66.182900
21
87.822800
0
LINE
8
Layer 1
10
66.182900
20
87.822800
11
52.953400
21
87.822800
0
LINE
8
Layer 1
10
52.953400
20
87.822800
11
52.953400
21
101.052000
0
LINE
8
Layer 1
10
52.953400
20
114.282000
11
66.182900
21
114.282000
0
LINE
8
Layer 1
10
66.182900
20
114.282000
11
66.182900
21
101.052000
0
LINE
8
Layer 1
10
66.182900
20
101.052000
11
52.953400
21
101.052000
0
LINE
8
Layer 1
10
52.953400
20
101.052000
11
52.953400
21
114.282000
0
LINE
8
Layer 1
10
39.723900
20
127.512000
11
52.953400
21
127.512000
0
LINE
8
Layer 1
10
52.953400
20
127.512000
11
52.953400
21
114.282000
0
LINE
8
Layer 1
10
52.953400
20
114.282000
11
39.723900
21
114.282000
0
LINE
8
Layer 1
10
39.723900
20
114.282000
11
39.723900
21
127.512000
0
LINE
8
Layer 1
10
26.494400
20
127.512000
11
39.723900
21
127.512000
0
LINE
8
Layer 1
10
39.723900
20
127.512000
11
39.723900
21
114.282000
0
LINE
8
Layer 1
10
39.723900
20
114.282000
11
26.494400
21
114.282000
0
LINE
8
Layer 1
10
26.494400
20
114.282000
11
26.494400
21
127.512000
0
LINE
8
Layer 1
10
13.264600
20
127.512000
11
26.494400
21
127.512000
0
LINE
8
Layer 1
10
26.494400
20
127.512000
11
26.494400
21
114.282000
0
LINE
8
Layer 1
10
26.494400
20
114.282000
11
13.264600
21
114.282000
0
LINE
8
Layer 1
10
13.264600
20
114.282000
11
13.264600
21
127.512000
0
LINE
8
Layer 1
10
120.953000
20
21.674800
11
134.183000
21
21.674800
0
LINE
8
Layer 1
10
134.183000
20
21.674800
11
134.183000
21
8.445390
0
LINE
8
Layer 1
10
134.183000
20
8.445390
11
120.953000
21
8.445390
0
LINE
8
Layer 1
10
120.953000
20
8.445390
11
120.953000
21
21.674800
0
LINE
8
Layer 1
10
107.724000
20
21.674800
11
120.953000
21
21.674800
0
LINE
8
Layer 1
10
120.953000
20
21.674800
11
120.953000
21
8.445390
0
LINE
8
Layer 1
10
120.953000
20
8.445390
11
107.724000
21
8.445390
0
LINE
8
Layer 1
10
107.724000
20
8.445390
11
107.724000
21
21.674800
0
LINE
8
Layer 1
10
94.494500
20
21.674800
11
107.724000
21
21.674800
0
LINE
8
Layer 1
10
107.724000
20
21.674800
11
107.724000
21
8.445390
0
LINE
8
Layer 1
10
107.724000
20
8.445390
11
94.494500
21
8.445390
0
LINE
8
Layer 1
10
94.494500
20
8.445390
11
94.494500
21
21.674800
0
LINE
8
Layer 1
10
134.183000
20
34.904400
11
147.413000
21
34.904400
0
LINE
8
Layer 1
10
147.413000
20
34.904400
11
147.413000
21
21.674800
0
LINE
8
Layer 1
10
147.413000
20
21.674800
11
134.183000
21
21.674800
0
LINE
8
Layer 1
10
134.183000
20
21.674800
11
134.183000
21
34.904400
0
LINE
8
Layer 1
10
134.183000
20
48.133900
11
147.413000
21
48.133900
0
LINE
8
Layer 1
10
147.413000
20
48.133900
11
147.413000
21
34.904400
0
LINE
8
Layer 1
10
147.413000
20
34.904400
11
134.183000
21
34.904400
0
LINE
8
Layer 1
10
134.183000
20
34.904400
11
134.183000
21
48.133900
0
LINE
8
Layer 1
10
134.183000
20
61.363700
11
147.413000
21
61.363700
0
LINE
8
Layer 1
10
147.413000
20
61.363700
11
147.413000
21
48.133900
0
LINE
8
Layer 1
10
147.413000
20
48.133900
11
134.183000
21
48.133900
0
LINE
8
Layer 1
10
134.183000
20
48.133900
11
134.183000
21
61.363700
0
LINE
8
Layer 1
10
120.953000
20
74.593300
11
134.183000
21
74.593300
0
LINE
8
Layer 1
10
134.183000
20
74.593300
11
134.183000
21
61.363700
0
LINE
8
Layer 1
10
134.183000
20
61.363700
11
120.953000
21
61.363700
0
LINE
8
Layer 1
10
120.953000
20
61.363700
11
120.953000
21
74.593300
0
LINE
8
Layer 1
10
107.724000
20
74.593300
11
120.953000
21
74.593300
0
LINE
8
Layer 1
10
120.953000
20
74.593300
11
120.953000
21
61.363700
0
LINE
8
Layer 1
10
120.953000
20
61.363700
11
107.724000
21
61.363700
0
LINE
8
Layer 1
10
107.724000
20
61.363700
11
107.724000
21
74.593300
0
LINE
8
Layer 1
10
94.494500
20
74.593300
11
107.724000
21
74.593300
0
LINE
8
Layer 1
10
107.724000
20
74.593300
11
107.724000
21
61.363700
0
LINE
8
Layer 1
10
107.724000
20
61.363700
11
94.494500
21
61.363700
0
LINE
8
Layer 1
10
94.494500
20
61.363700
11
94.494500
21
74.593300
0
LINE
8
Layer 1
10
134.183000
20
87.822800
11
147.413000
21
87.822800
0
LINE
8
Layer 1
10
147.413000
20
87.822800
11
147.413000
21
74.593300
0
LINE
8
Layer 1
10
147.413000
20
74.593300
11
134.183000
21
74.593300
0
LINE
8
Layer 1
10
134.183000
20
74.593300
11
134.183000
21
87.822800
0
LINE
8
Layer 1
10
81.264600
20
87.822800
11
94.494500
21
87.822800
0
LINE
8
Layer 1
10
94.494500
20
87.822800
11
94.494500
21
74.593300
0
LINE
8
Layer 1
10
94.494500
20
74.593300
11
81.264600
21
74.593300
0
LINE
8
Layer 1
10
81.264600
20
74.593300
11
81.264600
21
87.822800
0
LINE
8
Layer 1
10
134.183000
20
101.052000
11
147.413000
21
101.052000
0
LINE
8
Layer 1
10
147.413000
20
101.052000
11
147.413000
21
87.822800
0
LINE
8
Layer 1
10
147.413000
20
87.822800
11
134.183000
21
87.822800
0
LINE
8
Layer 1
10
134.183000
20
87.822800
11
134.183000
21
101.052000
0
LINE
8
Layer 1
10
81.264600
20
101.052000
11
94.494500
21
101.052000
0
LINE
8
Layer 1
10
94.494500
20
101.052000
11
94.494500
21
87.822800
0
LINE
8
Layer 1
10
94.494500
20
87.822800
11
81.264600
21
87.822800
0
LINE
8
Layer 1
10
81.264600
20
87.822800
11
81.264600
21
101.052000
0
LINE
8
Layer 1
10
134.183000
20
114.282000
11
147.413000
21
114.282000
0
LINE
8
Layer 1
10
147.413000
20
114.282000
11
147.413000
21
101.052000
0
LINE
8
Layer 1
10
147.413000
20
101.052000
11
134.183000
21
101.052000
0
LINE
8
Layer 1
10
134.183000
20
101.052000
11
134.183000
21
114.282000
0
LINE
8
Layer 1
10
81.264600
20
114.282000
11
94.494500
21
114.282000
0
LINE
8
Layer 1
10
94.494500
20
114.282000
11
94.494500
21
101.052000
0
LINE
8
Layer 1
10
94.494500
20
101.052000
11
81.264600
21
101.052000
0
LINE
8
Layer 1
10
81.264600
20
101.052000
11
81.264600
21
114.282000
0
LINE
8
Layer 1
10
120.953000
20
127.512000
11
134.183000
21
127.512000
0
LINE
8
Layer 1
10
134.183000
20
127.512000
11
134.183000
21
114.282000
0
LINE
8
Layer 1
10
134.183000
20
114.282000
11
120.953000
21
114.282000
0
LINE
8
Layer 1
10
120.953000
20
114.282000
11
120.953000
21
127.512000
0
LINE
8
Layer 1
10
107.724000
20
127.512000
11
120.953000
21
127.512000
0
LINE
8
Layer 1
10
120.953000
20
127.512000
11
120.953000
21
114.282000
0
LINE
8
Layer 1
10
120.953000
20
114.282000
11
107.724000
21
114.282000
0
LINE
8
Layer 1
10
107.724000
20
114.282000
11
107.724000
21
127.512000
0
LINE
8
Layer 1
10
94.494500
20
127.512000
11
107.724000
21
127.512000
0
LINE
8
Layer 1
10
107.724000
20
127.512000
11
107.724000
21
114.282000
0
LINE
8
Layer 1
10
107.724000
20
114.282000
11
94.494500
21
114.282000
0
LINE
8
Layer 1
10
94.494500
20
114.282000
11
94.494500
21
127.512000
0
LINE
8
Layer 1
10
215.413000
20
34.904400
11
228.643000
21
34.904400
0
LINE
8
Layer 1
10
228.643000
20
34.904400
11
228.643000
21
21.674800
0
LINE
8
Layer 1
10
228.643000
20
21.674800
11
215.413000
21
21.674800
0
LINE
8
Layer 1
10
215.413000
20
21.674800
11
215.413000
21
34.904400
0
LINE
8
Layer 1
10
215.413000
20
48.133900
11
228.643000
21
48.133900
0
LINE
8
Layer 1
10
228.643000
20
48.133900
11
228.643000
21
34.904400
0
LINE
8
Layer 1
10
228.643000
20
34.904400
11
215.413000
21
34.904400
0
LINE
8
Layer 1
10
215.413000
20
34.904400
11
215.413000
21
48.133900
0
LINE
8
Layer 1
10
215.413000
20
61.363700
11
228.643000
21
61.363700
0
LINE
8
Layer 1
10
228.643000
20
61.363700
11
228.643000
21
48.133900
0
LINE
8
Layer 1
10
228.643000
20
48.133900
11
215.413000
21
48.133900
0
LINE
8
Layer 1
10
215.413000
20
48.133900
11
215.413000
21
61.363700
0
LINE
8
Layer 1
10
202.184000
20
74.593300
11
215.413000
21
74.593300
0
LINE
8
Layer 1
10
215.413000
20
74.593300
11
215.413000
21
61.363700
0
LINE
8
Layer 1
10
215.413000
20
61.363700
11
202.184000
21
61.363700
0
LINE
8
Layer 1
10
202.184000
20
61.363700
11
202.184000
21
74.593300
0
LINE
8
Layer 1
10
188.954000
20
74.593300
11
202.184000
21
74.593300
0
LINE
8
Layer 1
10
202.184000
20
74.593300
11
202.184000
21
61.363700
0
LINE
8
Layer 1
10
202.184000
20
61.363700
11
188.954000
21
61.363700
0
LINE
8
Layer 1
10
188.954000
20
61.363700
11
188.954000
21
74.593300
0
LINE
8
Layer 1
10
175.724000
20
74.593300
11
188.954000
21
74.593300
0
LINE
8
Layer 1
10
188.954000
20
74.593300
11
188.954000
21
61.363700
0
LINE
8
Layer 1
10
188.954000
20
61.363700
11
175.724000
21
61.363700
0
LINE
8
Layer 1
10
175.724000
20
61.363700
11
175.724000
21
74.593300
0
LINE
8
Layer 1
10
215.413000
20
87.822800
11
228.643000
21
87.822800
0
LINE
8
Layer 1
10
228.643000
20
87.822800
11
228.643000
21
74.593300
0
LINE
8
Layer 1
10
228.643000
20
74.593300
11
215.413000
21
74.593300
0
LINE
8
Layer 1
10
215.413000
20
74.593300
11
215.413000
21
87.822800
0
LINE
8
Layer 1
10
162.495000
20
87.822800
11
175.724000
21
87.822800
0
LINE
8
Layer 1
10
175.724000
20
87.822800
11
175.724000
21
74.593300
0
LINE
8
Layer 1
10
175.724000
20
74.593300
11
162.495000
21
74.593300
0
LINE
8
Layer 1
10
162.495000
20
74.593300
11
162.495000
21
87.822800
0
LINE
8
Layer 1
10
215.413000
20
101.052000
11
228.643000
21
101.052000
0
LINE
8
Layer 1
10
228.643000
20
101.052000
11
228.643000
21
87.822800
0
LINE
8
Layer 1
10
228.643000
20
87.822800
11
215.413000
21
87.822800
0
LINE
8
Layer 1
10
215.413000
20
87.822800
11
215.413000
21
101.052000
0
LINE
8
Layer 1
10
162.495000
20
101.052000
11
175.724000
21
101.052000
0
LINE
8
Layer 1
10
175.724000
20
101.052000
11
175.724000
21
87.822800
0
LINE
8
Layer 1
10
175.724000
20
87.822800
11
162.495000
21
87.822800
0
LINE
8
Layer 1
10
162.495000
20
87.822800
11
162.495000
21
101.052000
0
LINE
8
Layer 1
10
215.413000
20
114.282000
11
228.643000
21
114.282000
0
LINE
8
Layer 1
10
228.643000
20
114.282000
11
228.643000
21
101.052000
0
LINE
8
Layer 1
10
228.643000
20
101.052000
11
215.413000
21
101.052000
0
LINE
8
Layer 1
10
215.413000
20
101.052000
11
215.413000
21
114.282000
0
LINE
8
Layer 1
10
162.495000
20
114.282000
11
175.724000
21
114.282000
0
LINE
8
Layer 1
10
175.724000
20
114.282000
11
175.724000
21
101.052000
0
LINE
8
Layer 1
10
175.724000
20
101.052000
11
162.495000
21
101.052000
0
LINE
8
Layer 1
10
162.495000
20
101.052000
11
162.495000
21
114.282000
 0 
ENDSEC
 0 
EOF