999
"DXF R12 Output" (www.mydxf.blogspot.com)
 0 
SECTION
 2 
HEADER
 9 
$ACADVER
 1 
AC1009
 9 
$EXTMIN
 10 
 0 
 20 
 0 
 9 
$EXTMAX
 10 
 8.5 
 20 
 11 
 0 
ENDSEC
 0 
SECTION
 2 
ENTITIES
0
LINE
8
Layer 1
10
0.793749
20
128.341000
11
-0.793749
21
126.753000
0
LINE
8
Layer 1
10
0.000000
20
128.870000
11
0.000000
21
126.224000
0
LINE
8
Layer 1
10
2.116660
20
126.489000
11
1.058330
21
125.430670
0
LINE
8
Layer 1
10
1.587500
20
127.018000
11
0.529170
21
125.959670
0
LINE
8
Layer 1
10
1.058330
20
127.547000
11
0.000000
21
126.488670
0
LINE
8
Layer 1
10
39.840000
20
21.365200
11
53.108400
21
21.365200
0
LINE
8
Layer 1
10
53.108400
20
21.365200
11
53.108400
21
8.096590
0
LINE
8
Layer 1
10
53.108400
20
8.096590
11
39.840000
21
8.096590
0
LINE
8
Layer 1
10
39.840000
20
8.096590
11
39.840000
21
21.365200
0
LINE
8
Layer 1
10
26.571700
20
21.365200
11
39.840000
21
21.365200
0
LINE
8
Layer 1
10
39.840000
20
21.365200
11
39.840000
21
8.096590
0
LINE
8
Layer 1
10
39.840000
20
8.096590
11
26.571700
21
8.096590
0
LINE
8
Layer 1
10
26.571700
20
8.096590
11
26.571700
21
21.365200
0
LINE
8
Layer 1
10
13.303400
20
21.365200
11
26.571700
21
21.365200
0
LINE
8
Layer 1
10
26.571700
20
21.365200
11
26.571700
21
8.096590
0
LINE
8
Layer 1
10
26.571700
20
8.096590
11
13.303400
21
8.096590
0
LINE
8
Layer 1
10
13.303400
20
8.096590
11
13.303400
21
21.365200
0
LINE
8
Layer 1
10
0.035190
20
34.633400
11
13.303400
21
34.633400
0
LINE
8
Layer 1
10
13.303400
20
34.633400
11
13.303400
21
21.365200
0
LINE
8
Layer 1
10
13.303400
20
21.365200
11
0.035190
21
21.365200
0
LINE
8
Layer 1
10
0.035190
20
21.365200
11
0.035190
21
34.633400
0
LINE
8
Layer 1
10
0.035190
20
47.901800
11
13.303400
21
47.901800
0
LINE
8
Layer 1
10
13.303400
20
47.901800
11
13.303400
21
34.633400
0
LINE
8
Layer 1
10
13.303400
20
34.633400
11
0.035190
21
34.633400
0
LINE
8
Layer 1
10
0.035190
20
34.633400
11
0.035190
21
47.901800
0
LINE
8
Layer 1
10
0.035190
20
61.170100
11
13.303400
21
61.170100
0
LINE
8
Layer 1
10
13.303400
20
61.170100
11
13.303400
21
47.901800
0
LINE
8
Layer 1
10
13.303400
20
47.901800
11
0.035190
21
47.901800
0
LINE
8
Layer 1
10
0.035190
20
47.901800
11
0.035190
21
61.170100
0
LINE
8
Layer 1
10
39.840000
20
74.438200
11
53.108400
21
74.438200
0
LINE
8
Layer 1
10
53.108400
20
74.438200
11
53.108400
21
61.170100
0
LINE
8
Layer 1
10
53.108400
20
61.170100
11
39.840000
21
61.170100
0
LINE
8
Layer 1
10
39.840000
20
61.170100
11
39.840000
21
74.438200
0
LINE
8
Layer 1
10
26.571700
20
74.438200
11
39.840000
21
74.438200
0
LINE
8
Layer 1
10
39.840000
20
74.438200
11
39.840000
21
61.170100
0
LINE
8
Layer 1
10
39.840000
20
61.170100
11
26.571700
21
61.170100
0
LINE
8
Layer 1
10
26.571700
20
61.170100
11
26.571700
21
74.438200
0
LINE
8
Layer 1
10
13.303400
20
74.438200
11
26.571700
21
74.438200
0
LINE
8
Layer 1
10
26.571700
20
74.438200
11
26.571700
21
61.170100
0
LINE
8
Layer 1
10
26.571700
20
61.170100
11
13.303400
21
61.170100
0
LINE
8
Layer 1
10
13.303400
20
61.170100
11
13.303400
21
74.438200
0
LINE
8
Layer 1
10
53.108400
20
87.706600
11
66.376500
21
87.706600
0
LINE
8
Layer 1
10
66.376500
20
87.706600
11
66.376500
21
74.438200
0
LINE
8
Layer 1
10
66.376500
20
74.438200
11
53.108400
21
74.438200
0
LINE
8
Layer 1
10
53.108400
20
74.438200
11
53.108400
21
87.706600
0
LINE
8
Layer 1
10
53.108400
20
100.975000
11
66.376500
21
100.975000
0
LINE
8
Layer 1
10
66.376500
20
100.975000
11
66.376500
21
87.706600
0
LINE
8
Layer 1
10
66.376500
20
87.706600
11
53.108400
21
87.706600
0
LINE
8
Layer 1
10
53.108400
20
87.706600
11
53.108400
21
100.975000
0
LINE
8
Layer 1
10
53.108400
20
114.243000
11
66.376500
21
114.243000
0
LINE
8
Layer 1
10
66.376500
20
114.243000
11
66.376500
21
100.975000
0
LINE
8
Layer 1
10
66.376500
20
100.975000
11
53.108400
21
100.975000
0
LINE
8
Layer 1
10
53.108400
20
100.975000
11
53.108400
21
114.243000
0
LINE
8
Layer 1
10
39.840000
20
127.511000
11
53.108400
21
127.511000
0
LINE
8
Layer 1
10
53.108400
20
127.511000
11
53.108400
21
114.243000
0
LINE
8
Layer 1
10
53.108400
20
114.243000
11
39.840000
21
114.243000
0
LINE
8
Layer 1
10
39.840000
20
114.243000
11
39.840000
21
127.511000
0
LINE
8
Layer 1
10
26.571700
20
127.511000
11
39.840000
21
127.511000
0
LINE
8
Layer 1
10
39.840000
20
127.511000
11
39.840000
21
114.243000
0
LINE
8
Layer 1
10
39.840000
20
114.243000
11
26.571700
21
114.243000
0
LINE
8
Layer 1
10
26.571700
20
114.243000
11
26.571700
21
127.511000
0
LINE
8
Layer 1
10
13.303400
20
127.511000
11
26.571700
21
127.511000
0
LINE
8
Layer 1
10
26.571700
20
127.511000
11
26.571700
21
114.243000
0
LINE
8
Layer 1
10
26.571700
20
114.243000
11
13.303400
21
114.243000
0
LINE
8
Layer 1
10
13.303400
20
114.243000
11
13.303400
21
127.511000
0
LINE
8
Layer 1
10
121.307000
20
21.365200
11
134.575000
21
21.365200
0
LINE
8
Layer 1
10
134.575000
20
21.365200
11
134.575000
21
8.096590
0
LINE
8
Layer 1
10
134.575000
20
8.096590
11
121.307000
21
8.096590
0
LINE
8
Layer 1
10
121.307000
20
8.096590
11
121.307000
21
21.365200
0
LINE
8
Layer 1
10
108.039000
20
21.365200
11
121.307000
21
21.365200
0
LINE
8
Layer 1
10
121.307000
20
21.365200
11
121.307000
21
8.096590
0
LINE
8
Layer 1
10
121.307000
20
8.096590
11
108.039000
21
8.096590
0
LINE
8
Layer 1
10
108.039000
20
8.096590
11
108.039000
21
21.365200
0
LINE
8
Layer 1
10
94.771000
20
21.365200
11
108.039000
21
21.365200
0
LINE
8
Layer 1
10
108.039000
20
21.365200
11
108.039000
21
8.096590
0
LINE
8
Layer 1
10
108.039000
20
8.096590
11
94.771000
21
8.096590
0
LINE
8
Layer 1
10
94.771000
20
8.096590
11
94.771000
21
21.365200
0
LINE
8
Layer 1
10
134.575000
20
34.633400
11
147.844000
21
34.633400
0
LINE
8
Layer 1
10
147.844000
20
34.633400
11
147.844000
21
21.365200
0
LINE
8
Layer 1
10
147.844000
20
21.365200
11
134.575000
21
21.365200
0
LINE
8
Layer 1
10
134.575000
20
21.365200
11
134.575000
21
34.633400
0
LINE
8
Layer 1
10
134.575000
20
47.901800
11
147.844000
21
47.901800
0
LINE
8
Layer 1
10
147.844000
20
47.901800
11
147.844000
21
34.633400
0
LINE
8
Layer 1
10
147.844000
20
34.633400
11
134.575000
21
34.633400
0
LINE
8
Layer 1
10
134.575000
20
34.633400
11
134.575000
21
47.901800
0
LINE
8
Layer 1
10
134.575000
20
61.170100
11
147.844000
21
61.170100
0
LINE
8
Layer 1
10
147.844000
20
61.170100
11
147.844000
21
47.901800
0
LINE
8
Layer 1
10
147.844000
20
47.901800
11
134.575000
21
47.901800
0
LINE
8
Layer 1
10
134.575000
20
47.901800
11
134.575000
21
61.170100
0
LINE
8
Layer 1
10
121.307000
20
74.438200
11
134.575000
21
74.438200
0
LINE
8
Layer 1
10
134.575000
20
74.438200
11
134.575000
21
61.170100
0
LINE
8
Layer 1
10
134.575000
20
61.170100
11
121.307000
21
61.170100
0
LINE
8
Layer 1
10
121.307000
20
61.170100
11
121.307000
21
74.438200
0
LINE
8
Layer 1
10
108.039000
20
74.438200
11
121.307000
21
74.438200
0
LINE
8
Layer 1
10
121.307000
20
74.438200
11
121.307000
21
61.170100
0
LINE
8
Layer 1
10
121.307000
20
61.170100
11
108.039000
21
61.170100
0
LINE
8
Layer 1
10
108.039000
20
61.170100
11
108.039000
21
74.438200
0
LINE
8
Layer 1
10
94.771000
20
74.438200
11
108.039000
21
74.438200
0
LINE
8
Layer 1
10
108.039000
20
74.438200
11
108.039000
21
61.170100
0
LINE
8
Layer 1
10
108.039000
20
61.170100
11
94.771000
21
61.170100
0
LINE
8
Layer 1
10
94.771000
20
61.170100
11
94.771000
21
74.438200
0
LINE
8
Layer 1
10
134.575000
20
87.706600
11
147.844000
21
87.706600
0
LINE
8
Layer 1
10
147.844000
20
87.706600
11
147.844000
21
74.438200
0
LINE
8
Layer 1
10
147.844000
20
74.438200
11
134.575000
21
74.438200
0
LINE
8
Layer 1
10
134.575000
20
74.438200
11
134.575000
21
87.706600
0
LINE
8
Layer 1
10
81.502200
20
87.706600
11
94.771000
21
87.706600
0
LINE
8
Layer 1
10
94.771000
20
87.706600
11
94.771000
21
74.438200
0
LINE
8
Layer 1
10
94.771000
20
74.438200
11
81.502200
21
74.438200
0
LINE
8
Layer 1
10
81.502200
20
74.438200
11
81.502200
21
87.706600
0
LINE
8
Layer 1
10
134.575000
20
100.975000
11
147.844000
21
100.975000
0
LINE
8
Layer 1
10
147.844000
20
100.975000
11
147.844000
21
87.706600
0
LINE
8
Layer 1
10
147.844000
20
87.706600
11
134.575000
21
87.706600
0
LINE
8
Layer 1
10
134.575000
20
87.706600
11
134.575000
21
100.975000
0
LINE
8
Layer 1
10
81.502200
20
100.975000
11
94.771000
21
100.975000
0
LINE
8
Layer 1
10
94.771000
20
100.975000
11
94.771000
21
87.706600
0
LINE
8
Layer 1
10
94.771000
20
87.706600
11
81.502200
21
87.706600
0
LINE
8
Layer 1
10
81.502200
20
87.706600
11
81.502200
21
100.975000
0
LINE
8
Layer 1
10
134.575000
20
114.243000
11
147.844000
21
114.243000
0
LINE
8
Layer 1
10
147.844000
20
114.243000
11
147.844000
21
100.975000
0
LINE
8
Layer 1
10
147.844000
20
100.975000
11
134.575000
21
100.975000
0
LINE
8
Layer 1
10
134.575000
20
100.975000
11
134.575000
21
114.243000
0
LINE
8
Layer 1
10
81.502200
20
114.243000
11
94.771000
21
114.243000
0
LINE
8
Layer 1
10
94.771000
20
114.243000
11
94.771000
21
100.975000
0
LINE
8
Layer 1
10
94.771000
20
100.975000
11
81.502200
21
100.975000
0
LINE
8
Layer 1
10
81.502200
20
100.975000
11
81.502200
21
114.243000
0
LINE
8
Layer 1
10
121.307000
20
127.511000
11
134.575000
21
127.511000
0
LINE
8
Layer 1
10
134.575000
20
127.511000
11
134.575000
21
114.243000
0
LINE
8
Layer 1
10
134.575000
20
114.243000
11
121.307000
21
114.243000
0
LINE
8
Layer 1
10
121.307000
20
114.243000
11
121.307000
21
127.511000
0
LINE
8
Layer 1
10
108.039000
20
127.511000
11
121.307000
21
127.511000
0
LINE
8
Layer 1
10
121.307000
20
127.511000
11
121.307000
21
114.243000
0
LINE
8
Layer 1
10
121.307000
20
114.243000
11
108.039000
21
114.243000
0
LINE
8
Layer 1
10
108.039000
20
114.243000
11
108.039000
21
127.511000
0
LINE
8
Layer 1
10
94.771000
20
127.511000
11
108.039000
21
127.511000
0
LINE
8
Layer 1
10
108.039000
20
127.511000
11
108.039000
21
114.243000
0
LINE
8
Layer 1
10
108.039000
20
114.243000
11
94.771000
21
114.243000
0
LINE
8
Layer 1
10
94.771000
20
114.243000
11
94.771000
21
127.511000
0
LINE
8
Layer 1
10
202.775000
20
21.365200
11
216.043000
21
21.365200
0
LINE
8
Layer 1
10
216.043000
20
21.365200
11
216.043000
21
8.096590
0
LINE
8
Layer 1
10
216.043000
20
8.096590
11
202.775000
21
8.096590
0
LINE
8
Layer 1
10
202.775000
20
8.096590
11
202.775000
21
21.365200
0
LINE
8
Layer 1
10
189.506000
20
21.365200
11
202.775000
21
21.365200
0
LINE
8
Layer 1
10
202.775000
20
21.365200
11
202.775000
21
8.096590
0
LINE
8
Layer 1
10
202.775000
20
8.096590
11
189.506000
21
8.096590
0
LINE
8
Layer 1
10
189.506000
20
8.096590
11
189.506000
21
21.365200
0
LINE
8
Layer 1
10
176.238000
20
21.365200
11
189.506000
21
21.365200
0
LINE
8
Layer 1
10
189.506000
20
21.365200
11
189.506000
21
8.096590
0
LINE
8
Layer 1
10
189.506000
20
8.096590
11
176.238000
21
8.096590
0
LINE
8
Layer 1
10
176.238000
20
8.096590
11
176.238000
21
21.365200
0
LINE
8
Layer 1
10
216.043000
20
34.633400
11
229.311000
21
34.633400
0
LINE
8
Layer 1
10
229.311000
20
34.633400
11
229.311000
21
21.365200
0
LINE
8
Layer 1
10
229.311000
20
21.365200
11
216.043000
21
21.365200
0
LINE
8
Layer 1
10
216.043000
20
21.365200
11
216.043000
21
34.633400
0
LINE
8
Layer 1
10
216.043000
20
47.901800
11
229.311000
21
47.901800
0
LINE
8
Layer 1
10
229.311000
20
47.901800
11
229.311000
21
34.633400
0
LINE
8
Layer 1
10
229.311000
20
34.633400
11
216.043000
21
34.633400
0
LINE
8
Layer 1
10
216.043000
20
34.633400
11
216.043000
21
47.901800
0
LINE
8
Layer 1
10
216.043000
20
61.170100
11
229.311000
21
61.170100
0
LINE
8
Layer 1
10
229.311000
20
61.170100
11
229.311000
21
47.901800
0
LINE
8
Layer 1
10
229.311000
20
47.901800
11
216.043000
21
47.901800
0
LINE
8
Layer 1
10
216.043000
20
47.901800
11
216.043000
21
61.170100
0
LINE
8
Layer 1
10
202.775000
20
74.438200
11
216.043000
21
74.438200
0
LINE
8
Layer 1
10
216.043000
20
74.438200
11
216.043000
21
61.170100
0
LINE
8
Layer 1
10
216.043000
20
61.170100
11
202.775000
21
61.170100
0
LINE
8
Layer 1
10
202.775000
20
61.170100
11
202.775000
21
74.438200
0
LINE
8
Layer 1
10
189.506000
20
74.438200
11
202.775000
21
74.438200
0
LINE
8
Layer 1
10
202.775000
20
74.438200
11
202.775000
21
61.170100
0
LINE
8
Layer 1
10
202.775000
20
61.170100
11
189.506000
21
61.170100
0
LINE
8
Layer 1
10
189.506000
20
61.170100
11
189.506000
21
74.438200
0
LINE
8
Layer 1
10
176.238000
20
74.438200
11
189.506000
21
74.438200
0
LINE
8
Layer 1
10
189.506000
20
74.438200
11
189.506000
21
61.170100
0
LINE
8
Layer 1
10
189.506000
20
61.170100
11
176.238000
21
61.170100
0
LINE
8
Layer 1
10
176.238000
20
61.170100
11
176.238000
21
74.438200
0
LINE
8
Layer 1
10
162.970000
20
87.706600
11
176.238000
21
87.706600
0
LINE
8
Layer 1
10
176.238000
20
87.706600
11
176.238000
21
74.438200
0
LINE
8
Layer 1
10
176.238000
20
74.438200
11
162.970000
21
74.438200
0
LINE
8
Layer 1
10
162.970000
20
74.438200
11
162.970000
21
87.706600
0
LINE
8
Layer 1
10
162.970000
20
100.975000
11
176.238000
21
100.975000
0
LINE
8
Layer 1
10
176.238000
20
100.975000
11
176.238000
21
87.706600
0
LINE
8
Layer 1
10
176.238000
20
87.706600
11
162.970000
21
87.706600
0
LINE
8
Layer 1
10
162.970000
20
87.706600
11
162.970000
21
100.975000
0
LINE
8
Layer 1
10
162.970000
20
114.243000
11
176.238000
21
114.243000
0
LINE
8
Layer 1
10
176.238000
20
114.243000
11
176.238000
21
100.975000
0
LINE
8
Layer 1
10
176.238000
20
100.975000
11
162.970000
21
100.975000
0
LINE
8
Layer 1
10
162.970000
20
100.975000
11
162.970000
21
114.243000
0
LINE
8
Layer 1
10
202.775000
20
127.511000
11
216.043000
21
127.511000
0
LINE
8
Layer 1
10
216.043000
20
127.511000
11
216.043000
21
114.243000
0
LINE
8
Layer 1
10
216.043000
20
114.243000
11
202.775000
21
114.243000
0
LINE
8
Layer 1
10
202.775000
20
114.243000
11
202.775000
21
127.511000
0
LINE
8
Layer 1
10
189.506000
20
127.511000
11
202.775000
21
127.511000
0
LINE
8
Layer 1
10
202.775000
20
127.511000
11
202.775000
21
114.243000
0
LINE
8
Layer 1
10
202.775000
20
114.243000
11
189.506000
21
114.243000
0
LINE
8
Layer 1
10
189.506000
20
114.243000
11
189.506000
21
127.511000
0
LINE
8
Layer 1
10
176.238000
20
127.511000
11
189.506000
21
127.511000
0
LINE
8
Layer 1
10
189.506000
20
127.511000
11
189.506000
21
114.243000
0
LINE
8
Layer 1
10
189.506000
20
114.243000
11
176.238000
21
114.243000
0
LINE
8
Layer 1
10
176.238000
20
114.243000
11
176.238000
21
127.511000
 0 
ENDSEC
 0 
EOF