999
"DXF R12 Output" (www.mydxf.blogspot.com)
 0 
SECTION
 2 
HEADER
 9 
$ACADVER
 1 
AC1009
 9 
$EXTMIN
 10 
 0 
 20 
 0 
 9 
$EXTMAX
 10 
 8.5 
 20 
 11 
 0 
ENDSEC
 0 
SECTION
 2 
ENTITIES
0
LINE
8
Layer 1
10
10.054100
20
5.093230
11
15.015100
21
5.093230
0
LINE
8
Layer 1
10
15.015100
20
5.093230
11
15.015100
21
0.132295
0
LINE
8
Layer 1
10
15.015100
20
0.132295
11
10.054100
21
0.132295
0
LINE
8
Layer 1
10
10.054100
20
0.132295
11
10.054100
21
5.093230
0
LINE
8
Layer 1
10
5.093190
20
5.093230
11
10.054100
21
5.093230
0
LINE
8
Layer 1
10
10.054100
20
5.093230
11
10.054100
21
0.132295
0
LINE
8
Layer 1
10
10.054100
20
0.132295
11
5.093190
21
0.132295
0
LINE
8
Layer 1
10
5.093190
20
0.132295
11
5.093190
21
5.093230
0
LINE
8
Layer 1
10
0.132248
20
5.093230
11
5.093190
21
5.093230
0
LINE
8
Layer 1
10
5.093190
20
5.093230
11
5.093190
21
0.132295
0
LINE
8
Layer 1
10
5.093190
20
0.132295
11
0.132248
21
0.132295
0
LINE
8
Layer 1
10
0.132248
20
0.132295
11
0.132248
21
5.093230
0
LINE
8
Layer 1
10
15.015100
20
10.054200
11
19.976000
21
10.054200
0
LINE
8
Layer 1
10
19.976000
20
10.054200
11
19.976000
21
5.093230
0
LINE
8
Layer 1
10
19.976000
20
5.093230
11
15.015100
21
5.093230
0
LINE
8
Layer 1
10
15.015100
20
5.093230
11
15.015100
21
10.054200
0
LINE
8
Layer 1
10
15.015100
20
15.015100
11
19.976000
21
15.015100
0
LINE
8
Layer 1
10
19.976000
20
15.015100
11
19.976000
21
10.054200
0
LINE
8
Layer 1
10
19.976000
20
10.054200
11
15.015100
21
10.054200
0
LINE
8
Layer 1
10
15.015100
20
10.054200
11
15.015100
21
15.015100
0
LINE
8
Layer 1
10
15.015100
20
19.976000
11
19.976000
21
19.976000
0
LINE
8
Layer 1
10
19.976000
20
19.976000
11
19.976000
21
15.015100
0
LINE
8
Layer 1
10
19.976000
20
15.015100
11
15.015100
21
15.015100
0
LINE
8
Layer 1
10
15.015100
20
15.015100
11
15.015100
21
19.976000
0
LINE
8
Layer 1
10
10.054100
20
24.937000
11
15.015100
21
24.937000
0
LINE
8
Layer 1
10
15.015100
20
24.937000
11
15.015100
21
19.976000
0
LINE
8
Layer 1
10
15.015100
20
19.976000
11
10.054100
21
19.976000
0
LINE
8
Layer 1
10
10.054100
20
19.976000
11
10.054100
21
24.937000
0
LINE
8
Layer 1
10
5.093190
20
24.937000
11
10.054100
21
24.937000
0
LINE
8
Layer 1
10
10.054100
20
24.937000
11
10.054100
21
19.976000
0
LINE
8
Layer 1
10
10.054100
20
19.976000
11
5.093190
21
19.976000
0
LINE
8
Layer 1
10
5.093190
20
19.976000
11
5.093190
21
24.937000
0
LINE
8
Layer 1
10
0.132248
20
24.937000
11
5.093190
21
24.937000
0
LINE
8
Layer 1
10
5.093190
20
24.937000
11
5.093190
21
19.976000
0
LINE
8
Layer 1
10
5.093190
20
19.976000
11
0.132248
21
19.976000
0
LINE
8
Layer 1
10
0.132248
20
19.976000
11
0.132248
21
24.937000
0
LINE
8
Layer 1
10
15.015100
20
29.897900
11
19.976000
21
29.897900
0
LINE
8
Layer 1
10
19.976000
20
29.897900
11
19.976000
21
24.937000
0
LINE
8
Layer 1
10
19.976000
20
24.937000
11
15.015100
21
24.937000
0
LINE
8
Layer 1
10
15.015100
20
24.937000
11
15.015100
21
29.897900
0
LINE
8
Layer 1
10
15.015100
20
34.858900
11
19.976000
21
34.858900
0
LINE
8
Layer 1
10
19.976000
20
34.858900
11
19.976000
21
29.897900
0
LINE
8
Layer 1
10
19.976000
20
29.897900
11
15.015100
21
29.897900
0
LINE
8
Layer 1
10
15.015100
20
29.897900
11
15.015100
21
34.858900
0
LINE
8
Layer 1
10
15.015100
20
39.819800
11
19.976000
21
39.819800
0
LINE
8
Layer 1
10
19.976000
20
39.819800
11
19.976000
21
34.858900
0
LINE
8
Layer 1
10
19.976000
20
34.858900
11
15.015100
21
34.858900
0
LINE
8
Layer 1
10
15.015100
20
34.858900
11
15.015100
21
39.819800
0
LINE
8
Layer 1
10
10.054100
20
44.780700
11
15.015100
21
44.780700
0
LINE
8
Layer 1
10
15.015100
20
44.780700
11
15.015100
21
39.819800
0
LINE
8
Layer 1
10
15.015100
20
39.819800
11
10.054100
21
39.819800
0
LINE
8
Layer 1
10
10.054100
20
39.819800
11
10.054100
21
44.780700
0
LINE
8
Layer 1
10
5.093190
20
44.780700
11
10.054100
21
44.780700
0
LINE
8
Layer 1
10
10.054100
20
44.780700
11
10.054100
21
39.819800
0
LINE
8
Layer 1
10
10.054100
20
39.819800
11
5.093190
21
39.819800
0
LINE
8
Layer 1
10
5.093190
20
39.819800
11
5.093190
21
44.780700
0
LINE
8
Layer 1
10
0.132248
20
44.780700
11
5.093190
21
44.780700
0
LINE
8
Layer 1
10
5.093190
20
44.780700
11
5.093190
21
39.819800
0
LINE
8
Layer 1
10
5.093190
20
39.819800
11
0.132248
21
39.819800
0
LINE
8
Layer 1
10
0.132248
20
39.819800
11
0.132248
21
44.780700
0
LINE
8
Layer 1
10
45.475200
20
5.093230
11
50.436200
21
5.093230
0
LINE
8
Layer 1
10
50.436200
20
5.093230
11
50.436200
21
0.132295
0
LINE
8
Layer 1
10
50.436200
20
0.132295
11
45.475200
21
0.132295
0
LINE
8
Layer 1
10
45.475200
20
0.132295
11
45.475200
21
5.093230
0
LINE
8
Layer 1
10
40.514300
20
5.093230
11
45.475200
21
5.093230
0
LINE
8
Layer 1
10
45.475200
20
5.093230
11
45.475200
21
0.132295
0
LINE
8
Layer 1
10
45.475200
20
0.132295
11
40.514300
21
0.132295
0
LINE
8
Layer 1
10
40.514300
20
0.132295
11
40.514300
21
5.093230
0
LINE
8
Layer 1
10
35.553300
20
5.093230
11
40.514300
21
5.093230
0
LINE
8
Layer 1
10
40.514300
20
5.093230
11
40.514300
21
0.132295
0
LINE
8
Layer 1
10
40.514300
20
0.132295
11
35.553300
21
0.132295
0
LINE
8
Layer 1
10
35.553300
20
0.132295
11
35.553300
21
5.093230
0
LINE
8
Layer 1
10
50.436200
20
10.054200
11
55.397100
21
10.054200
0
LINE
8
Layer 1
10
55.397100
20
10.054200
11
55.397100
21
5.093230
0
LINE
8
Layer 1
10
55.397100
20
5.093230
11
50.436200
21
5.093230
0
LINE
8
Layer 1
10
50.436200
20
5.093230
11
50.436200
21
10.054200
0
LINE
8
Layer 1
10
30.592400
20
10.054200
11
35.553300
21
10.054200
0
LINE
8
Layer 1
10
35.553300
20
10.054200
11
35.553300
21
5.093230
0
LINE
8
Layer 1
10
35.553300
20
5.093230
11
30.592400
21
5.093230
0
LINE
8
Layer 1
10
30.592400
20
5.093230
11
30.592400
21
10.054200
0
LINE
8
Layer 1
10
50.436200
20
15.015100
11
55.397100
21
15.015100
0
LINE
8
Layer 1
10
55.397100
20
15.015100
11
55.397100
21
10.054200
0
LINE
8
Layer 1
10
55.397100
20
10.054200
11
50.436200
21
10.054200
0
LINE
8
Layer 1
10
50.436200
20
10.054200
11
50.436200
21
15.015100
0
LINE
8
Layer 1
10
30.592400
20
15.015100
11
35.553300
21
15.015100
0
LINE
8
Layer 1
10
35.553300
20
15.015100
11
35.553300
21
10.054200
0
LINE
8
Layer 1
10
35.553300
20
10.054200
11
30.592400
21
10.054200
0
LINE
8
Layer 1
10
30.592400
20
10.054200
11
30.592400
21
15.015100
0
LINE
8
Layer 1
10
50.436200
20
19.976000
11
55.397100
21
19.976000
0
LINE
8
Layer 1
10
55.397100
20
19.976000
11
55.397100
21
15.015100
0
LINE
8
Layer 1
10
55.397100
20
15.015100
11
50.436200
21
15.015100
0
LINE
8
Layer 1
10
50.436200
20
15.015100
11
50.436200
21
19.976000
0
LINE
8
Layer 1
10
30.592400
20
19.976000
11
35.553300
21
19.976000
0
LINE
8
Layer 1
10
35.553300
20
19.976000
11
35.553300
21
15.015100
0
LINE
8
Layer 1
10
35.553300
20
15.015100
11
30.592400
21
15.015100
0
LINE
8
Layer 1
10
30.592400
20
15.015100
11
30.592400
21
19.976000
0
LINE
8
Layer 1
10
50.436200
20
29.897900
11
55.397100
21
29.897900
0
LINE
8
Layer 1
10
55.397100
20
29.897900
11
55.397100
21
24.937000
0
LINE
8
Layer 1
10
55.397100
20
24.937000
11
50.436200
21
24.937000
0
LINE
8
Layer 1
10
50.436200
20
24.937000
11
50.436200
21
29.897900
0
LINE
8
Layer 1
10
30.592400
20
29.897900
11
35.553300
21
29.897900
0
LINE
8
Layer 1
10
35.553300
20
29.897900
11
35.553300
21
24.937000
0
LINE
8
Layer 1
10
35.553300
20
24.937000
11
30.592400
21
24.937000
0
LINE
8
Layer 1
10
30.592400
20
24.937000
11
30.592400
21
29.897900
0
LINE
8
Layer 1
10
50.436200
20
34.858900
11
55.397100
21
34.858900
0
LINE
8
Layer 1
10
55.397100
20
34.858900
11
55.397100
21
29.897900
0
LINE
8
Layer 1
10
55.397100
20
29.897900
11
50.436200
21
29.897900
0
LINE
8
Layer 1
10
50.436200
20
29.897900
11
50.436200
21
34.858900
0
LINE
8
Layer 1
10
30.592400
20
34.858900
11
35.553300
21
34.858900
0
LINE
8
Layer 1
10
35.553300
20
34.858900
11
35.553300
21
29.897900
0
LINE
8
Layer 1
10
35.553300
20
29.897900
11
30.592400
21
29.897900
0
LINE
8
Layer 1
10
30.592400
20
29.897900
11
30.592400
21
34.858900
0
LINE
8
Layer 1
10
50.436200
20
39.819800
11
55.397100
21
39.819800
0
LINE
8
Layer 1
10
55.397100
20
39.819800
11
55.397100
21
34.858900
0
LINE
8
Layer 1
10
55.397100
20
34.858900
11
50.436200
21
34.858900
0
LINE
8
Layer 1
10
50.436200
20
34.858900
11
50.436200
21
39.819800
0
LINE
8
Layer 1
10
30.592400
20
39.819800
11
35.553300
21
39.819800
0
LINE
8
Layer 1
10
35.553300
20
39.819800
11
35.553300
21
34.858900
0
LINE
8
Layer 1
10
35.553300
20
34.858900
11
30.592400
21
34.858900
0
LINE
8
Layer 1
10
30.592400
20
34.858900
11
30.592400
21
39.819800
0
LINE
8
Layer 1
10
45.475200
20
44.780700
11
50.436200
21
44.780700
0
LINE
8
Layer 1
10
50.436200
20
44.780700
11
50.436200
21
39.819800
0
LINE
8
Layer 1
10
50.436200
20
39.819800
11
45.475200
21
39.819800
0
LINE
8
Layer 1
10
45.475200
20
39.819800
11
45.475200
21
44.780700
0
LINE
8
Layer 1
10
40.514300
20
44.780700
11
45.475200
21
44.780700
0
LINE
8
Layer 1
10
45.475200
20
44.780700
11
45.475200
21
39.819800
0
LINE
8
Layer 1
10
45.475200
20
39.819800
11
40.514300
21
39.819800
0
LINE
8
Layer 1
10
40.514300
20
39.819800
11
40.514300
21
44.780700
0
LINE
8
Layer 1
10
35.553300
20
44.780700
11
40.514300
21
44.780700
0
LINE
8
Layer 1
10
40.514300
20
44.780700
11
40.514300
21
39.819800
0
LINE
8
Layer 1
10
40.514300
20
39.819800
11
35.553300
21
39.819800
0
LINE
8
Layer 1
10
35.553300
20
39.819800
11
35.553300
21
44.780700
0
LINE
8
Layer 1
10
75.935400
20
5.093230
11
80.896300
21
5.093230
0
LINE
8
Layer 1
10
80.896300
20
5.093230
11
80.896300
21
0.132295
0
LINE
8
Layer 1
10
80.896300
20
0.132295
11
75.935400
21
0.132295
0
LINE
8
Layer 1
10
75.935400
20
0.132295
11
75.935400
21
5.093230
0
LINE
8
Layer 1
10
70.974400
20
5.093230
11
75.935400
21
5.093230
0
LINE
8
Layer 1
10
75.935400
20
5.093230
11
75.935400
21
0.132295
0
LINE
8
Layer 1
10
75.935400
20
0.132295
11
70.974400
21
0.132295
0
LINE
8
Layer 1
10
70.974400
20
0.132295
11
70.974400
21
5.093230
0
LINE
8
Layer 1
10
66.013500
20
5.093230
11
70.974400
21
5.093230
0
LINE
8
Layer 1
10
70.974400
20
5.093230
11
70.974400
21
0.132295
0
LINE
8
Layer 1
10
70.974400
20
0.132295
11
66.013500
21
0.132295
0
LINE
8
Layer 1
10
66.013500
20
0.132295
11
66.013500
21
5.093230
0
LINE
8
Layer 1
10
80.896300
20
10.054200
11
85.857300
21
10.054200
0
LINE
8
Layer 1
10
85.857300
20
10.054200
11
85.857300
21
5.093230
0
LINE
8
Layer 1
10
85.857300
20
5.093230
11
80.896300
21
5.093230
0
LINE
8
Layer 1
10
80.896300
20
5.093230
11
80.896300
21
10.054200
0
LINE
8
Layer 1
10
80.896300
20
15.015100
11
85.857300
21
15.015100
0
LINE
8
Layer 1
10
85.857300
20
15.015100
11
85.857300
21
10.054200
0
LINE
8
Layer 1
10
85.857300
20
10.054200
11
80.896300
21
10.054200
0
LINE
8
Layer 1
10
80.896300
20
10.054200
11
80.896300
21
15.015100
0
LINE
8
Layer 1
10
80.896300
20
19.976000
11
85.857300
21
19.976000
0
LINE
8
Layer 1
10
85.857300
20
19.976000
11
85.857300
21
15.015100
0
LINE
8
Layer 1
10
85.857300
20
15.015100
11
80.896300
21
15.015100
0
LINE
8
Layer 1
10
80.896300
20
15.015100
11
80.896300
21
19.976000
0
LINE
8
Layer 1
10
75.935400
20
24.937000
11
80.896300
21
24.937000
0
LINE
8
Layer 1
10
80.896300
20
24.937000
11
80.896300
21
19.976000
0
LINE
8
Layer 1
10
80.896300
20
19.976000
11
75.935400
21
19.976000
0
LINE
8
Layer 1
10
75.935400
20
19.976000
11
75.935400
21
24.937000
0
LINE
8
Layer 1
10
70.974400
20
24.937000
11
75.935400
21
24.937000
0
LINE
8
Layer 1
10
75.935400
20
24.937000
11
75.935400
21
19.976000
0
LINE
8
Layer 1
10
75.935400
20
19.976000
11
70.974400
21
19.976000
0
LINE
8
Layer 1
10
70.974400
20
19.976000
11
70.974400
21
24.937000
0
LINE
8
Layer 1
10
66.013500
20
24.937000
11
70.974400
21
24.937000
0
LINE
8
Layer 1
10
70.974400
20
24.937000
11
70.974400
21
19.976000
0
LINE
8
Layer 1
10
70.974400
20
19.976000
11
66.013500
21
19.976000
0
LINE
8
Layer 1
10
66.013500
20
19.976000
11
66.013500
21
24.937000
0
LINE
8
Layer 1
10
61.052600
20
29.897900
11
66.013500
21
29.897900
0
LINE
8
Layer 1
10
66.013500
20
29.897900
11
66.013500
21
24.937000
0
LINE
8
Layer 1
10
66.013500
20
24.937000
11
61.052600
21
24.937000
0
LINE
8
Layer 1
10
61.052600
20
24.937000
11
61.052600
21
29.897900
0
LINE
8
Layer 1
10
61.052600
20
34.858900
11
66.013500
21
34.858900
0
LINE
8
Layer 1
10
66.013500
20
34.858900
11
66.013500
21
29.897900
0
LINE
8
Layer 1
10
66.013500
20
29.897900
11
61.052600
21
29.897900
0
LINE
8
Layer 1
10
61.052600
20
29.897900
11
61.052600
21
34.858900
0
LINE
8
Layer 1
10
61.052600
20
39.819800
11
66.013500
21
39.819800
0
LINE
8
Layer 1
10
66.013500
20
39.819800
11
66.013500
21
34.858900
0
LINE
8
Layer 1
10
66.013500
20
34.858900
11
61.052600
21
34.858900
0
LINE
8
Layer 1
10
61.052600
20
34.858900
11
61.052600
21
39.819800
0
LINE
8
Layer 1
10
75.935400
20
44.780700
11
80.896300
21
44.780700
0
LINE
8
Layer 1
10
80.896300
20
44.780700
11
80.896300
21
39.819800
0
LINE
8
Layer 1
10
80.896300
20
39.819800
11
75.935400
21
39.819800
0
LINE
8
Layer 1
10
75.935400
20
39.819800
11
75.935400
21
44.780700
0
LINE
8
Layer 1
10
70.974400
20
44.780700
11
75.935400
21
44.780700
0
LINE
8
Layer 1
10
75.935400
20
44.780700
11
75.935400
21
39.819800
0
LINE
8
Layer 1
10
75.935400
20
39.819800
11
70.974400
21
39.819800
0
LINE
8
Layer 1
10
70.974400
20
39.819800
11
70.974400
21
44.780700
0
LINE
8
Layer 1
10
66.013500
20
44.780700
11
70.974400
21
44.780700
0
LINE
8
Layer 1
10
70.974400
20
44.780700
11
70.974400
21
39.819800
0
LINE
8
Layer 1
10
70.974400
20
39.819800
11
66.013500
21
39.819800
0
LINE
8
Layer 1
10
66.013500
20
39.819800
11
66.013500
21
44.780700
 0 
ENDSEC
 0 
EOF