999
"DXF R12 Output" (www.mydxf.blogspot.com)
 0 
SECTION
 2 
HEADER
 9 
$ACADVER
 1 
AC1009
 9 
$EXTMIN
 10 
 0 
 20 
 0 
 9 
$EXTMAX
 10 
 8.5 
 20 
 11 
 0 
ENDSEC
 0 
SECTION
 2 
ENTITIES
0
LINE
8
Layer 1
10
0.793749
20
284.523000
11
-0.793749
21
282.935000
0
LINE
8
Layer 1
10
0.000000
20
285.052000
11
0.000000
21
282.406000
0
LINE
8
Layer 1
10
2.116660
20
282.671000
11
1.058330
21
281.612670
0
LINE
8
Layer 1
10
1.587500
20
283.200000
11
0.529170
21
282.141670
0
LINE
8
Layer 1
10
1.058330
20
283.729000
11
0.000000
21
282.670670
0
LINE
8
Layer 1
10
3.714350
20
282.560000
11
0.206707
21
279.052000
0
LINE
8
Layer 1
10
1.960530
20
283.729000
11
1.960530
21
277.883000
0
LINE
8
Layer 1
10
6.637380
20
278.468000
11
4.298960
21
276.129570
0
LINE
8
Layer 1
10
5.468170
20
279.637000
11
3.129750
21
277.298570
0
LINE
8
Layer 1
10
4.298950
20
280.806000
11
1.960530
21
278.467570
0
LINE
8
Layer_1
10
2.252830
20
280.515000
11
33.324500
21
280.515000
0
LINE
8
Layer_1
10
33.324500
20
280.515000
11
33.324500
21
249.441000
0
LINE
8
Layer_1
10
33.324500
20
249.441000
11
2.252830
21
249.441000
0
LINE
8
Layer_1
10
2.252830
20
249.441000
11
2.252830
21
280.515000
0
LINE
8
Layer_1
10
33.324500
20
280.515000
11
64.396000
21
280.515000
0
LINE
8
Layer_1
10
64.396000
20
280.515000
11
64.396000
21
249.441000
0
LINE
8
Layer_1
10
64.396000
20
249.441000
11
33.324500
21
249.441000
0
LINE
8
Layer_1
10
33.324500
20
249.441000
11
33.324500
21
280.515000
0
LINE
8
Layer_1
10
64.396000
20
280.515000
11
95.467300
21
280.515000
0
LINE
8
Layer_1
10
95.467300
20
280.515000
11
95.467300
21
249.441000
0
LINE
8
Layer_1
10
95.467300
20
249.441000
11
64.396000
21
249.441000
0
LINE
8
Layer_1
10
64.396000
20
249.441000
11
64.396000
21
280.515000
0
LINE
8
Layer_1
10
95.467300
20
249.441000
11
126.539000
21
249.441000
0
LINE
8
Layer_1
10
126.539000
20
249.441000
11
126.539000
21
218.370000
0
LINE
8
Layer_1
10
126.539000
20
218.370000
11
95.467300
21
218.370000
0
LINE
8
Layer_1
10
95.467300
20
218.370000
11
95.467300
21
249.441000
0
LINE
8
Layer_1
10
95.467300
20
218.370000
11
126.539000
21
218.370000
0
LINE
8
Layer_1
10
126.539000
20
218.370000
11
126.539000
21
187.299000
0
LINE
8
Layer_1
10
126.539000
20
187.299000
11
95.467300
21
187.299000
0
LINE
8
Layer_1
10
95.467300
20
187.299000
11
95.467300
21
218.370000
0
LINE
8
Layer_1
10
95.467300
20
187.299000
11
126.539000
21
187.299000
0
LINE
8
Layer_1
10
126.539000
20
187.299000
11
126.539000
21
156.227000
0
LINE
8
Layer_1
10
126.539000
20
156.227000
11
95.467300
21
156.227000
0
LINE
8
Layer_1
10
95.467300
20
156.227000
11
95.467300
21
187.299000
0
LINE
8
Layer_1
10
2.252830
20
156.227000
11
33.324500
21
156.227000
0
LINE
8
Layer_1
10
33.324500
20
156.227000
11
33.324500
21
125.156000
0
LINE
8
Layer_1
10
33.324500
20
125.156000
11
2.252830
21
125.156000
0
LINE
8
Layer_1
10
2.252830
20
125.156000
11
2.252830
21
156.227000
0
LINE
8
Layer_1
10
33.324500
20
156.227000
11
64.396000
21
156.227000
0
LINE
8
Layer_1
10
64.396000
20
156.227000
11
64.396000
21
125.156000
0
LINE
8
Layer_1
10
64.396000
20
125.156000
11
33.324500
21
125.156000
0
LINE
8
Layer_1
10
33.324500
20
125.156000
11
33.324500
21
156.227000
0
LINE
8
Layer_1
10
64.396000
20
156.227000
11
95.467300
21
156.227000
0
LINE
8
Layer_1
10
95.467300
20
156.227000
11
95.467300
21
125.156000
0
LINE
8
Layer_1
10
95.467300
20
125.156000
11
64.396000
21
125.156000
0
LINE
8
Layer_1
10
64.396000
20
125.156000
11
64.396000
21
156.227000
0
LINE
8
Layer_1
10
95.467300
20
125.156000
11
126.539000
21
125.156000
0
LINE
8
Layer_1
10
126.539000
20
125.156000
11
126.539000
21
94.083800
0
LINE
8
Layer_1
10
126.539000
20
94.083800
11
95.467300
21
94.083800
0
LINE
8
Layer_1
10
95.467300
20
94.083800
11
95.467300
21
125.156000
0
LINE
8
Layer_1
10
95.467300
20
94.083800
11
126.539000
21
94.083800
0
LINE
8
Layer_1
10
126.539000
20
94.083800
11
126.539000
21
63.012500
0
LINE
8
Layer_1
10
126.539000
20
63.012500
11
95.467300
21
63.012500
0
LINE
8
Layer_1
10
95.467300
20
63.012500
11
95.467300
21
94.083800
0
LINE
8
Layer_1
10
95.467300
20
63.012500
11
126.539000
21
63.012500
0
LINE
8
Layer_1
10
126.539000
20
63.012500
11
126.539000
21
31.940600
0
LINE
8
Layer_1
10
126.539000
20
31.940600
11
95.467300
21
31.940600
0
LINE
8
Layer_1
10
95.467300
20
31.940600
11
95.467300
21
63.012500
0
LINE
8
Layer_1
10
2.252830
20
31.940600
11
33.324500
21
31.940600
0
LINE
8
Layer_1
10
33.324500
20
31.940600
11
33.324500
21
0.868747
0
LINE
8
Layer_1
10
33.324500
20
0.868747
11
2.252830
21
0.868747
0
LINE
8
Layer_1
10
2.252830
20
0.868747
11
2.252830
21
31.940600
0
LINE
8
Layer_1
10
33.324500
20
31.940600
11
64.396000
21
31.940600
0
LINE
8
Layer_1
10
64.396000
20
31.940600
11
64.396000
21
0.868747
0
LINE
8
Layer_1
10
64.396000
20
0.868747
11
33.324500
21
0.868747
0
LINE
8
Layer_1
10
33.324500
20
0.868747
11
33.324500
21
31.940600
0
LINE
8
Layer_1
10
64.396000
20
31.940600
11
95.467300
21
31.940600
0
LINE
8
Layer_1
10
95.467300
20
31.940600
11
95.467300
21
0.868747
0
LINE
8
Layer_1
10
95.467300
20
0.868747
11
64.396000
21
0.868747
0
LINE
8
Layer_1
10
64.396000
20
0.868747
11
64.396000
21
31.940600
0
LINE
8
Layer_1
10
193.032000
20
249.441000
11
224.103000
21
249.441000
0
LINE
8
Layer_1
10
224.103000
20
249.441000
11
224.103000
21
218.370000
0
LINE
8
Layer_1
10
224.103000
20
218.370000
11
193.032000
21
218.370000
0
LINE
8
Layer_1
10
193.032000
20
218.370000
11
193.032000
21
249.441000
0
LINE
8
Layer_1
10
193.032000
20
218.370000
11
224.103000
21
218.370000
0
LINE
8
Layer_1
10
224.103000
20
218.370000
11
224.103000
21
187.299000
0
LINE
8
Layer_1
10
224.103000
20
187.299000
11
193.032000
21
187.299000
0
LINE
8
Layer_1
10
193.032000
20
187.299000
11
193.032000
21
218.370000
0
LINE
8
Layer_1
10
193.032000
20
187.299000
11
224.103000
21
187.299000
0
LINE
8
Layer_1
10
224.103000
20
187.299000
11
224.103000
21
156.227000
0
LINE
8
Layer_1
10
224.103000
20
156.227000
11
193.032000
21
156.227000
0
LINE
8
Layer_1
10
193.032000
20
156.227000
11
193.032000
21
187.299000
0
LINE
8
Layer_1
10
193.032000
20
125.156000
11
224.103000
21
125.156000
0
LINE
8
Layer_1
10
224.103000
20
125.156000
11
224.103000
21
94.083800
0
LINE
8
Layer_1
10
224.103000
20
94.083800
11
193.032000
21
94.083800
0
LINE
8
Layer_1
10
193.032000
20
94.083800
11
193.032000
21
125.156000
0
LINE
8
Layer_1
10
193.032000
20
94.083800
11
224.103000
21
94.083800
0
LINE
8
Layer_1
10
224.103000
20
94.083800
11
224.103000
21
63.012500
0
LINE
8
Layer_1
10
224.103000
20
63.012500
11
193.032000
21
63.012500
0
LINE
8
Layer_1
10
193.032000
20
63.012500
11
193.032000
21
94.083800
0
LINE
8
Layer_1
10
193.032000
20
63.012500
11
224.103000
21
63.012500
0
LINE
8
Layer_1
10
224.103000
20
63.012500
11
224.103000
21
31.940600
0
LINE
8
Layer_1
10
224.103000
20
31.940600
11
193.032000
21
31.940600
0
LINE
8
Layer_1
10
193.032000
20
31.940600
11
193.032000
21
63.012500
0
LINE
8
Layer_1
10
289.870000
20
249.294000
11
320.943000
21
249.294000
0
LINE
8
Layer_1
10
320.943000
20
249.294000
11
320.943000
21
218.223000
0
LINE
8
Layer_1
10
320.943000
20
218.223000
11
289.870000
21
218.223000
0
LINE
8
Layer_1
10
289.870000
20
218.223000
11
289.870000
21
249.294000
0
LINE
8
Layer_1
10
289.870000
20
218.223000
11
320.943000
21
218.223000
0
LINE
8
Layer_1
10
320.943000
20
218.223000
11
320.943000
21
187.151000
0
LINE
8
Layer_1
10
320.943000
20
187.151000
11
289.870000
21
187.151000
0
LINE
8
Layer_1
10
289.870000
20
187.151000
11
289.870000
21
218.223000
0
LINE
8
Layer_1
10
289.870000
20
187.151000
11
320.943000
21
187.151000
0
LINE
8
Layer_1
10
320.943000
20
187.151000
11
320.943000
21
156.080000
0
LINE
8
Layer_1
10
320.943000
20
156.080000
11
289.870000
21
156.080000
0
LINE
8
Layer_1
10
289.870000
20
156.080000
11
289.870000
21
187.151000
0
LINE
8
Layer_1
10
289.870000
20
125.008000
11
320.943000
21
125.008000
0
LINE
8
Layer_1
10
320.943000
20
125.008000
11
320.943000
21
93.935900
0
LINE
8
Layer_1
10
320.943000
20
93.935900
11
289.870000
21
93.935900
0
LINE
8
Layer_1
10
289.870000
20
93.935900
11
289.870000
21
125.008000
0
LINE
8
Layer_1
10
289.870000
20
93.935900
11
320.943000
21
93.935900
0
LINE
8
Layer_1
10
320.943000
20
93.935900
11
320.943000
21
62.866400
0
LINE
8
Layer_1
10
320.943000
20
62.866400
11
289.870000
21
62.866400
0
LINE
8
Layer_1
10
289.870000
20
62.866400
11
289.870000
21
93.935900
0
LINE
8
Layer_1
10
289.870000
20
62.866400
11
320.943000
21
62.866400
0
LINE
8
Layer_1
10
320.943000
20
62.866400
11
320.943000
21
31.794500
0
LINE
8
Layer_1
10
320.943000
20
31.794500
11
289.870000
21
31.794500
0
LINE
8
Layer_1
10
289.870000
20
31.794500
11
289.870000
21
62.866400
 0 
ENDSEC
 0 
EOF