999
"DXF R12 Output" (www.mydxf.blogspot.com)
 0 
SECTION
 2 
HEADER
 9 
$ACADVER
 1 
AC1009
 9 
$EXTMIN
 10 
 0 
 20 
 0 
 9 
$EXTMAX
 10 
 8.5 
 20 
 11 
 0 
ENDSEC
 0 
SECTION
 2 
ENTITIES
0
LINE
8
Layer 1
10
0.793749
20
284.523000
11
-0.793749
21
282.935000
0
LINE
8
Layer 1
10
0.000000
20
285.052000
11
0.000000
21
282.406000
0
LINE
8
Layer 1
10
2.116660
20
282.671000
11
1.058330
21
281.612670
0
LINE
8
Layer 1
10
1.587500
20
283.200000
11
0.529170
21
282.141670
0
LINE
8
Layer 1
10
1.058330
20
283.729000
11
0.000000
21
282.670670
0
LINE
8
Layer 1
10
3.720390
20
282.558000
11
0.207043
21
279.044000
0
LINE
8
Layer 1
10
1.963720
20
283.729000
11
1.963720
21
277.873000
0
LINE
8
Layer 1
10
6.648160
20
278.460000
11
4.305940
21
276.117770
0
LINE
8
Layer 1
10
5.477060
20
279.630000
11
3.134840
21
277.287770
0
LINE
8
Layer 1
10
4.305940
20
280.801000
11
1.963720
21
278.458770
0
LINE
8
Layer_1
10
2.256490
20
280.286000
11
33.378600
21
280.286000
0
LINE
8
Layer_1
10
33.378600
20
280.286000
11
33.378600
21
249.162000
0
LINE
8
Layer_1
10
33.378600
20
249.162000
11
2.256490
21
249.162000
0
LINE
8
Layer_1
10
2.256490
20
249.162000
11
2.256490
21
280.286000
0
LINE
8
Layer_1
10
33.378600
20
280.286000
11
64.500700
21
280.286000
0
LINE
8
Layer_1
10
64.500700
20
280.286000
11
64.500700
21
249.162000
0
LINE
8
Layer_1
10
64.500700
20
249.162000
11
33.378600
21
249.162000
0
LINE
8
Layer_1
10
33.378600
20
249.162000
11
33.378600
21
280.286000
0
LINE
8
Layer_1
10
64.500700
20
280.286000
11
95.622500
21
280.286000
0
LINE
8
Layer_1
10
95.622500
20
280.286000
11
95.622500
21
249.162000
0
LINE
8
Layer_1
10
95.622500
20
249.162000
11
64.500700
21
249.162000
0
LINE
8
Layer_1
10
64.500700
20
249.162000
11
64.500700
21
280.286000
0
LINE
8
Layer_1
10
95.622500
20
249.162000
11
126.745000
21
249.162000
0
LINE
8
Layer_1
10
126.745000
20
249.162000
11
126.745000
21
218.040000
0
LINE
8
Layer_1
10
126.745000
20
218.040000
11
95.622500
21
218.040000
0
LINE
8
Layer_1
10
95.622500
20
218.040000
11
95.622500
21
249.162000
0
LINE
8
Layer_1
10
95.622500
20
218.040000
11
126.745000
21
218.040000
0
LINE
8
Layer_1
10
126.745000
20
218.040000
11
126.745000
21
186.918000
0
LINE
8
Layer_1
10
126.745000
20
186.918000
11
95.622500
21
186.918000
0
LINE
8
Layer_1
10
95.622500
20
186.918000
11
95.622500
21
218.040000
0
LINE
8
Layer_1
10
95.622500
20
186.918000
11
126.745000
21
186.918000
0
LINE
8
Layer_1
10
126.745000
20
186.918000
11
126.745000
21
155.797000
0
LINE
8
Layer_1
10
126.745000
20
155.797000
11
95.622500
21
155.797000
0
LINE
8
Layer_1
10
95.622500
20
155.797000
11
95.622500
21
186.918000
0
LINE
8
Layer_1
10
2.256490
20
155.797000
11
33.378600
21
155.797000
0
LINE
8
Layer_1
10
33.378600
20
155.797000
11
33.378600
21
124.674000
0
LINE
8
Layer_1
10
33.378600
20
124.674000
11
2.256490
21
124.674000
0
LINE
8
Layer_1
10
2.256490
20
124.674000
11
2.256490
21
155.797000
0
LINE
8
Layer_1
10
33.378600
20
155.797000
11
64.500700
21
155.797000
0
LINE
8
Layer_1
10
64.500700
20
155.797000
11
64.500700
21
124.674000
0
LINE
8
Layer_1
10
64.500700
20
124.674000
11
33.378600
21
124.674000
0
LINE
8
Layer_1
10
33.378600
20
124.674000
11
33.378600
21
155.797000
0
LINE
8
Layer_1
10
64.500700
20
155.797000
11
95.622500
21
155.797000
0
LINE
8
Layer_1
10
95.622500
20
155.797000
11
95.622500
21
124.674000
0
LINE
8
Layer_1
10
95.622500
20
124.674000
11
64.500700
21
124.674000
0
LINE
8
Layer_1
10
64.500700
20
124.674000
11
64.500700
21
155.797000
0
LINE
8
Layer_1
10
95.622500
20
124.674000
11
126.745000
21
124.674000
0
LINE
8
Layer_1
10
126.745000
20
124.674000
11
126.745000
21
93.551900
0
LINE
8
Layer_1
10
126.745000
20
93.551900
11
95.622500
21
93.551900
0
LINE
8
Layer_1
10
95.622500
20
93.551900
11
95.622500
21
124.674000
0
LINE
8
Layer_1
10
95.622500
20
93.551900
11
126.745000
21
93.551900
0
LINE
8
Layer_1
10
126.745000
20
93.551900
11
126.745000
21
62.431300
0
LINE
8
Layer_1
10
126.745000
20
62.431300
11
95.622500
21
62.431300
0
LINE
8
Layer_1
10
95.622500
20
62.431300
11
95.622500
21
93.551900
0
LINE
8
Layer_1
10
95.622500
20
62.431300
11
126.745000
21
62.431300
0
LINE
8
Layer_1
10
126.745000
20
62.431300
11
126.745000
21
31.308900
0
LINE
8
Layer_1
10
126.745000
20
31.308900
11
95.622500
21
31.308900
0
LINE
8
Layer_1
10
95.622500
20
31.308900
11
95.622500
21
62.431300
0
LINE
8
Layer_1
10
2.256490
20
31.308900
11
33.378600
21
31.308900
0
LINE
8
Layer_1
10
33.378600
20
31.308900
11
33.378600
21
0.186520
0
LINE
8
Layer_1
10
33.378600
20
0.186520
11
2.256490
21
0.186520
0
LINE
8
Layer_1
10
2.256490
20
0.186520
11
2.256490
21
31.308900
0
LINE
8
Layer_1
10
33.378600
20
31.308900
11
64.500700
21
31.308900
0
LINE
8
Layer_1
10
64.500700
20
31.308900
11
64.500700
21
0.186520
0
LINE
8
Layer_1
10
64.500700
20
0.186520
11
33.378600
21
0.186520
0
LINE
8
Layer_1
10
33.378600
20
0.186520
11
33.378600
21
31.308900
0
LINE
8
Layer_1
10
64.500700
20
31.308900
11
95.622500
21
31.308900
0
LINE
8
Layer_1
10
95.622500
20
31.308900
11
95.622500
21
0.186520
0
LINE
8
Layer_1
10
95.622500
20
0.186520
11
64.500700
21
0.186520
0
LINE
8
Layer_1
10
64.500700
20
0.186520
11
64.500700
21
31.308900
0
LINE
8
Layer_1
10
193.346000
20
249.162000
11
224.467000
21
249.162000
0
LINE
8
Layer_1
10
224.467000
20
249.162000
11
224.467000
21
218.040000
0
LINE
8
Layer_1
10
224.467000
20
218.040000
11
193.346000
21
218.040000
0
LINE
8
Layer_1
10
193.346000
20
218.040000
11
193.346000
21
249.162000
0
LINE
8
Layer_1
10
193.346000
20
218.040000
11
224.467000
21
218.040000
0
LINE
8
Layer_1
10
224.467000
20
218.040000
11
224.467000
21
186.918000
0
LINE
8
Layer_1
10
224.467000
20
186.918000
11
193.346000
21
186.918000
0
LINE
8
Layer_1
10
193.346000
20
186.918000
11
193.346000
21
218.040000
0
LINE
8
Layer_1
10
193.346000
20
186.918000
11
224.467000
21
186.918000
0
LINE
8
Layer_1
10
224.467000
20
186.918000
11
224.467000
21
155.797000
0
LINE
8
Layer_1
10
224.467000
20
155.797000
11
193.346000
21
155.797000
0
LINE
8
Layer_1
10
193.346000
20
155.797000
11
193.346000
21
186.918000
0
LINE
8
Layer_1
10
193.346000
20
124.674000
11
224.467000
21
124.674000
0
LINE
8
Layer_1
10
224.467000
20
124.674000
11
224.467000
21
93.551900
0
LINE
8
Layer_1
10
224.467000
20
93.551900
11
193.346000
21
93.551900
0
LINE
8
Layer_1
10
193.346000
20
93.551900
11
193.346000
21
124.674000
0
LINE
8
Layer_1
10
193.346000
20
93.551900
11
224.467000
21
93.551900
0
LINE
8
Layer_1
10
224.467000
20
93.551900
11
224.467000
21
62.431300
0
LINE
8
Layer_1
10
224.467000
20
62.431300
11
193.346000
21
62.431300
0
LINE
8
Layer_1
10
193.346000
20
62.431300
11
193.346000
21
93.551900
0
LINE
8
Layer_1
10
193.346000
20
62.431300
11
224.467000
21
62.431300
0
LINE
8
Layer_1
10
224.467000
20
62.431300
11
224.467000
21
31.308900
0
LINE
8
Layer_1
10
224.467000
20
31.308900
11
193.346000
21
31.308900
0
LINE
8
Layer_1
10
193.346000
20
31.308900
11
193.346000
21
62.431300
0
LINE
8
Layer_1
10
320.770000
20
280.509000
11
351.891000
21
280.509000
0
LINE
8
Layer_1
10
351.891000
20
280.509000
11
351.891000
21
249.386000
0
LINE
8
Layer_1
10
351.891000
20
249.386000
11
320.770000
21
249.386000
0
LINE
8
Layer_1
10
320.770000
20
249.386000
11
320.770000
21
280.509000
0
LINE
8
Layer_1
10
351.891000
20
280.509000
11
383.014000
21
280.509000
0
LINE
8
Layer_1
10
383.014000
20
280.509000
11
383.014000
21
249.386000
0
LINE
8
Layer_1
10
383.014000
20
249.386000
11
351.891000
21
249.386000
0
LINE
8
Layer_1
10
351.891000
20
249.386000
11
351.891000
21
280.509000
0
LINE
8
Layer_1
10
383.014000
20
280.509000
11
414.135000
21
280.509000
0
LINE
8
Layer_1
10
414.135000
20
280.509000
11
414.135000
21
249.386000
0
LINE
8
Layer_1
10
414.135000
20
249.386000
11
383.014000
21
249.386000
0
LINE
8
Layer_1
10
383.014000
20
249.386000
11
383.014000
21
280.509000
0
LINE
8
Layer_1
10
414.135000
20
249.386000
11
445.258000
21
249.386000
0
LINE
8
Layer_1
10
445.258000
20
249.386000
11
445.258000
21
218.264000
0
LINE
8
Layer_1
10
445.258000
20
218.264000
11
414.135000
21
218.264000
0
LINE
8
Layer_1
10
414.135000
20
218.264000
11
414.135000
21
249.386000
0
LINE
8
Layer_1
10
414.135000
20
218.264000
11
445.258000
21
218.264000
0
LINE
8
Layer_1
10
445.258000
20
218.264000
11
445.258000
21
187.142000
0
LINE
8
Layer_1
10
445.258000
20
187.142000
11
414.135000
21
187.142000
0
LINE
8
Layer_1
10
414.135000
20
187.142000
11
414.135000
21
218.264000
0
LINE
8
Layer_1
10
414.135000
20
187.142000
11
445.258000
21
187.142000
0
LINE
8
Layer_1
10
445.258000
20
187.142000
11
445.258000
21
156.020000
0
LINE
8
Layer_1
10
445.258000
20
156.020000
11
414.135000
21
156.020000
0
LINE
8
Layer_1
10
414.135000
20
156.020000
11
414.135000
21
187.142000
0
LINE
8
Layer_1
10
320.770000
20
156.020000
11
351.891000
21
156.020000
0
LINE
8
Layer_1
10
351.891000
20
156.020000
11
351.891000
21
124.897000
0
LINE
8
Layer_1
10
351.891000
20
124.897000
11
320.770000
21
124.897000
0
LINE
8
Layer_1
10
320.770000
20
124.897000
11
320.770000
21
156.020000
0
LINE
8
Layer_1
10
351.891000
20
156.020000
11
383.014000
21
156.020000
0
LINE
8
Layer_1
10
383.014000
20
156.020000
11
383.014000
21
124.897000
0
LINE
8
Layer_1
10
383.014000
20
124.897000
11
351.891000
21
124.897000
0
LINE
8
Layer_1
10
351.891000
20
124.897000
11
351.891000
21
156.020000
0
LINE
8
Layer_1
10
383.014000
20
156.020000
11
414.135000
21
156.020000
0
LINE
8
Layer_1
10
414.135000
20
156.020000
11
414.135000
21
124.897000
0
LINE
8
Layer_1
10
414.135000
20
124.897000
11
383.014000
21
124.897000
0
LINE
8
Layer_1
10
383.014000
20
124.897000
11
383.014000
21
156.020000
0
LINE
8
Layer_1
10
289.646000
20
124.897000
11
320.770000
21
124.897000
0
LINE
8
Layer_1
10
320.770000
20
124.897000
11
320.770000
21
93.775600
0
LINE
8
Layer_1
10
320.770000
20
93.775600
11
289.646000
21
93.775600
0
LINE
8
Layer_1
10
289.646000
20
93.775600
11
289.646000
21
124.897000
0
LINE
8
Layer_1
10
289.646000
20
93.775600
11
320.770000
21
93.775600
0
LINE
8
Layer_1
10
320.770000
20
93.775600
11
320.770000
21
62.653800
0
LINE
8
Layer_1
10
320.770000
20
62.653800
11
289.646000
21
62.653800
0
LINE
8
Layer_1
10
289.646000
20
62.653800
11
289.646000
21
93.775600
0
LINE
8
Layer_1
10
289.646000
20
62.653800
11
320.770000
21
62.653800
0
LINE
8
Layer_1
10
320.770000
20
62.653800
11
320.770000
21
31.531400
0
LINE
8
Layer_1
10
320.770000
20
31.531400
11
289.646000
21
31.531400
0
LINE
8
Layer_1
10
289.646000
20
31.531400
11
289.646000
21
62.653800
0
LINE
8
Layer_1
10
320.770000
20
31.531400
11
351.891000
21
31.531400
0
LINE
8
Layer_1
10
351.891000
20
31.531400
11
351.891000
21
0.409034
0
LINE
8
Layer_1
10
351.891000
20
0.409034
11
320.770000
21
0.409034
0
LINE
8
Layer_1
10
320.770000
20
0.409034
11
320.770000
21
31.531400
0
LINE
8
Layer_1
10
351.891000
20
31.531400
11
383.014000
21
31.531400
0
LINE
8
Layer_1
10
383.014000
20
31.531400
11
383.014000
21
0.409034
0
LINE
8
Layer_1
10
383.014000
20
0.409034
11
351.891000
21
0.409034
0
LINE
8
Layer_1
10
351.891000
20
0.409034
11
351.891000
21
31.531400
0
LINE
8
Layer_1
10
383.014000
20
31.531400
11
414.135000
21
31.531400
0
LINE
8
Layer_1
10
414.135000
20
31.531400
11
414.135000
21
0.409034
0
LINE
8
Layer_1
10
414.135000
20
0.409034
11
383.014000
21
0.409034
0
LINE
8
Layer_1
10
383.014000
20
0.409034
11
383.014000
21
31.531400
 0 
ENDSEC
 0 
EOF