999
"DXF R12 Output" (www.mydxf.blogspot.com)
 0 
SECTION
 2 
HEADER
 9 
$ACADVER
 1 
AC1009
 9 
$EXTMIN
 10 
 0 
 20 
 0 
 9 
$EXTMAX
 10 
 8.5 
 20 
 11 
 0 
ENDSEC
 0 
SECTION
 2 
ENTITIES
0
LINE
8
Layer 1
10
0.793749
20
127.621000
11
-0.793749
21
126.033000
0
LINE
8
Layer 1
10
0.000000
20
128.150000
11
0.000000
21
125.504000
0
LINE
8
Layer 1
10
2.116660
20
125.769000
11
1.058330
21
124.710670
0
LINE
8
Layer 1
10
1.587500
20
126.298000
11
0.529170
21
125.239670
0
LINE
8
Layer 1
10
1.058330
20
126.827000
11
0.000000
21
125.768670
0
LINE
8
Layer 1
10
42.426900
20
14.001900
11
56.506400
21
14.001900
0
LINE
8
Layer 1
10
56.506400
20
14.001900
11
56.506400
21
-0.077768
0
LINE
8
Layer 1
10
56.506400
20
-0.077768
11
42.426900
21
-0.077768
0
LINE
8
Layer 1
10
28.347200
20
14.001900
11
42.426900
21
14.001900
0
LINE
8
Layer 1
10
42.426900
20
-0.077768
11
28.347200
21
-0.077768
0
LINE
8
Layer 1
10
14.267500
20
14.001900
11
28.347200
21
14.001900
0
LINE
8
Layer 1
10
28.347200
20
-0.077768
11
14.267500
21
-0.077768
0
LINE
8
Layer 1
10
14.267500
20
-0.077768
11
14.267500
21
14.001900
0
LINE
8
Layer 1
10
70.586300
20
28.081500
11
70.586300
21
14.001900
0
LINE
8
Layer 1
10
70.586300
20
14.001900
11
56.506400
21
14.001900
0
LINE
8
Layer 1
10
56.506400
20
14.001900
11
56.506400
21
28.081500
0
LINE
8
Layer 1
10
70.586300
20
42.161200
11
70.586300
21
28.081500
0
LINE
8
Layer 1
10
56.506400
20
28.081500
11
56.506400
21
42.161200
0
LINE
8
Layer 1
10
56.506400
20
56.240700
11
70.586300
21
56.240700
0
LINE
8
Layer 1
10
70.586300
20
56.240700
11
70.586300
21
42.161200
0
LINE
8
Layer 1
10
56.506400
20
42.161200
11
56.506400
21
56.240700
0
LINE
8
Layer 1
10
42.426900
20
70.320600
11
56.506400
21
70.320600
0
LINE
8
Layer 1
10
56.506400
20
70.320600
11
56.506400
21
56.240700
0
LINE
8
Layer 1
10
56.506400
20
56.240700
11
42.426900
21
56.240700
0
LINE
8
Layer 1
10
28.347200
20
70.320600
11
42.426900
21
70.320600
0
LINE
8
Layer 1
10
42.426900
20
56.240700
11
28.347200
21
56.240700
0
LINE
8
Layer 1
10
14.267500
20
70.320600
11
28.347200
21
70.320600
0
LINE
8
Layer 1
10
28.347200
20
56.240700
11
14.267500
21
56.240700
0
LINE
8
Layer 1
10
14.267500
20
56.240700
11
14.267500
21
70.320600
0
LINE
8
Layer 1
10
14.267500
20
84.400100
11
14.267500
21
70.320600
0
LINE
8
Layer 1
10
14.267500
20
70.320600
11
0.187806
21
70.320600
0
LINE
8
Layer 1
10
0.187806
20
70.320600
11
0.187806
21
84.400100
0
LINE
8
Layer 1
10
14.267500
20
98.480000
11
14.267500
21
84.400100
0
LINE
8
Layer 1
10
0.187806
20
84.400100
11
0.187806
21
98.480000
0
LINE
8
Layer 1
10
0.187806
20
112.560000
11
14.267500
21
112.560000
0
LINE
8
Layer 1
10
14.267500
20
112.560000
11
14.267500
21
98.480000
0
LINE
8
Layer 1
10
0.187806
20
98.480000
11
0.187806
21
112.560000
0
LINE
8
Layer 1
10
42.426900
20
126.639000
11
56.506400
21
126.639000
0
LINE
8
Layer 1
10
56.506400
20
126.639000
11
56.506400
21
112.560000
0
LINE
8
Layer 1
10
56.506400
20
112.560000
11
42.426900
21
112.560000
0
LINE
8
Layer 1
10
28.347200
20
126.639000
11
42.426900
21
126.639000
0
LINE
8
Layer 1
10
42.426900
20
112.560000
11
28.347200
21
112.560000
0
LINE
8
Layer 1
10
14.267500
20
126.639000
11
28.347200
21
126.639000
0
LINE
8
Layer 1
10
28.347200
20
112.560000
11
14.267500
21
112.560000
0
LINE
8
Layer 1
10
14.267500
20
112.560000
11
14.267500
21
126.639000
0
LINE
8
Layer 1
10
157.035000
20
28.081500
11
157.035000
21
14.001900
0
LINE
8
Layer 1
10
157.035000
20
14.001900
11
142.955000
21
14.001900
0
LINE
8
Layer 1
10
142.955000
20
14.001900
11
142.955000
21
28.081500
0
LINE
8
Layer 1
10
157.035000
20
42.161200
11
157.035000
21
28.081500
0
LINE
8
Layer 1
10
142.955000
20
28.081500
11
142.955000
21
42.161200
0
LINE
8
Layer 1
10
142.955000
20
56.240700
11
157.035000
21
56.240700
0
LINE
8
Layer 1
10
157.035000
20
56.240700
11
157.035000
21
42.161200
0
LINE
8
Layer 1
10
142.955000
20
42.161200
11
142.955000
21
56.240700
0
LINE
8
Layer 1
10
128.876000
20
70.320600
11
142.955000
21
70.320600
0
LINE
8
Layer 1
10
142.955000
20
70.320600
11
142.955000
21
56.240700
0
LINE
8
Layer 1
10
142.955000
20
56.240700
11
128.876000
21
56.240700
0
LINE
8
Layer 1
10
114.797000
20
70.320600
11
128.876000
21
70.320600
0
LINE
8
Layer 1
10
128.876000
20
56.240700
11
114.797000
21
56.240700
0
LINE
8
Layer 1
10
100.717000
20
70.320600
11
114.797000
21
70.320600
0
LINE
8
Layer 1
10
114.797000
20
56.240700
11
100.717000
21
56.240700
0
LINE
8
Layer 1
10
100.717000
20
56.240700
11
100.717000
21
70.320600
0
LINE
8
Layer 1
10
157.035000
20
84.400100
11
157.035000
21
70.320600
0
LINE
8
Layer 1
10
157.035000
20
70.320600
11
142.955000
21
70.320600
0
LINE
8
Layer 1
10
142.955000
20
70.320600
11
142.955000
21
84.400100
0
LINE
8
Layer 1
10
100.717000
20
84.400100
11
100.717000
21
70.320600
0
LINE
8
Layer 1
10
100.717000
20
70.320600
11
86.636900
21
70.320600
0
LINE
8
Layer 1
10
86.636900
20
70.320600
11
86.636900
21
84.400100
0
LINE
8
Layer 1
10
157.035000
20
98.480000
11
157.035000
21
84.400100
0
LINE
8
Layer 1
10
142.955000
20
84.400100
11
142.955000
21
98.480000
0
LINE
8
Layer 1
10
100.717000
20
98.480000
11
100.717000
21
84.400100
0
LINE
8
Layer 1
10
86.636900
20
84.400100
11
86.636900
21
98.480000
0
LINE
8
Layer 1
10
142.955000
20
112.560000
11
157.035000
21
112.560000
0
LINE
8
Layer 1
10
157.035000
20
112.560000
11
157.035000
21
98.480000
0
LINE
8
Layer 1
10
142.955000
20
98.480000
11
142.955000
21
112.560000
0
LINE
8
Layer 1
10
86.636900
20
112.560000
11
100.717000
21
112.560000
0
LINE
8
Layer 1
10
100.717000
20
112.560000
11
100.717000
21
98.480000
0
LINE
8
Layer 1
10
86.636900
20
98.480000
11
86.636900
21
112.560000
0
LINE
8
Layer 1
10
243.485000
20
28.081500
11
243.485000
21
14.001900
0
LINE
8
Layer 1
10
243.485000
20
14.001900
11
229.405000
21
14.001900
0
LINE
8
Layer 1
10
229.405000
20
14.001900
11
229.405000
21
28.081500
0
LINE
8
Layer 1
10
243.485000
20
42.161200
11
243.485000
21
28.081500
0
LINE
8
Layer 1
10
229.405000
20
28.081500
11
229.405000
21
42.161200
0
LINE
8
Layer 1
10
229.405000
20
56.240700
11
243.485000
21
56.240700
0
LINE
8
Layer 1
10
243.485000
20
56.240700
11
243.485000
21
42.161200
0
LINE
8
Layer 1
10
229.405000
20
42.161200
11
229.405000
21
56.240700
0
LINE
8
Layer 1
10
215.325000
20
70.320600
11
229.405000
21
70.320600
0
LINE
8
Layer 1
10
229.405000
20
70.320600
11
229.405000
21
56.240700
0
LINE
8
Layer 1
10
229.405000
20
56.240700
11
215.325000
21
56.240700
0
LINE
8
Layer 1
10
201.246000
20
70.320600
11
215.325000
21
70.320600
0
LINE
8
Layer 1
10
215.325000
20
56.240700
11
201.246000
21
56.240700
0
LINE
8
Layer 1
10
187.166000
20
70.320600
11
201.246000
21
70.320600
0
LINE
8
Layer 1
10
201.246000
20
56.240700
11
187.166000
21
56.240700
0
LINE
8
Layer 1
10
187.166000
20
56.240700
11
187.166000
21
70.320600
0
LINE
8
Layer 1
10
243.485000
20
84.400100
11
243.485000
21
70.320600
0
LINE
8
Layer 1
10
243.485000
20
70.320600
11
229.405000
21
70.320600
0
LINE
8
Layer 1
10
229.405000
20
70.320600
11
229.405000
21
84.400100
0
LINE
8
Layer 1
10
187.166000
20
84.400100
11
187.166000
21
70.320600
0
LINE
8
Layer 1
10
187.166000
20
70.320600
11
173.086000
21
70.320600
0
LINE
8
Layer 1
10
173.086000
20
70.320600
11
173.086000
21
84.400100
0
LINE
8
Layer 1
10
243.485000
20
98.480000
11
243.485000
21
84.400100
0
LINE
8
Layer 1
10
229.405000
20
84.400100
11
229.405000
21
98.480000
0
LINE
8
Layer 1
10
187.166000
20
98.480000
11
187.166000
21
84.400100
0
LINE
8
Layer 1
10
173.086000
20
84.400100
11
173.086000
21
98.480000
0
LINE
8
Layer 1
10
229.405000
20
112.560000
11
243.485000
21
112.560000
0
LINE
8
Layer 1
10
243.485000
20
112.560000
11
243.485000
21
98.480000
0
LINE
8
Layer 1
10
229.405000
20
98.480000
11
229.405000
21
112.560000
0
LINE
8
Layer 1
10
173.086000
20
112.560000
11
187.166000
21
112.560000
0
LINE
8
Layer 1
10
187.166000
20
112.560000
11
187.166000
21
98.480000
0
LINE
8
Layer 1
10
173.086000
20
98.480000
11
173.086000
21
112.560000
 0 
ENDSEC
 0 
EOF