999
"DXF R12 Output" (www.mydxf.blogspot.com)
 0 
SECTION
 2 
HEADER
 9 
$ACADVER
 1 
AC1009
 9 
$EXTMIN
 10 
 0 
 20 
 0 
 9 
$EXTMAX
 10 
 8.5 
 20 
 11 
 0 
ENDSEC
 0 
SECTION
 2 
ENTITIES
0
LINE
8
Layer 1
10
0.793749
20
127.621000
11
-0.793749
21
126.033000
0
LINE
8
Layer 1
10
0.000000
20
128.150000
11
0.000000
21
125.504000
0
LINE
8
Layer 1
10
2.116660
20
125.769000
11
1.058330
21
124.710670
0
LINE
8
Layer 1
10
1.587500
20
126.298000
11
0.529170
21
125.239670
0
LINE
8
Layer 1
10
1.058330
20
126.827000
11
0.000000
21
125.768670
0
LINE
8
Layer 1
10
42.665900
20
13.678100
11
56.762400
21
13.678100
0
LINE
8
Layer 1
10
56.762400
20
13.678100
11
56.762400
21
-0.418541
0
LINE
8
Layer 1
10
56.762400
20
-0.418541
11
42.665900
21
-0.418541
0
LINE
8
Layer 1
10
42.665900
20
-0.418541
11
42.665900
21
13.678100
0
LINE
8
Layer 1
10
28.569300
20
13.678100
11
42.665900
21
13.678100
0
LINE
8
Layer 1
10
42.665900
20
13.678100
11
42.665900
21
-0.418541
0
LINE
8
Layer 1
10
42.665900
20
-0.418541
11
28.569300
21
-0.418541
0
LINE
8
Layer 1
10
28.569300
20
-0.418541
11
28.569300
21
13.678100
0
LINE
8
Layer 1
10
14.472600
20
13.678100
11
28.569300
21
13.678100
0
LINE
8
Layer 1
10
28.569300
20
13.678100
11
28.569300
21
-0.418541
0
LINE
8
Layer 1
10
28.569300
20
-0.418541
11
14.472600
21
-0.418541
0
LINE
8
Layer 1
10
14.472600
20
-0.418541
11
14.472600
21
13.678100
0
LINE
8
Layer 1
10
56.762400
20
27.774800
11
70.859300
21
27.774800
0
LINE
8
Layer 1
10
70.859300
20
27.774800
11
70.859300
21
13.678100
0
LINE
8
Layer 1
10
70.859300
20
13.678100
11
56.762400
21
13.678100
0
LINE
8
Layer 1
10
56.762400
20
13.678100
11
56.762400
21
27.774800
0
LINE
8
Layer 1
10
56.762400
20
41.871400
11
70.859300
21
41.871400
0
LINE
8
Layer 1
10
70.859300
20
41.871400
11
70.859300
21
27.774800
0
LINE
8
Layer 1
10
70.859300
20
27.774800
11
56.762400
21
27.774800
0
LINE
8
Layer 1
10
56.762400
20
27.774800
11
56.762400
21
41.871400
0
LINE
8
Layer 1
10
56.762400
20
55.968100
11
70.859300
21
55.968100
0
LINE
8
Layer 1
10
70.859300
20
55.968100
11
70.859300
21
41.871400
0
LINE
8
Layer 1
10
70.859300
20
41.871400
11
56.762400
21
41.871400
0
LINE
8
Layer 1
10
56.762400
20
41.871400
11
56.762400
21
55.968100
0
LINE
8
Layer 1
10
42.665900
20
70.064700
11
56.762400
21
70.064700
0
LINE
8
Layer 1
10
56.762400
20
70.064700
11
56.762400
21
55.968100
0
LINE
8
Layer 1
10
56.762400
20
55.968100
11
42.665900
21
55.968100
0
LINE
8
Layer 1
10
42.665900
20
55.968100
11
42.665900
21
70.064700
0
LINE
8
Layer 1
10
28.569300
20
70.064700
11
42.665900
21
70.064700
0
LINE
8
Layer 1
10
42.665900
20
70.064700
11
42.665900
21
55.968100
0
LINE
8
Layer 1
10
42.665900
20
55.968100
11
28.569300
21
55.968100
0
LINE
8
Layer 1
10
28.569300
20
55.968100
11
28.569300
21
70.064700
0
LINE
8
Layer 1
10
14.472600
20
70.064700
11
28.569300
21
70.064700
0
LINE
8
Layer 1
10
28.569300
20
70.064700
11
28.569300
21
55.968100
0
LINE
8
Layer 1
10
28.569300
20
55.968100
11
14.472600
21
55.968100
0
LINE
8
Layer 1
10
14.472600
20
55.968100
11
14.472600
21
70.064700
0
LINE
8
Layer 1
10
0.375911
20
84.161400
11
14.472600
21
84.161400
0
LINE
8
Layer 1
10
14.472600
20
84.161400
11
14.472600
21
70.064700
0
LINE
8
Layer 1
10
14.472600
20
70.064700
11
0.375911
21
70.064700
0
LINE
8
Layer 1
10
0.375911
20
70.064700
11
0.375911
21
84.161400
0
LINE
8
Layer 1
10
0.375911
20
98.258000
11
14.472600
21
98.258000
0
LINE
8
Layer 1
10
14.472600
20
98.258000
11
14.472600
21
84.161400
0
LINE
8
Layer 1
10
14.472600
20
84.161400
11
0.375911
21
84.161400
0
LINE
8
Layer 1
10
0.375911
20
84.161400
11
0.375911
21
98.258000
0
LINE
8
Layer 1
10
0.375911
20
112.355000
11
14.472600
21
112.355000
0
LINE
8
Layer 1
10
14.472600
20
112.355000
11
14.472600
21
98.258000
0
LINE
8
Layer 1
10
14.472600
20
98.258000
11
0.375911
21
98.258000
0
LINE
8
Layer 1
10
0.375911
20
98.258000
11
0.375911
21
112.355000
0
LINE
8
Layer 1
10
42.665900
20
126.451000
11
56.762400
21
126.451000
0
LINE
8
Layer 1
10
56.762400
20
126.451000
11
56.762400
21
112.355000
0
LINE
8
Layer 1
10
56.762400
20
112.355000
11
42.665900
21
112.355000
0
LINE
8
Layer 1
10
42.665900
20
112.355000
11
42.665900
21
126.451000
0
LINE
8
Layer 1
10
28.569300
20
126.451000
11
42.665900
21
126.451000
0
LINE
8
Layer 1
10
42.665900
20
126.451000
11
42.665900
21
112.355000
0
LINE
8
Layer 1
10
42.665900
20
112.355000
11
28.569300
21
112.355000
0
LINE
8
Layer 1
10
28.569300
20
112.355000
11
28.569300
21
126.451000
0
LINE
8
Layer 1
10
14.472600
20
126.451000
11
28.569300
21
126.451000
0
LINE
8
Layer 1
10
28.569300
20
126.451000
11
28.569300
21
112.355000
0
LINE
8
Layer 1
10
28.569300
20
112.355000
11
14.472600
21
112.355000
0
LINE
8
Layer 1
10
14.472600
20
112.355000
11
14.472600
21
126.451000
0
LINE
8
Layer 1
10
143.316000
20
27.774800
11
157.413000
21
27.774800
0
LINE
8
Layer 1
10
157.413000
20
27.774800
11
157.413000
21
13.678100
0
LINE
8
Layer 1
10
157.413000
20
13.678100
11
143.316000
21
13.678100
0
LINE
8
Layer 1
10
143.316000
20
13.678100
11
143.316000
21
27.774800
0
LINE
8
Layer 1
10
143.316000
20
41.871400
11
157.413000
21
41.871400
0
LINE
8
Layer 1
10
157.413000
20
41.871400
11
157.413000
21
27.774800
0
LINE
8
Layer 1
10
157.413000
20
27.774800
11
143.316000
21
27.774800
0
LINE
8
Layer 1
10
143.316000
20
27.774800
11
143.316000
21
41.871400
0
LINE
8
Layer 1
10
143.316000
20
55.968100
11
157.413000
21
55.968100
0
LINE
8
Layer 1
10
157.413000
20
55.968100
11
157.413000
21
41.871400
0
LINE
8
Layer 1
10
157.413000
20
41.871400
11
143.316000
21
41.871400
0
LINE
8
Layer 1
10
143.316000
20
41.871400
11
143.316000
21
55.968100
0
LINE
8
Layer 1
10
129.219000
20
70.064700
11
143.316000
21
70.064700
0
LINE
8
Layer 1
10
143.316000
20
70.064700
11
143.316000
21
55.968100
0
LINE
8
Layer 1
10
143.316000
20
55.968100
11
129.219000
21
55.968100
0
LINE
8
Layer 1
10
129.219000
20
55.968100
11
129.219000
21
70.064700
0
LINE
8
Layer 1
10
115.123000
20
70.064700
11
129.219000
21
70.064700
0
LINE
8
Layer 1
10
129.219000
20
70.064700
11
129.219000
21
55.968100
0
LINE
8
Layer 1
10
129.219000
20
55.968100
11
115.123000
21
55.968100
0
LINE
8
Layer 1
10
115.123000
20
55.968100
11
115.123000
21
70.064700
0
LINE
8
Layer 1
10
101.026000
20
70.064700
11
115.123000
21
70.064700
0
LINE
8
Layer 1
10
115.123000
20
70.064700
11
115.123000
21
55.968100
0
LINE
8
Layer 1
10
115.123000
20
55.968100
11
101.026000
21
55.968100
0
LINE
8
Layer 1
10
101.026000
20
55.968100
11
101.026000
21
70.064700
0
LINE
8
Layer 1
10
143.316000
20
84.161400
11
157.413000
21
84.161400
0
LINE
8
Layer 1
10
157.413000
20
84.161400
11
157.413000
21
70.064700
0
LINE
8
Layer 1
10
157.413000
20
70.064700
11
143.316000
21
70.064700
0
LINE
8
Layer 1
10
143.316000
20
70.064700
11
143.316000
21
84.161400
0
LINE
8
Layer 1
10
86.929400
20
84.161400
11
101.026000
21
84.161400
0
LINE
8
Layer 1
10
101.026000
20
84.161400
11
101.026000
21
70.064700
0
LINE
8
Layer 1
10
101.026000
20
70.064700
11
86.929400
21
70.064700
0
LINE
8
Layer 1
10
86.929400
20
70.064700
11
86.929400
21
84.161400
0
LINE
8
Layer 1
10
143.316000
20
98.258000
11
157.413000
21
98.258000
0
LINE
8
Layer 1
10
157.413000
20
98.258000
11
157.413000
21
84.161400
0
LINE
8
Layer 1
10
157.413000
20
84.161400
11
143.316000
21
84.161400
0
LINE
8
Layer 1
10
143.316000
20
84.161400
11
143.316000
21
98.258000
0
LINE
8
Layer 1
10
86.929400
20
98.258000
11
101.026000
21
98.258000
0
LINE
8
Layer 1
10
101.026000
20
98.258000
11
101.026000
21
84.161400
0
LINE
8
Layer 1
10
101.026000
20
84.161400
11
86.929400
21
84.161400
0
LINE
8
Layer 1
10
86.929400
20
84.161400
11
86.929400
21
98.258000
0
LINE
8
Layer 1
10
143.316000
20
112.355000
11
157.413000
21
112.355000
0
LINE
8
Layer 1
10
157.413000
20
112.355000
11
157.413000
21
98.258000
0
LINE
8
Layer 1
10
157.413000
20
98.258000
11
143.316000
21
98.258000
0
LINE
8
Layer 1
10
143.316000
20
98.258000
11
143.316000
21
112.355000
0
LINE
8
Layer 1
10
86.929400
20
112.355000
11
101.026000
21
112.355000
0
LINE
8
Layer 1
10
101.026000
20
112.355000
11
101.026000
21
98.258000
0
LINE
8
Layer 1
10
101.026000
20
98.258000
11
86.929400
21
98.258000
0
LINE
8
Layer 1
10
86.929400
20
98.258000
11
86.929400
21
112.355000
0
LINE
8
Layer 1
10
215.773000
20
13.678100
11
229.869000
21
13.678100
0
LINE
8
Layer 1
10
229.869000
20
13.678100
11
229.869000
21
-0.418541
0
LINE
8
Layer 1
10
229.869000
20
-0.418541
11
215.773000
21
-0.418541
0
LINE
8
Layer 1
10
215.773000
20
-0.418541
11
215.773000
21
13.678100
0
LINE
8
Layer 1
10
201.676000
20
13.678100
11
215.773000
21
13.678100
0
LINE
8
Layer 1
10
215.773000
20
13.678100
11
215.773000
21
-0.418541
0
LINE
8
Layer 1
10
215.773000
20
-0.418541
11
201.676000
21
-0.418541
0
LINE
8
Layer 1
10
201.676000
20
-0.418541
11
201.676000
21
13.678100
0
LINE
8
Layer 1
10
187.580000
20
13.678100
11
201.676000
21
13.678100
0
LINE
8
Layer 1
10
201.676000
20
13.678100
11
201.676000
21
-0.418541
0
LINE
8
Layer 1
10
201.676000
20
-0.418541
11
187.580000
21
-0.418541
0
LINE
8
Layer 1
10
187.580000
20
-0.418541
11
187.580000
21
13.678100
0
LINE
8
Layer 1
10
229.869000
20
27.774800
11
243.966000
21
27.774800
0
LINE
8
Layer 1
10
243.966000
20
27.774800
11
243.966000
21
13.678100
0
LINE
8
Layer 1
10
243.966000
20
13.678100
11
229.869000
21
13.678100
0
LINE
8
Layer 1
10
229.869000
20
13.678100
11
229.869000
21
27.774800
0
LINE
8
Layer 1
10
229.869000
20
41.871400
11
243.966000
21
41.871400
0
LINE
8
Layer 1
10
243.966000
20
41.871400
11
243.966000
21
27.774800
0
LINE
8
Layer 1
10
243.966000
20
27.774800
11
229.869000
21
27.774800
0
LINE
8
Layer 1
10
229.869000
20
27.774800
11
229.869000
21
41.871400
0
LINE
8
Layer 1
10
229.869000
20
55.968100
11
243.966000
21
55.968100
0
LINE
8
Layer 1
10
243.966000
20
55.968100
11
243.966000
21
41.871400
0
LINE
8
Layer 1
10
243.966000
20
41.871400
11
229.869000
21
41.871400
0
LINE
8
Layer 1
10
229.869000
20
41.871400
11
229.869000
21
55.968100
0
LINE
8
Layer 1
10
215.773000
20
70.064700
11
229.869000
21
70.064700
0
LINE
8
Layer 1
10
229.869000
20
70.064700
11
229.869000
21
55.968100
0
LINE
8
Layer 1
10
229.869000
20
55.968100
11
215.773000
21
55.968100
0
LINE
8
Layer 1
10
215.773000
20
55.968100
11
215.773000
21
70.064700
0
LINE
8
Layer 1
10
201.676000
20
70.064700
11
215.773000
21
70.064700
0
LINE
8
Layer 1
10
215.773000
20
70.064700
11
215.773000
21
55.968100
0
LINE
8
Layer 1
10
215.773000
20
55.968100
11
201.676000
21
55.968100
0
LINE
8
Layer 1
10
201.676000
20
55.968100
11
201.676000
21
70.064700
0
LINE
8
Layer 1
10
187.580000
20
70.064700
11
201.676000
21
70.064700
0
LINE
8
Layer 1
10
201.676000
20
70.064700
11
201.676000
21
55.968100
0
LINE
8
Layer 1
10
201.676000
20
55.968100
11
187.580000
21
55.968100
0
LINE
8
Layer 1
10
187.580000
20
55.968100
11
187.580000
21
70.064700
0
LINE
8
Layer 1
10
173.483000
20
84.161400
11
187.580000
21
84.161400
0
LINE
8
Layer 1
10
187.580000
20
84.161400
11
187.580000
21
70.064700
0
LINE
8
Layer 1
10
187.580000
20
70.064700
11
173.483000
21
70.064700
0
LINE
8
Layer 1
10
173.483000
20
70.064700
11
173.483000
21
84.161400
0
LINE
8
Layer 1
10
173.483000
20
98.258000
11
187.580000
21
98.258000
0
LINE
8
Layer 1
10
187.580000
20
98.258000
11
187.580000
21
84.161400
0
LINE
8
Layer 1
10
187.580000
20
84.161400
11
173.483000
21
84.161400
0
LINE
8
Layer 1
10
173.483000
20
84.161400
11
173.483000
21
98.258000
0
LINE
8
Layer 1
10
173.483000
20
112.355000
11
187.580000
21
112.355000
0
LINE
8
Layer 1
10
187.580000
20
112.355000
11
187.580000
21
98.258000
0
LINE
8
Layer 1
10
187.580000
20
98.258000
11
173.483000
21
98.258000
0
LINE
8
Layer 1
10
173.483000
20
98.258000
11
173.483000
21
112.355000
0
LINE
8
Layer 1
10
215.773000
20
126.451000
11
229.869000
21
126.451000
0
LINE
8
Layer 1
10
229.869000
20
126.451000
11
229.869000
21
112.355000
0
LINE
8
Layer 1
10
229.869000
20
112.355000
11
215.773000
21
112.355000
0
LINE
8
Layer 1
10
215.773000
20
112.355000
11
215.773000
21
126.451000
0
LINE
8
Layer 1
10
201.676000
20
126.451000
11
215.773000
21
126.451000
0
LINE
8
Layer 1
10
215.773000
20
126.451000
11
215.773000
21
112.355000
0
LINE
8
Layer 1
10
215.773000
20
112.355000
11
201.676000
21
112.355000
0
LINE
8
Layer 1
10
201.676000
20
112.355000
11
201.676000
21
126.451000
0
LINE
8
Layer 1
10
187.580000
20
126.451000
11
201.676000
21
126.451000
0
LINE
8
Layer 1
10
201.676000
20
126.451000
11
201.676000
21
112.355000
0
LINE
8
Layer 1
10
201.676000
20
112.355000
11
187.580000
21
112.355000
0
LINE
8
Layer 1
10
187.580000
20
112.355000
11
187.580000
21
126.451000
 0 
ENDSEC
 0 
EOF