999
"DXF R12 Output" (www.mydxf.blogspot.com)
 0 
SECTION
 2 
HEADER
 9 
$ACADVER
 1 
AC1009
 9 
$EXTMIN
 10 
 0 
 20 
 0 
 9 
$EXTMAX
 10 
 8.5 
 20 
 11 
 0 
ENDSEC
 0 
SECTION
 2 
ENTITIES
0
LINE
8
Layer 1
10
0.793749
20
127.621000
11
-0.793749
21
126.033000
0
LINE
8
Layer 1
10
0.000000
20
128.150000
11
0.000000
21
125.504000
0
LINE
8
Layer 1
10
2.116660
20
125.769000
11
1.058330
21
124.710670
0
LINE
8
Layer 1
10
1.587500
20
126.298000
11
0.529170
21
125.239670
0
LINE
8
Layer 1
10
1.058330
20
126.827000
11
0.000000
21
125.768670
0
LINE
8
Layer 1
10
42.569000
20
13.934500
11
56.633600
21
13.934500
0
LINE
8
Layer 1
10
56.633600
20
13.934500
11
56.633600
21
-0.130225
0
LINE
8
Layer 1
10
56.633600
20
-0.130225
11
42.569000
21
-0.130225
0
LINE
8
Layer 1
10
42.569000
20
-0.130225
11
42.569000
21
13.934500
0
LINE
8
Layer 1
10
28.504500
20
13.934500
11
42.569000
21
13.934500
0
LINE
8
Layer 1
10
42.569000
20
13.934500
11
42.569000
21
-0.130225
0
LINE
8
Layer 1
10
42.569000
20
-0.130225
11
28.504500
21
-0.130225
0
LINE
8
Layer 1
10
28.504500
20
-0.130225
11
28.504500
21
13.934500
0
LINE
8
Layer 1
10
14.439700
20
13.934500
11
28.504500
21
13.934500
0
LINE
8
Layer 1
10
28.504500
20
13.934500
11
28.504500
21
-0.130225
0
LINE
8
Layer 1
10
28.504500
20
-0.130225
11
14.439700
21
-0.130225
0
LINE
8
Layer 1
10
14.439700
20
-0.130225
11
14.439700
21
13.934500
0
LINE
8
Layer 1
10
56.633600
20
27.999100
11
70.698400
21
27.999100
0
LINE
8
Layer 1
10
70.698400
20
27.999100
11
70.698400
21
13.934500
0
LINE
8
Layer 1
10
70.698400
20
13.934500
11
56.633600
21
13.934500
0
LINE
8
Layer 1
10
56.633600
20
13.934500
11
56.633600
21
27.999100
0
LINE
8
Layer 1
10
56.633600
20
42.063800
11
70.698400
21
42.063800
0
LINE
8
Layer 1
10
70.698400
20
42.063800
11
70.698400
21
27.999100
0
LINE
8
Layer 1
10
70.698400
20
27.999100
11
56.633600
21
27.999100
0
LINE
8
Layer 1
10
56.633600
20
27.999100
11
56.633600
21
42.063800
0
LINE
8
Layer 1
10
56.633600
20
56.128400
11
70.698400
21
56.128400
0
LINE
8
Layer 1
10
70.698400
20
56.128400
11
70.698400
21
42.063800
0
LINE
8
Layer 1
10
70.698400
20
42.063800
11
56.633600
21
42.063800
0
LINE
8
Layer 1
10
56.633600
20
42.063800
11
56.633600
21
56.128400
0
LINE
8
Layer 1
10
42.569000
20
70.193100
11
56.633600
21
70.193100
0
LINE
8
Layer 1
10
56.633600
20
70.193100
11
56.633600
21
56.128400
0
LINE
8
Layer 1
10
56.633600
20
56.128400
11
42.569000
21
56.128400
0
LINE
8
Layer 1
10
42.569000
20
56.128400
11
42.569000
21
70.193100
0
LINE
8
Layer 1
10
28.504500
20
70.193100
11
42.569000
21
70.193100
0
LINE
8
Layer 1
10
42.569000
20
70.193100
11
42.569000
21
56.128400
0
LINE
8
Layer 1
10
42.569000
20
56.128400
11
28.504500
21
56.128400
0
LINE
8
Layer 1
10
28.504500
20
56.128400
11
28.504500
21
70.193100
0
LINE
8
Layer 1
10
14.439700
20
70.193100
11
28.504500
21
70.193100
0
LINE
8
Layer 1
10
28.504500
20
70.193100
11
28.504500
21
56.128400
0
LINE
8
Layer 1
10
28.504500
20
56.128400
11
14.439700
21
56.128400
0
LINE
8
Layer 1
10
14.439700
20
56.128400
11
14.439700
21
70.193100
0
LINE
8
Layer 1
10
0.375058
20
84.257700
11
14.439700
21
84.257700
0
LINE
8
Layer 1
10
14.439700
20
84.257700
11
14.439700
21
70.193100
0
LINE
8
Layer 1
10
14.439700
20
70.193100
11
0.375058
21
70.193100
0
LINE
8
Layer 1
10
0.375058
20
70.193100
11
0.375058
21
84.257700
0
LINE
8
Layer 1
10
0.375058
20
98.322400
11
14.439700
21
98.322400
0
LINE
8
Layer 1
10
14.439700
20
98.322400
11
14.439700
21
84.257700
0
LINE
8
Layer 1
10
14.439700
20
84.257700
11
0.375058
21
84.257700
0
LINE
8
Layer 1
10
0.375058
20
84.257700
11
0.375058
21
98.322400
0
LINE
8
Layer 1
10
0.375058
20
112.387000
11
14.439700
21
112.387000
0
LINE
8
Layer 1
10
14.439700
20
112.387000
11
14.439700
21
98.322400
0
LINE
8
Layer 1
10
14.439700
20
98.322400
11
0.375058
21
98.322400
0
LINE
8
Layer 1
10
0.375058
20
98.322400
11
0.375058
21
112.387000
0
LINE
8
Layer 1
10
42.569000
20
126.452000
11
56.633600
21
126.452000
0
LINE
8
Layer 1
10
56.633600
20
126.452000
11
56.633600
21
112.387000
0
LINE
8
Layer 1
10
56.633600
20
112.387000
11
42.569000
21
112.387000
0
LINE
8
Layer 1
10
42.569000
20
112.387000
11
42.569000
21
126.452000
0
LINE
8
Layer 1
10
28.504500
20
126.452000
11
42.569000
21
126.452000
0
LINE
8
Layer 1
10
42.569000
20
126.452000
11
42.569000
21
112.387000
0
LINE
8
Layer 1
10
42.569000
20
112.387000
11
28.504500
21
112.387000
0
LINE
8
Layer 1
10
28.504500
20
112.387000
11
28.504500
21
126.452000
0
LINE
8
Layer 1
10
14.439700
20
126.452000
11
28.504500
21
126.452000
0
LINE
8
Layer 1
10
28.504500
20
126.452000
11
28.504500
21
112.387000
0
LINE
8
Layer 1
10
28.504500
20
112.387000
11
14.439700
21
112.387000
0
LINE
8
Layer 1
10
14.439700
20
112.387000
11
14.439700
21
126.452000
0
LINE
8
Layer 1
10
142.991000
20
27.999100
11
157.055000
21
27.999100
0
LINE
8
Layer 1
10
157.055000
20
27.999100
11
157.055000
21
13.934500
0
LINE
8
Layer 1
10
157.055000
20
13.934500
11
142.991000
21
13.934500
0
LINE
8
Layer 1
10
142.991000
20
13.934500
11
142.991000
21
27.999100
0
LINE
8
Layer 1
10
142.991000
20
42.063800
11
157.055000
21
42.063800
0
LINE
8
Layer 1
10
157.055000
20
42.063800
11
157.055000
21
27.999100
0
LINE
8
Layer 1
10
157.055000
20
27.999100
11
142.991000
21
27.999100
0
LINE
8
Layer 1
10
142.991000
20
27.999100
11
142.991000
21
42.063800
0
LINE
8
Layer 1
10
142.991000
20
56.128400
11
157.055000
21
56.128400
0
LINE
8
Layer 1
10
157.055000
20
56.128400
11
157.055000
21
42.063800
0
LINE
8
Layer 1
10
157.055000
20
42.063800
11
142.991000
21
42.063800
0
LINE
8
Layer 1
10
142.991000
20
42.063800
11
142.991000
21
56.128400
0
LINE
8
Layer 1
10
128.926000
20
70.193100
11
142.991000
21
70.193100
0
LINE
8
Layer 1
10
142.991000
20
70.193100
11
142.991000
21
56.128400
0
LINE
8
Layer 1
10
142.991000
20
56.128400
11
128.926000
21
56.128400
0
LINE
8
Layer 1
10
128.926000
20
56.128400
11
128.926000
21
70.193100
0
LINE
8
Layer 1
10
114.861000
20
70.193100
11
128.926000
21
70.193100
0
LINE
8
Layer 1
10
128.926000
20
70.193100
11
128.926000
21
56.128400
0
LINE
8
Layer 1
10
128.926000
20
56.128400
11
114.861000
21
56.128400
0
LINE
8
Layer 1
10
114.861000
20
56.128400
11
114.861000
21
70.193100
0
LINE
8
Layer 1
10
100.797000
20
70.193100
11
114.861000
21
70.193100
0
LINE
8
Layer 1
10
114.861000
20
70.193100
11
114.861000
21
56.128400
0
LINE
8
Layer 1
10
114.861000
20
56.128400
11
100.797000
21
56.128400
0
LINE
8
Layer 1
10
100.797000
20
56.128400
11
100.797000
21
70.193100
0
LINE
8
Layer 1
10
142.991000
20
84.257700
11
157.055000
21
84.257700
0
LINE
8
Layer 1
10
157.055000
20
84.257700
11
157.055000
21
70.193100
0
LINE
8
Layer 1
10
157.055000
20
70.193100
11
142.991000
21
70.193100
0
LINE
8
Layer 1
10
142.991000
20
70.193100
11
142.991000
21
84.257700
0
LINE
8
Layer 1
10
86.732100
20
84.257700
11
100.797000
21
84.257700
0
LINE
8
Layer 1
10
100.797000
20
84.257700
11
100.797000
21
70.193100
0
LINE
8
Layer 1
10
100.797000
20
70.193100
11
86.732100
21
70.193100
0
LINE
8
Layer 1
10
86.732100
20
70.193100
11
86.732100
21
84.257700
0
LINE
8
Layer 1
10
142.991000
20
98.322400
11
157.055000
21
98.322400
0
LINE
8
Layer 1
10
157.055000
20
98.322400
11
157.055000
21
84.257700
0
LINE
8
Layer 1
10
157.055000
20
84.257700
11
142.991000
21
84.257700
0
LINE
8
Layer 1
10
142.991000
20
84.257700
11
142.991000
21
98.322400
0
LINE
8
Layer 1
10
86.732100
20
98.322400
11
100.797000
21
98.322400
0
LINE
8
Layer 1
10
100.797000
20
98.322400
11
100.797000
21
84.257700
0
LINE
8
Layer 1
10
100.797000
20
84.257700
11
86.732100
21
84.257700
0
LINE
8
Layer 1
10
86.732100
20
84.257700
11
86.732100
21
98.322400
0
LINE
8
Layer 1
10
142.991000
20
112.387000
11
157.055000
21
112.387000
0
LINE
8
Layer 1
10
157.055000
20
112.387000
11
157.055000
21
98.322400
0
LINE
8
Layer 1
10
157.055000
20
98.322400
11
142.991000
21
98.322400
0
LINE
8
Layer 1
10
142.991000
20
98.322400
11
142.991000
21
112.387000
0
LINE
8
Layer 1
10
86.732100
20
112.387000
11
100.797000
21
112.387000
0
LINE
8
Layer 1
10
100.797000
20
112.387000
11
100.797000
21
98.322400
0
LINE
8
Layer 1
10
100.797000
20
98.322400
11
86.732100
21
98.322400
0
LINE
8
Layer 1
10
86.732100
20
98.322400
11
86.732100
21
112.387000
0
LINE
8
Layer 1
10
215.283000
20
13.934500
11
229.348000
21
13.934500
0
LINE
8
Layer 1
10
229.348000
20
13.934500
11
229.348000
21
-0.130225
0
LINE
8
Layer 1
10
229.348000
20
-0.130225
11
215.283000
21
-0.130225
0
LINE
8
Layer 1
10
215.283000
20
-0.130225
11
215.283000
21
13.934500
0
LINE
8
Layer 1
10
201.218000
20
13.934500
11
215.283000
21
13.934500
0
LINE
8
Layer 1
10
215.283000
20
13.934500
11
215.283000
21
-0.130225
0
LINE
8
Layer 1
10
215.283000
20
-0.130225
11
201.218000
21
-0.130225
0
LINE
8
Layer 1
10
201.218000
20
-0.130225
11
201.218000
21
13.934500
0
LINE
8
Layer 1
10
187.154000
20
13.934500
11
201.218000
21
13.934500
0
LINE
8
Layer 1
10
201.218000
20
13.934500
11
201.218000
21
-0.130225
0
LINE
8
Layer 1
10
201.218000
20
-0.130225
11
187.154000
21
-0.130225
0
LINE
8
Layer 1
10
187.154000
20
-0.130225
11
187.154000
21
13.934500
0
LINE
8
Layer 1
10
229.348000
20
27.999100
11
243.412000
21
27.999100
0
LINE
8
Layer 1
10
243.412000
20
27.999100
11
243.412000
21
13.934500
0
LINE
8
Layer 1
10
243.412000
20
13.934500
11
229.348000
21
13.934500
0
LINE
8
Layer 1
10
229.348000
20
13.934500
11
229.348000
21
27.999100
0
LINE
8
Layer 1
10
173.089000
20
27.999100
11
187.154000
21
27.999100
0
LINE
8
Layer 1
10
187.154000
20
27.999100
11
187.154000
21
13.934500
0
LINE
8
Layer 1
10
187.154000
20
13.934500
11
173.089000
21
13.934500
0
LINE
8
Layer 1
10
173.089000
20
13.934500
11
173.089000
21
27.999100
0
LINE
8
Layer 1
10
229.348000
20
42.063800
11
243.412000
21
42.063800
0
LINE
8
Layer 1
10
243.412000
20
42.063800
11
243.412000
21
27.999100
0
LINE
8
Layer 1
10
243.412000
20
27.999100
11
229.348000
21
27.999100
0
LINE
8
Layer 1
10
229.348000
20
27.999100
11
229.348000
21
42.063800
0
LINE
8
Layer 1
10
173.089000
20
42.063800
11
187.154000
21
42.063800
0
LINE
8
Layer 1
10
187.154000
20
42.063800
11
187.154000
21
27.999100
0
LINE
8
Layer 1
10
187.154000
20
27.999100
11
173.089000
21
27.999100
0
LINE
8
Layer 1
10
173.089000
20
27.999100
11
173.089000
21
42.063800
0
LINE
8
Layer 1
10
229.348000
20
56.128400
11
243.412000
21
56.128400
0
LINE
8
Layer 1
10
243.412000
20
56.128400
11
243.412000
21
42.063800
0
LINE
8
Layer 1
10
243.412000
20
42.063800
11
229.348000
21
42.063800
0
LINE
8
Layer 1
10
229.348000
20
42.063800
11
229.348000
21
56.128400
0
LINE
8
Layer 1
10
173.089000
20
56.128400
11
187.154000
21
56.128400
0
LINE
8
Layer 1
10
187.154000
20
56.128400
11
187.154000
21
42.063800
0
LINE
8
Layer 1
10
187.154000
20
42.063800
11
173.089000
21
42.063800
0
LINE
8
Layer 1
10
173.089000
20
42.063800
11
173.089000
21
56.128400
0
LINE
8
Layer 1
10
215.283000
20
70.193100
11
229.348000
21
70.193100
0
LINE
8
Layer 1
10
229.348000
20
70.193100
11
229.348000
21
56.128400
0
LINE
8
Layer 1
10
229.348000
20
56.128400
11
215.283000
21
56.128400
0
LINE
8
Layer 1
10
215.283000
20
56.128400
11
215.283000
21
70.193100
0
LINE
8
Layer 1
10
201.218000
20
70.193100
11
215.283000
21
70.193100
0
LINE
8
Layer 1
10
215.283000
20
70.193100
11
215.283000
21
56.128400
0
LINE
8
Layer 1
10
215.283000
20
56.128400
11
201.218000
21
56.128400
0
LINE
8
Layer 1
10
201.218000
20
56.128400
11
201.218000
21
70.193100
0
LINE
8
Layer 1
10
187.154000
20
70.193100
11
201.218000
21
70.193100
0
LINE
8
Layer 1
10
201.218000
20
70.193100
11
201.218000
21
56.128400
0
LINE
8
Layer 1
10
201.218000
20
56.128400
11
187.154000
21
56.128400
0
LINE
8
Layer 1
10
187.154000
20
56.128400
11
187.154000
21
70.193100
0
LINE
8
Layer 1
10
173.089000
20
84.257700
11
187.154000
21
84.257700
0
LINE
8
Layer 1
10
187.154000
20
84.257700
11
187.154000
21
70.193100
0
LINE
8
Layer 1
10
187.154000
20
70.193100
11
173.089000
21
70.193100
0
LINE
8
Layer 1
10
173.089000
20
70.193100
11
173.089000
21
84.257700
0
LINE
8
Layer 1
10
173.089000
20
98.322400
11
187.154000
21
98.322400
0
LINE
8
Layer 1
10
187.154000
20
98.322400
11
187.154000
21
84.257700
0
LINE
8
Layer 1
10
187.154000
20
84.257700
11
173.089000
21
84.257700
0
LINE
8
Layer 1
10
173.089000
20
84.257700
11
173.089000
21
98.322400
0
LINE
8
Layer 1
10
173.089000
20
112.387000
11
187.154000
21
112.387000
0
LINE
8
Layer 1
10
187.154000
20
112.387000
11
187.154000
21
98.322400
0
LINE
8
Layer 1
10
187.154000
20
98.322400
11
173.089000
21
98.322400
0
LINE
8
Layer 1
10
173.089000
20
98.322400
11
173.089000
21
112.387000
0
LINE
8
Layer 1
10
215.283000
20
126.452000
11
229.348000
21
126.452000
0
LINE
8
Layer 1
10
229.348000
20
126.452000
11
229.348000
21
112.387000
0
LINE
8
Layer 1
10
229.348000
20
112.387000
11
215.283000
21
112.387000
0
LINE
8
Layer 1
10
215.283000
20
112.387000
11
215.283000
21
126.452000
0
LINE
8
Layer 1
10
201.218000
20
126.452000
11
215.283000
21
126.452000
0
LINE
8
Layer 1
10
215.283000
20
126.452000
11
215.283000
21
112.387000
0
LINE
8
Layer 1
10
215.283000
20
112.387000
11
201.218000
21
112.387000
0
LINE
8
Layer 1
10
201.218000
20
112.387000
11
201.218000
21
126.452000
0
LINE
8
Layer 1
10
187.154000
20
126.452000
11
201.218000
21
126.452000
0
LINE
8
Layer 1
10
201.218000
20
126.452000
11
201.218000
21
112.387000
0
LINE
8
Layer 1
10
201.218000
20
112.387000
11
187.154000
21
112.387000
0
LINE
8
Layer 1
10
187.154000
20
112.387000
11
187.154000
21
126.452000
 0 
ENDSEC
 0 
EOF