999
"DXF R12 Output" (www.mydxf.blogspot.com)
 0 
SECTION
 2 
HEADER
 9 
$ACADVER
 1 
AC1009
 9 
$EXTMIN
 10 
 0 
 20 
 0 
 9 
$EXTMAX
 10 
 8.5 
 20 
 11 
 0 
ENDSEC
 0 
SECTION
 2 
ENTITIES
0
LINE
8
Layer 1
10
0.793749
20
127.621000
11
-0.793749
21
126.033000
0
LINE
8
Layer 1
10
0.000000
20
128.150000
11
0.000000
21
125.504000
0
LINE
8
Layer 1
10
2.116660
20
125.769000
11
1.058330
21
124.710670
0
LINE
8
Layer 1
10
1.587500
20
126.298000
11
0.529170
21
125.239670
0
LINE
8
Layer 1
10
1.058330
20
126.827000
11
0.000000
21
125.768670
0
LINE
8
Layer 1
10
1.102670
20
127.744000
11
-0.484830
21
126.156240
0
LINE
8
Layer 1
10
0.308918
20
128.273000
11
0.308918
21
125.627000
0
LINE
8
Layer 1
10
2.425580
20
125.892000
11
1.367250
21
124.833670
0
LINE
8
Layer 1
10
1.896420
20
126.421000
11
0.838090
21
125.362670
0
LINE
8
Layer 1
10
1.367250
20
126.950000
11
0.308920
21
125.891670
0
LINE
8
Layer 1
10
42.684800
20
28.571200
11
56.685500
21
28.571200
0
LINE
8
Layer 1
10
56.685500
20
28.571200
11
56.685500
21
14.569500
0
LINE
8
Layer 1
10
56.685500
20
14.569500
11
42.684800
21
14.569500
0
LINE
8
Layer 1
10
42.684800
20
14.569500
11
42.684800
21
28.571200
0
LINE
8
Layer 1
10
42.684800
20
42.571900
11
56.685500
21
42.571900
0
LINE
8
Layer 1
10
56.685500
20
42.571900
11
56.685500
21
28.571200
0
LINE
8
Layer 1
10
56.685500
20
28.571200
11
42.684800
21
28.571200
0
LINE
8
Layer 1
10
42.684800
20
28.571200
11
42.684800
21
42.571900
0
LINE
8
Layer 1
10
42.684800
20
56.572800
11
56.685500
21
56.572800
0
LINE
8
Layer 1
10
56.685500
20
56.572800
11
56.685500
21
42.571900
0
LINE
8
Layer 1
10
56.685500
20
42.571900
11
42.684800
21
42.571900
0
LINE
8
Layer 1
10
42.684800
20
42.571900
11
42.684800
21
56.572800
0
LINE
8
Layer 1
10
42.684800
20
84.574400
11
56.685500
21
84.574400
0
LINE
8
Layer 1
10
56.685500
20
84.574400
11
56.685500
21
70.573500
0
LINE
8
Layer 1
10
56.685500
20
70.573500
11
42.684800
21
70.573500
0
LINE
8
Layer 1
10
42.684800
20
70.573500
11
42.684800
21
84.574400
0
LINE
8
Layer 1
10
42.684800
20
98.575100
11
56.685500
21
98.575100
0
LINE
8
Layer 1
10
56.685500
20
98.575100
11
56.685500
21
84.574400
0
LINE
8
Layer 1
10
56.685500
20
84.574400
11
42.684800
21
84.574400
0
LINE
8
Layer 1
10
42.684800
20
84.574400
11
42.684800
21
98.575100
0
LINE
8
Layer 1
10
42.684800
20
112.576000
11
56.685500
21
112.576000
0
LINE
8
Layer 1
10
56.685500
20
112.576000
11
56.685500
21
98.575100
0
LINE
8
Layer 1
10
56.685500
20
98.575100
11
42.684800
21
98.575100
0
LINE
8
Layer 1
10
42.684800
20
98.575100
11
42.684800
21
112.576000
0
LINE
8
Layer 1
10
28.683900
20
126.577000
11
42.684800
21
126.577000
0
LINE
8
Layer 1
10
42.684800
20
126.577000
11
42.684800
21
112.576000
0
LINE
8
Layer 1
10
42.684800
20
112.576000
11
28.683900
21
112.576000
0
LINE
8
Layer 1
10
28.683900
20
112.576000
11
28.683900
21
126.577000
0
LINE
8
Layer 1
10
14.683100
20
126.577000
11
28.683900
21
126.577000
0
LINE
8
Layer 1
10
28.683900
20
126.577000
11
28.683900
21
112.576000
0
LINE
8
Layer 1
10
28.683900
20
112.576000
11
14.683100
21
112.576000
0
LINE
8
Layer 1
10
14.683100
20
112.576000
11
14.683100
21
126.577000
0
LINE
8
Layer 1
10
0.682274
20
126.577000
11
14.683100
21
126.577000
0
LINE
8
Layer 1
10
14.683100
20
126.577000
11
14.683100
21
112.576000
0
LINE
8
Layer 1
10
14.683100
20
112.576000
11
0.682274
21
112.576000
0
LINE
8
Layer 1
10
0.682274
20
112.576000
11
0.682274
21
126.577000
0
LINE
8
Layer 1
10
114.649000
20
14.569500
11
128.650000
21
14.569500
0
LINE
8
Layer 1
10
128.650000
20
14.569500
11
128.650000
21
0.570382
0
LINE
8
Layer 1
10
128.650000
20
0.570382
11
114.649000
21
0.570382
0
LINE
8
Layer 1
10
114.649000
20
0.570382
11
114.649000
21
14.569500
0
LINE
8
Layer 1
10
100.648000
20
14.569500
11
114.649000
21
14.569500
0
LINE
8
Layer 1
10
114.649000
20
14.569500
11
114.649000
21
0.570382
0
LINE
8
Layer 1
10
114.649000
20
0.570382
11
100.648000
21
0.570382
0
LINE
8
Layer 1
10
100.648000
20
0.570382
11
100.648000
21
14.569500
0
LINE
8
Layer 1
10
86.647100
20
14.569500
11
100.648000
21
14.569500
0
LINE
8
Layer 1
10
100.648000
20
14.569500
11
100.648000
21
0.570382
0
LINE
8
Layer 1
10
100.648000
20
0.570382
11
86.647100
21
0.570382
0
LINE
8
Layer 1
10
86.647100
20
0.570382
11
86.647100
21
14.569500
0
LINE
8
Layer 1
10
128.650000
20
28.571200
11
142.651000
21
28.571200
0
LINE
8
Layer 1
10
142.651000
20
28.571200
11
142.651000
21
14.569500
0
LINE
8
Layer 1
10
142.651000
20
14.569500
11
128.650000
21
14.569500
0
LINE
8
Layer 1
10
128.650000
20
14.569500
11
128.650000
21
28.571200
0
LINE
8
Layer 1
10
128.650000
20
42.571900
11
142.651000
21
42.571900
0
LINE
8
Layer 1
10
142.651000
20
42.571900
11
142.651000
21
28.571200
0
LINE
8
Layer 1
10
142.651000
20
28.571200
11
128.650000
21
28.571200
0
LINE
8
Layer 1
10
128.650000
20
28.571200
11
128.650000
21
42.571900
0
LINE
8
Layer 1
10
128.650000
20
56.572800
11
142.651000
21
56.572800
0
LINE
8
Layer 1
10
142.651000
20
56.572800
11
142.651000
21
42.571900
0
LINE
8
Layer 1
10
142.651000
20
42.571900
11
128.650000
21
42.571900
0
LINE
8
Layer 1
10
128.650000
20
42.571900
11
128.650000
21
56.572800
0
LINE
8
Layer 1
10
114.649000
20
70.573500
11
128.650000
21
70.573500
0
LINE
8
Layer 1
10
128.650000
20
70.573500
11
128.650000
21
56.572800
0
LINE
8
Layer 1
10
128.650000
20
56.572800
11
114.649000
21
56.572800
0
LINE
8
Layer 1
10
114.649000
20
56.572800
11
114.649000
21
70.573500
0
LINE
8
Layer 1
10
100.648000
20
70.573500
11
114.649000
21
70.573500
0
LINE
8
Layer 1
10
114.649000
20
70.573500
11
114.649000
21
56.572800
0
LINE
8
Layer 1
10
114.649000
20
56.572800
11
100.648000
21
56.572800
0
LINE
8
Layer 1
10
100.648000
20
56.572800
11
100.648000
21
70.573500
0
LINE
8
Layer 1
10
86.647100
20
70.573500
11
100.648000
21
70.573500
0
LINE
8
Layer 1
10
100.648000
20
70.573500
11
100.648000
21
56.572800
0
LINE
8
Layer 1
10
100.648000
20
56.572800
11
86.647100
21
56.572800
0
LINE
8
Layer 1
10
86.647100
20
56.572800
11
86.647100
21
70.573500
0
LINE
8
Layer 1
10
128.650000
20
84.574400
11
142.651000
21
84.574400
0
LINE
8
Layer 1
10
142.651000
20
84.574400
11
142.651000
21
70.573500
0
LINE
8
Layer 1
10
142.651000
20
70.573500
11
128.650000
21
70.573500
0
LINE
8
Layer 1
10
128.650000
20
70.573500
11
128.650000
21
84.574400
0
LINE
8
Layer 1
10
128.650000
20
98.575100
11
142.651000
21
98.575100
0
LINE
8
Layer 1
10
142.651000
20
98.575100
11
142.651000
21
84.574400
0
LINE
8
Layer 1
10
142.651000
20
84.574400
11
128.650000
21
84.574400
0
LINE
8
Layer 1
10
128.650000
20
84.574400
11
128.650000
21
98.575100
0
LINE
8
Layer 1
10
128.650000
20
112.576000
11
142.651000
21
112.576000
0
LINE
8
Layer 1
10
142.651000
20
112.576000
11
142.651000
21
98.575100
0
LINE
8
Layer 1
10
142.651000
20
98.575100
11
128.650000
21
98.575100
0
LINE
8
Layer 1
10
128.650000
20
98.575100
11
128.650000
21
112.576000
0
LINE
8
Layer 1
10
114.649000
20
126.577000
11
128.650000
21
126.577000
0
LINE
8
Layer 1
10
128.650000
20
126.577000
11
128.650000
21
112.576000
0
LINE
8
Layer 1
10
128.650000
20
112.576000
11
114.649000
21
112.576000
0
LINE
8
Layer 1
10
114.649000
20
112.576000
11
114.649000
21
126.577000
0
LINE
8
Layer 1
10
100.648000
20
126.577000
11
114.649000
21
126.577000
0
LINE
8
Layer 1
10
114.649000
20
126.577000
11
114.649000
21
112.576000
0
LINE
8
Layer 1
10
114.649000
20
112.576000
11
100.648000
21
112.576000
0
LINE
8
Layer 1
10
100.648000
20
112.576000
11
100.648000
21
126.577000
0
LINE
8
Layer 1
10
86.647100
20
126.577000
11
100.648000
21
126.577000
0
LINE
8
Layer 1
10
100.648000
20
126.577000
11
100.648000
21
112.576000
0
LINE
8
Layer 1
10
100.648000
20
112.576000
11
86.647100
21
112.576000
0
LINE
8
Layer 1
10
86.647100
20
112.576000
11
86.647100
21
126.577000
0
LINE
8
Layer 1
10
172.612000
20
28.571200
11
186.613000
21
28.571200
0
LINE
8
Layer 1
10
186.613000
20
28.571200
11
186.613000
21
14.569500
0
LINE
8
Layer 1
10
186.613000
20
14.569500
11
172.612000
21
14.569500
0
LINE
8
Layer 1
10
172.612000
20
14.569500
11
172.612000
21
28.571200
0
LINE
8
Layer 1
10
172.612000
20
42.571900
11
186.613000
21
42.571900
0
LINE
8
Layer 1
10
186.613000
20
42.571900
11
186.613000
21
28.571200
0
LINE
8
Layer 1
10
186.613000
20
28.571200
11
172.612000
21
28.571200
0
LINE
8
Layer 1
10
172.612000
20
28.571200
11
172.612000
21
42.571900
0
LINE
8
Layer 1
10
172.612000
20
56.572800
11
186.613000
21
56.572800
0
LINE
8
Layer 1
10
186.613000
20
56.572800
11
186.613000
21
42.571900
0
LINE
8
Layer 1
10
186.613000
20
42.571900
11
172.612000
21
42.571900
0
LINE
8
Layer 1
10
172.612000
20
42.571900
11
172.612000
21
56.572800
0
LINE
8
Layer 1
10
172.612000
20
84.574400
11
186.613000
21
84.574400
0
LINE
8
Layer 1
10
186.613000
20
84.574400
11
186.613000
21
70.573500
0
LINE
8
Layer 1
10
186.613000
20
70.573500
11
172.612000
21
70.573500
0
LINE
8
Layer 1
10
172.612000
20
70.573500
11
172.612000
21
84.574400
0
LINE
8
Layer 1
10
172.612000
20
98.575100
11
186.613000
21
98.575100
0
LINE
8
Layer 1
10
186.613000
20
98.575100
11
186.613000
21
84.574400
0
LINE
8
Layer 1
10
186.613000
20
84.574400
11
172.612000
21
84.574400
0
LINE
8
Layer 1
10
172.612000
20
84.574400
11
172.612000
21
98.575100
0
LINE
8
Layer 1
10
172.612000
20
112.576000
11
186.613000
21
112.576000
0
LINE
8
Layer 1
10
186.613000
20
112.576000
11
186.613000
21
98.575100
0
LINE
8
Layer 1
10
186.613000
20
98.575100
11
172.612000
21
98.575100
0
LINE
8
Layer 1
10
172.612000
20
98.575100
11
172.612000
21
112.576000
 0 
ENDSEC
 0 
EOF