999
"DXF R12 Output" (www.mydxf.blogspot.com)
 0 
SECTION
 2 
HEADER
 9 
$ACADVER
 1 
AC1009
 9 
$EXTMIN
 10 
 0 
 20 
 0 
 9 
$EXTMAX
 10 
 8.5 
 20 
 11 
 0 
ENDSEC
 0 
SECTION
 2 
ENTITIES
0
LINE
8
Layer 1
10
0.793749
20
127.621000
11
-0.793749
21
126.033000
0
LINE
8
Layer 1
10
0.000000
20
128.150000
11
0.000000
21
125.504000
0
LINE
8
Layer 1
10
2.116660
20
125.769000
11
1.058330
21
124.710670
0
LINE
8
Layer 1
10
1.587500
20
126.298000
11
0.529170
21
125.239670
0
LINE
8
Layer 1
10
1.058330
20
126.827000
11
0.000000
21
125.768670
0
LINE
8
Layer 1
10
42.503400
20
28.151600
11
56.546300
21
28.151600
0
LINE
8
Layer 1
10
56.546300
20
28.151600
11
56.546300
21
14.108600
0
LINE
8
Layer 1
10
56.546300
20
14.108600
11
42.503400
21
14.108600
0
LINE
8
Layer 1
10
42.503400
20
14.108600
11
42.503400
21
28.151600
0
LINE
8
Layer 1
10
42.503400
20
42.194600
11
56.546300
21
42.194600
0
LINE
8
Layer 1
10
56.546300
20
42.194600
11
56.546300
21
28.151600
0
LINE
8
Layer 1
10
56.546300
20
28.151600
11
42.503400
21
28.151600
0
LINE
8
Layer 1
10
42.503400
20
28.151600
11
42.503400
21
42.194600
0
LINE
8
Layer 1
10
42.503400
20
56.237600
11
56.546300
21
56.237600
0
LINE
8
Layer 1
10
56.546300
20
56.237600
11
56.546300
21
42.194600
0
LINE
8
Layer 1
10
56.546300
20
42.194600
11
42.503400
21
42.194600
0
LINE
8
Layer 1
10
42.503400
20
42.194600
11
42.503400
21
56.237600
0
LINE
8
Layer 1
10
42.503400
20
84.323500
11
56.546300
21
84.323500
0
LINE
8
Layer 1
10
56.546300
20
84.323500
11
56.546300
21
70.280500
0
LINE
8
Layer 1
10
56.546300
20
70.280500
11
42.503400
21
70.280500
0
LINE
8
Layer 1
10
42.503400
20
70.280500
11
42.503400
21
84.323500
0
LINE
8
Layer 1
10
42.503400
20
98.366500
11
56.546300
21
98.366500
0
LINE
8
Layer 1
10
56.546300
20
98.366500
11
56.546300
21
84.323500
0
LINE
8
Layer 1
10
56.546300
20
84.323500
11
42.503400
21
84.323500
0
LINE
8
Layer 1
10
42.503400
20
84.323500
11
42.503400
21
98.366500
0
LINE
8
Layer 1
10
42.503400
20
112.410000
11
56.546300
21
112.410000
0
LINE
8
Layer 1
10
56.546300
20
112.410000
11
56.546300
21
98.366500
0
LINE
8
Layer 1
10
56.546300
20
98.366500
11
42.503400
21
98.366500
0
LINE
8
Layer 1
10
42.503400
20
98.366500
11
42.503400
21
112.410000
0
LINE
8
Layer 1
10
28.460500
20
126.453000
11
42.503400
21
126.453000
0
LINE
8
Layer 1
10
42.503400
20
126.453000
11
42.503400
21
112.410000
0
LINE
8
Layer 1
10
42.503400
20
112.410000
11
28.460500
21
112.410000
0
LINE
8
Layer 1
10
28.460500
20
112.410000
11
28.460500
21
126.453000
0
LINE
8
Layer 1
10
14.417500
20
126.453000
11
28.460500
21
126.453000
0
LINE
8
Layer 1
10
28.460500
20
126.453000
11
28.460500
21
112.410000
0
LINE
8
Layer 1
10
28.460500
20
112.410000
11
14.417500
21
112.410000
0
LINE
8
Layer 1
10
14.417500
20
112.410000
11
14.417500
21
126.453000
0
LINE
8
Layer 1
10
0.374480
20
126.453000
11
14.417500
21
126.453000
0
LINE
8
Layer 1
10
14.417500
20
126.453000
11
14.417500
21
112.410000
0
LINE
8
Layer 1
10
14.417500
20
112.410000
11
0.374480
21
112.410000
0
LINE
8
Layer 1
10
0.374480
20
112.410000
11
0.374480
21
126.453000
0
LINE
8
Layer 1
10
128.727000
20
14.108600
11
142.770000
21
14.108600
0
LINE
8
Layer 1
10
142.770000
20
14.108600
11
142.770000
21
0.065560
0
LINE
8
Layer 1
10
142.770000
20
0.065560
11
128.727000
21
0.065560
0
LINE
8
Layer 1
10
128.727000
20
0.065560
11
128.727000
21
14.108600
0
LINE
8
Layer 1
10
114.684000
20
14.108600
11
128.727000
21
14.108600
0
LINE
8
Layer 1
10
128.727000
20
14.108600
11
128.727000
21
0.065560
0
LINE
8
Layer 1
10
128.727000
20
0.065560
11
114.684000
21
0.065560
0
LINE
8
Layer 1
10
114.684000
20
0.065560
11
114.684000
21
14.108600
0
LINE
8
Layer 1
10
100.641000
20
14.108600
11
114.684000
21
14.108600
0
LINE
8
Layer 1
10
114.684000
20
14.108600
11
114.684000
21
0.065560
0
LINE
8
Layer 1
10
114.684000
20
0.065560
11
100.641000
21
0.065560
0
LINE
8
Layer 1
10
100.641000
20
0.065560
11
100.641000
21
14.108600
0
LINE
8
Layer 1
10
142.770000
20
28.151600
11
156.813000
21
28.151600
0
LINE
8
Layer 1
10
156.813000
20
28.151600
11
156.813000
21
14.108600
0
LINE
8
Layer 1
10
156.813000
20
14.108600
11
142.770000
21
14.108600
0
LINE
8
Layer 1
10
142.770000
20
14.108600
11
142.770000
21
28.151600
0
LINE
8
Layer 1
10
142.770000
20
42.194600
11
156.813000
21
42.194600
0
LINE
8
Layer 1
10
156.813000
20
42.194600
11
156.813000
21
28.151600
0
LINE
8
Layer 1
10
156.813000
20
28.151600
11
142.770000
21
28.151600
0
LINE
8
Layer 1
10
142.770000
20
28.151600
11
142.770000
21
42.194600
0
LINE
8
Layer 1
10
142.770000
20
56.237600
11
156.813000
21
56.237600
0
LINE
8
Layer 1
10
156.813000
20
56.237600
11
156.813000
21
42.194600
0
LINE
8
Layer 1
10
156.813000
20
42.194600
11
142.770000
21
42.194600
0
LINE
8
Layer 1
10
142.770000
20
42.194600
11
142.770000
21
56.237600
0
LINE
8
Layer 1
10
128.727000
20
70.280500
11
142.770000
21
70.280500
0
LINE
8
Layer 1
10
142.770000
20
70.280500
11
142.770000
21
56.237600
0
LINE
8
Layer 1
10
142.770000
20
56.237600
11
128.727000
21
56.237600
0
LINE
8
Layer 1
10
128.727000
20
56.237600
11
128.727000
21
70.280500
0
LINE
8
Layer 1
10
114.684000
20
70.280500
11
128.727000
21
70.280500
0
LINE
8
Layer 1
10
128.727000
20
70.280500
11
128.727000
21
56.237600
0
LINE
8
Layer 1
10
128.727000
20
56.237600
11
114.684000
21
56.237600
0
LINE
8
Layer 1
10
114.684000
20
56.237600
11
114.684000
21
70.280500
0
LINE
8
Layer 1
10
100.641000
20
70.280500
11
114.684000
21
70.280500
0
LINE
8
Layer 1
10
114.684000
20
70.280500
11
114.684000
21
56.237600
0
LINE
8
Layer 1
10
114.684000
20
56.237600
11
100.641000
21
56.237600
0
LINE
8
Layer 1
10
100.641000
20
56.237600
11
100.641000
21
70.280500
0
LINE
8
Layer 1
10
142.770000
20
84.323500
11
156.813000
21
84.323500
0
LINE
8
Layer 1
10
156.813000
20
84.323500
11
156.813000
21
70.280500
0
LINE
8
Layer 1
10
156.813000
20
70.280500
11
142.770000
21
70.280500
0
LINE
8
Layer 1
10
142.770000
20
70.280500
11
142.770000
21
84.323500
0
LINE
8
Layer 1
10
86.598500
20
84.323500
11
100.641000
21
84.323500
0
LINE
8
Layer 1
10
100.641000
20
84.323500
11
100.641000
21
70.280500
0
LINE
8
Layer 1
10
100.641000
20
70.280500
11
86.598500
21
70.280500
0
LINE
8
Layer 1
10
86.598500
20
70.280500
11
86.598500
21
84.323500
0
LINE
8
Layer 1
10
142.770000
20
98.366500
11
156.813000
21
98.366500
0
LINE
8
Layer 1
10
156.813000
20
98.366500
11
156.813000
21
84.323500
0
LINE
8
Layer 1
10
156.813000
20
84.323500
11
142.770000
21
84.323500
0
LINE
8
Layer 1
10
142.770000
20
84.323500
11
142.770000
21
98.366500
0
LINE
8
Layer 1
10
86.598500
20
98.366500
11
100.641000
21
98.366500
0
LINE
8
Layer 1
10
100.641000
20
98.366500
11
100.641000
21
84.323500
0
LINE
8
Layer 1
10
100.641000
20
84.323500
11
86.598500
21
84.323500
0
LINE
8
Layer 1
10
86.598500
20
84.323500
11
86.598500
21
98.366500
0
LINE
8
Layer 1
10
142.770000
20
112.410000
11
156.813000
21
112.410000
0
LINE
8
Layer 1
10
156.813000
20
112.410000
11
156.813000
21
98.366500
0
LINE
8
Layer 1
10
156.813000
20
98.366500
11
142.770000
21
98.366500
0
LINE
8
Layer 1
10
142.770000
20
98.366500
11
142.770000
21
112.410000
0
LINE
8
Layer 1
10
86.598500
20
112.410000
11
100.641000
21
112.410000
0
LINE
8
Layer 1
10
100.641000
20
112.410000
11
100.641000
21
98.366500
0
LINE
8
Layer 1
10
100.641000
20
98.366500
11
86.598500
21
98.366500
0
LINE
8
Layer 1
10
86.598500
20
98.366500
11
86.598500
21
112.410000
0
LINE
8
Layer 1
10
128.727000
20
126.453000
11
142.770000
21
126.453000
0
LINE
8
Layer 1
10
142.770000
20
126.453000
11
142.770000
21
112.410000
0
LINE
8
Layer 1
10
142.770000
20
112.410000
11
128.727000
21
112.410000
0
LINE
8
Layer 1
10
128.727000
20
112.410000
11
128.727000
21
126.453000
0
LINE
8
Layer 1
10
114.684000
20
126.453000
11
128.727000
21
126.453000
0
LINE
8
Layer 1
10
128.727000
20
126.453000
11
128.727000
21
112.410000
0
LINE
8
Layer 1
10
128.727000
20
112.410000
11
114.684000
21
112.410000
0
LINE
8
Layer 1
10
114.684000
20
112.410000
11
114.684000
21
126.453000
0
LINE
8
Layer 1
10
100.641000
20
126.453000
11
114.684000
21
126.453000
0
LINE
8
Layer 1
10
114.684000
20
126.453000
11
114.684000
21
112.410000
0
LINE
8
Layer 1
10
114.684000
20
112.410000
11
100.641000
21
112.410000
0
LINE
8
Layer 1
10
100.641000
20
112.410000
11
100.641000
21
126.453000
0
LINE
8
Layer 1
10
214.951000
20
14.108600
11
228.994000
21
14.108600
0
LINE
8
Layer 1
10
228.994000
20
14.108600
11
228.994000
21
0.065560
0
LINE
8
Layer 1
10
228.994000
20
0.065560
11
214.951000
21
0.065560
0
LINE
8
Layer 1
10
214.951000
20
0.065560
11
214.951000
21
14.108600
0
LINE
8
Layer 1
10
200.908000
20
14.108600
11
214.951000
21
14.108600
0
LINE
8
Layer 1
10
214.951000
20
14.108600
11
214.951000
21
0.065560
0
LINE
8
Layer 1
10
214.951000
20
0.065560
11
200.908000
21
0.065560
0
LINE
8
Layer 1
10
200.908000
20
0.065560
11
200.908000
21
14.108600
0
LINE
8
Layer 1
10
186.865000
20
14.108600
11
200.908000
21
14.108600
0
LINE
8
Layer 1
10
200.908000
20
14.108600
11
200.908000
21
0.065560
0
LINE
8
Layer 1
10
200.908000
20
0.065560
11
186.865000
21
0.065560
0
LINE
8
Layer 1
10
186.865000
20
0.065560
11
186.865000
21
14.108600
0
LINE
8
Layer 1
10
228.994000
20
28.151600
11
243.037000
21
28.151600
0
LINE
8
Layer 1
10
243.037000
20
28.151600
11
243.037000
21
14.108600
0
LINE
8
Layer 1
10
243.037000
20
14.108600
11
228.994000
21
14.108600
0
LINE
8
Layer 1
10
228.994000
20
14.108600
11
228.994000
21
28.151600
0
LINE
8
Layer 1
10
172.822000
20
28.151600
11
186.865000
21
28.151600
0
LINE
8
Layer 1
10
186.865000
20
28.151600
11
186.865000
21
14.108600
0
LINE
8
Layer 1
10
186.865000
20
14.108600
11
172.822000
21
14.108600
0
LINE
8
Layer 1
10
172.822000
20
14.108600
11
172.822000
21
28.151600
0
LINE
8
Layer 1
10
228.994000
20
42.194600
11
243.037000
21
42.194600
0
LINE
8
Layer 1
10
243.037000
20
42.194600
11
243.037000
21
28.151600
0
LINE
8
Layer 1
10
243.037000
20
28.151600
11
228.994000
21
28.151600
0
LINE
8
Layer 1
10
228.994000
20
28.151600
11
228.994000
21
42.194600
0
LINE
8
Layer 1
10
172.822000
20
42.194600
11
186.865000
21
42.194600
0
LINE
8
Layer 1
10
186.865000
20
42.194600
11
186.865000
21
28.151600
0
LINE
8
Layer 1
10
186.865000
20
28.151600
11
172.822000
21
28.151600
0
LINE
8
Layer 1
10
172.822000
20
28.151600
11
172.822000
21
42.194600
0
LINE
8
Layer 1
10
228.994000
20
56.237600
11
243.037000
21
56.237600
0
LINE
8
Layer 1
10
243.037000
20
56.237600
11
243.037000
21
42.194600
0
LINE
8
Layer 1
10
243.037000
20
42.194600
11
228.994000
21
42.194600
0
LINE
8
Layer 1
10
228.994000
20
42.194600
11
228.994000
21
56.237600
0
LINE
8
Layer 1
10
172.822000
20
56.237600
11
186.865000
21
56.237600
0
LINE
8
Layer 1
10
186.865000
20
56.237600
11
186.865000
21
42.194600
0
LINE
8
Layer 1
10
186.865000
20
42.194600
11
172.822000
21
42.194600
0
LINE
8
Layer 1
10
172.822000
20
42.194600
11
172.822000
21
56.237600
0
LINE
8
Layer 1
10
228.994000
20
84.323500
11
243.037000
21
84.323500
0
LINE
8
Layer 1
10
243.037000
20
84.323500
11
243.037000
21
70.280500
0
LINE
8
Layer 1
10
243.037000
20
70.280500
11
228.994000
21
70.280500
0
LINE
8
Layer 1
10
228.994000
20
70.280500
11
228.994000
21
84.323500
0
LINE
8
Layer 1
10
172.822000
20
84.323500
11
186.865000
21
84.323500
0
LINE
8
Layer 1
10
186.865000
20
84.323500
11
186.865000
21
70.280500
0
LINE
8
Layer 1
10
186.865000
20
70.280500
11
172.822000
21
70.280500
0
LINE
8
Layer 1
10
172.822000
20
70.280500
11
172.822000
21
84.323500
0
LINE
8
Layer 1
10
228.994000
20
98.366500
11
243.037000
21
98.366500
0
LINE
8
Layer 1
10
243.037000
20
98.366500
11
243.037000
21
84.323500
0
LINE
8
Layer 1
10
243.037000
20
84.323500
11
228.994000
21
84.323500
0
LINE
8
Layer 1
10
228.994000
20
84.323500
11
228.994000
21
98.366500
0
LINE
8
Layer 1
10
172.822000
20
98.366500
11
186.865000
21
98.366500
0
LINE
8
Layer 1
10
186.865000
20
98.366500
11
186.865000
21
84.323500
0
LINE
8
Layer 1
10
186.865000
20
84.323500
11
172.822000
21
84.323500
0
LINE
8
Layer 1
10
172.822000
20
84.323500
11
172.822000
21
98.366500
0
LINE
8
Layer 1
10
228.994000
20
112.410000
11
243.037000
21
112.410000
0
LINE
8
Layer 1
10
243.037000
20
112.410000
11
243.037000
21
98.366500
0
LINE
8
Layer 1
10
243.037000
20
98.366500
11
228.994000
21
98.366500
0
LINE
8
Layer 1
10
228.994000
20
98.366500
11
228.994000
21
112.410000
0
LINE
8
Layer 1
10
172.822000
20
112.410000
11
186.865000
21
112.410000
0
LINE
8
Layer 1
10
186.865000
20
112.410000
11
186.865000
21
98.366500
0
LINE
8
Layer 1
10
186.865000
20
98.366500
11
172.822000
21
98.366500
0
LINE
8
Layer 1
10
172.822000
20
98.366500
11
172.822000
21
112.410000
0
LINE
8
Layer 1
10
214.951000
20
126.453000
11
228.994000
21
126.453000
0
LINE
8
Layer 1
10
228.994000
20
126.453000
11
228.994000
21
112.410000
0
LINE
8
Layer 1
10
228.994000
20
112.410000
11
214.951000
21
112.410000
0
LINE
8
Layer 1
10
214.951000
20
112.410000
11
214.951000
21
126.453000
0
LINE
8
Layer 1
10
200.908000
20
126.453000
11
214.951000
21
126.453000
0
LINE
8
Layer 1
10
214.951000
20
126.453000
11
214.951000
21
112.410000
0
LINE
8
Layer 1
10
214.951000
20
112.410000
11
200.908000
21
112.410000
0
LINE
8
Layer 1
10
200.908000
20
112.410000
11
200.908000
21
126.453000
0
LINE
8
Layer 1
10
186.865000
20
126.453000
11
200.908000
21
126.453000
0
LINE
8
Layer 1
10
200.908000
20
126.453000
11
200.908000
21
112.410000
0
LINE
8
Layer 1
10
200.908000
20
112.410000
11
186.865000
21
112.410000
0
LINE
8
Layer 1
10
186.865000
20
112.410000
11
186.865000
21
126.453000
 0 
ENDSEC
 0 
EOF