999
"DXF R12 Output" (www.mydxf.blogspot.com)
 0 
SECTION
 2 
HEADER
 9 
$ACADVER
 1 
AC1009
 9 
$EXTMIN
 10 
 0 
 20 
 0 
 9 
$EXTMAX
 10 
 8.5 
 20 
 11 
 0 
ENDSEC
 0 
SECTION
 2 
ENTITIES
0
LINE
8
Layer 1
10
0.793749
20
127.621000
11
-0.793749
21
126.033000
0
LINE
8
Layer 1
10
0.000000
20
128.150000
11
0.000000
21
125.504000
0
LINE
8
Layer 1
10
2.116660
20
125.769000
11
1.058330
21
124.710670
0
LINE
8
Layer 1
10
1.587500
20
126.298000
11
0.529170
21
125.239670
0
LINE
8
Layer 1
10
1.058330
20
126.827000
11
0.000000
21
125.768670
0
LINE
8
Layer 1
10
42.587600
20
28.324800
11
49.623200
21
28.324800
0
LINE
8
Layer 1
10
49.623200
20
28.324800
11
56.658500
21
28.324800
0
LINE
8
Layer 1
10
56.658500
20
28.324800
11
56.658500
21
21.319400
0
LINE
8
Layer 1
10
56.658500
20
21.319400
11
56.658500
21
14.306600
0
LINE
8
Layer 1
10
56.658500
20
14.306600
11
49.623200
21
14.306600
0
LINE
8
Layer 1
10
49.623200
20
14.306600
11
42.587600
21
14.306600
0
LINE
8
Layer 1
10
42.587600
20
14.306600
11
42.587600
21
21.319400
0
LINE
8
Layer 1
10
42.587600
20
21.319400
11
42.587600
21
28.324800
0
LINE
8
Layer 1
10
42.587600
20
42.343100
11
49.623200
21
42.343100
0
LINE
8
Layer 1
10
49.623200
20
42.343100
11
56.658500
21
42.343100
0
LINE
8
Layer 1
10
56.658500
20
42.343100
11
56.658500
21
35.337700
0
LINE
8
Layer 1
10
56.658500
20
35.337700
11
56.658500
21
28.324800
0
LINE
8
Layer 1
10
56.658500
20
28.324800
11
49.623200
21
28.324800
0
LINE
8
Layer 1
10
49.623200
20
28.324800
11
42.587600
21
28.324800
0
LINE
8
Layer 1
10
42.587600
20
28.324800
11
42.587600
21
35.337700
0
LINE
8
Layer 1
10
42.587600
20
35.337700
11
42.587600
21
42.343100
0
LINE
8
Layer 1
10
42.587600
20
56.361300
11
49.623200
21
56.361300
0
LINE
8
Layer 1
10
49.623200
20
56.361300
11
56.658500
21
56.361300
0
LINE
8
Layer 1
10
56.658500
20
56.361300
11
56.658500
21
49.355900
0
LINE
8
Layer 1
10
56.658500
20
49.355900
11
56.658500
21
42.343100
0
LINE
8
Layer 1
10
56.658500
20
42.343100
11
49.623200
21
42.343100
0
LINE
8
Layer 1
10
49.623200
20
42.343100
11
42.587600
21
42.343100
0
LINE
8
Layer 1
10
42.587600
20
42.343100
11
42.587600
21
49.355900
0
LINE
8
Layer 1
10
42.587600
20
49.355900
11
42.587600
21
56.361300
0
LINE
8
Layer 1
10
42.587600
20
84.397800
11
49.623200
21
84.397800
0
LINE
8
Layer 1
10
49.623200
20
84.397800
11
56.658500
21
84.397800
0
LINE
8
Layer 1
10
56.658500
20
84.397800
11
56.658500
21
77.392400
0
LINE
8
Layer 1
10
56.658500
20
77.392400
11
56.658500
21
70.379500
0
LINE
8
Layer 1
10
56.658500
20
70.379500
11
49.623200
21
70.379500
0
LINE
8
Layer 1
10
49.623200
20
70.379500
11
42.587600
21
70.379500
0
LINE
8
Layer 1
10
42.587600
20
70.379500
11
42.587600
21
77.392400
0
LINE
8
Layer 1
10
42.587600
20
77.392400
11
42.587600
21
84.397800
0
LINE
8
Layer 1
10
42.587600
20
98.416000
11
49.623200
21
98.416000
0
LINE
8
Layer 1
10
49.623200
20
98.416000
11
56.658500
21
98.416000
0
LINE
8
Layer 1
10
56.658500
20
98.416000
11
56.658500
21
91.410600
0
LINE
8
Layer 1
10
56.658500
20
91.410600
11
56.658500
21
84.397800
0
LINE
8
Layer 1
10
56.658500
20
84.397800
11
49.623200
21
84.397800
0
LINE
8
Layer 1
10
49.623200
20
84.397800
11
42.587600
21
84.397800
0
LINE
8
Layer 1
10
42.587600
20
84.397800
11
42.587600
21
91.410600
0
LINE
8
Layer 1
10
42.587600
20
91.410600
11
42.587600
21
98.416000
0
LINE
8
Layer 1
10
42.587600
20
112.434000
11
49.623200
21
112.434000
0
LINE
8
Layer 1
10
49.623200
20
112.434000
11
56.658500
21
112.434000
0
LINE
8
Layer 1
10
56.658500
20
112.434000
11
56.658500
21
105.425000
0
LINE
8
Layer 1
10
56.658500
20
105.425000
11
56.658500
21
98.416000
0
LINE
8
Layer 1
10
56.658500
20
98.416000
11
49.623200
21
98.416000
0
LINE
8
Layer 1
10
49.623200
20
98.416000
11
42.587600
21
98.416000
0
LINE
8
Layer 1
10
42.587600
20
98.416000
11
42.587600
21
105.425000
0
LINE
8
Layer 1
10
42.587600
20
105.425000
11
42.587600
21
112.434000
0
LINE
8
Layer 1
10
28.516600
20
126.452000
11
35.552000
21
126.452000
0
LINE
8
Layer 1
10
35.552000
20
126.452000
11
42.587600
21
126.452000
0
LINE
8
Layer 1
10
42.587600
20
126.452000
11
42.587600
21
119.443000
0
LINE
8
Layer 1
10
42.587600
20
119.443000
11
42.587600
21
112.434000
0
LINE
8
Layer 1
10
42.587600
20
112.434000
11
35.552000
21
112.434000
0
LINE
8
Layer 1
10
35.552000
20
112.434000
11
28.516600
21
112.434000
0
LINE
8
Layer 1
10
28.516600
20
112.434000
11
28.516600
21
119.443000
0
LINE
8
Layer 1
10
28.516600
20
119.443000
11
28.516600
21
126.452000
0
LINE
8
Layer 1
10
14.445500
20
126.452000
11
21.481100
21
126.452000
0
LINE
8
Layer 1
10
21.481100
20
126.452000
11
28.516600
21
126.452000
0
LINE
8
Layer 1
10
28.516600
20
126.452000
11
28.516600
21
119.443000
0
LINE
8
Layer 1
10
28.516600
20
119.443000
11
28.516600
21
112.434000
0
LINE
8
Layer 1
10
28.516600
20
112.434000
11
21.481100
21
112.434000
0
LINE
8
Layer 1
10
21.481100
20
112.434000
11
14.445500
21
112.434000
0
LINE
8
Layer 1
10
14.445500
20
112.434000
11
14.445500
21
119.443000
0
LINE
8
Layer 1
10
14.445500
20
119.443000
11
14.445500
21
126.452000
0
LINE
8
Layer 1
10
0.374523
20
126.452000
11
7.410130
21
126.452000
0
LINE
8
Layer 1
10
7.410130
20
126.452000
11
14.445500
21
126.452000
0
LINE
8
Layer 1
10
14.445500
20
126.452000
11
14.445500
21
119.443000
0
LINE
8
Layer 1
10
14.445500
20
119.443000
11
14.445500
21
112.434000
0
LINE
8
Layer 1
10
14.445500
20
112.434000
11
7.410130
21
112.434000
0
LINE
8
Layer 1
10
7.410130
20
112.434000
11
0.374523
21
112.434000
0
LINE
8
Layer 1
10
0.374523
20
112.434000
11
0.374523
21
119.443000
0
LINE
8
Layer 1
10
0.374523
20
119.443000
11
0.374523
21
126.452000
0
LINE
8
Layer 1
10
128.984000
20
14.306600
11
136.019000
21
14.306600
0
LINE
8
Layer 1
10
136.019000
20
14.306600
11
143.055000
21
14.306600
0
LINE
8
Layer 1
10
143.055000
20
14.306600
11
143.055000
21
7.301240
0
LINE
8
Layer 1
10
143.055000
20
7.301240
11
143.055000
21
0.288365
0
LINE
8
Layer 1
10
143.055000
20
0.288365
11
136.019000
21
0.288365
0
LINE
8
Layer 1
10
136.019000
20
0.288365
11
128.984000
21
0.288365
0
LINE
8
Layer 1
10
128.984000
20
0.288365
11
128.984000
21
7.301240
0
LINE
8
Layer 1
10
128.984000
20
7.301240
11
128.984000
21
14.306600
0
LINE
8
Layer 1
10
114.913000
20
14.306600
11
121.948000
21
14.306600
0
LINE
8
Layer 1
10
121.948000
20
14.306600
11
128.984000
21
14.306600
0
LINE
8
Layer 1
10
128.984000
20
14.306600
11
128.984000
21
7.301240
0
LINE
8
Layer 1
10
128.984000
20
7.301240
11
128.984000
21
0.288365
0
LINE
8
Layer 1
10
128.984000
20
0.288365
11
121.948000
21
0.288365
0
LINE
8
Layer 1
10
121.948000
20
0.288365
11
114.913000
21
0.288365
0
LINE
8
Layer 1
10
114.913000
20
0.288365
11
114.913000
21
7.301240
0
LINE
8
Layer 1
10
114.913000
20
7.301240
11
114.913000
21
14.306600
0
LINE
8
Layer 1
10
100.842000
20
14.306600
11
107.877000
21
14.306600
0
LINE
8
Layer 1
10
107.877000
20
14.306600
11
114.913000
21
14.306600
0
LINE
8
Layer 1
10
114.913000
20
14.306600
11
114.913000
21
7.301240
0
LINE
8
Layer 1
10
114.913000
20
7.301240
11
114.913000
21
0.288365
0
LINE
8
Layer 1
10
114.913000
20
0.288365
11
107.877000
21
0.288365
0
LINE
8
Layer 1
10
107.877000
20
0.288365
11
100.842000
21
0.288365
0
LINE
8
Layer 1
10
100.842000
20
0.288365
11
100.842000
21
7.301240
0
LINE
8
Layer 1
10
100.842000
20
7.301240
11
100.842000
21
14.306600
0
LINE
8
Layer 1
10
143.055000
20
28.324800
11
150.090000
21
28.324800
0
LINE
8
Layer 1
10
150.090000
20
28.324800
11
157.126000
21
28.324800
0
LINE
8
Layer 1
10
157.126000
20
28.324800
11
157.126000
21
21.319400
0
LINE
8
Layer 1
10
157.126000
20
21.319400
11
157.126000
21
14.306600
0
LINE
8
Layer 1
10
157.126000
20
14.306600
11
150.090000
21
14.306600
0
LINE
8
Layer 1
10
150.090000
20
14.306600
11
143.055000
21
14.306600
0
LINE
8
Layer 1
10
143.055000
20
14.306600
11
143.055000
21
21.319400
0
LINE
8
Layer 1
10
143.055000
20
21.319400
11
143.055000
21
28.324800
0
LINE
8
Layer 1
10
143.055000
20
42.343100
11
150.090000
21
42.343100
0
LINE
8
Layer 1
10
150.090000
20
42.343100
11
157.126000
21
42.343100
0
LINE
8
Layer 1
10
157.126000
20
42.343100
11
157.126000
21
35.337700
0
LINE
8
Layer 1
10
157.126000
20
35.337700
11
157.126000
21
28.324800
0
LINE
8
Layer 1
10
157.126000
20
28.324800
11
150.090000
21
28.324800
0
LINE
8
Layer 1
10
150.090000
20
28.324800
11
143.055000
21
28.324800
0
LINE
8
Layer 1
10
143.055000
20
28.324800
11
143.055000
21
35.337700
0
LINE
8
Layer 1
10
143.055000
20
35.337700
11
143.055000
21
42.343100
0
LINE
8
Layer 1
10
143.055000
20
56.361300
11
150.090000
21
56.361300
0
LINE
8
Layer 1
10
150.090000
20
56.361300
11
157.126000
21
56.361300
0
LINE
8
Layer 1
10
157.126000
20
56.361300
11
157.126000
21
49.355900
0
LINE
8
Layer 1
10
157.126000
20
49.355900
11
157.126000
21
42.343100
0
LINE
8
Layer 1
10
157.126000
20
42.343100
11
150.090000
21
42.343100
0
LINE
8
Layer 1
10
150.090000
20
42.343100
11
143.055000
21
42.343100
0
LINE
8
Layer 1
10
143.055000
20
42.343100
11
143.055000
21
49.355900
0
LINE
8
Layer 1
10
143.055000
20
49.355900
11
143.055000
21
56.361300
0
LINE
8
Layer 1
10
128.984000
20
70.379500
11
136.019000
21
70.379500
0
LINE
8
Layer 1
10
136.019000
20
70.379500
11
143.055000
21
70.379500
0
LINE
8
Layer 1
10
143.055000
20
70.379500
11
143.055000
21
63.374100
0
LINE
8
Layer 1
10
143.055000
20
63.374100
11
143.055000
21
56.361300
0
LINE
8
Layer 1
10
143.055000
20
56.361300
11
136.019000
21
56.361300
0
LINE
8
Layer 1
10
136.019000
20
56.361300
11
128.984000
21
56.361300
0
LINE
8
Layer 1
10
128.984000
20
56.361300
11
128.984000
21
63.374100
0
LINE
8
Layer 1
10
128.984000
20
63.374100
11
128.984000
21
70.379500
0
LINE
8
Layer 1
10
114.913000
20
70.379500
11
121.948000
21
70.379500
0
LINE
8
Layer 1
10
121.948000
20
70.379500
11
128.984000
21
70.379500
0
LINE
8
Layer 1
10
128.984000
20
70.379500
11
128.984000
21
63.374100
0
LINE
8
Layer 1
10
128.984000
20
63.374100
11
128.984000
21
56.361300
0
LINE
8
Layer 1
10
128.984000
20
56.361300
11
121.948000
21
56.361300
0
LINE
8
Layer 1
10
121.948000
20
56.361300
11
114.913000
21
56.361300
0
LINE
8
Layer 1
10
114.913000
20
56.361300
11
114.913000
21
63.374100
0
LINE
8
Layer 1
10
114.913000
20
63.374100
11
114.913000
21
70.379500
0
LINE
8
Layer 1
10
100.842000
20
70.379500
11
107.877000
21
70.379500
0
LINE
8
Layer 1
10
107.877000
20
70.379500
11
114.913000
21
70.379500
0
LINE
8
Layer 1
10
114.913000
20
70.379500
11
114.913000
21
63.374100
0
LINE
8
Layer 1
10
114.913000
20
63.374100
11
114.913000
21
56.361300
0
LINE
8
Layer 1
10
114.913000
20
56.361300
11
107.877000
21
56.361300
0
LINE
8
Layer 1
10
107.877000
20
56.361300
11
100.842000
21
56.361300
0
LINE
8
Layer 1
10
100.842000
20
56.361300
11
100.842000
21
63.374100
0
LINE
8
Layer 1
10
100.842000
20
63.374100
11
100.842000
21
70.379500
0
LINE
8
Layer 1
10
143.055000
20
84.397800
11
150.090000
21
84.397800
0
LINE
8
Layer 1
10
150.090000
20
84.397800
11
157.126000
21
84.397800
0
LINE
8
Layer 1
10
157.126000
20
84.397800
11
157.126000
21
77.392400
0
LINE
8
Layer 1
10
157.126000
20
77.392400
11
157.126000
21
70.379500
0
LINE
8
Layer 1
10
157.126000
20
70.379500
11
150.090000
21
70.379500
0
LINE
8
Layer 1
10
150.090000
20
70.379500
11
143.055000
21
70.379500
0
LINE
8
Layer 1
10
143.055000
20
70.379500
11
143.055000
21
77.392400
0
LINE
8
Layer 1
10
143.055000
20
77.392400
11
143.055000
21
84.397800
0
LINE
8
Layer 1
10
86.770700
20
84.397800
11
93.806200
21
84.397800
0
LINE
8
Layer 1
10
93.806200
20
84.397800
11
100.842000
21
84.397800
0
LINE
8
Layer 1
10
100.842000
20
84.397800
11
100.842000
21
77.392400
0
LINE
8
Layer 1
10
100.842000
20
77.392400
11
100.842000
21
70.379500
0
LINE
8
Layer 1
10
100.842000
20
70.379500
11
93.806200
21
70.379500
0
LINE
8
Layer 1
10
93.806200
20
70.379500
11
86.770700
21
70.379500
0
LINE
8
Layer 1
10
86.770700
20
70.379500
11
86.770700
21
77.392400
0
LINE
8
Layer 1
10
86.770700
20
77.392400
11
86.770700
21
84.397800
0
LINE
8
Layer 1
10
143.055000
20
98.416000
11
150.090000
21
98.416000
0
LINE
8
Layer 1
10
150.090000
20
98.416000
11
157.126000
21
98.416000
0
LINE
8
Layer 1
10
157.126000
20
98.416000
11
157.126000
21
91.410600
0
LINE
8
Layer 1
10
157.126000
20
91.410600
11
157.126000
21
84.397800
0
LINE
8
Layer 1
10
157.126000
20
84.397800
11
150.090000
21
84.397800
0
LINE
8
Layer 1
10
150.090000
20
84.397800
11
143.055000
21
84.397800
0
LINE
8
Layer 1
10
143.055000
20
84.397800
11
143.055000
21
91.410600
0
LINE
8
Layer 1
10
143.055000
20
91.410600
11
143.055000
21
98.416000
0
LINE
8
Layer 1
10
86.770700
20
98.416000
11
93.806200
21
98.416000
0
LINE
8
Layer 1
10
93.806200
20
98.416000
11
100.842000
21
98.416000
0
LINE
8
Layer 1
10
100.842000
20
98.416000
11
100.842000
21
91.410600
0
LINE
8
Layer 1
10
100.842000
20
91.410600
11
100.842000
21
84.397800
0
LINE
8
Layer 1
10
100.842000
20
84.397800
11
93.806200
21
84.397800
0
LINE
8
Layer 1
10
93.806200
20
84.397800
11
86.770700
21
84.397800
0
LINE
8
Layer 1
10
86.770700
20
84.397800
11
86.770700
21
91.410600
0
LINE
8
Layer 1
10
86.770700
20
91.410600
11
86.770700
21
98.416000
0
LINE
8
Layer 1
10
143.055000
20
112.434000
11
150.090000
21
112.434000
0
LINE
8
Layer 1
10
150.090000
20
112.434000
11
157.126000
21
112.434000
0
LINE
8
Layer 1
10
157.126000
20
112.434000
11
157.126000
21
105.425000
0
LINE
8
Layer 1
10
157.126000
20
105.425000
11
157.126000
21
98.416000
0
LINE
8
Layer 1
10
157.126000
20
98.416000
11
150.090000
21
98.416000
0
LINE
8
Layer 1
10
150.090000
20
98.416000
11
143.055000
21
98.416000
0
LINE
8
Layer 1
10
143.055000
20
98.416000
11
143.055000
21
105.425000
0
LINE
8
Layer 1
10
143.055000
20
105.425000
11
143.055000
21
112.434000
0
LINE
8
Layer 1
10
86.770700
20
112.434000
11
93.806200
21
112.434000
0
LINE
8
Layer 1
10
93.806200
20
112.434000
11
100.842000
21
112.434000
0
LINE
8
Layer 1
10
100.842000
20
112.434000
11
100.842000
21
105.425000
0
LINE
8
Layer 1
10
100.842000
20
105.425000
11
100.842000
21
98.416000
0
LINE
8
Layer 1
10
100.842000
20
98.416000
11
93.806200
21
98.416000
0
LINE
8
Layer 1
10
93.806200
20
98.416000
11
86.770700
21
98.416000
0
LINE
8
Layer 1
10
86.770700
20
98.416000
11
86.770700
21
105.425000
0
LINE
8
Layer 1
10
86.770700
20
105.425000
11
86.770700
21
112.434000
0
LINE
8
Layer 1
10
128.984000
20
126.452000
11
136.019000
21
126.452000
0
LINE
8
Layer 1
10
136.019000
20
126.452000
11
143.055000
21
126.452000
0
LINE
8
Layer 1
10
143.055000
20
126.452000
11
143.055000
21
119.443000
0
LINE
8
Layer 1
10
143.055000
20
119.443000
11
143.055000
21
112.434000
0
LINE
8
Layer 1
10
143.055000
20
112.434000
11
136.019000
21
112.434000
0
LINE
8
Layer 1
10
136.019000
20
112.434000
11
128.984000
21
112.434000
0
LINE
8
Layer 1
10
128.984000
20
112.434000
11
128.984000
21
119.443000
0
LINE
8
Layer 1
10
128.984000
20
119.443000
11
128.984000
21
126.452000
0
LINE
8
Layer 1
10
114.913000
20
126.452000
11
121.948000
21
126.452000
0
LINE
8
Layer 1
10
121.948000
20
126.452000
11
128.984000
21
126.452000
0
LINE
8
Layer 1
10
128.984000
20
126.452000
11
128.984000
21
119.443000
0
LINE
8
Layer 1
10
128.984000
20
119.443000
11
128.984000
21
112.434000
0
LINE
8
Layer 1
10
128.984000
20
112.434000
11
121.948000
21
112.434000
0
LINE
8
Layer 1
10
121.948000
20
112.434000
11
114.913000
21
112.434000
0
LINE
8
Layer 1
10
114.913000
20
112.434000
11
114.913000
21
119.443000
0
LINE
8
Layer 1
10
114.913000
20
119.443000
11
114.913000
21
126.452000
0
LINE
8
Layer 1
10
100.842000
20
126.452000
11
107.877000
21
126.452000
0
LINE
8
Layer 1
10
107.877000
20
126.452000
11
114.913000
21
126.452000
0
LINE
8
Layer 1
10
114.913000
20
126.452000
11
114.913000
21
119.443000
0
LINE
8
Layer 1
10
114.913000
20
119.443000
11
114.913000
21
112.434000
0
LINE
8
Layer 1
10
114.913000
20
112.434000
11
107.877000
21
112.434000
0
LINE
8
Layer 1
10
107.877000
20
112.434000
11
100.842000
21
112.434000
0
LINE
8
Layer 1
10
100.842000
20
112.434000
11
100.842000
21
119.443000
0
LINE
8
Layer 1
10
100.842000
20
119.443000
11
100.842000
21
126.452000
0
LINE
8
Layer 1
10
173.167000
20
28.324800
11
180.202000
21
28.324800
0
LINE
8
Layer 1
10
180.202000
20
28.324800
11
187.238000
21
28.324800
0
LINE
8
Layer 1
10
187.238000
20
28.324800
11
187.238000
21
21.319400
0
LINE
8
Layer 1
10
187.238000
20
21.319400
11
187.238000
21
14.306600
0
LINE
8
Layer 1
10
187.238000
20
14.306600
11
180.202000
21
14.306600
0
LINE
8
Layer 1
10
180.202000
20
14.306600
11
173.167000
21
14.306600
0
LINE
8
Layer 1
10
173.167000
20
14.306600
11
173.167000
21
21.319400
0
LINE
8
Layer 1
10
173.167000
20
21.319400
11
173.167000
21
28.324800
0
LINE
8
Layer 1
10
173.167000
20
42.343100
11
180.202000
21
42.343100
0
LINE
8
Layer 1
10
180.202000
20
42.343100
11
187.238000
21
42.343100
0
LINE
8
Layer 1
10
187.238000
20
42.343100
11
187.238000
21
35.337700
0
LINE
8
Layer 1
10
187.238000
20
35.337700
11
187.238000
21
28.324800
0
LINE
8
Layer 1
10
187.238000
20
28.324800
11
180.202000
21
28.324800
0
LINE
8
Layer 1
10
180.202000
20
28.324800
11
173.167000
21
28.324800
0
LINE
8
Layer 1
10
173.167000
20
28.324800
11
173.167000
21
35.337700
0
LINE
8
Layer 1
10
173.167000
20
35.337700
11
173.167000
21
42.343100
0
LINE
8
Layer 1
10
173.167000
20
56.361300
11
180.202000
21
56.361300
0
LINE
8
Layer 1
10
180.202000
20
56.361300
11
187.238000
21
56.361300
0
LINE
8
Layer 1
10
187.238000
20
56.361300
11
187.238000
21
49.355900
0
LINE
8
Layer 1
10
187.238000
20
49.355900
11
187.238000
21
42.343100
0
LINE
8
Layer 1
10
187.238000
20
42.343100
11
180.202000
21
42.343100
0
LINE
8
Layer 1
10
180.202000
20
42.343100
11
173.167000
21
42.343100
0
LINE
8
Layer 1
10
173.167000
20
42.343100
11
173.167000
21
49.355900
0
LINE
8
Layer 1
10
173.167000
20
49.355900
11
173.167000
21
56.361300
0
LINE
8
Layer 1
10
173.167000
20
84.397800
11
180.202000
21
84.397800
0
LINE
8
Layer 1
10
180.202000
20
84.397800
11
187.238000
21
84.397800
0
LINE
8
Layer 1
10
187.238000
20
84.397800
11
187.238000
21
77.392400
0
LINE
8
Layer 1
10
187.238000
20
77.392400
11
187.238000
21
70.379500
0
LINE
8
Layer 1
10
187.238000
20
70.379500
11
180.202000
21
70.379500
0
LINE
8
Layer 1
10
180.202000
20
70.379500
11
173.167000
21
70.379500
0
LINE
8
Layer 1
10
173.167000
20
70.379500
11
173.167000
21
77.392400
0
LINE
8
Layer 1
10
173.167000
20
77.392400
11
173.167000
21
84.397800
0
LINE
8
Layer 1
10
173.167000
20
98.416000
11
180.202000
21
98.416000
0
LINE
8
Layer 1
10
180.202000
20
98.416000
11
187.238000
21
98.416000
0
LINE
8
Layer 1
10
187.238000
20
98.416000
11
187.238000
21
91.410600
0
LINE
8
Layer 1
10
187.238000
20
91.410600
11
187.238000
21
84.397800
0
LINE
8
Layer 1
10
187.238000
20
84.397800
11
180.202000
21
84.397800
0
LINE
8
Layer 1
10
180.202000
20
84.397800
11
173.167000
21
84.397800
0
LINE
8
Layer 1
10
173.167000
20
84.397800
11
173.167000
21
91.410600
0
LINE
8
Layer 1
10
173.167000
20
91.410600
11
173.167000
21
98.416000
0
LINE
8
Layer 1
10
173.167000
20
112.434000
11
180.202000
21
112.434000
0
LINE
8
Layer 1
10
180.202000
20
112.434000
11
187.238000
21
112.434000
0
LINE
8
Layer 1
10
187.238000
20
112.434000
11
187.238000
21
105.425000
0
LINE
8
Layer 1
10
187.238000
20
105.425000
11
187.238000
21
98.416000
0
LINE
8
Layer 1
10
187.238000
20
98.416000
11
180.202000
21
98.416000
0
LINE
8
Layer 1
10
180.202000
20
98.416000
11
173.167000
21
98.416000
0
LINE
8
Layer 1
10
173.167000
20
98.416000
11
173.167000
21
105.425000
0
LINE
8
Layer 1
10
173.167000
20
105.425000
11
173.167000
21
112.434000
 0 
ENDSEC
 0 
EOF