999
"DXF R12 Output" (www.mydxf.blogspot.com)
 0 
SECTION
 2 
HEADER
 9 
$ACADVER
 1 
AC1009
 9 
$EXTMIN
 10 
 0 
 20 
 0 
 9 
$EXTMAX
 10 
 8.5 
 20 
 11 
 0 
ENDSEC
 0 
SECTION
 2 
ENTITIES
0
LINE
8
Layer 1
10
0.793749
20
127.621000
11
-0.793749
21
126.033000
0
LINE
8
Layer 1
10
0.000000
20
128.150000
11
0.000000
21
125.504000
0
LINE
8
Layer 1
10
2.116660
20
125.769000
11
1.058330
21
124.710670
0
LINE
8
Layer 1
10
1.587500
20
126.298000
11
0.529170
21
125.239670
0
LINE
8
Layer 1
10
1.058330
20
126.827000
11
0.000000
21
125.768670
0
LINE
8
Layer 1
10
42.569200
20
13.934500
11
56.633800
21
13.934500
0
LINE
8
Layer 1
10
56.633800
20
13.934500
11
56.633800
21
-0.130225
0
LINE
8
Layer 1
10
56.633800
20
-0.130225
11
42.569200
21
-0.130225
0
LINE
8
Layer 1
10
42.569200
20
-0.130225
11
42.569200
21
13.934500
0
LINE
8
Layer 1
10
28.504600
20
13.934500
11
42.569200
21
13.934500
0
LINE
8
Layer 1
10
42.569200
20
13.934500
11
42.569200
21
-0.130225
0
LINE
8
Layer 1
10
42.569200
20
-0.130225
11
28.504600
21
-0.130225
0
LINE
8
Layer 1
10
28.504600
20
-0.130225
11
28.504600
21
13.934500
0
LINE
8
Layer 1
10
14.439800
20
13.934500
11
28.504600
21
13.934500
0
LINE
8
Layer 1
10
28.504600
20
13.934500
11
28.504600
21
-0.130225
0
LINE
8
Layer 1
10
28.504600
20
-0.130225
11
14.439800
21
-0.130225
0
LINE
8
Layer 1
10
14.439800
20
-0.130225
11
14.439800
21
13.934500
0
LINE
8
Layer 1
10
56.633800
20
27.999200
11
70.698700
21
27.999200
0
LINE
8
Layer 1
10
70.698700
20
27.999200
11
70.698700
21
13.934500
0
LINE
8
Layer 1
10
70.698700
20
13.934500
11
56.633800
21
13.934500
0
LINE
8
Layer 1
10
56.633800
20
13.934500
11
56.633800
21
27.999200
0
LINE
8
Layer 1
10
0.375059
20
27.999200
11
14.439800
21
27.999200
0
LINE
8
Layer 1
10
14.439800
20
27.999200
11
14.439800
21
13.934500
0
LINE
8
Layer 1
10
14.439800
20
13.934500
11
0.375059
21
13.934500
0
LINE
8
Layer 1
10
0.375059
20
13.934500
11
0.375059
21
27.999200
0
LINE
8
Layer 1
10
56.633800
20
42.063900
11
70.698700
21
42.063900
0
LINE
8
Layer 1
10
70.698700
20
42.063900
11
70.698700
21
27.999200
0
LINE
8
Layer 1
10
70.698700
20
27.999200
11
56.633800
21
27.999200
0
LINE
8
Layer 1
10
56.633800
20
27.999200
11
56.633800
21
42.063900
0
LINE
8
Layer 1
10
0.375059
20
42.063900
11
14.439800
21
42.063900
0
LINE
8
Layer 1
10
14.439800
20
42.063900
11
14.439800
21
27.999200
0
LINE
8
Layer 1
10
14.439800
20
27.999200
11
0.375059
21
27.999200
0
LINE
8
Layer 1
10
0.375059
20
27.999200
11
0.375059
21
42.063900
0
LINE
8
Layer 1
10
56.633800
20
56.128600
11
70.698700
21
56.128600
0
LINE
8
Layer 1
10
70.698700
20
56.128600
11
70.698700
21
42.063900
0
LINE
8
Layer 1
10
70.698700
20
42.063900
11
56.633800
21
42.063900
0
LINE
8
Layer 1
10
56.633800
20
42.063900
11
56.633800
21
56.128600
0
LINE
8
Layer 1
10
0.375059
20
56.128600
11
14.439800
21
56.128600
0
LINE
8
Layer 1
10
14.439800
20
56.128600
11
14.439800
21
42.063900
0
LINE
8
Layer 1
10
14.439800
20
42.063900
11
0.375059
21
42.063900
0
LINE
8
Layer 1
10
0.375059
20
42.063900
11
0.375059
21
56.128600
0
LINE
8
Layer 1
10
42.569200
20
70.193300
11
56.633800
21
70.193300
0
LINE
8
Layer 1
10
56.633800
20
70.193300
11
56.633800
21
56.128600
0
LINE
8
Layer 1
10
56.633800
20
56.128600
11
42.569200
21
56.128600
0
LINE
8
Layer 1
10
42.569200
20
56.128600
11
42.569200
21
70.193300
0
LINE
8
Layer 1
10
28.504600
20
70.193300
11
42.569200
21
70.193300
0
LINE
8
Layer 1
10
42.569200
20
70.193300
11
42.569200
21
56.128600
0
LINE
8
Layer 1
10
42.569200
20
56.128600
11
28.504600
21
56.128600
0
LINE
8
Layer 1
10
28.504600
20
56.128600
11
28.504600
21
70.193300
0
LINE
8
Layer 1
10
14.439800
20
70.193300
11
28.504600
21
70.193300
0
LINE
8
Layer 1
10
28.504600
20
70.193300
11
28.504600
21
56.128600
0
LINE
8
Layer 1
10
28.504600
20
56.128600
11
14.439800
21
56.128600
0
LINE
8
Layer 1
10
14.439800
20
56.128600
11
14.439800
21
70.193300
0
LINE
8
Layer 1
10
56.633800
20
84.258100
11
70.698700
21
84.258100
0
LINE
8
Layer 1
10
70.698700
20
84.258100
11
70.698700
21
70.193300
0
LINE
8
Layer 1
10
70.698700
20
70.193300
11
56.633800
21
70.193300
0
LINE
8
Layer 1
10
56.633800
20
70.193300
11
56.633800
21
84.258100
0
LINE
8
Layer 1
10
0.375059
20
84.258100
11
14.439800
21
84.258100
0
LINE
8
Layer 1
10
14.439800
20
84.258100
11
14.439800
21
70.193300
0
LINE
8
Layer 1
10
14.439800
20
70.193300
11
0.375059
21
70.193300
0
LINE
8
Layer 1
10
0.375059
20
70.193300
11
0.375059
21
84.258100
0
LINE
8
Layer 1
10
56.633800
20
98.322800
11
70.698700
21
98.322800
0
LINE
8
Layer 1
10
70.698700
20
98.322800
11
70.698700
21
84.258100
0
LINE
8
Layer 1
10
70.698700
20
84.258100
11
56.633800
21
84.258100
0
LINE
8
Layer 1
10
56.633800
20
84.258100
11
56.633800
21
98.322800
0
LINE
8
Layer 1
10
0.375059
20
98.322800
11
14.439800
21
98.322800
0
LINE
8
Layer 1
10
14.439800
20
98.322800
11
14.439800
21
84.258100
0
LINE
8
Layer 1
10
14.439800
20
84.258100
11
0.375059
21
84.258100
0
LINE
8
Layer 1
10
0.375059
20
84.258100
11
0.375059
21
98.322800
0
LINE
8
Layer 1
10
56.633800
20
112.387000
11
70.698700
21
112.387000
0
LINE
8
Layer 1
10
70.698700
20
112.387000
11
70.698700
21
98.322800
0
LINE
8
Layer 1
10
70.698700
20
98.322800
11
56.633800
21
98.322800
0
LINE
8
Layer 1
10
56.633800
20
98.322800
11
56.633800
21
112.387000
0
LINE
8
Layer 1
10
0.375059
20
112.387000
11
14.439800
21
112.387000
0
LINE
8
Layer 1
10
14.439800
20
112.387000
11
14.439800
21
98.322800
0
LINE
8
Layer 1
10
14.439800
20
98.322800
11
0.375059
21
98.322800
0
LINE
8
Layer 1
10
0.375059
20
98.322800
11
0.375059
21
112.387000
0
LINE
8
Layer 1
10
42.569200
20
126.452000
11
56.633800
21
126.452000
0
LINE
8
Layer 1
10
56.633800
20
126.452000
11
56.633800
21
112.387000
0
LINE
8
Layer 1
10
56.633800
20
112.387000
11
42.569200
21
112.387000
0
LINE
8
Layer 1
10
42.569200
20
112.387000
11
42.569200
21
126.452000
0
LINE
8
Layer 1
10
28.504600
20
126.452000
11
42.569200
21
126.452000
0
LINE
8
Layer 1
10
42.569200
20
126.452000
11
42.569200
21
112.387000
0
LINE
8
Layer 1
10
42.569200
20
112.387000
11
28.504600
21
112.387000
0
LINE
8
Layer 1
10
28.504600
20
112.387000
11
28.504600
21
126.452000
0
LINE
8
Layer 1
10
14.439800
20
126.452000
11
28.504600
21
126.452000
0
LINE
8
Layer 1
10
28.504600
20
126.452000
11
28.504600
21
112.387000
0
LINE
8
Layer 1
10
28.504600
20
112.387000
11
14.439800
21
112.387000
0
LINE
8
Layer 1
10
14.439800
20
112.387000
11
14.439800
21
126.452000
0
LINE
8
Layer 1
10
142.991000
20
27.999200
11
157.056000
21
27.999200
0
LINE
8
Layer 1
10
157.056000
20
27.999200
11
157.056000
21
13.934500
0
LINE
8
Layer 1
10
157.056000
20
13.934500
11
142.991000
21
13.934500
0
LINE
8
Layer 1
10
142.991000
20
13.934500
11
142.991000
21
27.999200
0
LINE
8
Layer 1
10
142.991000
20
42.063900
11
157.056000
21
42.063900
0
LINE
8
Layer 1
10
157.056000
20
42.063900
11
157.056000
21
27.999200
0
LINE
8
Layer 1
10
157.056000
20
27.999200
11
142.991000
21
27.999200
0
LINE
8
Layer 1
10
142.991000
20
27.999200
11
142.991000
21
42.063900
0
LINE
8
Layer 1
10
142.991000
20
56.128600
11
157.056000
21
56.128600
0
LINE
8
Layer 1
10
157.056000
20
56.128600
11
157.056000
21
42.063900
0
LINE
8
Layer 1
10
157.056000
20
42.063900
11
142.991000
21
42.063900
0
LINE
8
Layer 1
10
142.991000
20
42.063900
11
142.991000
21
56.128600
0
LINE
8
Layer 1
10
128.927000
20
70.193300
11
142.991000
21
70.193300
0
LINE
8
Layer 1
10
142.991000
20
70.193300
11
142.991000
21
56.128600
0
LINE
8
Layer 1
10
142.991000
20
56.128600
11
128.927000
21
56.128600
0
LINE
8
Layer 1
10
128.927000
20
56.128600
11
128.927000
21
70.193300
0
LINE
8
Layer 1
10
114.862000
20
70.193300
11
128.927000
21
70.193300
0
LINE
8
Layer 1
10
128.927000
20
70.193300
11
128.927000
21
56.128600
0
LINE
8
Layer 1
10
128.927000
20
56.128600
11
114.862000
21
56.128600
0
LINE
8
Layer 1
10
114.862000
20
56.128600
11
114.862000
21
70.193300
0
LINE
8
Layer 1
10
100.797000
20
70.193300
11
114.862000
21
70.193300
0
LINE
8
Layer 1
10
114.862000
20
70.193300
11
114.862000
21
56.128600
0
LINE
8
Layer 1
10
114.862000
20
56.128600
11
100.797000
21
56.128600
0
LINE
8
Layer 1
10
100.797000
20
56.128600
11
100.797000
21
70.193300
0
LINE
8
Layer 1
10
142.991000
20
84.258100
11
157.056000
21
84.258100
0
LINE
8
Layer 1
10
157.056000
20
84.258100
11
157.056000
21
70.193300
0
LINE
8
Layer 1
10
157.056000
20
70.193300
11
142.991000
21
70.193300
0
LINE
8
Layer 1
10
142.991000
20
70.193300
11
142.991000
21
84.258100
0
LINE
8
Layer 1
10
86.732400
20
84.258100
11
100.797000
21
84.258100
0
LINE
8
Layer 1
10
100.797000
20
84.258100
11
100.797000
21
70.193300
0
LINE
8
Layer 1
10
100.797000
20
70.193300
11
86.732400
21
70.193300
0
LINE
8
Layer 1
10
86.732400
20
70.193300
11
86.732400
21
84.258100
0
LINE
8
Layer 1
10
142.991000
20
98.322800
11
157.056000
21
98.322800
0
LINE
8
Layer 1
10
157.056000
20
98.322800
11
157.056000
21
84.258100
0
LINE
8
Layer 1
10
157.056000
20
84.258100
11
142.991000
21
84.258100
0
LINE
8
Layer 1
10
142.991000
20
84.258100
11
142.991000
21
98.322800
0
LINE
8
Layer 1
10
86.732400
20
98.322800
11
100.797000
21
98.322800
0
LINE
8
Layer 1
10
100.797000
20
98.322800
11
100.797000
21
84.258100
0
LINE
8
Layer 1
10
100.797000
20
84.258100
11
86.732400
21
84.258100
0
LINE
8
Layer 1
10
86.732400
20
84.258100
11
86.732400
21
98.322800
0
LINE
8
Layer 1
10
142.991000
20
112.387000
11
157.056000
21
112.387000
0
LINE
8
Layer 1
10
157.056000
20
112.387000
11
157.056000
21
98.322800
0
LINE
8
Layer 1
10
157.056000
20
98.322800
11
142.991000
21
98.322800
0
LINE
8
Layer 1
10
142.991000
20
98.322800
11
142.991000
21
112.387000
0
LINE
8
Layer 1
10
86.732400
20
112.387000
11
100.797000
21
112.387000
0
LINE
8
Layer 1
10
100.797000
20
112.387000
11
100.797000
21
98.322800
0
LINE
8
Layer 1
10
100.797000
20
98.322800
11
86.732400
21
98.322800
0
LINE
8
Layer 1
10
86.732400
20
98.322800
11
86.732400
21
112.387000
0
LINE
8
Layer 1
10
201.219000
20
13.934500
11
215.284000
21
13.934500
0
LINE
8
Layer 1
10
215.284000
20
13.934500
11
215.284000
21
-0.130225
0
LINE
8
Layer 1
10
215.284000
20
-0.130225
11
201.219000
21
-0.130225
0
LINE
8
Layer 1
10
201.219000
20
-0.130225
11
201.219000
21
13.934500
0
LINE
8
Layer 1
10
187.154000
20
13.934500
11
201.219000
21
13.934500
0
LINE
8
Layer 1
10
201.219000
20
13.934500
11
201.219000
21
-0.130225
0
LINE
8
Layer 1
10
201.219000
20
-0.130225
11
187.154000
21
-0.130225
0
LINE
8
Layer 1
10
187.154000
20
-0.130225
11
187.154000
21
13.934500
0
LINE
8
Layer 1
10
173.090000
20
13.934500
11
187.154000
21
13.934500
0
LINE
8
Layer 1
10
187.154000
20
13.934500
11
187.154000
21
-0.130225
0
LINE
8
Layer 1
10
187.154000
20
-0.130225
11
173.090000
21
-0.130225
0
LINE
8
Layer 1
10
173.090000
20
-0.130225
11
173.090000
21
13.934500
0
LINE
8
Layer 1
10
215.284000
20
27.999200
11
229.349000
21
27.999200
0
LINE
8
Layer 1
10
229.349000
20
27.999200
11
229.349000
21
13.934500
0
LINE
8
Layer 1
10
229.349000
20
13.934500
11
215.284000
21
13.934500
0
LINE
8
Layer 1
10
215.284000
20
13.934500
11
215.284000
21
27.999200
0
LINE
8
Layer 1
10
215.284000
20
42.063900
11
229.349000
21
42.063900
0
LINE
8
Layer 1
10
229.349000
20
42.063900
11
229.349000
21
27.999200
0
LINE
8
Layer 1
10
229.349000
20
27.999200
11
215.284000
21
27.999200
0
LINE
8
Layer 1
10
215.284000
20
27.999200
11
215.284000
21
42.063900
0
LINE
8
Layer 1
10
215.284000
20
56.128600
11
229.349000
21
56.128600
0
LINE
8
Layer 1
10
229.349000
20
56.128600
11
229.349000
21
42.063900
0
LINE
8
Layer 1
10
229.349000
20
42.063900
11
215.284000
21
42.063900
0
LINE
8
Layer 1
10
215.284000
20
42.063900
11
215.284000
21
56.128600
0
LINE
8
Layer 1
10
201.219000
20
70.193300
11
215.284000
21
70.193300
0
LINE
8
Layer 1
10
215.284000
20
70.193300
11
215.284000
21
56.128600
0
LINE
8
Layer 1
10
215.284000
20
56.128600
11
201.219000
21
56.128600
0
LINE
8
Layer 1
10
201.219000
20
56.128600
11
201.219000
21
70.193300
0
LINE
8
Layer 1
10
187.154000
20
70.193300
11
201.219000
21
70.193300
0
LINE
8
Layer 1
10
201.219000
20
70.193300
11
201.219000
21
56.128600
0
LINE
8
Layer 1
10
201.219000
20
56.128600
11
187.154000
21
56.128600
0
LINE
8
Layer 1
10
187.154000
20
56.128600
11
187.154000
21
70.193300
0
LINE
8
Layer 1
10
173.090000
20
70.193300
11
187.154000
21
70.193300
0
LINE
8
Layer 1
10
187.154000
20
70.193300
11
187.154000
21
56.128600
0
LINE
8
Layer 1
10
187.154000
20
56.128600
11
173.090000
21
56.128600
0
LINE
8
Layer 1
10
173.090000
20
56.128600
11
173.090000
21
70.193300
0
LINE
8
Layer 1
10
215.284000
20
84.258100
11
229.349000
21
84.258100
0
LINE
8
Layer 1
10
229.349000
20
84.258100
11
229.349000
21
70.193300
0
LINE
8
Layer 1
10
229.349000
20
70.193300
11
215.284000
21
70.193300
0
LINE
8
Layer 1
10
215.284000
20
70.193300
11
215.284000
21
84.258100
0
LINE
8
Layer 1
10
215.284000
20
98.322800
11
229.349000
21
98.322800
0
LINE
8
Layer 1
10
229.349000
20
98.322800
11
229.349000
21
84.258100
0
LINE
8
Layer 1
10
229.349000
20
84.258100
11
215.284000
21
84.258100
0
LINE
8
Layer 1
10
215.284000
20
84.258100
11
215.284000
21
98.322800
0
LINE
8
Layer 1
10
215.284000
20
112.387000
11
229.349000
21
112.387000
0
LINE
8
Layer 1
10
229.349000
20
112.387000
11
229.349000
21
98.322800
0
LINE
8
Layer 1
10
229.349000
20
98.322800
11
215.284000
21
98.322800
0
LINE
8
Layer 1
10
215.284000
20
98.322800
11
215.284000
21
112.387000
0
LINE
8
Layer 1
10
201.219000
20
126.452000
11
215.284000
21
126.452000
0
LINE
8
Layer 1
10
215.284000
20
126.452000
11
215.284000
21
112.387000
0
LINE
8
Layer 1
10
215.284000
20
112.387000
11
201.219000
21
112.387000
0
LINE
8
Layer 1
10
201.219000
20
112.387000
11
201.219000
21
126.452000
0
LINE
8
Layer 1
10
187.154000
20
126.452000
11
201.219000
21
126.452000
0
LINE
8
Layer 1
10
201.219000
20
126.452000
11
201.219000
21
112.387000
0
LINE
8
Layer 1
10
201.219000
20
112.387000
11
187.154000
21
112.387000
0
LINE
8
Layer 1
10
187.154000
20
112.387000
11
187.154000
21
126.452000
0
LINE
8
Layer 1
10
173.090000
20
126.452000
11
187.154000
21
126.452000
0
LINE
8
Layer 1
10
187.154000
20
126.452000
11
187.154000
21
112.387000
0
LINE
8
Layer 1
10
187.154000
20
112.387000
11
173.090000
21
112.387000
0
LINE
8
Layer 1
10
173.090000
20
112.387000
11
173.090000
21
126.452000
 0 
ENDSEC
 0 
EOF