999
"DXF R12 Output" (www.mydxf.blogspot.com)
 0 
SECTION
 2 
HEADER
 9 
$ACADVER
 1 
AC1009
 9 
$EXTMIN
 10 
 0 
 20 
 0 
 9 
$EXTMAX
 10 
 8.5 
 20 
 11 
 0 
ENDSEC
 0 
SECTION
 2 
ENTITIES
0
LINE
8
Layer 1
10
0.793749
20
127.621000
11
-0.793749
21
126.033000
0
LINE
8
Layer 1
10
0.000000
20
128.150000
11
0.000000
21
125.504000
0
LINE
8
Layer 1
10
2.116660
20
125.769000
11
1.058330
21
124.710670
0
LINE
8
Layer 1
10
1.587500
20
126.298000
11
0.529170
21
125.239670
0
LINE
8
Layer 1
10
1.058330
20
126.827000
11
0.000000
21
125.768670
0
LINE
8
Layer 1
10
42.536100
20
14.022300
11
56.589700
21
14.022300
0
LINE
8
Layer 1
10
56.589700
20
14.022300
11
56.589700
21
-0.031509
0
LINE
8
Layer 1
10
56.589700
20
-0.031509
11
42.536100
21
-0.031509
0
LINE
8
Layer 1
10
42.536100
20
-0.031509
11
42.536100
21
14.022300
0
LINE
8
Layer 1
10
28.482400
20
14.022300
11
42.536100
21
14.022300
0
LINE
8
Layer 1
10
42.536100
20
14.022300
11
42.536100
21
-0.031509
0
LINE
8
Layer 1
10
42.536100
20
-0.031509
11
28.482400
21
-0.031509
0
LINE
8
Layer 1
10
28.482400
20
-0.031509
11
28.482400
21
14.022300
0
LINE
8
Layer 1
10
14.428600
20
14.022300
11
28.482400
21
14.022300
0
LINE
8
Layer 1
10
28.482400
20
14.022300
11
28.482400
21
-0.031509
0
LINE
8
Layer 1
10
28.482400
20
-0.031509
11
14.428600
21
-0.031509
0
LINE
8
Layer 1
10
14.428600
20
-0.031509
11
14.428600
21
14.022300
0
LINE
8
Layer 1
10
56.589700
20
28.076000
11
70.643700
21
28.076000
0
LINE
8
Layer 1
10
70.643700
20
28.076000
11
70.643700
21
14.022300
0
LINE
8
Layer 1
10
70.643700
20
14.022300
11
56.589700
21
14.022300
0
LINE
8
Layer 1
10
56.589700
20
14.022300
11
56.589700
21
28.076000
0
LINE
8
Layer 1
10
0.374767
20
28.076000
11
14.428600
21
28.076000
0
LINE
8
Layer 1
10
14.428600
20
28.076000
11
14.428600
21
14.022300
0
LINE
8
Layer 1
10
14.428600
20
14.022300
11
0.374767
21
14.022300
0
LINE
8
Layer 1
10
0.374767
20
14.022300
11
0.374767
21
28.076000
0
LINE
8
Layer 1
10
56.589700
20
42.129800
11
70.643700
21
42.129800
0
LINE
8
Layer 1
10
70.643700
20
42.129800
11
70.643700
21
28.076000
0
LINE
8
Layer 1
10
70.643700
20
28.076000
11
56.589700
21
28.076000
0
LINE
8
Layer 1
10
56.589700
20
28.076000
11
56.589700
21
42.129800
0
LINE
8
Layer 1
10
0.374767
20
42.129800
11
14.428600
21
42.129800
0
LINE
8
Layer 1
10
14.428600
20
42.129800
11
14.428600
21
28.076000
0
LINE
8
Layer 1
10
14.428600
20
28.076000
11
0.374767
21
28.076000
0
LINE
8
Layer 1
10
0.374767
20
28.076000
11
0.374767
21
42.129800
0
LINE
8
Layer 1
10
56.589700
20
56.183600
11
70.643700
21
56.183600
0
LINE
8
Layer 1
10
70.643700
20
56.183600
11
70.643700
21
42.129800
0
LINE
8
Layer 1
10
70.643700
20
42.129800
11
56.589700
21
42.129800
0
LINE
8
Layer 1
10
56.589700
20
42.129800
11
56.589700
21
56.183600
0
LINE
8
Layer 1
10
0.374767
20
56.183600
11
14.428600
21
56.183600
0
LINE
8
Layer 1
10
14.428600
20
56.183600
11
14.428600
21
42.129800
0
LINE
8
Layer 1
10
14.428600
20
42.129800
11
0.374767
21
42.129800
0
LINE
8
Layer 1
10
0.374767
20
42.129800
11
0.374767
21
56.183600
0
LINE
8
Layer 1
10
42.536100
20
70.237400
11
56.589700
21
70.237400
0
LINE
8
Layer 1
10
56.589700
20
70.237400
11
56.589700
21
56.183600
0
LINE
8
Layer 1
10
56.589700
20
56.183600
11
42.536100
21
56.183600
0
LINE
8
Layer 1
10
42.536100
20
56.183600
11
42.536100
21
70.237400
0
LINE
8
Layer 1
10
28.482400
20
70.237400
11
42.536100
21
70.237400
0
LINE
8
Layer 1
10
42.536100
20
70.237400
11
42.536100
21
56.183600
0
LINE
8
Layer 1
10
42.536100
20
56.183600
11
28.482400
21
56.183600
0
LINE
8
Layer 1
10
28.482400
20
56.183600
11
28.482400
21
70.237400
0
LINE
8
Layer 1
10
14.428600
20
70.237400
11
28.482400
21
70.237400
0
LINE
8
Layer 1
10
28.482400
20
70.237400
11
28.482400
21
56.183600
0
LINE
8
Layer 1
10
28.482400
20
56.183600
11
14.428600
21
56.183600
0
LINE
8
Layer 1
10
14.428600
20
56.183600
11
14.428600
21
70.237400
0
LINE
8
Layer 1
10
56.589700
20
84.291100
11
70.643700
21
84.291100
0
LINE
8
Layer 1
10
70.643700
20
84.291100
11
70.643700
21
70.237400
0
LINE
8
Layer 1
10
70.643700
20
70.237400
11
56.589700
21
70.237400
0
LINE
8
Layer 1
10
56.589700
20
70.237400
11
56.589700
21
84.291100
0
LINE
8
Layer 1
10
0.374767
20
84.291100
11
14.428600
21
84.291100
0
LINE
8
Layer 1
10
14.428600
20
84.291100
11
14.428600
21
70.237400
0
LINE
8
Layer 1
10
14.428600
20
70.237400
11
0.374767
21
70.237400
0
LINE
8
Layer 1
10
0.374767
20
70.237400
11
0.374767
21
84.291100
0
LINE
8
Layer 1
10
56.589700
20
98.344900
11
70.643700
21
98.344900
0
LINE
8
Layer 1
10
70.643700
20
98.344900
11
70.643700
21
84.291100
0
LINE
8
Layer 1
10
70.643700
20
84.291100
11
56.589700
21
84.291100
0
LINE
8
Layer 1
10
56.589700
20
84.291100
11
56.589700
21
98.344900
0
LINE
8
Layer 1
10
0.374767
20
98.344900
11
14.428600
21
98.344900
0
LINE
8
Layer 1
10
14.428600
20
98.344900
11
14.428600
21
84.291100
0
LINE
8
Layer 1
10
14.428600
20
84.291100
11
0.374767
21
84.291100
0
LINE
8
Layer 1
10
0.374767
20
84.291100
11
0.374767
21
98.344900
0
LINE
8
Layer 1
10
56.589700
20
112.399000
11
70.643700
21
112.399000
0
LINE
8
Layer 1
10
70.643700
20
112.399000
11
70.643700
21
98.344900
0
LINE
8
Layer 1
10
70.643700
20
98.344900
11
56.589700
21
98.344900
0
LINE
8
Layer 1
10
56.589700
20
98.344900
11
56.589700
21
112.399000
0
LINE
8
Layer 1
10
0.374767
20
112.399000
11
14.428600
21
112.399000
0
LINE
8
Layer 1
10
14.428600
20
112.399000
11
14.428600
21
98.344900
0
LINE
8
Layer 1
10
14.428600
20
98.344900
11
0.374767
21
98.344900
0
LINE
8
Layer 1
10
0.374767
20
98.344900
11
0.374767
21
112.399000
0
LINE
8
Layer 1
10
42.536100
20
126.452000
11
56.589700
21
126.452000
0
LINE
8
Layer 1
10
56.589700
20
126.452000
11
56.589700
21
112.399000
0
LINE
8
Layer 1
10
56.589700
20
112.399000
11
42.536100
21
112.399000
0
LINE
8
Layer 1
10
42.536100
20
112.399000
11
42.536100
21
126.452000
0
LINE
8
Layer 1
10
28.482400
20
126.452000
11
42.536100
21
126.452000
0
LINE
8
Layer 1
10
42.536100
20
126.452000
11
42.536100
21
112.399000
0
LINE
8
Layer 1
10
42.536100
20
112.399000
11
28.482400
21
112.399000
0
LINE
8
Layer 1
10
28.482400
20
112.399000
11
28.482400
21
126.452000
0
LINE
8
Layer 1
10
14.428600
20
126.452000
11
28.482400
21
126.452000
0
LINE
8
Layer 1
10
28.482400
20
126.452000
11
28.482400
21
112.399000
0
LINE
8
Layer 1
10
28.482400
20
112.399000
11
14.428600
21
112.399000
0
LINE
8
Layer 1
10
14.428600
20
112.399000
11
14.428600
21
126.452000
0
LINE
8
Layer 1
10
142.880000
20
28.076000
11
156.934000
21
28.076000
0
LINE
8
Layer 1
10
156.934000
20
28.076000
11
156.934000
21
14.022300
0
LINE
8
Layer 1
10
156.934000
20
14.022300
11
142.880000
21
14.022300
0
LINE
8
Layer 1
10
142.880000
20
14.022300
11
142.880000
21
28.076000
0
LINE
8
Layer 1
10
142.880000
20
42.129800
11
156.934000
21
42.129800
0
LINE
8
Layer 1
10
156.934000
20
42.129800
11
156.934000
21
28.076000
0
LINE
8
Layer 1
10
156.934000
20
28.076000
11
142.880000
21
28.076000
0
LINE
8
Layer 1
10
142.880000
20
28.076000
11
142.880000
21
42.129800
0
LINE
8
Layer 1
10
142.880000
20
56.183600
11
156.934000
21
56.183600
0
LINE
8
Layer 1
10
156.934000
20
56.183600
11
156.934000
21
42.129800
0
LINE
8
Layer 1
10
156.934000
20
42.129800
11
142.880000
21
42.129800
0
LINE
8
Layer 1
10
142.880000
20
42.129800
11
142.880000
21
56.183600
0
LINE
8
Layer 1
10
128.826000
20
70.237400
11
142.880000
21
70.237400
0
LINE
8
Layer 1
10
142.880000
20
70.237400
11
142.880000
21
56.183600
0
LINE
8
Layer 1
10
142.880000
20
56.183600
11
128.826000
21
56.183600
0
LINE
8
Layer 1
10
128.826000
20
56.183600
11
128.826000
21
70.237400
0
LINE
8
Layer 1
10
114.773000
20
70.237400
11
128.826000
21
70.237400
0
LINE
8
Layer 1
10
128.826000
20
70.237400
11
128.826000
21
56.183600
0
LINE
8
Layer 1
10
128.826000
20
56.183600
11
114.773000
21
56.183600
0
LINE
8
Layer 1
10
114.773000
20
56.183600
11
114.773000
21
70.237400
0
LINE
8
Layer 1
10
100.719000
20
70.237400
11
114.773000
21
70.237400
0
LINE
8
Layer 1
10
114.773000
20
70.237400
11
114.773000
21
56.183600
0
LINE
8
Layer 1
10
114.773000
20
56.183600
11
100.719000
21
56.183600
0
LINE
8
Layer 1
10
100.719000
20
56.183600
11
100.719000
21
70.237400
0
LINE
8
Layer 1
10
142.880000
20
84.291100
11
156.934000
21
84.291100
0
LINE
8
Layer 1
10
156.934000
20
84.291100
11
156.934000
21
70.237400
0
LINE
8
Layer 1
10
156.934000
20
70.237400
11
142.880000
21
70.237400
0
LINE
8
Layer 1
10
142.880000
20
70.237400
11
142.880000
21
84.291100
0
LINE
8
Layer 1
10
86.665000
20
84.291100
11
100.719000
21
84.291100
0
LINE
8
Layer 1
10
100.719000
20
84.291100
11
100.719000
21
70.237400
0
LINE
8
Layer 1
10
100.719000
20
70.237400
11
86.665000
21
70.237400
0
LINE
8
Layer 1
10
86.665000
20
70.237400
11
86.665000
21
84.291100
0
LINE
8
Layer 1
10
142.880000
20
98.344900
11
156.934000
21
98.344900
0
LINE
8
Layer 1
10
156.934000
20
98.344900
11
156.934000
21
84.291100
0
LINE
8
Layer 1
10
156.934000
20
84.291100
11
142.880000
21
84.291100
0
LINE
8
Layer 1
10
142.880000
20
84.291100
11
142.880000
21
98.344900
0
LINE
8
Layer 1
10
86.665000
20
98.344900
11
100.719000
21
98.344900
0
LINE
8
Layer 1
10
100.719000
20
98.344900
11
100.719000
21
84.291100
0
LINE
8
Layer 1
10
100.719000
20
84.291100
11
86.665000
21
84.291100
0
LINE
8
Layer 1
10
86.665000
20
84.291100
11
86.665000
21
98.344900
0
LINE
8
Layer 1
10
142.880000
20
112.399000
11
156.934000
21
112.399000
0
LINE
8
Layer 1
10
156.934000
20
112.399000
11
156.934000
21
98.344900
0
LINE
8
Layer 1
10
156.934000
20
98.344900
11
142.880000
21
98.344900
0
LINE
8
Layer 1
10
142.880000
20
98.344900
11
142.880000
21
112.399000
0
LINE
8
Layer 1
10
86.665000
20
112.399000
11
100.719000
21
112.399000
0
LINE
8
Layer 1
10
100.719000
20
112.399000
11
100.719000
21
98.344900
0
LINE
8
Layer 1
10
100.719000
20
98.344900
11
86.665000
21
98.344900
0
LINE
8
Layer 1
10
86.665000
20
98.344900
11
86.665000
21
112.399000
0
LINE
8
Layer 1
10
215.116000
20
14.022300
11
229.170000
21
14.022300
0
LINE
8
Layer 1
10
229.170000
20
14.022300
11
229.170000
21
-0.031509
0
LINE
8
Layer 1
10
229.170000
20
-0.031509
11
215.116000
21
-0.031509
0
LINE
8
Layer 1
10
215.116000
20
-0.031509
11
215.116000
21
14.022300
0
LINE
8
Layer 1
10
201.063000
20
14.022300
11
215.116000
21
14.022300
0
LINE
8
Layer 1
10
215.116000
20
14.022300
11
215.116000
21
-0.031509
0
LINE
8
Layer 1
10
215.116000
20
-0.031509
11
201.063000
21
-0.031509
0
LINE
8
Layer 1
10
201.063000
20
-0.031509
11
201.063000
21
14.022300
0
LINE
8
Layer 1
10
187.009000
20
14.022300
11
201.063000
21
14.022300
0
LINE
8
Layer 1
10
201.063000
20
14.022300
11
201.063000
21
-0.031509
0
LINE
8
Layer 1
10
201.063000
20
-0.031509
11
187.009000
21
-0.031509
0
LINE
8
Layer 1
10
187.009000
20
-0.031509
11
187.009000
21
14.022300
0
LINE
8
Layer 1
10
229.170000
20
28.076000
11
243.224000
21
28.076000
0
LINE
8
Layer 1
10
243.224000
20
28.076000
11
243.224000
21
14.022300
0
LINE
8
Layer 1
10
243.224000
20
14.022300
11
229.170000
21
14.022300
0
LINE
8
Layer 1
10
229.170000
20
14.022300
11
229.170000
21
28.076000
0
LINE
8
Layer 1
10
229.170000
20
42.129800
11
243.224000
21
42.129800
0
LINE
8
Layer 1
10
243.224000
20
42.129800
11
243.224000
21
28.076000
0
LINE
8
Layer 1
10
243.224000
20
28.076000
11
229.170000
21
28.076000
0
LINE
8
Layer 1
10
229.170000
20
28.076000
11
229.170000
21
42.129800
0
LINE
8
Layer 1
10
229.170000
20
56.183600
11
243.224000
21
56.183600
0
LINE
8
Layer 1
10
243.224000
20
56.183600
11
243.224000
21
42.129800
0
LINE
8
Layer 1
10
243.224000
20
42.129800
11
229.170000
21
42.129800
0
LINE
8
Layer 1
10
229.170000
20
42.129800
11
229.170000
21
56.183600
0
LINE
8
Layer 1
10
215.116000
20
70.237400
11
229.170000
21
70.237400
0
LINE
8
Layer 1
10
229.170000
20
70.237400
11
229.170000
21
56.183600
0
LINE
8
Layer 1
10
229.170000
20
56.183600
11
215.116000
21
56.183600
0
LINE
8
Layer 1
10
215.116000
20
56.183600
11
215.116000
21
70.237400
0
LINE
8
Layer 1
10
201.063000
20
70.237400
11
215.116000
21
70.237400
0
LINE
8
Layer 1
10
215.116000
20
70.237400
11
215.116000
21
56.183600
0
LINE
8
Layer 1
10
215.116000
20
56.183600
11
201.063000
21
56.183600
0
LINE
8
Layer 1
10
201.063000
20
56.183600
11
201.063000
21
70.237400
0
LINE
8
Layer 1
10
187.009000
20
70.237400
11
201.063000
21
70.237400
0
LINE
8
Layer 1
10
201.063000
20
70.237400
11
201.063000
21
56.183600
0
LINE
8
Layer 1
10
201.063000
20
56.183600
11
187.009000
21
56.183600
0
LINE
8
Layer 1
10
187.009000
20
56.183600
11
187.009000
21
70.237400
0
LINE
8
Layer 1
10
172.955000
20
84.291100
11
187.009000
21
84.291100
0
LINE
8
Layer 1
10
187.009000
20
84.291100
11
187.009000
21
70.237400
0
LINE
8
Layer 1
10
187.009000
20
70.237400
11
172.955000
21
70.237400
0
LINE
8
Layer 1
10
172.955000
20
70.237400
11
172.955000
21
84.291100
0
LINE
8
Layer 1
10
172.955000
20
98.344900
11
187.009000
21
98.344900
0
LINE
8
Layer 1
10
187.009000
20
98.344900
11
187.009000
21
84.291100
0
LINE
8
Layer 1
10
187.009000
20
84.291100
11
172.955000
21
84.291100
0
LINE
8
Layer 1
10
172.955000
20
84.291100
11
172.955000
21
98.344900
0
LINE
8
Layer 1
10
172.955000
20
112.399000
11
187.009000
21
112.399000
0
LINE
8
Layer 1
10
187.009000
20
112.399000
11
187.009000
21
98.344900
0
LINE
8
Layer 1
10
187.009000
20
98.344900
11
172.955000
21
98.344900
0
LINE
8
Layer 1
10
172.955000
20
98.344900
11
172.955000
21
112.399000
0
LINE
8
Layer 1
10
215.116000
20
126.452000
11
229.170000
21
126.452000
0
LINE
8
Layer 1
10
229.170000
20
126.452000
11
229.170000
21
112.399000
0
LINE
8
Layer 1
10
229.170000
20
112.399000
11
215.116000
21
112.399000
0
LINE
8
Layer 1
10
215.116000
20
112.399000
11
215.116000
21
126.452000
0
LINE
8
Layer 1
10
201.063000
20
126.452000
11
215.116000
21
126.452000
0
LINE
8
Layer 1
10
215.116000
20
126.452000
11
215.116000
21
112.399000
0
LINE
8
Layer 1
10
215.116000
20
112.399000
11
201.063000
21
112.399000
0
LINE
8
Layer 1
10
201.063000
20
112.399000
11
201.063000
21
126.452000
0
LINE
8
Layer 1
10
187.009000
20
126.452000
11
201.063000
21
126.452000
0
LINE
8
Layer 1
10
201.063000
20
126.452000
11
201.063000
21
112.399000
0
LINE
8
Layer 1
10
201.063000
20
112.399000
11
187.009000
21
112.399000
0
LINE
8
Layer 1
10
187.009000
20
112.399000
11
187.009000
21
126.452000
 0 
ENDSEC
 0 
EOF