999
"DXF R12 Output" (www.mydxf.blogspot.com)
 0 
SECTION
 2 
HEADER
 9 
$ACADVER
 1 
AC1009
 9 
$EXTMIN
 10 
 0 
 20 
 0 
 9 
$EXTMAX
 10 
 8.5 
 20 
 11 
 0 
ENDSEC
 0 
SECTION
 2 
ENTITIES
0
LINE
8
Layer 1
10
0.793749
20
127.621000
11
-0.793749
21
126.033000
0
LINE
8
Layer 1
10
0.000000
20
128.150000
11
0.000000
21
125.504000
0
LINE
8
Layer 1
10
2.116660
20
125.769000
11
1.058330
21
124.710670
0
LINE
8
Layer 1
10
1.587500
20
126.298000
11
0.529170
21
125.239670
0
LINE
8
Layer 1
10
1.058330
20
126.827000
11
0.000000
21
125.768670
0
LINE
8
Layer 1
10
42.472500
20
14.190900
11
56.505100
21
14.190900
0
LINE
8
Layer 1
10
56.505100
20
14.190900
11
56.505100
21
0.158117
0
LINE
8
Layer 1
10
56.505100
20
0.158117
11
42.472500
21
0.158117
0
LINE
8
Layer 1
10
42.472500
20
0.158117
11
42.472500
21
14.190900
0
LINE
8
Layer 1
10
28.439800
20
14.190900
11
42.472500
21
14.190900
0
LINE
8
Layer 1
10
42.472500
20
14.190900
11
42.472500
21
0.158117
0
LINE
8
Layer 1
10
42.472500
20
0.158117
11
28.439800
21
0.158117
0
LINE
8
Layer 1
10
28.439800
20
0.158117
11
28.439800
21
14.190900
0
LINE
8
Layer 1
10
14.407000
20
14.190900
11
28.439800
21
14.190900
0
LINE
8
Layer 1
10
28.439800
20
14.190900
11
28.439800
21
0.158117
0
LINE
8
Layer 1
10
28.439800
20
0.158117
11
14.407000
21
0.158117
0
LINE
8
Layer 1
10
14.407000
20
0.158117
11
14.407000
21
14.190900
0
LINE
8
Layer 1
10
56.505100
20
28.223700
11
70.538100
21
28.223700
0
LINE
8
Layer 1
10
70.538100
20
28.223700
11
70.538100
21
14.190900
0
LINE
8
Layer 1
10
70.538100
20
14.190900
11
56.505100
21
14.190900
0
LINE
8
Layer 1
10
56.505100
20
14.190900
11
56.505100
21
28.223700
0
LINE
8
Layer 1
10
0.374207
20
28.223700
11
14.407000
21
28.223700
0
LINE
8
Layer 1
10
14.407000
20
28.223700
11
14.407000
21
14.190900
0
LINE
8
Layer 1
10
14.407000
20
14.190900
11
0.374207
21
14.190900
0
LINE
8
Layer 1
10
0.374207
20
14.190900
11
0.374207
21
28.223700
0
LINE
8
Layer 1
10
56.505100
20
42.256400
11
70.538100
21
42.256400
0
LINE
8
Layer 1
10
70.538100
20
42.256400
11
70.538100
21
28.223700
0
LINE
8
Layer 1
10
70.538100
20
28.223700
11
56.505100
21
28.223700
0
LINE
8
Layer 1
10
56.505100
20
28.223700
11
56.505100
21
42.256400
0
LINE
8
Layer 1
10
0.374207
20
42.256400
11
14.407000
21
42.256400
0
LINE
8
Layer 1
10
14.407000
20
42.256400
11
14.407000
21
28.223700
0
LINE
8
Layer 1
10
14.407000
20
28.223700
11
0.374207
21
28.223700
0
LINE
8
Layer 1
10
0.374207
20
28.223700
11
0.374207
21
42.256400
0
LINE
8
Layer 1
10
56.505100
20
56.289200
11
70.538100
21
56.289200
0
LINE
8
Layer 1
10
70.538100
20
56.289200
11
70.538100
21
42.256400
0
LINE
8
Layer 1
10
70.538100
20
42.256400
11
56.505100
21
42.256400
0
LINE
8
Layer 1
10
56.505100
20
42.256400
11
56.505100
21
56.289200
0
LINE
8
Layer 1
10
0.374207
20
56.289200
11
14.407000
21
56.289200
0
LINE
8
Layer 1
10
14.407000
20
56.289200
11
14.407000
21
42.256400
0
LINE
8
Layer 1
10
14.407000
20
42.256400
11
0.374207
21
42.256400
0
LINE
8
Layer 1
10
0.374207
20
42.256400
11
0.374207
21
56.289200
0
LINE
8
Layer 1
10
42.472500
20
70.322000
11
56.505100
21
70.322000
0
LINE
8
Layer 1
10
56.505100
20
70.322000
11
56.505100
21
56.289200
0
LINE
8
Layer 1
10
56.505100
20
56.289200
11
42.472500
21
56.289200
0
LINE
8
Layer 1
10
42.472500
20
56.289200
11
42.472500
21
70.322000
0
LINE
8
Layer 1
10
28.439800
20
70.322000
11
42.472500
21
70.322000
0
LINE
8
Layer 1
10
42.472500
20
70.322000
11
42.472500
21
56.289200
0
LINE
8
Layer 1
10
42.472500
20
56.289200
11
28.439800
21
56.289200
0
LINE
8
Layer 1
10
28.439800
20
56.289200
11
28.439800
21
70.322000
0
LINE
8
Layer 1
10
14.407000
20
70.322000
11
28.439800
21
70.322000
0
LINE
8
Layer 1
10
28.439800
20
70.322000
11
28.439800
21
56.289200
0
LINE
8
Layer 1
10
28.439800
20
56.289200
11
14.407000
21
56.289200
0
LINE
8
Layer 1
10
14.407000
20
56.289200
11
14.407000
21
70.322000
0
LINE
8
Layer 1
10
56.505100
20
84.354800
11
70.538100
21
84.354800
0
LINE
8
Layer 1
10
70.538100
20
84.354800
11
70.538100
21
70.322000
0
LINE
8
Layer 1
10
70.538100
20
70.322000
11
56.505100
21
70.322000
0
LINE
8
Layer 1
10
56.505100
20
70.322000
11
56.505100
21
84.354800
0
LINE
8
Layer 1
10
0.374207
20
84.354800
11
14.407000
21
84.354800
0
LINE
8
Layer 1
10
14.407000
20
84.354800
11
14.407000
21
70.322000
0
LINE
8
Layer 1
10
14.407000
20
70.322000
11
0.374207
21
70.322000
0
LINE
8
Layer 1
10
0.374207
20
70.322000
11
0.374207
21
84.354800
0
LINE
8
Layer 1
10
56.505100
20
98.387500
11
70.538100
21
98.387500
0
LINE
8
Layer 1
10
70.538100
20
98.387500
11
70.538100
21
84.354800
0
LINE
8
Layer 1
10
70.538100
20
84.354800
11
56.505100
21
84.354800
0
LINE
8
Layer 1
10
56.505100
20
84.354800
11
56.505100
21
98.387500
0
LINE
8
Layer 1
10
0.374207
20
98.387500
11
14.407000
21
98.387500
0
LINE
8
Layer 1
10
14.407000
20
98.387500
11
14.407000
21
84.354800
0
LINE
8
Layer 1
10
14.407000
20
84.354800
11
0.374207
21
84.354800
0
LINE
8
Layer 1
10
0.374207
20
84.354800
11
0.374207
21
98.387500
0
LINE
8
Layer 1
10
56.505100
20
112.420000
11
70.538100
21
112.420000
0
LINE
8
Layer 1
10
70.538100
20
112.420000
11
70.538100
21
98.387500
0
LINE
8
Layer 1
10
70.538100
20
98.387500
11
56.505100
21
98.387500
0
LINE
8
Layer 1
10
56.505100
20
98.387500
11
56.505100
21
112.420000
0
LINE
8
Layer 1
10
0.374207
20
112.420000
11
14.407000
21
112.420000
0
LINE
8
Layer 1
10
14.407000
20
112.420000
11
14.407000
21
98.387500
0
LINE
8
Layer 1
10
14.407000
20
98.387500
11
0.374207
21
98.387500
0
LINE
8
Layer 1
10
0.374207
20
98.387500
11
0.374207
21
112.420000
0
LINE
8
Layer 1
10
42.472500
20
126.453000
11
56.505100
21
126.453000
0
LINE
8
Layer 1
10
56.505100
20
126.453000
11
56.505100
21
112.420000
0
LINE
8
Layer 1
10
56.505100
20
112.420000
11
42.472500
21
112.420000
0
LINE
8
Layer 1
10
42.472500
20
112.420000
11
42.472500
21
126.453000
0
LINE
8
Layer 1
10
28.439800
20
126.453000
11
42.472500
21
126.453000
0
LINE
8
Layer 1
10
42.472500
20
126.453000
11
42.472500
21
112.420000
0
LINE
8
Layer 1
10
42.472500
20
112.420000
11
28.439800
21
112.420000
0
LINE
8
Layer 1
10
28.439800
20
112.420000
11
28.439800
21
126.453000
0
LINE
8
Layer 1
10
14.407000
20
126.453000
11
28.439800
21
126.453000
0
LINE
8
Layer 1
10
28.439800
20
126.453000
11
28.439800
21
112.420000
0
LINE
8
Layer 1
10
28.439800
20
112.420000
11
14.407000
21
112.420000
0
LINE
8
Layer 1
10
14.407000
20
112.420000
11
14.407000
21
126.453000
0
LINE
8
Layer 1
10
142.666000
20
28.223700
11
156.699000
21
28.223700
0
LINE
8
Layer 1
10
156.699000
20
28.223700
11
156.699000
21
14.190900
0
LINE
8
Layer 1
10
156.699000
20
14.190900
11
142.666000
21
14.190900
0
LINE
8
Layer 1
10
142.666000
20
14.190900
11
142.666000
21
28.223700
0
LINE
8
Layer 1
10
142.666000
20
42.256400
11
156.699000
21
42.256400
0
LINE
8
Layer 1
10
156.699000
20
42.256400
11
156.699000
21
28.223700
0
LINE
8
Layer 1
10
156.699000
20
28.223700
11
142.666000
21
28.223700
0
LINE
8
Layer 1
10
142.666000
20
28.223700
11
142.666000
21
42.256400
0
LINE
8
Layer 1
10
142.666000
20
56.289200
11
156.699000
21
56.289200
0
LINE
8
Layer 1
10
156.699000
20
56.289200
11
156.699000
21
42.256400
0
LINE
8
Layer 1
10
156.699000
20
42.256400
11
142.666000
21
42.256400
0
LINE
8
Layer 1
10
142.666000
20
42.256400
11
142.666000
21
56.289200
0
LINE
8
Layer 1
10
128.634000
20
70.322000
11
142.666000
21
70.322000
0
LINE
8
Layer 1
10
142.666000
20
70.322000
11
142.666000
21
56.289200
0
LINE
8
Layer 1
10
142.666000
20
56.289200
11
128.634000
21
56.289200
0
LINE
8
Layer 1
10
128.634000
20
56.289200
11
128.634000
21
70.322000
0
LINE
8
Layer 1
10
114.601000
20
70.322000
11
128.634000
21
70.322000
0
LINE
8
Layer 1
10
128.634000
20
70.322000
11
128.634000
21
56.289200
0
LINE
8
Layer 1
10
128.634000
20
56.289200
11
114.601000
21
56.289200
0
LINE
8
Layer 1
10
114.601000
20
56.289200
11
114.601000
21
70.322000
0
LINE
8
Layer 1
10
100.568000
20
70.322000
11
114.601000
21
70.322000
0
LINE
8
Layer 1
10
114.601000
20
70.322000
11
114.601000
21
56.289200
0
LINE
8
Layer 1
10
114.601000
20
56.289200
11
100.568000
21
56.289200
0
LINE
8
Layer 1
10
100.568000
20
56.289200
11
100.568000
21
70.322000
0
LINE
8
Layer 1
10
142.666000
20
84.354800
11
156.699000
21
84.354800
0
LINE
8
Layer 1
10
156.699000
20
84.354800
11
156.699000
21
70.322000
0
LINE
8
Layer 1
10
156.699000
20
70.322000
11
142.666000
21
70.322000
0
LINE
8
Layer 1
10
142.666000
20
70.322000
11
142.666000
21
84.354800
0
LINE
8
Layer 1
10
86.535400
20
84.354800
11
100.568000
21
84.354800
0
LINE
8
Layer 1
10
100.568000
20
84.354800
11
100.568000
21
70.322000
0
LINE
8
Layer 1
10
100.568000
20
70.322000
11
86.535400
21
70.322000
0
LINE
8
Layer 1
10
86.535400
20
70.322000
11
86.535400
21
84.354800
0
LINE
8
Layer 1
10
142.666000
20
98.387500
11
156.699000
21
98.387500
0
LINE
8
Layer 1
10
156.699000
20
98.387500
11
156.699000
21
84.354800
0
LINE
8
Layer 1
10
156.699000
20
84.354800
11
142.666000
21
84.354800
0
LINE
8
Layer 1
10
142.666000
20
84.354800
11
142.666000
21
98.387500
0
LINE
8
Layer 1
10
86.535400
20
98.387500
11
100.568000
21
98.387500
0
LINE
8
Layer 1
10
100.568000
20
98.387500
11
100.568000
21
84.354800
0
LINE
8
Layer 1
10
100.568000
20
84.354800
11
86.535400
21
84.354800
0
LINE
8
Layer 1
10
86.535400
20
84.354800
11
86.535400
21
98.387500
0
LINE
8
Layer 1
10
142.666000
20
112.420000
11
156.699000
21
112.420000
0
LINE
8
Layer 1
10
156.699000
20
112.420000
11
156.699000
21
98.387500
0
LINE
8
Layer 1
10
156.699000
20
98.387500
11
142.666000
21
98.387500
0
LINE
8
Layer 1
10
142.666000
20
98.387500
11
142.666000
21
112.420000
0
LINE
8
Layer 1
10
86.535400
20
112.420000
11
100.568000
21
112.420000
0
LINE
8
Layer 1
10
100.568000
20
112.420000
11
100.568000
21
98.387500
0
LINE
8
Layer 1
10
100.568000
20
98.387500
11
86.535400
21
98.387500
0
LINE
8
Layer 1
10
86.535400
20
98.387500
11
86.535400
21
112.420000
0
LINE
8
Layer 1
10
214.795000
20
28.223700
11
228.828000
21
28.223700
0
LINE
8
Layer 1
10
228.828000
20
28.223700
11
228.828000
21
14.190900
0
LINE
8
Layer 1
10
228.828000
20
14.190900
11
214.795000
21
14.190900
0
LINE
8
Layer 1
10
214.795000
20
14.190900
11
214.795000
21
28.223700
0
LINE
8
Layer 1
10
214.795000
20
42.256400
11
228.828000
21
42.256400
0
LINE
8
Layer 1
10
228.828000
20
42.256400
11
228.828000
21
28.223700
0
LINE
8
Layer 1
10
228.828000
20
28.223700
11
214.795000
21
28.223700
0
LINE
8
Layer 1
10
214.795000
20
28.223700
11
214.795000
21
42.256400
0
LINE
8
Layer 1
10
214.795000
20
56.289200
11
228.828000
21
56.289200
0
LINE
8
Layer 1
10
228.828000
20
56.289200
11
228.828000
21
42.256400
0
LINE
8
Layer 1
10
228.828000
20
42.256400
11
214.795000
21
42.256400
0
LINE
8
Layer 1
10
214.795000
20
42.256400
11
214.795000
21
56.289200
0
LINE
8
Layer 1
10
214.795000
20
84.354800
11
228.828000
21
84.354800
0
LINE
8
Layer 1
10
228.828000
20
84.354800
11
228.828000
21
70.322000
0
LINE
8
Layer 1
10
228.828000
20
70.322000
11
214.795000
21
70.322000
0
LINE
8
Layer 1
10
214.795000
20
70.322000
11
214.795000
21
84.354800
0
LINE
8
Layer 1
10
214.795000
20
98.387500
11
228.828000
21
98.387500
0
LINE
8
Layer 1
10
228.828000
20
98.387500
11
228.828000
21
84.354800
0
LINE
8
Layer 1
10
228.828000
20
84.354800
11
214.795000
21
84.354800
0
LINE
8
Layer 1
10
214.795000
20
84.354800
11
214.795000
21
98.387500
0
LINE
8
Layer 1
10
214.795000
20
112.420000
11
228.828000
21
112.420000
0
LINE
8
Layer 1
10
228.828000
20
112.420000
11
228.828000
21
98.387500
0
LINE
8
Layer 1
10
228.828000
20
98.387500
11
214.795000
21
98.387500
0
LINE
8
Layer 1
10
214.795000
20
98.387500
11
214.795000
21
112.420000
0
LINE
8
Layer 1
10
200.762000
20
126.453000
11
214.795000
21
126.453000
0
LINE
8
Layer 1
10
214.795000
20
126.453000
11
214.795000
21
112.420000
0
LINE
8
Layer 1
10
214.795000
20
112.420000
11
200.762000
21
112.420000
0
LINE
8
Layer 1
10
200.762000
20
112.420000
11
200.762000
21
126.453000
0
LINE
8
Layer 1
10
186.729000
20
126.453000
11
200.762000
21
126.453000
0
LINE
8
Layer 1
10
200.762000
20
126.453000
11
200.762000
21
112.420000
0
LINE
8
Layer 1
10
200.762000
20
112.420000
11
186.729000
21
112.420000
0
LINE
8
Layer 1
10
186.729000
20
112.420000
11
186.729000
21
126.453000
0
LINE
8
Layer 1
10
172.697000
20
126.453000
11
186.729000
21
126.453000
0
LINE
8
Layer 1
10
186.729000
20
126.453000
11
186.729000
21
112.420000
0
LINE
8
Layer 1
10
186.729000
20
112.420000
11
172.697000
21
112.420000
0
LINE
8
Layer 1
10
172.697000
20
112.420000
11
172.697000
21
126.453000
 0 
ENDSEC
 0 
EOF