999
"DXF R12 Output" (www.mydxf.blogspot.com)
 0 
SECTION
 2 
HEADER
 9 
$ACADVER
 1 
AC1009
 9 
$EXTMIN
 10 
 0 
 20 
 0 
 9 
$EXTMAX
 10 
 8.5 
 20 
 11 
 0 
ENDSEC
 0 
SECTION
 2 
ENTITIES
0
LINE
8
Layer 1
10
0.793749
20
127.621000
11
-0.793749
21
126.033000
0
LINE
8
Layer 1
10
0.000000
20
128.150000
11
0.000000
21
125.504000
0
LINE
8
Layer 1
10
2.116660
20
125.769000
11
1.058330
21
124.710670
0
LINE
8
Layer 1
10
1.587500
20
126.298000
11
0.529170
21
125.239670
0
LINE
8
Layer 1
10
1.058330
20
126.827000
11
0.000000
21
125.768670
0
LINE
8
Layer 1
10
42.435000
20
14.290100
11
56.455600
21
14.290100
0
LINE
8
Layer 1
10
56.455600
20
14.290100
11
56.455600
21
0.269666
0
LINE
8
Layer 1
10
56.455600
20
0.269666
11
42.435000
21
0.269666
0
LINE
8
Layer 1
10
42.435000
20
0.269666
11
42.435000
21
14.290100
0
LINE
8
Layer 1
10
28.414700
20
14.290100
11
42.435000
21
14.290100
0
LINE
8
Layer 1
10
42.435000
20
14.290100
11
42.435000
21
0.269666
0
LINE
8
Layer 1
10
42.435000
20
0.269666
11
28.414700
21
0.269666
0
LINE
8
Layer 1
10
28.414700
20
0.269666
11
28.414700
21
14.290100
0
LINE
8
Layer 1
10
14.394300
20
14.290100
11
28.414700
21
14.290100
0
LINE
8
Layer 1
10
28.414700
20
14.290100
11
28.414700
21
0.269666
0
LINE
8
Layer 1
10
28.414700
20
0.269666
11
14.394300
21
0.269666
0
LINE
8
Layer 1
10
14.394300
20
0.269666
11
14.394300
21
14.290100
0
LINE
8
Layer 1
10
56.455600
20
28.310500
11
70.475900
21
28.310500
0
LINE
8
Layer 1
10
70.475900
20
28.310500
11
70.475900
21
14.290100
0
LINE
8
Layer 1
10
70.475900
20
14.290100
11
56.455600
21
14.290100
0
LINE
8
Layer 1
10
56.455600
20
14.290100
11
56.455600
21
28.310500
0
LINE
8
Layer 1
10
0.373878
20
28.310500
11
14.394300
21
28.310500
0
LINE
8
Layer 1
10
14.394300
20
28.310500
11
14.394300
21
14.290100
0
LINE
8
Layer 1
10
14.394300
20
14.290100
11
0.373878
21
14.290100
0
LINE
8
Layer 1
10
0.373878
20
14.290100
11
0.373878
21
28.310500
0
LINE
8
Layer 1
10
56.455600
20
42.330900
11
70.475900
21
42.330900
0
LINE
8
Layer 1
10
70.475900
20
42.330900
11
70.475900
21
28.310500
0
LINE
8
Layer 1
10
70.475900
20
28.310500
11
56.455600
21
28.310500
0
LINE
8
Layer 1
10
56.455600
20
28.310500
11
56.455600
21
42.330900
0
LINE
8
Layer 1
10
0.373878
20
42.330900
11
14.394300
21
42.330900
0
LINE
8
Layer 1
10
14.394300
20
42.330900
11
14.394300
21
28.310500
0
LINE
8
Layer 1
10
14.394300
20
28.310500
11
0.373878
21
28.310500
0
LINE
8
Layer 1
10
0.373878
20
28.310500
11
0.373878
21
42.330900
0
LINE
8
Layer 1
10
56.455600
20
56.351300
11
70.475900
21
56.351300
0
LINE
8
Layer 1
10
70.475900
20
56.351300
11
70.475900
21
42.330900
0
LINE
8
Layer 1
10
70.475900
20
42.330900
11
56.455600
21
42.330900
0
LINE
8
Layer 1
10
56.455600
20
42.330900
11
56.455600
21
56.351300
0
LINE
8
Layer 1
10
0.373878
20
56.351300
11
14.394300
21
56.351300
0
LINE
8
Layer 1
10
14.394300
20
56.351300
11
14.394300
21
42.330900
0
LINE
8
Layer 1
10
14.394300
20
42.330900
11
0.373878
21
42.330900
0
LINE
8
Layer 1
10
0.373878
20
42.330900
11
0.373878
21
56.351300
0
LINE
8
Layer 1
10
42.435000
20
70.371700
11
56.455600
21
70.371700
0
LINE
8
Layer 1
10
56.455600
20
70.371700
11
56.455600
21
56.351300
0
LINE
8
Layer 1
10
56.455600
20
56.351300
11
42.435000
21
56.351300
0
LINE
8
Layer 1
10
42.435000
20
56.351300
11
42.435000
21
70.371700
0
LINE
8
Layer 1
10
28.414700
20
70.371700
11
42.435000
21
70.371700
0
LINE
8
Layer 1
10
42.435000
20
70.371700
11
42.435000
21
56.351300
0
LINE
8
Layer 1
10
42.435000
20
56.351300
11
28.414700
21
56.351300
0
LINE
8
Layer 1
10
28.414700
20
56.351300
11
28.414700
21
70.371700
0
LINE
8
Layer 1
10
14.394300
20
70.371700
11
28.414700
21
70.371700
0
LINE
8
Layer 1
10
28.414700
20
70.371700
11
28.414700
21
56.351300
0
LINE
8
Layer 1
10
28.414700
20
56.351300
11
14.394300
21
56.351300
0
LINE
8
Layer 1
10
14.394300
20
56.351300
11
14.394300
21
70.371700
0
LINE
8
Layer 1
10
56.455600
20
84.392100
11
70.475900
21
84.392100
0
LINE
8
Layer 1
10
70.475900
20
84.392100
11
70.475900
21
70.371700
0
LINE
8
Layer 1
10
70.475900
20
70.371700
11
56.455600
21
70.371700
0
LINE
8
Layer 1
10
56.455600
20
70.371700
11
56.455600
21
84.392100
0
LINE
8
Layer 1
10
0.373878
20
84.392100
11
14.394300
21
84.392100
0
LINE
8
Layer 1
10
14.394300
20
84.392100
11
14.394300
21
70.371700
0
LINE
8
Layer 1
10
14.394300
20
70.371700
11
0.373878
21
70.371700
0
LINE
8
Layer 1
10
0.373878
20
70.371700
11
0.373878
21
84.392100
0
LINE
8
Layer 1
10
56.455600
20
98.412500
11
70.475900
21
98.412500
0
LINE
8
Layer 1
10
70.475900
20
98.412500
11
70.475900
21
84.392100
0
LINE
8
Layer 1
10
70.475900
20
84.392100
11
56.455600
21
84.392100
0
LINE
8
Layer 1
10
56.455600
20
84.392100
11
56.455600
21
98.412500
0
LINE
8
Layer 1
10
0.373878
20
98.412500
11
14.394300
21
98.412500
0
LINE
8
Layer 1
10
14.394300
20
98.412500
11
14.394300
21
84.392100
0
LINE
8
Layer 1
10
14.394300
20
84.392100
11
0.373878
21
84.392100
0
LINE
8
Layer 1
10
0.373878
20
84.392100
11
0.373878
21
98.412500
0
LINE
8
Layer 1
10
56.455600
20
112.433000
11
70.475900
21
112.433000
0
LINE
8
Layer 1
10
70.475900
20
112.433000
11
70.475900
21
98.412500
0
LINE
8
Layer 1
10
70.475900
20
98.412500
11
56.455600
21
98.412500
0
LINE
8
Layer 1
10
56.455600
20
98.412500
11
56.455600
21
112.433000
0
LINE
8
Layer 1
10
0.373878
20
112.433000
11
14.394300
21
112.433000
0
LINE
8
Layer 1
10
14.394300
20
112.433000
11
14.394300
21
98.412500
0
LINE
8
Layer 1
10
14.394300
20
98.412500
11
0.373878
21
98.412500
0
LINE
8
Layer 1
10
0.373878
20
98.412500
11
0.373878
21
112.433000
0
LINE
8
Layer 1
10
42.435000
20
126.453000
11
56.455600
21
126.453000
0
LINE
8
Layer 1
10
56.455600
20
126.453000
11
56.455600
21
112.433000
0
LINE
8
Layer 1
10
56.455600
20
112.433000
11
42.435000
21
112.433000
0
LINE
8
Layer 1
10
42.435000
20
112.433000
11
42.435000
21
126.453000
0
LINE
8
Layer 1
10
28.414700
20
126.453000
11
42.435000
21
126.453000
0
LINE
8
Layer 1
10
42.435000
20
126.453000
11
42.435000
21
112.433000
0
LINE
8
Layer 1
10
42.435000
20
112.433000
11
28.414700
21
112.433000
0
LINE
8
Layer 1
10
28.414700
20
112.433000
11
28.414700
21
126.453000
0
LINE
8
Layer 1
10
14.394300
20
126.453000
11
28.414700
21
126.453000
0
LINE
8
Layer 1
10
28.414700
20
126.453000
11
28.414700
21
112.433000
0
LINE
8
Layer 1
10
28.414700
20
112.433000
11
14.394300
21
112.433000
0
LINE
8
Layer 1
10
14.394300
20
112.433000
11
14.394300
21
126.453000
0
LINE
8
Layer 1
10
142.541000
20
28.310500
11
156.561000
21
28.310500
0
LINE
8
Layer 1
10
156.561000
20
28.310500
11
156.561000
21
14.290100
0
LINE
8
Layer 1
10
156.561000
20
14.290100
11
142.541000
21
14.290100
0
LINE
8
Layer 1
10
142.541000
20
14.290100
11
142.541000
21
28.310500
0
LINE
8
Layer 1
10
142.541000
20
42.330900
11
156.561000
21
42.330900
0
LINE
8
Layer 1
10
156.561000
20
42.330900
11
156.561000
21
28.310500
0
LINE
8
Layer 1
10
156.561000
20
28.310500
11
142.541000
21
28.310500
0
LINE
8
Layer 1
10
142.541000
20
28.310500
11
142.541000
21
42.330900
0
LINE
8
Layer 1
10
142.541000
20
56.351300
11
156.561000
21
56.351300
0
LINE
8
Layer 1
10
156.561000
20
56.351300
11
156.561000
21
42.330900
0
LINE
8
Layer 1
10
156.561000
20
42.330900
11
142.541000
21
42.330900
0
LINE
8
Layer 1
10
142.541000
20
42.330900
11
142.541000
21
56.351300
0
LINE
8
Layer 1
10
128.520000
20
70.371700
11
142.541000
21
70.371700
0
LINE
8
Layer 1
10
142.541000
20
70.371700
11
142.541000
21
56.351300
0
LINE
8
Layer 1
10
142.541000
20
56.351300
11
128.520000
21
56.351300
0
LINE
8
Layer 1
10
128.520000
20
56.351300
11
128.520000
21
70.371700
0
LINE
8
Layer 1
10
114.500000
20
70.371700
11
128.520000
21
70.371700
0
LINE
8
Layer 1
10
128.520000
20
70.371700
11
128.520000
21
56.351300
0
LINE
8
Layer 1
10
128.520000
20
56.351300
11
114.500000
21
56.351300
0
LINE
8
Layer 1
10
114.500000
20
56.351300
11
114.500000
21
70.371700
0
LINE
8
Layer 1
10
100.480000
20
70.371700
11
114.500000
21
70.371700
0
LINE
8
Layer 1
10
114.500000
20
70.371700
11
114.500000
21
56.351300
0
LINE
8
Layer 1
10
114.500000
20
56.351300
11
100.480000
21
56.351300
0
LINE
8
Layer 1
10
100.480000
20
56.351300
11
100.480000
21
70.371700
0
LINE
8
Layer 1
10
142.541000
20
84.392100
11
156.561000
21
84.392100
0
LINE
8
Layer 1
10
156.561000
20
84.392100
11
156.561000
21
70.371700
0
LINE
8
Layer 1
10
156.561000
20
70.371700
11
142.541000
21
70.371700
0
LINE
8
Layer 1
10
142.541000
20
70.371700
11
142.541000
21
84.392100
0
LINE
8
Layer 1
10
86.459100
20
84.392100
11
100.480000
21
84.392100
0
LINE
8
Layer 1
10
100.480000
20
84.392100
11
100.480000
21
70.371700
0
LINE
8
Layer 1
10
100.480000
20
70.371700
11
86.459100
21
70.371700
0
LINE
8
Layer 1
10
86.459100
20
70.371700
11
86.459100
21
84.392100
0
LINE
8
Layer 1
10
142.541000
20
98.412500
11
156.561000
21
98.412500
0
LINE
8
Layer 1
10
156.561000
20
98.412500
11
156.561000
21
84.392100
0
LINE
8
Layer 1
10
156.561000
20
84.392100
11
142.541000
21
84.392100
0
LINE
8
Layer 1
10
142.541000
20
84.392100
11
142.541000
21
98.412500
0
LINE
8
Layer 1
10
86.459100
20
98.412500
11
100.480000
21
98.412500
0
LINE
8
Layer 1
10
100.480000
20
98.412500
11
100.480000
21
84.392100
0
LINE
8
Layer 1
10
100.480000
20
84.392100
11
86.459100
21
84.392100
0
LINE
8
Layer 1
10
86.459100
20
84.392100
11
86.459100
21
98.412500
0
LINE
8
Layer 1
10
142.541000
20
112.433000
11
156.561000
21
112.433000
0
LINE
8
Layer 1
10
156.561000
20
112.433000
11
156.561000
21
98.412500
0
LINE
8
Layer 1
10
156.561000
20
98.412500
11
142.541000
21
98.412500
0
LINE
8
Layer 1
10
142.541000
20
98.412500
11
142.541000
21
112.433000
0
LINE
8
Layer 1
10
86.459100
20
112.433000
11
100.480000
21
112.433000
0
LINE
8
Layer 1
10
100.480000
20
112.433000
11
100.480000
21
98.412500
0
LINE
8
Layer 1
10
100.480000
20
98.412500
11
86.459100
21
98.412500
0
LINE
8
Layer 1
10
86.459100
20
98.412500
11
86.459100
21
112.433000
0
LINE
8
Layer 1
10
214.606000
20
14.290100
11
228.626000
21
14.290100
0
LINE
8
Layer 1
10
228.626000
20
14.290100
11
228.626000
21
0.269666
0
LINE
8
Layer 1
10
228.626000
20
0.269666
11
214.606000
21
0.269666
0
LINE
8
Layer 1
10
214.606000
20
0.269666
11
214.606000
21
14.290100
0
LINE
8
Layer 1
10
200.585000
20
14.290100
11
214.606000
21
14.290100
0
LINE
8
Layer 1
10
214.606000
20
14.290100
11
214.606000
21
0.269666
0
LINE
8
Layer 1
10
214.606000
20
0.269666
11
200.585000
21
0.269666
0
LINE
8
Layer 1
10
200.585000
20
0.269666
11
200.585000
21
14.290100
0
LINE
8
Layer 1
10
186.565000
20
14.290100
11
200.585000
21
14.290100
0
LINE
8
Layer 1
10
200.585000
20
14.290100
11
200.585000
21
0.269666
0
LINE
8
Layer 1
10
200.585000
20
0.269666
11
186.565000
21
0.269666
0
LINE
8
Layer 1
10
186.565000
20
0.269666
11
186.565000
21
14.290100
0
LINE
8
Layer 1
10
228.626000
20
28.310500
11
242.647000
21
28.310500
0
LINE
8
Layer 1
10
242.647000
20
28.310500
11
242.647000
21
14.290100
0
LINE
8
Layer 1
10
242.647000
20
14.290100
11
228.626000
21
14.290100
0
LINE
8
Layer 1
10
228.626000
20
14.290100
11
228.626000
21
28.310500
0
LINE
8
Layer 1
10
172.544000
20
28.310500
11
186.565000
21
28.310500
0
LINE
8
Layer 1
10
186.565000
20
28.310500
11
186.565000
21
14.290100
0
LINE
8
Layer 1
10
186.565000
20
14.290100
11
172.544000
21
14.290100
0
LINE
8
Layer 1
10
172.544000
20
14.290100
11
172.544000
21
28.310500
0
LINE
8
Layer 1
10
228.626000
20
42.330900
11
242.647000
21
42.330900
0
LINE
8
Layer 1
10
242.647000
20
42.330900
11
242.647000
21
28.310500
0
LINE
8
Layer 1
10
242.647000
20
28.310500
11
228.626000
21
28.310500
0
LINE
8
Layer 1
10
228.626000
20
28.310500
11
228.626000
21
42.330900
0
LINE
8
Layer 1
10
172.544000
20
42.330900
11
186.565000
21
42.330900
0
LINE
8
Layer 1
10
186.565000
20
42.330900
11
186.565000
21
28.310500
0
LINE
8
Layer 1
10
186.565000
20
28.310500
11
172.544000
21
28.310500
0
LINE
8
Layer 1
10
172.544000
20
28.310500
11
172.544000
21
42.330900
0
LINE
8
Layer 1
10
228.626000
20
56.351300
11
242.647000
21
56.351300
0
LINE
8
Layer 1
10
242.647000
20
56.351300
11
242.647000
21
42.330900
0
LINE
8
Layer 1
10
242.647000
20
42.330900
11
228.626000
21
42.330900
0
LINE
8
Layer 1
10
228.626000
20
42.330900
11
228.626000
21
56.351300
0
LINE
8
Layer 1
10
172.544000
20
56.351300
11
186.565000
21
56.351300
0
LINE
8
Layer 1
10
186.565000
20
56.351300
11
186.565000
21
42.330900
0
LINE
8
Layer 1
10
186.565000
20
42.330900
11
172.544000
21
42.330900
0
LINE
8
Layer 1
10
172.544000
20
42.330900
11
172.544000
21
56.351300
0
LINE
8
Layer 1
10
214.606000
20
70.371700
11
228.626000
21
70.371700
0
LINE
8
Layer 1
10
228.626000
20
70.371700
11
228.626000
21
56.351300
0
LINE
8
Layer 1
10
228.626000
20
56.351300
11
214.606000
21
56.351300
0
LINE
8
Layer 1
10
214.606000
20
56.351300
11
214.606000
21
70.371700
0
LINE
8
Layer 1
10
200.585000
20
70.371700
11
214.606000
21
70.371700
0
LINE
8
Layer 1
10
214.606000
20
70.371700
11
214.606000
21
56.351300
0
LINE
8
Layer 1
10
214.606000
20
56.351300
11
200.585000
21
56.351300
0
LINE
8
Layer 1
10
200.585000
20
56.351300
11
200.585000
21
70.371700
0
LINE
8
Layer 1
10
186.565000
20
70.371700
11
200.585000
21
70.371700
0
LINE
8
Layer 1
10
200.585000
20
70.371700
11
200.585000
21
56.351300
0
LINE
8
Layer 1
10
200.585000
20
56.351300
11
186.565000
21
56.351300
0
LINE
8
Layer 1
10
186.565000
20
56.351300
11
186.565000
21
70.371700
0
LINE
8
Layer 1
10
228.626000
20
84.392100
11
242.647000
21
84.392100
0
LINE
8
Layer 1
10
242.647000
20
84.392100
11
242.647000
21
70.371700
0
LINE
8
Layer 1
10
242.647000
20
70.371700
11
228.626000
21
70.371700
0
LINE
8
Layer 1
10
228.626000
20
70.371700
11
228.626000
21
84.392100
0
LINE
8
Layer 1
10
172.544000
20
84.392100
11
186.565000
21
84.392100
0
LINE
8
Layer 1
10
186.565000
20
84.392100
11
186.565000
21
70.371700
0
LINE
8
Layer 1
10
186.565000
20
70.371700
11
172.544000
21
70.371700
0
LINE
8
Layer 1
10
172.544000
20
70.371700
11
172.544000
21
84.392100
0
LINE
8
Layer 1
10
228.626000
20
98.412500
11
242.647000
21
98.412500
0
LINE
8
Layer 1
10
242.647000
20
98.412500
11
242.647000
21
84.392100
0
LINE
8
Layer 1
10
242.647000
20
84.392100
11
228.626000
21
84.392100
0
LINE
8
Layer 1
10
228.626000
20
84.392100
11
228.626000
21
98.412500
0
LINE
8
Layer 1
10
172.544000
20
98.412500
11
186.565000
21
98.412500
0
LINE
8
Layer 1
10
186.565000
20
98.412500
11
186.565000
21
84.392100
0
LINE
8
Layer 1
10
186.565000
20
84.392100
11
172.544000
21
84.392100
0
LINE
8
Layer 1
10
172.544000
20
84.392100
11
172.544000
21
98.412500
0
LINE
8
Layer 1
10
228.626000
20
112.433000
11
242.647000
21
112.433000
0
LINE
8
Layer 1
10
242.647000
20
112.433000
11
242.647000
21
98.412500
0
LINE
8
Layer 1
10
242.647000
20
98.412500
11
228.626000
21
98.412500
0
LINE
8
Layer 1
10
228.626000
20
98.412500
11
228.626000
21
112.433000
0
LINE
8
Layer 1
10
172.544000
20
112.433000
11
186.565000
21
112.433000
0
LINE
8
Layer 1
10
186.565000
20
112.433000
11
186.565000
21
98.412500
0
LINE
8
Layer 1
10
186.565000
20
98.412500
11
172.544000
21
98.412500
0
LINE
8
Layer 1
10
172.544000
20
98.412500
11
172.544000
21
112.433000
0
LINE
8
Layer 1
10
214.606000
20
126.453000
11
228.626000
21
126.453000
0
LINE
8
Layer 1
10
228.626000
20
126.453000
11
228.626000
21
112.433000
0
LINE
8
Layer 1
10
228.626000
20
112.433000
11
214.606000
21
112.433000
0
LINE
8
Layer 1
10
214.606000
20
112.433000
11
214.606000
21
126.453000
0
LINE
8
Layer 1
10
200.585000
20
126.453000
11
214.606000
21
126.453000
0
LINE
8
Layer 1
10
214.606000
20
126.453000
11
214.606000
21
112.433000
0
LINE
8
Layer 1
10
214.606000
20
112.433000
11
200.585000
21
112.433000
0
LINE
8
Layer 1
10
200.585000
20
112.433000
11
200.585000
21
126.453000
0
LINE
8
Layer 1
10
186.565000
20
126.453000
11
200.585000
21
126.453000
0
LINE
8
Layer 1
10
200.585000
20
126.453000
11
200.585000
21
112.433000
0
LINE
8
Layer 1
10
200.585000
20
112.433000
11
186.565000
21
112.433000
0
LINE
8
Layer 1
10
186.565000
20
112.433000
11
186.565000
21
126.453000
 0 
ENDSEC
 0 
EOF