999
"DXF R12 Output" (www.mydxf.blogspot.com)
 0 
SECTION
 2 
HEADER
 9 
$ACADVER
 1 
AC1009
 9 
$EXTMIN
 10 
 0 
 20 
 0 
 9 
$EXTMAX
 10 
 8.5 
 20 
 11 
 0 
ENDSEC
 0 
SECTION
 2 
ENTITIES
0
LINE
8
Layer 1
10
0.793749
20
127.621000
11
-0.793749
21
126.033000
0
LINE
8
Layer 1
10
0.000000
20
128.150000
11
0.000000
21
125.504000
0
LINE
8
Layer 1
10
2.116660
20
125.769000
11
1.058330
21
124.710670
0
LINE
8
Layer 1
10
1.587500
20
126.298000
11
0.529170
21
125.239670
0
LINE
8
Layer 1
10
1.058330
20
126.827000
11
0.000000
21
125.768670
0
LINE
8
Layer 1
10
42.637300
20
13.754400
11
56.724300
21
13.754400
0
LINE
8
Layer 1
10
56.724300
20
13.754400
11
56.724300
21
-0.332763
0
LINE
8
Layer 1
10
56.724300
20
-0.332763
11
42.637300
21
-0.332763
0
LINE
8
Layer 1
10
42.637300
20
-0.332763
11
42.637300
21
13.754400
0
LINE
8
Layer 1
10
28.549900
20
13.754400
11
42.637300
21
13.754400
0
LINE
8
Layer 1
10
42.637300
20
13.754400
11
42.637300
21
-0.332763
0
LINE
8
Layer 1
10
42.637300
20
-0.332763
11
28.549900
21
-0.332763
0
LINE
8
Layer 1
10
28.549900
20
-0.332763
11
28.549900
21
13.754400
0
LINE
8
Layer 1
10
14.462800
20
13.754400
11
28.549900
21
13.754400
0
LINE
8
Layer 1
10
28.549900
20
13.754400
11
28.549900
21
-0.332763
0
LINE
8
Layer 1
10
28.549900
20
-0.332763
11
14.462800
21
-0.332763
0
LINE
8
Layer 1
10
14.462800
20
-0.332763
11
14.462800
21
13.754400
0
LINE
8
Layer 1
10
56.724300
20
27.841500
11
70.811400
21
27.841500
0
LINE
8
Layer 1
10
70.811400
20
27.841500
11
70.811400
21
13.754400
0
LINE
8
Layer 1
10
70.811400
20
13.754400
11
56.724300
21
13.754400
0
LINE
8
Layer 1
10
56.724300
20
13.754400
11
56.724300
21
27.841500
0
LINE
8
Layer 1
10
0.375657
20
27.841500
11
14.462800
21
27.841500
0
LINE
8
Layer 1
10
14.462800
20
27.841500
11
14.462800
21
13.754400
0
LINE
8
Layer 1
10
14.462800
20
13.754400
11
0.375657
21
13.754400
0
LINE
8
Layer 1
10
0.375657
20
13.754400
11
0.375657
21
27.841500
0
LINE
8
Layer 1
10
56.724300
20
41.928700
11
70.811400
21
41.928700
0
LINE
8
Layer 1
10
70.811400
20
41.928700
11
70.811400
21
27.841500
0
LINE
8
Layer 1
10
70.811400
20
27.841500
11
56.724300
21
27.841500
0
LINE
8
Layer 1
10
56.724300
20
27.841500
11
56.724300
21
41.928700
0
LINE
8
Layer 1
10
0.375657
20
41.928700
11
14.462800
21
41.928700
0
LINE
8
Layer 1
10
14.462800
20
41.928700
11
14.462800
21
27.841500
0
LINE
8
Layer 1
10
14.462800
20
27.841500
11
0.375657
21
27.841500
0
LINE
8
Layer 1
10
0.375657
20
27.841500
11
0.375657
21
41.928700
0
LINE
8
Layer 1
10
56.724300
20
56.015800
11
70.811400
21
56.015800
0
LINE
8
Layer 1
10
70.811400
20
56.015800
11
70.811400
21
41.928700
0
LINE
8
Layer 1
10
70.811400
20
41.928700
11
56.724300
21
41.928700
0
LINE
8
Layer 1
10
56.724300
20
41.928700
11
56.724300
21
56.015800
0
LINE
8
Layer 1
10
0.375657
20
56.015800
11
14.462800
21
56.015800
0
LINE
8
Layer 1
10
14.462800
20
56.015800
11
14.462800
21
41.928700
0
LINE
8
Layer 1
10
14.462800
20
41.928700
11
0.375657
21
41.928700
0
LINE
8
Layer 1
10
0.375657
20
41.928700
11
0.375657
21
56.015800
0
LINE
8
Layer 1
10
42.637300
20
70.103000
11
56.724300
21
70.103000
0
LINE
8
Layer 1
10
56.724300
20
70.103000
11
56.724300
21
56.015800
0
LINE
8
Layer 1
10
56.724300
20
56.015800
11
42.637300
21
56.015800
0
LINE
8
Layer 1
10
42.637300
20
56.015800
11
42.637300
21
70.103000
0
LINE
8
Layer 1
10
28.549900
20
70.103000
11
42.637300
21
70.103000
0
LINE
8
Layer 1
10
42.637300
20
70.103000
11
42.637300
21
56.015800
0
LINE
8
Layer 1
10
42.637300
20
56.015800
11
28.549900
21
56.015800
0
LINE
8
Layer 1
10
28.549900
20
56.015800
11
28.549900
21
70.103000
0
LINE
8
Layer 1
10
14.462800
20
70.103000
11
28.549900
21
70.103000
0
LINE
8
Layer 1
10
28.549900
20
70.103000
11
28.549900
21
56.015800
0
LINE
8
Layer 1
10
28.549900
20
56.015800
11
14.462800
21
56.015800
0
LINE
8
Layer 1
10
14.462800
20
56.015800
11
14.462800
21
70.103000
0
LINE
8
Layer 1
10
56.724300
20
84.190200
11
70.811400
21
84.190200
0
LINE
8
Layer 1
10
70.811400
20
84.190200
11
70.811400
21
70.103000
0
LINE
8
Layer 1
10
70.811400
20
70.103000
11
56.724300
21
70.103000
0
LINE
8
Layer 1
10
56.724300
20
70.103000
11
56.724300
21
84.190200
0
LINE
8
Layer 1
10
0.375657
20
84.190200
11
14.462800
21
84.190200
0
LINE
8
Layer 1
10
14.462800
20
84.190200
11
14.462800
21
70.103000
0
LINE
8
Layer 1
10
14.462800
20
70.103000
11
0.375657
21
70.103000
0
LINE
8
Layer 1
10
0.375657
20
70.103000
11
0.375657
21
84.190200
0
LINE
8
Layer 1
10
56.724300
20
98.277300
11
70.811400
21
98.277300
0
LINE
8
Layer 1
10
70.811400
20
98.277300
11
70.811400
21
84.190200
0
LINE
8
Layer 1
10
70.811400
20
84.190200
11
56.724300
21
84.190200
0
LINE
8
Layer 1
10
56.724300
20
84.190200
11
56.724300
21
98.277300
0
LINE
8
Layer 1
10
0.375657
20
98.277300
11
14.462800
21
98.277300
0
LINE
8
Layer 1
10
14.462800
20
98.277300
11
14.462800
21
84.190200
0
LINE
8
Layer 1
10
14.462800
20
84.190200
11
0.375657
21
84.190200
0
LINE
8
Layer 1
10
0.375657
20
84.190200
11
0.375657
21
98.277300
0
LINE
8
Layer 1
10
56.724300
20
112.364000
11
70.811400
21
112.364000
0
LINE
8
Layer 1
10
70.811400
20
112.364000
11
70.811400
21
98.277300
0
LINE
8
Layer 1
10
70.811400
20
98.277300
11
56.724300
21
98.277300
0
LINE
8
Layer 1
10
56.724300
20
98.277300
11
56.724300
21
112.364000
0
LINE
8
Layer 1
10
0.375657
20
112.364000
11
14.462800
21
112.364000
0
LINE
8
Layer 1
10
14.462800
20
112.364000
11
14.462800
21
98.277300
0
LINE
8
Layer 1
10
14.462800
20
98.277300
11
0.375657
21
98.277300
0
LINE
8
Layer 1
10
0.375657
20
98.277300
11
0.375657
21
112.364000
0
LINE
8
Layer 1
10
42.637300
20
126.452000
11
56.724300
21
126.452000
0
LINE
8
Layer 1
10
56.724300
20
126.452000
11
56.724300
21
112.364000
0
LINE
8
Layer 1
10
56.724300
20
112.364000
11
42.637300
21
112.364000
0
LINE
8
Layer 1
10
42.637300
20
112.364000
11
42.637300
21
126.452000
0
LINE
8
Layer 1
10
28.549900
20
126.452000
11
42.637300
21
126.452000
0
LINE
8
Layer 1
10
42.637300
20
126.452000
11
42.637300
21
112.364000
0
LINE
8
Layer 1
10
42.637300
20
112.364000
11
28.549900
21
112.364000
0
LINE
8
Layer 1
10
28.549900
20
112.364000
11
28.549900
21
126.452000
0
LINE
8
Layer 1
10
14.462800
20
126.452000
11
28.549900
21
126.452000
0
LINE
8
Layer 1
10
28.549900
20
126.452000
11
28.549900
21
112.364000
0
LINE
8
Layer 1
10
28.549900
20
112.364000
11
14.462800
21
112.364000
0
LINE
8
Layer 1
10
14.462800
20
112.364000
11
14.462800
21
126.452000
0
LINE
8
Layer 1
10
129.132000
20
13.754400
11
143.219000
21
13.754400
0
LINE
8
Layer 1
10
143.219000
20
13.754400
11
143.219000
21
-0.332763
0
LINE
8
Layer 1
10
143.219000
20
-0.332763
11
129.132000
21
-0.332763
0
LINE
8
Layer 1
10
129.132000
20
-0.332763
11
129.132000
21
13.754400
0
LINE
8
Layer 1
10
115.045000
20
13.754400
11
129.132000
21
13.754400
0
LINE
8
Layer 1
10
129.132000
20
13.754400
11
129.132000
21
-0.332763
0
LINE
8
Layer 1
10
129.132000
20
-0.332763
11
115.045000
21
-0.332763
0
LINE
8
Layer 1
10
115.045000
20
-0.332763
11
115.045000
21
13.754400
0
LINE
8
Layer 1
10
100.958000
20
13.754400
11
115.045000
21
13.754400
0
LINE
8
Layer 1
10
115.045000
20
13.754400
11
115.045000
21
-0.332763
0
LINE
8
Layer 1
10
115.045000
20
-0.332763
11
100.958000
21
-0.332763
0
LINE
8
Layer 1
10
100.958000
20
-0.332763
11
100.958000
21
13.754400
0
LINE
8
Layer 1
10
143.219000
20
27.841500
11
157.306000
21
27.841500
0
LINE
8
Layer 1
10
157.306000
20
27.841500
11
157.306000
21
13.754400
0
LINE
8
Layer 1
10
157.306000
20
13.754400
11
143.219000
21
13.754400
0
LINE
8
Layer 1
10
143.219000
20
13.754400
11
143.219000
21
27.841500
0
LINE
8
Layer 1
10
143.219000
20
41.928700
11
157.306000
21
41.928700
0
LINE
8
Layer 1
10
157.306000
20
41.928700
11
157.306000
21
27.841500
0
LINE
8
Layer 1
10
157.306000
20
27.841500
11
143.219000
21
27.841500
0
LINE
8
Layer 1
10
143.219000
20
27.841500
11
143.219000
21
41.928700
0
LINE
8
Layer 1
10
143.219000
20
56.015800
11
157.306000
21
56.015800
0
LINE
8
Layer 1
10
157.306000
20
56.015800
11
157.306000
21
41.928700
0
LINE
8
Layer 1
10
157.306000
20
41.928700
11
143.219000
21
41.928700
0
LINE
8
Layer 1
10
143.219000
20
41.928700
11
143.219000
21
56.015800
0
LINE
8
Layer 1
10
129.132000
20
70.103000
11
143.219000
21
70.103000
0
LINE
8
Layer 1
10
143.219000
20
70.103000
11
143.219000
21
56.015800
0
LINE
8
Layer 1
10
143.219000
20
56.015800
11
129.132000
21
56.015800
0
LINE
8
Layer 1
10
129.132000
20
56.015800
11
129.132000
21
70.103000
0
LINE
8
Layer 1
10
115.045000
20
70.103000
11
129.132000
21
70.103000
0
LINE
8
Layer 1
10
129.132000
20
70.103000
11
129.132000
21
56.015800
0
LINE
8
Layer 1
10
129.132000
20
56.015800
11
115.045000
21
56.015800
0
LINE
8
Layer 1
10
115.045000
20
56.015800
11
115.045000
21
70.103000
0
LINE
8
Layer 1
10
100.958000
20
70.103000
11
115.045000
21
70.103000
0
LINE
8
Layer 1
10
115.045000
20
70.103000
11
115.045000
21
56.015800
0
LINE
8
Layer 1
10
115.045000
20
56.015800
11
100.958000
21
56.015800
0
LINE
8
Layer 1
10
100.958000
20
56.015800
11
100.958000
21
70.103000
0
LINE
8
Layer 1
10
86.870600
20
84.190200
11
100.958000
21
84.190200
0
LINE
8
Layer 1
10
100.958000
20
84.190200
11
100.958000
21
70.103000
0
LINE
8
Layer 1
10
100.958000
20
70.103000
11
86.870600
21
70.103000
0
LINE
8
Layer 1
10
86.870600
20
70.103000
11
86.870600
21
84.190200
0
LINE
8
Layer 1
10
86.870600
20
98.277300
11
100.958000
21
98.277300
0
LINE
8
Layer 1
10
100.958000
20
98.277300
11
100.958000
21
84.190200
0
LINE
8
Layer 1
10
100.958000
20
84.190200
11
86.870600
21
84.190200
0
LINE
8
Layer 1
10
86.870600
20
84.190200
11
86.870600
21
98.277300
0
LINE
8
Layer 1
10
86.870600
20
112.364000
11
100.958000
21
112.364000
0
LINE
8
Layer 1
10
100.958000
20
112.364000
11
100.958000
21
98.277300
0
LINE
8
Layer 1
10
100.958000
20
98.277300
11
86.870600
21
98.277300
0
LINE
8
Layer 1
10
86.870600
20
98.277300
11
86.870600
21
112.364000
0
LINE
8
Layer 1
10
129.132000
20
126.452000
11
143.219000
21
126.452000
0
LINE
8
Layer 1
10
143.219000
20
126.452000
11
143.219000
21
112.364000
0
LINE
8
Layer 1
10
143.219000
20
112.364000
11
129.132000
21
112.364000
0
LINE
8
Layer 1
10
129.132000
20
112.364000
11
129.132000
21
126.452000
0
LINE
8
Layer 1
10
115.045000
20
126.452000
11
129.132000
21
126.452000
0
LINE
8
Layer 1
10
129.132000
20
126.452000
11
129.132000
21
112.364000
0
LINE
8
Layer 1
10
129.132000
20
112.364000
11
115.045000
21
112.364000
0
LINE
8
Layer 1
10
115.045000
20
112.364000
11
115.045000
21
126.452000
0
LINE
8
Layer 1
10
100.958000
20
126.452000
11
115.045000
21
126.452000
0
LINE
8
Layer 1
10
115.045000
20
126.452000
11
115.045000
21
112.364000
0
LINE
8
Layer 1
10
115.045000
20
112.364000
11
100.958000
21
112.364000
0
LINE
8
Layer 1
10
100.958000
20
112.364000
11
100.958000
21
126.452000
0
LINE
8
Layer 1
10
215.627000
20
13.754400
11
229.714000
21
13.754400
0
LINE
8
Layer 1
10
229.714000
20
13.754400
11
229.714000
21
-0.332763
0
LINE
8
Layer 1
10
229.714000
20
-0.332763
11
215.627000
21
-0.332763
0
LINE
8
Layer 1
10
215.627000
20
-0.332763
11
215.627000
21
13.754400
0
LINE
8
Layer 1
10
201.540000
20
13.754400
11
215.627000
21
13.754400
0
LINE
8
Layer 1
10
215.627000
20
13.754400
11
215.627000
21
-0.332763
0
LINE
8
Layer 1
10
215.627000
20
-0.332763
11
201.540000
21
-0.332763
0
LINE
8
Layer 1
10
201.540000
20
-0.332763
11
201.540000
21
13.754400
0
LINE
8
Layer 1
10
187.453000
20
13.754400
11
201.540000
21
13.754400
0
LINE
8
Layer 1
10
201.540000
20
13.754400
11
201.540000
21
-0.332763
0
LINE
8
Layer 1
10
201.540000
20
-0.332763
11
187.453000
21
-0.332763
0
LINE
8
Layer 1
10
187.453000
20
-0.332763
11
187.453000
21
13.754400
0
LINE
8
Layer 1
10
173.366000
20
27.841500
11
187.453000
21
27.841500
0
LINE
8
Layer 1
10
187.453000
20
27.841500
11
187.453000
21
13.754400
0
LINE
8
Layer 1
10
187.453000
20
13.754400
11
173.366000
21
13.754400
0
LINE
8
Layer 1
10
173.366000
20
13.754400
11
173.366000
21
27.841500
0
LINE
8
Layer 1
10
173.366000
20
41.928700
11
187.453000
21
41.928700
0
LINE
8
Layer 1
10
187.453000
20
41.928700
11
187.453000
21
27.841500
0
LINE
8
Layer 1
10
187.453000
20
27.841500
11
173.366000
21
27.841500
0
LINE
8
Layer 1
10
173.366000
20
27.841500
11
173.366000
21
41.928700
0
LINE
8
Layer 1
10
173.366000
20
56.015800
11
187.453000
21
56.015800
0
LINE
8
Layer 1
10
187.453000
20
56.015800
11
187.453000
21
41.928700
0
LINE
8
Layer 1
10
187.453000
20
41.928700
11
173.366000
21
41.928700
0
LINE
8
Layer 1
10
173.366000
20
41.928700
11
173.366000
21
56.015800
0
LINE
8
Layer 1
10
215.627000
20
70.103000
11
229.714000
21
70.103000
0
LINE
8
Layer 1
10
229.714000
20
70.103000
11
229.714000
21
56.015800
0
LINE
8
Layer 1
10
229.714000
20
56.015800
11
215.627000
21
56.015800
0
LINE
8
Layer 1
10
215.627000
20
56.015800
11
215.627000
21
70.103000
0
LINE
8
Layer 1
10
201.540000
20
70.103000
11
215.627000
21
70.103000
0
LINE
8
Layer 1
10
215.627000
20
70.103000
11
215.627000
21
56.015800
0
LINE
8
Layer 1
10
215.627000
20
56.015800
11
201.540000
21
56.015800
0
LINE
8
Layer 1
10
201.540000
20
56.015800
11
201.540000
21
70.103000
0
LINE
8
Layer 1
10
187.453000
20
70.103000
11
201.540000
21
70.103000
0
LINE
8
Layer 1
10
201.540000
20
70.103000
11
201.540000
21
56.015800
0
LINE
8
Layer 1
10
201.540000
20
56.015800
11
187.453000
21
56.015800
0
LINE
8
Layer 1
10
187.453000
20
56.015800
11
187.453000
21
70.103000
0
LINE
8
Layer 1
10
229.714000
20
84.190200
11
243.801000
21
84.190200
0
LINE
8
Layer 1
10
243.801000
20
84.190200
11
243.801000
21
70.103000
0
LINE
8
Layer 1
10
243.801000
20
70.103000
11
229.714000
21
70.103000
0
LINE
8
Layer 1
10
229.714000
20
70.103000
11
229.714000
21
84.190200
0
LINE
8
Layer 1
10
229.714000
20
98.277300
11
243.801000
21
98.277300
0
LINE
8
Layer 1
10
243.801000
20
98.277300
11
243.801000
21
84.190200
0
LINE
8
Layer 1
10
243.801000
20
84.190200
11
229.714000
21
84.190200
0
LINE
8
Layer 1
10
229.714000
20
84.190200
11
229.714000
21
98.277300
0
LINE
8
Layer 1
10
229.714000
20
112.364000
11
243.801000
21
112.364000
0
LINE
8
Layer 1
10
243.801000
20
112.364000
11
243.801000
21
98.277300
0
LINE
8
Layer 1
10
243.801000
20
98.277300
11
229.714000
21
98.277300
0
LINE
8
Layer 1
10
229.714000
20
98.277300
11
229.714000
21
112.364000
0
LINE
8
Layer 1
10
215.627000
20
126.452000
11
229.714000
21
126.452000
0
LINE
8
Layer 1
10
229.714000
20
126.452000
11
229.714000
21
112.364000
0
LINE
8
Layer 1
10
229.714000
20
112.364000
11
215.627000
21
112.364000
0
LINE
8
Layer 1
10
215.627000
20
112.364000
11
215.627000
21
126.452000
0
LINE
8
Layer 1
10
201.540000
20
126.452000
11
215.627000
21
126.452000
0
LINE
8
Layer 1
10
215.627000
20
126.452000
11
215.627000
21
112.364000
0
LINE
8
Layer 1
10
215.627000
20
112.364000
11
201.540000
21
112.364000
0
LINE
8
Layer 1
10
201.540000
20
112.364000
11
201.540000
21
126.452000
0
LINE
8
Layer 1
10
187.453000
20
126.452000
11
201.540000
21
126.452000
0
LINE
8
Layer 1
10
201.540000
20
126.452000
11
201.540000
21
112.364000
0
LINE
8
Layer 1
10
201.540000
20
112.364000
11
187.453000
21
112.364000
0
LINE
8
Layer 1
10
187.453000
20
112.364000
11
187.453000
21
126.452000
 0 
ENDSEC
 0 
EOF