999
"DXF R12 Output" (www.mydxf.blogspot.com)
 0 
SECTION
 2 
HEADER
 9 
$ACADVER
 1 
AC1009
 9 
$EXTMIN
 10 
 0 
 20 
 0 
 9 
$EXTMAX
 10 
 8.5 
 20 
 11 
 0 
ENDSEC
 0 
SECTION
 2 
ENTITIES
0
LINE
8
Layer 1
10
0.793749
20
127.621000
11
-0.793749
21
126.033000
0
LINE
8
Layer 1
10
0.000000
20
128.150000
11
0.000000
21
125.504000
0
LINE
8
Layer 1
10
2.116660
20
125.769000
11
1.058330
21
124.710670
0
LINE
8
Layer 1
10
1.587500
20
126.298000
11
0.529170
21
125.239670
0
LINE
8
Layer 1
10
1.058330
20
126.827000
11
0.000000
21
125.768670
0
LINE
8
Layer 1
10
42.139600
20
14.512700
11
56.174600
21
14.512700
0
LINE
8
Layer 1
10
56.174600
20
14.512700
11
56.174600
21
0.477756
0
LINE
8
Layer 1
10
56.174600
20
0.477756
11
42.139600
21
0.477756
0
LINE
8
Layer 1
10
42.139600
20
0.477756
11
42.139600
21
14.512700
0
LINE
8
Layer 1
10
28.104900
20
14.512700
11
42.139600
21
14.512700
0
LINE
8
Layer 1
10
42.139600
20
14.512700
11
42.139600
21
0.477756
0
LINE
8
Layer 1
10
42.139600
20
0.477756
11
28.104900
21
0.477756
0
LINE
8
Layer 1
10
28.104900
20
0.477756
11
28.104900
21
14.512700
0
LINE
8
Layer 1
10
14.070000
20
14.512700
11
28.104900
21
14.512700
0
LINE
8
Layer 1
10
28.104900
20
14.512700
11
28.104900
21
0.477756
0
LINE
8
Layer 1
10
28.104900
20
0.477756
11
14.070000
21
0.477756
0
LINE
8
Layer 1
10
14.070000
20
0.477756
11
14.070000
21
14.512700
0
LINE
8
Layer 1
10
56.174600
20
28.547600
11
70.209500
21
28.547600
0
LINE
8
Layer 1
10
70.209500
20
28.547600
11
70.209500
21
14.512700
0
LINE
8
Layer 1
10
70.209500
20
14.512700
11
56.174600
21
14.512700
0
LINE
8
Layer 1
10
56.174600
20
14.512700
11
56.174600
21
28.547600
0
LINE
8
Layer 1
10
0.035090
20
28.547600
11
14.070000
21
28.547600
0
LINE
8
Layer 1
10
14.070000
20
28.547600
11
14.070000
21
14.512700
0
LINE
8
Layer 1
10
14.070000
20
14.512700
11
0.035090
21
14.512700
0
LINE
8
Layer 1
10
0.035090
20
14.512700
11
0.035090
21
28.547600
0
LINE
8
Layer 1
10
56.174600
20
42.582400
11
70.209500
21
42.582400
0
LINE
8
Layer 1
10
70.209500
20
42.582400
11
70.209500
21
28.547600
0
LINE
8
Layer 1
10
70.209500
20
28.547600
11
56.174600
21
28.547600
0
LINE
8
Layer 1
10
56.174600
20
28.547600
11
56.174600
21
42.582400
0
LINE
8
Layer 1
10
0.035090
20
42.582400
11
14.070000
21
42.582400
0
LINE
8
Layer 1
10
14.070000
20
42.582400
11
14.070000
21
28.547600
0
LINE
8
Layer 1
10
14.070000
20
28.547600
11
0.035090
21
28.547600
0
LINE
8
Layer 1
10
0.035090
20
28.547600
11
0.035090
21
42.582400
0
LINE
8
Layer 1
10
56.174600
20
56.617400
11
70.209500
21
56.617400
0
LINE
8
Layer 1
10
70.209500
20
56.617400
11
70.209500
21
42.582400
0
LINE
8
Layer 1
10
70.209500
20
42.582400
11
56.174600
21
42.582400
0
LINE
8
Layer 1
10
56.174600
20
42.582400
11
56.174600
21
56.617400
0
LINE
8
Layer 1
10
0.035090
20
56.617400
11
14.070000
21
56.617400
0
LINE
8
Layer 1
10
14.070000
20
56.617400
11
14.070000
21
42.582400
0
LINE
8
Layer 1
10
14.070000
20
42.582400
11
0.035090
21
42.582400
0
LINE
8
Layer 1
10
0.035090
20
42.582400
11
0.035090
21
56.617400
0
LINE
8
Layer 1
10
42.139600
20
70.652100
11
56.174600
21
70.652100
0
LINE
8
Layer 1
10
56.174600
20
70.652100
11
56.174600
21
56.617400
0
LINE
8
Layer 1
10
56.174600
20
56.617400
11
42.139600
21
56.617400
0
LINE
8
Layer 1
10
42.139600
20
56.617400
11
42.139600
21
70.652100
0
LINE
8
Layer 1
10
28.104900
20
70.652100
11
42.139600
21
70.652100
0
LINE
8
Layer 1
10
42.139600
20
70.652100
11
42.139600
21
56.617400
0
LINE
8
Layer 1
10
42.139600
20
56.617400
11
28.104900
21
56.617400
0
LINE
8
Layer 1
10
28.104900
20
56.617400
11
28.104900
21
70.652100
0
LINE
8
Layer 1
10
14.070000
20
70.652100
11
28.104900
21
70.652100
0
LINE
8
Layer 1
10
28.104900
20
70.652100
11
28.104900
21
56.617400
0
LINE
8
Layer 1
10
28.104900
20
56.617400
11
14.070000
21
56.617400
0
LINE
8
Layer 1
10
14.070000
20
56.617400
11
14.070000
21
70.652100
0
LINE
8
Layer 1
10
56.174600
20
84.687100
11
70.209500
21
84.687100
0
LINE
8
Layer 1
10
70.209500
20
84.687100
11
70.209500
21
70.652100
0
LINE
8
Layer 1
10
70.209500
20
70.652100
11
56.174600
21
70.652100
0
LINE
8
Layer 1
10
56.174600
20
70.652100
11
56.174600
21
84.687100
0
LINE
8
Layer 1
10
0.035090
20
84.687100
11
14.070000
21
84.687100
0
LINE
8
Layer 1
10
14.070000
20
84.687100
11
14.070000
21
70.652100
0
LINE
8
Layer 1
10
14.070000
20
70.652100
11
0.035090
21
70.652100
0
LINE
8
Layer 1
10
0.035090
20
70.652100
11
0.035090
21
84.687100
0
LINE
8
Layer 1
10
56.174600
20
98.721900
11
70.209500
21
98.721900
0
LINE
8
Layer 1
10
70.209500
20
98.721900
11
70.209500
21
84.687100
0
LINE
8
Layer 1
10
70.209500
20
84.687100
11
56.174600
21
84.687100
0
LINE
8
Layer 1
10
56.174600
20
84.687100
11
56.174600
21
98.721900
0
LINE
8
Layer 1
10
0.035090
20
98.721900
11
14.070000
21
98.721900
0
LINE
8
Layer 1
10
14.070000
20
98.721900
11
14.070000
21
84.687100
0
LINE
8
Layer 1
10
14.070000
20
84.687100
11
0.035090
21
84.687100
0
LINE
8
Layer 1
10
0.035090
20
84.687100
11
0.035090
21
98.721900
0
LINE
8
Layer 1
10
56.174600
20
112.757000
11
70.209500
21
112.757000
0
LINE
8
Layer 1
10
70.209500
20
112.757000
11
70.209500
21
98.721900
0
LINE
8
Layer 1
10
70.209500
20
98.721900
11
56.174600
21
98.721900
0
LINE
8
Layer 1
10
56.174600
20
98.721900
11
56.174600
21
112.757000
0
LINE
8
Layer 1
10
0.035090
20
112.757000
11
14.070000
21
112.757000
0
LINE
8
Layer 1
10
14.070000
20
112.757000
11
14.070000
21
98.721900
0
LINE
8
Layer 1
10
14.070000
20
98.721900
11
0.035090
21
98.721900
0
LINE
8
Layer 1
10
0.035090
20
98.721900
11
0.035090
21
112.757000
0
LINE
8
Layer 1
10
42.139600
20
126.792000
11
56.174600
21
126.792000
0
LINE
8
Layer 1
10
56.174600
20
126.792000
11
56.174600
21
112.757000
0
LINE
8
Layer 1
10
56.174600
20
112.757000
11
42.139600
21
112.757000
0
LINE
8
Layer 1
10
42.139600
20
112.757000
11
42.139600
21
126.792000
0
LINE
8
Layer 1
10
28.104900
20
126.792000
11
42.139600
21
126.792000
0
LINE
8
Layer 1
10
42.139600
20
126.792000
11
42.139600
21
112.757000
0
LINE
8
Layer 1
10
42.139600
20
112.757000
11
28.104900
21
112.757000
0
LINE
8
Layer 1
10
28.104900
20
112.757000
11
28.104900
21
126.792000
0
LINE
8
Layer 1
10
14.070000
20
126.792000
11
28.104900
21
126.792000
0
LINE
8
Layer 1
10
28.104900
20
126.792000
11
28.104900
21
112.757000
0
LINE
8
Layer 1
10
28.104900
20
112.757000
11
14.070000
21
112.757000
0
LINE
8
Layer 1
10
14.070000
20
112.757000
11
14.070000
21
126.792000
0
LINE
8
Layer 1
10
128.314000
20
14.512700
11
142.349000
21
14.512700
0
LINE
8
Layer 1
10
142.349000
20
14.512700
11
142.349000
21
0.477756
0
LINE
8
Layer 1
10
142.349000
20
0.477756
11
128.314000
21
0.477756
0
LINE
8
Layer 1
10
128.314000
20
0.477756
11
128.314000
21
14.512700
0
LINE
8
Layer 1
10
114.279000
20
14.512700
11
128.314000
21
14.512700
0
LINE
8
Layer 1
10
128.314000
20
14.512700
11
128.314000
21
0.477756
0
LINE
8
Layer 1
10
128.314000
20
0.477756
11
114.279000
21
0.477756
0
LINE
8
Layer 1
10
114.279000
20
0.477756
11
114.279000
21
14.512700
0
LINE
8
Layer 1
10
100.244000
20
14.512700
11
114.279000
21
14.512700
0
LINE
8
Layer 1
10
114.279000
20
14.512700
11
114.279000
21
0.477756
0
LINE
8
Layer 1
10
114.279000
20
0.477756
11
100.244000
21
0.477756
0
LINE
8
Layer 1
10
100.244000
20
0.477756
11
100.244000
21
14.512700
0
LINE
8
Layer 1
10
142.349000
20
28.547600
11
156.384000
21
28.547600
0
LINE
8
Layer 1
10
156.384000
20
28.547600
11
156.384000
21
14.512700
0
LINE
8
Layer 1
10
156.384000
20
14.512700
11
142.349000
21
14.512700
0
LINE
8
Layer 1
10
142.349000
20
14.512700
11
142.349000
21
28.547600
0
LINE
8
Layer 1
10
142.349000
20
42.582400
11
156.384000
21
42.582400
0
LINE
8
Layer 1
10
156.384000
20
42.582400
11
156.384000
21
28.547600
0
LINE
8
Layer 1
10
156.384000
20
28.547600
11
142.349000
21
28.547600
0
LINE
8
Layer 1
10
142.349000
20
28.547600
11
142.349000
21
42.582400
0
LINE
8
Layer 1
10
142.349000
20
56.617400
11
156.384000
21
56.617400
0
LINE
8
Layer 1
10
156.384000
20
56.617400
11
156.384000
21
42.582400
0
LINE
8
Layer 1
10
156.384000
20
42.582400
11
142.349000
21
42.582400
0
LINE
8
Layer 1
10
142.349000
20
42.582400
11
142.349000
21
56.617400
0
LINE
8
Layer 1
10
128.314000
20
70.652100
11
142.349000
21
70.652100
0
LINE
8
Layer 1
10
142.349000
20
70.652100
11
142.349000
21
56.617400
0
LINE
8
Layer 1
10
142.349000
20
56.617400
11
128.314000
21
56.617400
0
LINE
8
Layer 1
10
128.314000
20
56.617400
11
128.314000
21
70.652100
0
LINE
8
Layer 1
10
114.279000
20
70.652100
11
128.314000
21
70.652100
0
LINE
8
Layer 1
10
128.314000
20
70.652100
11
128.314000
21
56.617400
0
LINE
8
Layer 1
10
128.314000
20
56.617400
11
114.279000
21
56.617400
0
LINE
8
Layer 1
10
114.279000
20
56.617400
11
114.279000
21
70.652100
0
LINE
8
Layer 1
10
100.244000
20
70.652100
11
114.279000
21
70.652100
0
LINE
8
Layer 1
10
114.279000
20
70.652100
11
114.279000
21
56.617400
0
LINE
8
Layer 1
10
114.279000
20
56.617400
11
100.244000
21
56.617400
0
LINE
8
Layer 1
10
100.244000
20
56.617400
11
100.244000
21
70.652100
0
LINE
8
Layer 1
10
86.209200
20
84.687100
11
100.244000
21
84.687100
0
LINE
8
Layer 1
10
100.244000
20
84.687100
11
100.244000
21
70.652100
0
LINE
8
Layer 1
10
100.244000
20
70.652100
11
86.209200
21
70.652100
0
LINE
8
Layer 1
10
86.209200
20
70.652100
11
86.209200
21
84.687100
0
LINE
8
Layer 1
10
86.209200
20
98.721900
11
100.244000
21
98.721900
0
LINE
8
Layer 1
10
100.244000
20
98.721900
11
100.244000
21
84.687100
0
LINE
8
Layer 1
10
100.244000
20
84.687100
11
86.209200
21
84.687100
0
LINE
8
Layer 1
10
86.209200
20
84.687100
11
86.209200
21
98.721900
0
LINE
8
Layer 1
10
86.209200
20
112.757000
11
100.244000
21
112.757000
0
LINE
8
Layer 1
10
100.244000
20
112.757000
11
100.244000
21
98.721900
0
LINE
8
Layer 1
10
100.244000
20
98.721900
11
86.209200
21
98.721900
0
LINE
8
Layer 1
10
86.209200
20
98.721900
11
86.209200
21
112.757000
0
LINE
8
Layer 1
10
128.314000
20
126.792000
11
142.349000
21
126.792000
0
LINE
8
Layer 1
10
142.349000
20
126.792000
11
142.349000
21
112.757000
0
LINE
8
Layer 1
10
142.349000
20
112.757000
11
128.314000
21
112.757000
0
LINE
8
Layer 1
10
128.314000
20
112.757000
11
128.314000
21
126.792000
0
LINE
8
Layer 1
10
114.279000
20
126.792000
11
128.314000
21
126.792000
0
LINE
8
Layer 1
10
128.314000
20
126.792000
11
128.314000
21
112.757000
0
LINE
8
Layer 1
10
128.314000
20
112.757000
11
114.279000
21
112.757000
0
LINE
8
Layer 1
10
114.279000
20
112.757000
11
114.279000
21
126.792000
0
LINE
8
Layer 1
10
100.244000
20
126.792000
11
114.279000
21
126.792000
0
LINE
8
Layer 1
10
114.279000
20
126.792000
11
114.279000
21
112.757000
0
LINE
8
Layer 1
10
114.279000
20
112.757000
11
100.244000
21
112.757000
0
LINE
8
Layer 1
10
100.244000
20
112.757000
11
100.244000
21
126.792000
0
LINE
8
Layer 1
10
200.453000
20
14.512700
11
214.488000
21
14.512700
0
LINE
8
Layer 1
10
214.488000
20
14.512700
11
214.488000
21
0.477756
0
LINE
8
Layer 1
10
214.488000
20
0.477756
11
200.453000
21
0.477756
0
LINE
8
Layer 1
10
200.453000
20
0.477756
11
200.453000
21
14.512700
0
LINE
8
Layer 1
10
186.418000
20
14.512700
11
200.453000
21
14.512700
0
LINE
8
Layer 1
10
200.453000
20
14.512700
11
200.453000
21
0.477756
0
LINE
8
Layer 1
10
200.453000
20
0.477756
11
186.418000
21
0.477756
0
LINE
8
Layer 1
10
186.418000
20
0.477756
11
186.418000
21
14.512700
0
LINE
8
Layer 1
10
172.383000
20
14.512700
11
186.418000
21
14.512700
0
LINE
8
Layer 1
10
186.418000
20
14.512700
11
186.418000
21
0.477756
0
LINE
8
Layer 1
10
186.418000
20
0.477756
11
172.383000
21
0.477756
0
LINE
8
Layer 1
10
172.383000
20
0.477756
11
172.383000
21
14.512700
0
LINE
8
Layer 1
10
214.488000
20
28.547600
11
228.523000
21
28.547600
0
LINE
8
Layer 1
10
228.523000
20
28.547600
11
228.523000
21
14.512700
0
LINE
8
Layer 1
10
228.523000
20
14.512700
11
214.488000
21
14.512700
0
LINE
8
Layer 1
10
214.488000
20
14.512700
11
214.488000
21
28.547600
0
LINE
8
Layer 1
10
214.488000
20
42.582400
11
228.523000
21
42.582400
0
LINE
8
Layer 1
10
228.523000
20
42.582400
11
228.523000
21
28.547600
0
LINE
8
Layer 1
10
228.523000
20
28.547600
11
214.488000
21
28.547600
0
LINE
8
Layer 1
10
214.488000
20
28.547600
11
214.488000
21
42.582400
0
LINE
8
Layer 1
10
214.488000
20
56.617400
11
228.523000
21
56.617400
0
LINE
8
Layer 1
10
228.523000
20
56.617400
11
228.523000
21
42.582400
0
LINE
8
Layer 1
10
228.523000
20
42.582400
11
214.488000
21
42.582400
0
LINE
8
Layer 1
10
214.488000
20
42.582400
11
214.488000
21
56.617400
0
LINE
8
Layer 1
10
200.453000
20
70.652100
11
214.488000
21
70.652100
0
LINE
8
Layer 1
10
214.488000
20
70.652100
11
214.488000
21
56.617400
0
LINE
8
Layer 1
10
214.488000
20
56.617400
11
200.453000
21
56.617400
0
LINE
8
Layer 1
10
200.453000
20
56.617400
11
200.453000
21
70.652100
0
LINE
8
Layer 1
10
186.418000
20
70.652100
11
200.453000
21
70.652100
0
LINE
8
Layer 1
10
200.453000
20
70.652100
11
200.453000
21
56.617400
0
LINE
8
Layer 1
10
200.453000
20
56.617400
11
186.418000
21
56.617400
0
LINE
8
Layer 1
10
186.418000
20
56.617400
11
186.418000
21
70.652100
0
LINE
8
Layer 1
10
172.383000
20
70.652100
11
186.418000
21
70.652100
0
LINE
8
Layer 1
10
186.418000
20
70.652100
11
186.418000
21
56.617400
0
LINE
8
Layer 1
10
186.418000
20
56.617400
11
172.383000
21
56.617400
0
LINE
8
Layer 1
10
172.383000
20
56.617400
11
172.383000
21
70.652100
0
LINE
8
Layer 1
10
214.488000
20
84.687100
11
228.523000
21
84.687100
0
LINE
8
Layer 1
10
228.523000
20
84.687100
11
228.523000
21
70.652100
0
LINE
8
Layer 1
10
228.523000
20
70.652100
11
214.488000
21
70.652100
0
LINE
8
Layer 1
10
214.488000
20
70.652100
11
214.488000
21
84.687100
0
LINE
8
Layer 1
10
214.488000
20
98.721900
11
228.523000
21
98.721900
0
LINE
8
Layer 1
10
228.523000
20
98.721900
11
228.523000
21
84.687100
0
LINE
8
Layer 1
10
228.523000
20
84.687100
11
214.488000
21
84.687100
0
LINE
8
Layer 1
10
214.488000
20
84.687100
11
214.488000
21
98.721900
0
LINE
8
Layer 1
10
214.488000
20
112.757000
11
228.523000
21
112.757000
0
LINE
8
Layer 1
10
228.523000
20
112.757000
11
228.523000
21
98.721900
0
LINE
8
Layer 1
10
228.523000
20
98.721900
11
214.488000
21
98.721900
0
LINE
8
Layer 1
10
214.488000
20
98.721900
11
214.488000
21
112.757000
0
LINE
8
Layer 1
10
200.453000
20
126.792000
11
214.488000
21
126.792000
0
LINE
8
Layer 1
10
214.488000
20
126.792000
11
214.488000
21
112.757000
0
LINE
8
Layer 1
10
214.488000
20
112.757000
11
200.453000
21
112.757000
0
LINE
8
Layer 1
10
200.453000
20
112.757000
11
200.453000
21
126.792000
0
LINE
8
Layer 1
10
186.418000
20
126.792000
11
200.453000
21
126.792000
0
LINE
8
Layer 1
10
200.453000
20
126.792000
11
200.453000
21
112.757000
0
LINE
8
Layer 1
10
200.453000
20
112.757000
11
186.418000
21
112.757000
0
LINE
8
Layer 1
10
186.418000
20
112.757000
11
186.418000
21
126.792000
0
LINE
8
Layer 1
10
172.383000
20
126.792000
11
186.418000
21
126.792000
0
LINE
8
Layer 1
10
186.418000
20
126.792000
11
186.418000
21
112.757000
0
LINE
8
Layer 1
10
186.418000
20
112.757000
11
172.383000
21
112.757000
0
LINE
8
Layer 1
10
172.383000
20
112.757000
11
172.383000
21
126.792000
 0 
ENDSEC
 0 
EOF