999
"DXF R12 Output" (www.mydxf.blogspot.com)
 0 
SECTION
 2 
HEADER
 9 
$ACADVER
 1 
AC1009
 9 
$EXTMIN
 10 
 0 
 20 
 0 
 9 
$EXTMAX
 10 
 8.5 
 20 
 11 
 0 
ENDSEC
 0 
SECTION
 2 
ENTITIES
0
LINE
8
Layer 1
10
358.158000
20
117.368000
11
477.528000
21
117.368000
0
LINE
8
Layer 1
10
477.528000
20
117.368000
11
477.528000
21
-2.001500
0
LINE
8
Layer 1
10
477.528000
20
-2.001500
11
358.158000
21
-2.001500
0
LINE
8
Layer 1
10
358.158000
20
-2.001500
11
358.158000
21
117.368000
0
LINE
8
Layer 1
10
238.789000
20
117.368000
11
358.158000
21
117.368000
0
LINE
8
Layer 1
10
358.158000
20
117.368000
11
358.158000
21
-2.001500
0
LINE
8
Layer 1
10
358.158000
20
-2.001500
11
238.789000
21
-2.001500
0
LINE
8
Layer 1
10
238.789000
20
-2.001500
11
238.789000
21
117.368000
0
LINE
8
Layer 1
10
119.420000
20
117.368000
11
238.789000
21
117.368000
0
LINE
8
Layer 1
10
238.789000
20
117.368000
11
238.789000
21
-2.001500
0
LINE
8
Layer 1
10
238.789000
20
-2.001500
11
119.420000
21
-2.001500
0
LINE
8
Layer 1
10
119.420000
20
-2.001500
11
119.420000
21
117.368000
0
LINE
8
Layer 1
10
477.528000
20
236.737000
11
596.897000
21
236.737000
0
LINE
8
Layer 1
10
596.897000
20
236.737000
11
596.897000
21
117.368000
0
LINE
8
Layer 1
10
596.897000
20
117.368000
11
477.528000
21
117.368000
0
LINE
8
Layer 1
10
477.528000
20
117.368000
11
477.528000
21
236.737000
0
LINE
8
Layer 1
10
0.050504
20
236.737000
11
119.420000
21
236.737000
0
LINE
8
Layer 1
10
119.420000
20
236.737000
11
119.420000
21
117.368000
0
LINE
8
Layer 1
10
119.420000
20
117.368000
11
0.050504
21
117.368000
0
LINE
8
Layer 1
10
0.050504
20
117.368000
11
0.050504
21
236.737000
0
LINE
8
Layer 1
10
-0.000004
20
117.340000
11
119.369000
21
117.340000
0
LINE
8
Layer 1
10
119.369000
20
117.340000
11
119.369000
21
-2.029300
0
LINE
8
Layer 1
10
119.369000
20
-2.029300
11
-0.000004
21
-2.029300
0
LINE
8
Layer 1
10
-0.000004
20
-2.029300
11
-0.000004
21
117.340000
0
LINE
8
Layer 1
10
477.528000
20
356.106000
11
596.897000
21
356.106000
0
LINE
8
Layer 1
10
596.897000
20
356.106000
11
596.897000
21
236.737000
0
LINE
8
Layer 1
10
596.897000
20
236.737000
11
477.528000
21
236.737000
0
LINE
8
Layer 1
10
477.528000
20
236.737000
11
477.528000
21
356.106000
0
LINE
8
Layer 1
10
0.050504
20
356.106000
11
119.420000
21
356.106000
0
LINE
8
Layer 1
10
119.420000
20
356.106000
11
119.420000
21
236.737000
0
LINE
8
Layer 1
10
119.420000
20
236.737000
11
0.050504
21
236.737000
0
LINE
8
Layer 1
10
0.050504
20
236.737000
11
0.050504
21
356.106000
0
LINE
8
Layer 1
10
477.528000
20
475.476000
11
596.897000
21
475.476000
0
LINE
8
Layer 1
10
596.897000
20
475.476000
11
596.897000
21
356.106000
0
LINE
8
Layer 1
10
596.897000
20
356.106000
11
477.528000
21
356.106000
0
LINE
8
Layer 1
10
477.528000
20
356.106000
11
477.528000
21
475.476000
0
LINE
8
Layer 1
10
0.050504
20
475.476000
11
119.420000
21
475.476000
0
LINE
8
Layer 1
10
119.420000
20
475.476000
11
119.420000
21
356.106000
0
LINE
8
Layer 1
10
119.420000
20
356.106000
11
0.050504
21
356.106000
0
LINE
8
Layer 1
10
0.050504
20
356.106000
11
0.050504
21
475.476000
0
LINE
8
Layer 1
10
477.528000
20
714.214000
11
596.897000
21
714.214000
0
LINE
8
Layer 1
10
596.897000
20
714.214000
11
596.897000
21
594.845000
0
LINE
8
Layer 1
10
596.897000
20
594.845000
11
477.528000
21
594.845000
0
LINE
8
Layer 1
10
477.528000
20
594.845000
11
477.528000
21
714.214000
0
LINE
8
Layer 1
10
0.050504
20
714.214000
11
119.420000
21
714.214000
0
LINE
8
Layer 1
10
119.420000
20
714.214000
11
119.420000
21
594.845000
0
LINE
8
Layer 1
10
119.420000
20
594.845000
11
0.050504
21
594.845000
0
LINE
8
Layer 1
10
0.050504
20
594.845000
11
0.050504
21
714.214000
0
LINE
8
Layer 1
10
477.528000
20
833.584000
11
596.897000
21
833.584000
0
LINE
8
Layer 1
10
596.897000
20
833.584000
11
596.897000
21
714.214000
0
LINE
8
Layer 1
10
596.897000
20
714.214000
11
477.528000
21
714.214000
0
LINE
8
Layer 1
10
477.528000
20
714.214000
11
477.528000
21
833.584000
0
LINE
8
Layer 1
10
0.050504
20
833.584000
11
119.420000
21
833.584000
0
LINE
8
Layer 1
10
119.420000
20
833.584000
11
119.420000
21
714.214000
0
LINE
8
Layer 1
10
119.420000
20
714.214000
11
0.050504
21
714.214000
0
LINE
8
Layer 1
10
0.050504
20
714.214000
11
0.050504
21
833.584000
0
LINE
8
Layer 1
10
477.528000
20
952.953000
11
596.897000
21
952.953000
0
LINE
8
Layer 1
10
596.897000
20
952.953000
11
596.897000
21
833.584000
0
LINE
8
Layer 1
10
596.897000
20
833.584000
11
477.528000
21
833.584000
0
LINE
8
Layer 1
10
477.528000
20
833.584000
11
477.528000
21
952.953000
0
LINE
8
Layer 1
10
0.050504
20
952.953000
11
119.420000
21
952.953000
0
LINE
8
Layer 1
10
119.420000
20
952.953000
11
119.420000
21
833.584000
0
LINE
8
Layer 1
10
119.420000
20
833.584000
11
0.050504
21
833.584000
0
LINE
8
Layer 1
10
0.050504
20
833.584000
11
0.050504
21
952.953000
0
LINE
8
Layer 1
10
358.158000
20
1072.320000
11
477.528000
21
1072.320000
0
LINE
8
Layer 1
10
477.528000
20
1072.320000
11
477.528000
21
952.953000
0
LINE
8
Layer 1
10
477.528000
20
952.953000
11
358.158000
21
952.953000
0
LINE
8
Layer 1
10
358.158000
20
952.953000
11
358.158000
21
1072.320000
0
LINE
8
Layer 1
10
238.789000
20
1072.320000
11
358.158000
21
1072.320000
0
LINE
8
Layer 1
10
358.158000
20
1072.320000
11
358.158000
21
952.953000
0
LINE
8
Layer 1
10
358.158000
20
952.953000
11
238.789000
21
952.953000
0
LINE
8
Layer 1
10
238.789000
20
952.953000
11
238.789000
21
1072.320000
0
LINE
8
Layer 1
10
119.420000
20
1072.320000
11
238.789000
21
1072.320000
0
LINE
8
Layer 1
10
238.789000
20
1072.320000
11
238.789000
21
952.953000
0
LINE
8
Layer 1
10
238.789000
20
952.953000
11
119.420000
21
952.953000
0
LINE
8
Layer 1
10
119.420000
20
952.953000
11
119.420000
21
1072.320000
0
LINE
8
Layer 1
10
0.079162
20
1072.360000
11
119.448000
21
1072.360000
0
LINE
8
Layer 1
10
119.448000
20
1072.360000
11
119.448000
21
952.989000
0
LINE
8
Layer 1
10
119.448000
20
952.989000
11
0.079162
21
952.989000
0
LINE
8
Layer 1
10
0.079162
20
952.989000
11
0.079162
21
1072.360000
0
LINE
8
Layer 1
10
1091.090000
20
117.368000
11
1210.460000
21
117.368000
0
LINE
8
Layer 1
10
1210.460000
20
117.368000
11
1210.460000
21
-2.001500
0
LINE
8
Layer 1
10
1210.460000
20
-2.001500
11
1091.090000
21
-2.001500
0
LINE
8
Layer 1
10
1091.090000
20
-2.001500
11
1091.090000
21
117.368000
0
LINE
8
Layer 1
10
971.717000
20
117.368000
11
1091.090000
21
117.368000
0
LINE
8
Layer 1
10
1091.090000
20
117.368000
11
1091.090000
21
-2.001500
0
LINE
8
Layer 1
10
1091.090000
20
-2.001500
11
971.717000
21
-2.001500
0
LINE
8
Layer 1
10
971.717000
20
-2.001500
11
971.717000
21
117.368000
0
LINE
8
Layer 1
10
852.347000
20
117.368000
11
971.717000
21
117.368000
0
LINE
8
Layer 1
10
971.717000
20
117.368000
11
971.717000
21
-2.001500
0
LINE
8
Layer 1
10
971.717000
20
-2.001500
11
852.347000
21
-2.001500
0
LINE
8
Layer 1
10
852.347000
20
-2.001500
11
852.347000
21
117.368000
0
LINE
8
Layer 1
10
1210.460000
20
236.737000
11
1329.820000
21
236.737000
0
LINE
8
Layer 1
10
1329.820000
20
236.737000
11
1329.820000
21
117.368000
0
LINE
8
Layer 1
10
1329.820000
20
117.368000
11
1210.460000
21
117.368000
0
LINE
8
Layer 1
10
1210.460000
20
117.368000
11
1210.460000
21
236.737000
0
LINE
8
Layer 1
10
732.978000
20
236.737000
11
852.347000
21
236.737000
0
LINE
8
Layer 1
10
852.347000
20
236.737000
11
852.347000
21
117.368000
0
LINE
8
Layer 1
10
852.347000
20
117.368000
11
732.978000
21
117.368000
0
LINE
8
Layer 1
10
732.978000
20
117.368000
11
732.978000
21
236.737000
0
LINE
8
Layer 1
10
1210.460000
20
356.106000
11
1329.820000
21
356.106000
0
LINE
8
Layer 1
10
1329.820000
20
356.106000
11
1329.820000
21
236.737000
0
LINE
8
Layer 1
10
1329.820000
20
236.737000
11
1210.460000
21
236.737000
0
LINE
8
Layer 1
10
1210.460000
20
236.737000
11
1210.460000
21
356.106000
0
LINE
8
Layer 1
10
732.978000
20
356.106000
11
852.347000
21
356.106000
0
LINE
8
Layer 1
10
852.347000
20
356.106000
11
852.347000
21
236.737000
0
LINE
8
Layer 1
10
852.347000
20
236.737000
11
732.978000
21
236.737000
0
LINE
8
Layer 1
10
732.978000
20
236.737000
11
732.978000
21
356.106000
0
LINE
8
Layer 1
10
1210.460000
20
475.476000
11
1329.820000
21
475.476000
0
LINE
8
Layer 1
10
1329.820000
20
475.476000
11
1329.820000
21
356.106000
0
LINE
8
Layer 1
10
1329.820000
20
356.106000
11
1210.460000
21
356.106000
0
LINE
8
Layer 1
10
1210.460000
20
356.106000
11
1210.460000
21
475.476000
0
LINE
8
Layer 1
10
732.978000
20
475.476000
11
852.347000
21
475.476000
0
LINE
8
Layer 1
10
852.347000
20
475.476000
11
852.347000
21
356.106000
0
LINE
8
Layer 1
10
852.347000
20
356.106000
11
732.978000
21
356.106000
0
LINE
8
Layer 1
10
732.978000
20
356.106000
11
732.978000
21
475.476000
0
LINE
8
Layer 1
10
1824.010000
20
117.368000
11
1943.380000
21
117.368000
0
LINE
8
Layer 1
10
1943.380000
20
117.368000
11
1943.380000
21
-2.001500
0
LINE
8
Layer 1
10
1943.380000
20
-2.001500
11
1824.010000
21
-2.001500
0
LINE
8
Layer 1
10
1824.010000
20
-2.001500
11
1824.010000
21
117.368000
0
LINE
8
Layer 1
10
1704.640000
20
117.368000
11
1824.010000
21
117.368000
0
LINE
8
Layer 1
10
1824.010000
20
117.368000
11
1824.010000
21
-2.001500
0
LINE
8
Layer 1
10
1824.010000
20
-2.001500
11
1704.640000
21
-2.001500
0
LINE
8
Layer 1
10
1704.640000
20
-2.001500
11
1704.640000
21
117.368000
0
LINE
8
Layer 1
10
1585.270000
20
117.368000
11
1704.640000
21
117.368000
0
LINE
8
Layer 1
10
1704.640000
20
117.368000
11
1704.640000
21
-2.001500
0
LINE
8
Layer 1
10
1704.640000
20
-2.001500
11
1585.270000
21
-2.001500
0
LINE
8
Layer 1
10
1585.270000
20
-2.001500
11
1585.270000
21
117.368000
0
LINE
8
Layer 1
10
1943.380000
20
236.737000
11
2062.750000
21
236.737000
0
LINE
8
Layer 1
10
2062.750000
20
236.737000
11
2062.750000
21
117.368000
0
LINE
8
Layer 1
10
2062.750000
20
117.368000
11
1943.380000
21
117.368000
0
LINE
8
Layer 1
10
1943.380000
20
117.368000
11
1943.380000
21
236.737000
0
LINE
8
Layer 1
10
1465.910000
20
236.737000
11
1585.270000
21
236.737000
0
LINE
8
Layer 1
10
1585.270000
20
236.737000
11
1585.270000
21
117.368000
0
LINE
8
Layer 1
10
1585.270000
20
117.368000
11
1465.910000
21
117.368000
0
LINE
8
Layer 1
10
1465.910000
20
117.368000
11
1465.910000
21
236.737000
0
LINE
8
Layer 1
10
1943.380000
20
356.106000
11
2062.750000
21
356.106000
0
LINE
8
Layer 1
10
2062.750000
20
356.106000
11
2062.750000
21
236.737000
0
LINE
8
Layer 1
10
2062.750000
20
236.737000
11
1943.380000
21
236.737000
0
LINE
8
Layer 1
10
1943.380000
20
236.737000
11
1943.380000
21
356.106000
0
LINE
8
Layer 1
10
1465.910000
20
356.106000
11
1585.270000
21
356.106000
0
LINE
8
Layer 1
10
1585.270000
20
356.106000
11
1585.270000
21
236.737000
0
LINE
8
Layer 1
10
1585.270000
20
236.737000
11
1465.910000
21
236.737000
0
LINE
8
Layer 1
10
1465.910000
20
236.737000
11
1465.910000
21
356.106000
0
LINE
8
Layer 1
10
1943.380000
20
475.476000
11
2062.750000
21
475.476000
0
LINE
8
Layer 1
10
2062.750000
20
475.476000
11
2062.750000
21
356.106000
0
LINE
8
Layer 1
10
2062.750000
20
356.106000
11
1943.380000
21
356.106000
0
LINE
8
Layer 1
10
1943.380000
20
356.106000
11
1943.380000
21
475.476000
0
LINE
8
Layer 1
10
1465.910000
20
475.476000
11
1585.270000
21
475.476000
0
LINE
8
Layer 1
10
1585.270000
20
475.476000
11
1585.270000
21
356.106000
0
LINE
8
Layer 1
10
1585.270000
20
356.106000
11
1465.910000
21
356.106000
0
LINE
8
Layer 1
10
1465.910000
20
356.106000
11
1465.910000
21
475.476000
0
LINE
8
Layer 1
10
1824.010000
20
594.845000
11
1943.380000
21
594.845000
0
LINE
8
Layer 1
10
1943.380000
20
594.845000
11
1943.380000
21
475.476000
0
LINE
8
Layer 1
10
1943.380000
20
475.476000
11
1824.010000
21
475.476000
0
LINE
8
Layer 1
10
1824.010000
20
475.476000
11
1824.010000
21
594.845000
0
LINE
8
Layer 1
10
1704.640000
20
594.845000
11
1824.010000
21
594.845000
0
LINE
8
Layer 1
10
1824.010000
20
594.845000
11
1824.010000
21
475.476000
0
LINE
8
Layer 1
10
1824.010000
20
475.476000
11
1704.640000
21
475.476000
0
LINE
8
Layer 1
10
1704.640000
20
475.476000
11
1704.640000
21
594.845000
0
LINE
8
Layer 1
10
1585.270000
20
594.845000
11
1704.640000
21
594.845000
0
LINE
8
Layer 1
10
1704.640000
20
594.845000
11
1704.640000
21
475.476000
0
LINE
8
Layer 1
10
1704.640000
20
475.476000
11
1585.270000
21
475.476000
0
LINE
8
Layer 1
10
1585.270000
20
475.476000
11
1585.270000
21
594.845000
 0 
ENDSEC
 0 
EOF